<svg xmlns="http://www.w3.org/2000/svg" viewBox="0 0 512 512">
  <defs>
    <linearGradient id="grad" x1="0%" y1="0%" x2="100%" y2="100%">
      <stop offset="0%" style="stop-color:#00d4aa;stop-opacity:1" />
      <stop offset="100%" style="stop-color:#7c3aed;stop-opacity:1" />
    </linearGradient>
  </defs>
  <circle cx="256" cy="256" r="240" fill="#0a0e17" stroke="url(#grad)" stroke-width="16"/>
  <path d="M256 80 L380 170 L380 290 L256 380 L132 290 L132 170 Z" fill="none" stroke="url(#grad)" stroke-width="12"/>
  <circle cx="256" cy="170" r="20" fill="#00d4aa"/>
  <circle cx="340" cy="220" r="20" fill="#00d4aa"/>
  <circle cx="340" cy="300" r="20" fill="#7c3aed"/>
  <circle cx="256" cy="350" r="20" fill="#7c3aed"/>
  <circle cx="172" cy="300" r="20" fill="#00d4aa"/>
  <circle cx="172" cy="220" r="20" fill="#00d4aa"/>
  <line x1="256" y1="170" x2="340" y2="220" stroke="#00d4aa" stroke-width="4"/>
  <line x1="340" y1="220" x2="340" y2="300" stroke="#00d4aa" stroke-width="4"/>
  <line x1="340" y1="300" x2="256" y2="350" stroke="#7c3aed" stroke-width="4"/>
  <line x1="256" y1="350" x2="172" y2="300" stroke="#7c3aed" stroke-width="4"/>
  <line x1="172" y1="300" x2="172" y2="220" stroke="#00d4aa" stroke-width="4"/>
  <line x1="172" y1="220" x2="256" y2="170" stroke="#00d4aa" stroke-width="4"/>
  <text x="256" y="270" text-anchor="middle" font-family="Arial" font-size="60" font-weight="bold" fill="white">PM</text>
</svg>
