<svg width="18" height="8" viewBox="0 0 18 8" fill="none" xmlns="http://www.w3.org/2000/svg">
    <path
        d="M3.17 7.99H1.96C1.85 7.99 1.79 7.93 1.79 7.82V2.69L0.91 3.33C0.82 3.39 0.73 3.38 0.66 3.28L0.1 2.4C0.04 2.31 0.07 2.23 0.15 2.16L1.89 0.92C1.96 0.869999 2.03 0.85 2.11 0.85H3.17C3.28 0.85 3.34 0.909999 3.34 1.03V7.82C3.34 7.93 3.28 7.99 3.17 7.99ZM5.09297 0.85H10.353C10.463 0.85 10.523 0.909999 10.523 1.03V2.17C10.523 2.28 10.463 2.34 10.353 2.34H8.52297V7.82C8.52297 7.94 8.46297 8 8.35297 8H7.09297C6.98297 8 6.92297 7.94 6.92297 7.82V2.34H5.09297C4.97297 2.34 4.91297 2.28 4.91297 2.17V1.03C4.91297 0.909999 4.97297 0.85 5.09297 0.85ZM17.2223 2.87C17.2223 3.46 16.9823 3.92 16.5323 4.19C17.1823 4.46 17.5223 5.01 17.5223 5.79C17.5223 7.17 16.6323 8 15.0723 8H12.3223C12.2023 8 12.1423 7.94 12.1423 7.82V1.03C12.1423 0.909999 12.2023 0.85 12.3223 0.85H15.0523C16.4223 0.85 17.2223 1.59 17.2223 2.87ZM13.7523 6.58H14.9723C15.5123 6.58 15.8823 6.32 15.8823 5.74C15.8823 5.26 15.6023 4.93 14.9323 4.93H13.7523V6.58ZM15.5823 2.94C15.5823 2.48 15.3023 2.24 14.8323 2.24H13.7523V3.64H14.8323C15.3023 3.64 15.5823 3.43 15.5823 2.94Z"
        fill="url(#paint0_linear_36428_2248)" />
    <defs>
        <linearGradient id="paint0_linear_36428_2248" x1="19.5" y1="-3" x2="19.5" y2="8"
            gradientUnits="userSpaceOnUse">
            <stop stop-color="#13D5FF" />
            <stop offset="1" stop-color="#0085FF" />
        </linearGradient>
    </defs>
</svg>