<svg width="12" height="12" viewBox="0 0 12 12" fill="none" xmlns="http://www.w3.org/2000/svg">
<path d="M2.82 0.636C2.82 0.491999 2.748 0.42 2.604 0.42H1.104C0.96 0.42 0.888 0.491999 0.888 0.636V8.784C0.888 8.928 0.96 9 1.104 9H2.604C2.748 9 2.82 8.928 2.82 8.784V0.636ZM7.75913 9C9.67913 9 11.1551 8.172 11.1551 5.676V3.768C11.1551 1.284 9.67913 0.42 7.75913 0.42H4.80713C4.66313 0.42 4.59113 0.491999 4.59113 0.636V8.784C4.59113 8.928 4.66313 9 4.80713 9H7.75913ZM6.52313 2.22H7.78313C8.70713 2.22 9.17513 2.676 9.17513 3.672V5.76C9.17513 6.756 8.70713 7.188 7.78313 7.188H6.52313V2.22Z" fill="url(#paint0_linear_13702_2776)"/>
<defs>
<linearGradient id="paint0_linear_13702_2776" x1="6.5" y1="1" x2="6.5" y2="9" gradientUnits="userSpaceOnUse">
<stop stop-color="#00B2FF"/>
<stop offset="1" stop-color="#0085FF"/>
</linearGradient>
</defs>
</svg>
