<svg xmlns="http://www.w3.org/2000/svg" width="15" height="15" viewBox="0 0 15 15" fill="none">
    <g clip-path="url(#clip0_35268_1070)">
        <path
            d="M5.15167 4.58745L1.16417 5.16558L1.09354 5.17995C0.98663 5.20833 0.889165 5.26458 0.8111 5.34295C0.733036 5.42132 0.67717 5.51901 0.649207 5.62603C0.621243 5.73305 0.622185 5.84558 0.651935 5.95212C0.681685 6.05866 0.739178 6.1554 0.818543 6.23245L3.70729 9.04433L3.02604 13.0162L3.01792 13.085C3.01137 13.1955 3.03433 13.3059 3.08445 13.4046C3.13456 13.5034 3.21003 13.5871 3.30313 13.6471C3.39622 13.7072 3.5036 13.7414 3.61426 13.7463C3.72492 13.7512 3.8349 13.7265 3.93292 13.675L7.49917 11.8L11.0573 13.675L11.1198 13.7037C11.223 13.7443 11.3351 13.7568 11.4446 13.7398C11.5542 13.7228 11.6573 13.677 11.7433 13.607C11.8293 13.537 11.8951 13.4454 11.9341 13.3416C11.973 13.2378 11.9836 13.1255 11.9648 13.0162L11.2829 9.04433L14.1729 6.23183L14.2217 6.1787C14.2913 6.09293 14.337 5.99023 14.354 5.88107C14.371 5.77191 14.3588 5.66019 14.3186 5.55728C14.2784 5.45438 14.2116 5.36397 14.1251 5.29527C14.0386 5.22657 13.9354 5.18204 13.826 5.1662L9.83854 4.58745L8.05604 0.974952C8.00447 0.870286 7.92462 0.782148 7.82554 0.720517C7.72646 0.658885 7.6121 0.626221 7.49542 0.626221C7.37873 0.626221 7.26438 0.658885 7.1653 0.720517C7.06622 0.782148 6.98637 0.870286 6.93479 0.974952L5.15167 4.58745Z"
            fill="url(#paint0_linear_35268_1070)" />
    </g>
    <defs>
        <linearGradient id="paint0_linear_35268_1070" x1="7.49518" y1="0.626221" x2="7.49518"
            y2="13.7472" gradientUnits="userSpaceOnUse">
            <stop stop-color="#13D5FF" />
            <stop offset="1" stop-color="#0085FF" />
        </linearGradient>
        <clipPath id="clip0_35268_1070">
            <rect width="15" height="15" fill="white" />
        </clipPath>
    </defs>
</svg>