<svg width="14" height="14" viewBox="0 0 14 14" fill="none" xmlns="http://www.w3.org/2000/svg">
<path d="M6.99992 5.25C9.57725 5.25 11.6666 4.4665 11.6666 3.5C11.6666 2.5335 9.57725 1.75 6.99992 1.75C4.42259 1.75 2.33325 2.5335 2.33325 3.5C2.33325 4.4665 4.42259 5.25 6.99992 5.25Z" stroke="#35648E" stroke-width="1.5" stroke-linecap="round" stroke-linejoin="round"/>
<path d="M2.33325 3.5V7C2.33325 7.96658 4.42275 8.75 6.99992 8.75C7.64519 8.75187 8.28949 8.69977 8.92608 8.59425M11.6666 7V3.5" stroke="#35648E" stroke-width="1.5" stroke-linecap="round" stroke-linejoin="round"/>
<path d="M2.33325 7V10.5C2.33325 11.4328 4.27867 12.1946 6.73042 12.2471M11.6666 8.16667V7M8.16658 11.0833H12.2499M12.2499 11.0833L10.4999 9.33333M12.2499 11.0833L10.4999 12.8333" stroke="#35648E" stroke-width="1.5" stroke-linecap="round" stroke-linejoin="round"/>
</svg>
