<svg width="16" height="16" viewBox="0 0 16 16" fill="none" xmlns="http://www.w3.org/2000/svg">
    <g clip-path="url(#clip0_22168_13435)">
        <path
            d="M4.66646 8L7.99979 11.3333L6.99979 12.3333C6.78224 12.5581 6.52213 12.7373 6.23463 12.8605C5.94713 12.9837 5.63798 13.0484 5.3252 13.051C5.01242 13.0535 4.70226 12.9938 4.4128 12.8753C4.12334 12.7567 3.86035 12.5818 3.63918 12.3606C3.418 12.1394 3.24305 11.8765 3.12453 11.587C3.006 11.2975 2.94627 10.9874 2.94881 10.6746C2.95135 10.3618 3.01611 10.0527 3.13932 9.76516C3.26253 9.47766 3.44172 9.21756 3.66646 9L4.66646 8Z"
            stroke="url(#paint0_linear_22168_13435)" stroke-width="1.5" stroke-linecap="round"
            stroke-linejoin="round" />
        <path
            d="M11.3333 8.00004L8 4.66671L9 3.6667C9.21756 3.44197 9.47766 3.26277 9.76516 3.13956C10.0527 3.01635 10.3618 2.95159 10.6746 2.94905C10.9874 2.94651 11.2975 3.00625 11.587 3.12477C11.8765 3.2433 12.1394 3.41825 12.3606 3.63942C12.5818 3.8606 12.7567 4.12358 12.8753 4.41304C12.9938 4.70251 13.0535 5.01267 13.051 5.32545C13.0484 5.63823 12.9837 5.94737 12.8605 6.23487C12.7373 6.52238 12.5581 6.78248 12.3333 7.00004L11.3333 8.00004Z"
            stroke="url(#paint1_linear_22168_13435)" stroke-width="1.5" stroke-linecap="round"
            stroke-linejoin="round" />
        <path d="M2 13.9999L3.66667 12.3333" stroke="url(#paint2_linear_22168_13435)"
            stroke-width="1.5" stroke-linecap="round" stroke-linejoin="round" />
        <path d="M12.3335 3.66667L14.0002 2" stroke="url(#paint3_linear_22168_13435)"
            stroke-width="1.5" stroke-linecap="round" stroke-linejoin="round" />
        <path d="M6.66683 7.33325L5.3335 8.66659" stroke="url(#paint4_linear_22168_13435)"
            stroke-width="1.5" stroke-linecap="round" stroke-linejoin="round" />
        <path d="M8.66683 9.33325L7.3335 10.6666" stroke="url(#paint5_linear_22168_13435)"
            stroke-width="1.5" stroke-linecap="round" stroke-linejoin="round" />
    </g>
    <defs>
        <linearGradient id="paint0_linear_22168_13435" x1="5.47426" y1="8" x2="5.47426" y2="13.0511"
            gradientUnits="userSpaceOnUse">
            <stop stop-color="#13D5FF" />
            <stop offset="1" stop-color="#0085FF" />
        </linearGradient>
        <linearGradient id="paint1_linear_22168_13435" x1="10.5255" y1="2.94897" x2="10.5255"
            y2="8.00004" gradientUnits="userSpaceOnUse">
            <stop stop-color="#13D5FF" />
            <stop offset="1" stop-color="#0085FF" />
        </linearGradient>
        <linearGradient id="paint2_linear_22168_13435" x1="2.83333" y1="12.3333" x2="2.83333"
            y2="13.9999" gradientUnits="userSpaceOnUse">
            <stop stop-color="#13D5FF" />
            <stop offset="1" stop-color="#0085FF" />
        </linearGradient>
        <linearGradient id="paint3_linear_22168_13435" x1="13.1668" y1="2" x2="13.1668" y2="3.66667"
            gradientUnits="userSpaceOnUse">
            <stop stop-color="#13D5FF" />
            <stop offset="1" stop-color="#0085FF" />
        </linearGradient>
        <linearGradient id="paint4_linear_22168_13435" x1="6.00016" y1="7.33325" x2="6.00016"
            y2="8.66659" gradientUnits="userSpaceOnUse">
            <stop stop-color="#13D5FF" />
            <stop offset="1" stop-color="#0085FF" />
        </linearGradient>
        <linearGradient id="paint5_linear_22168_13435" x1="8.00016" y1="9.33325" x2="8.00016"
            y2="10.6666" gradientUnits="userSpaceOnUse">
            <stop stop-color="#13D5FF" />
            <stop offset="1" stop-color="#0085FF" />
        </linearGradient>
        <clipPath id="clip0_22168_13435">
            <rect width="16" height="16" fill="white" />
        </clipPath>
    </defs>
</svg>
    