<svg width="15" height="15" viewBox="0 0 15 15" fill="none" xmlns="http://www.w3.org/2000/svg">
<path d="M7.5 10C8.88071 10 10 8.88071 10 7.5C10 6.11929 8.88071 5 7.5 5C6.11929 5 5 6.11929 5 7.5C5 8.88071 6.11929 10 7.5 10Z" stroke="white" stroke-linecap="round" stroke-linejoin="round"/>
<path d="M3.9375 11.0625L3.5 11.5M1.875 7.5H2.5H1.875ZM7.5 1.875V2.5V1.875ZM12.5 7.5H13.125H12.5ZM7.5 12.5V13.125V12.5ZM3.5 3.5L3.9375 3.9375L3.5 3.5ZM11.5 3.5L11.0625 3.9375L11.5 3.5ZM11.0625 11.0625L11.5 11.5L11.0625 11.0625Z" stroke="white" stroke-linecap="round" stroke-linejoin="round"/>
</svg>
