<svg width="30" height="30" viewBox="0 0 30 30" fill="none" xmlns="http://www.w3.org/2000/svg">
<path d="M8.75 25H21.25" stroke="url(#paint0_linear_31814_7122)" stroke-width="2.5" stroke-linecap="round" stroke-linejoin="round"/>
<path d="M7.5 7.5L15 6.25L22.5 7.5" stroke="url(#paint1_linear_31814_7122)" stroke-width="2.5" stroke-linecap="round" stroke-linejoin="round"/>
<path d="M15 3.75V25" stroke="url(#paint2_linear_31814_7122)" stroke-width="2.5" stroke-linecap="round" stroke-linejoin="round"/>
<path d="M11.25 15L7.5 7.5L3.75 15C3.75 15.9946 4.14509 16.9484 4.84835 17.6517C5.55161 18.3549 6.50544 18.75 7.5 18.75C8.49456 18.75 9.44839 18.3549 10.1517 17.6517C10.8549 16.9484 11.25 15.9946 11.25 15Z" stroke="url(#paint3_linear_31814_7122)" stroke-width="2.5" stroke-linecap="round" stroke-linejoin="round"/>
<path d="M26.25 15L22.5 7.5L18.75 15C18.75 15.9946 19.1451 16.9484 19.8483 17.6517C20.5516 18.3549 21.5054 18.75 22.5 18.75C23.4946 18.75 24.4484 18.3549 25.1517 17.6517C25.8549 16.9484 26.25 15.9946 26.25 15Z" stroke="url(#paint4_linear_31814_7122)" stroke-width="2.5" stroke-linecap="round" stroke-linejoin="round"/>
<defs>
<linearGradient id="paint0_linear_31814_7122" x1="15" y1="25" x2="15" y2="26" gradientUnits="userSpaceOnUse">
<stop stop-color="#00B2FF"/>
<stop offset="1" stop-color="#0085FF"/>
</linearGradient>
<linearGradient id="paint1_linear_31814_7122" x1="15" y1="6.25" x2="15" y2="7.5" gradientUnits="userSpaceOnUse">
<stop stop-color="#00B2FF"/>
<stop offset="1" stop-color="#0085FF"/>
</linearGradient>
<linearGradient id="paint2_linear_31814_7122" x1="15.5" y1="3.75" x2="15.5" y2="25" gradientUnits="userSpaceOnUse">
<stop stop-color="#00B2FF"/>
<stop offset="1" stop-color="#0085FF"/>
</linearGradient>
<linearGradient id="paint3_linear_31814_7122" x1="7.5" y1="7.5" x2="7.5" y2="18.75" gradientUnits="userSpaceOnUse">
<stop stop-color="#00B2FF"/>
<stop offset="1" stop-color="#0085FF"/>
</linearGradient>
<linearGradient id="paint4_linear_31814_7122" x1="22.5" y1="7.5" x2="22.5" y2="18.75" gradientUnits="userSpaceOnUse">
<stop stop-color="#00B2FF"/>
<stop offset="1" stop-color="#0085FF"/>
</linearGradient>
</defs>
</svg>
