<svg width="14" height="14" viewBox="0 0 14 14" fill="none" xmlns="http://www.w3.org/2000/svg">
    <path
        d="M5.5 8.50004C5.74441 8.74949 6.03614 8.94766 6.3581 9.08295C6.68005 9.21823 7.02577 9.28792 7.375 9.28792C7.72423 9.28792 8.06995 9.21823 8.39191 9.08295C8.71386 8.94766 9.00559 8.74949 9.25 8.50004L12.25 5.50004C12.7473 5.00276 13.0267 4.3283 13.0267 3.62504C13.0267 2.92178 12.7473 2.24732 12.25 1.75004C11.7527 1.25276 11.0783 0.973389 10.375 0.973389C9.67174 0.973389 8.99728 1.25276 8.5 1.75004L8.125 2.12504"
        stroke="url(#paint0_linear_44200_1627)" stroke-width="1.5" stroke-linecap="round" stroke-linejoin="round" />
    <path
        d="M8.50004 5.50004C8.25563 5.25059 7.9639 5.05242 7.64194 4.91713C7.31999 4.78184 6.97427 4.71216 6.62504 4.71216C6.27581 4.71216 5.93009 4.78184 5.60814 4.91713C5.28618 5.05242 4.99445 5.25059 4.75004 5.50004L1.75004 8.50004C1.25276 8.99732 0.973389 9.67178 0.973389 10.375C0.973389 11.0783 1.25276 11.7528 1.75004 12.25C2.24732 12.7473 2.92178 13.0267 3.62504 13.0267C4.3283 13.0267 5.00276 12.7473 5.50004 12.25L5.87504 11.875"
        stroke="url(#paint1_linear_44200_1627)" stroke-width="1.5" stroke-linecap="round" stroke-linejoin="round" />
    <defs>
        <linearGradient id="paint0_linear_44200_1627" x1="9.26333" y1="0.973389" x2="9.26333" y2="9.28792"
            gradientUnits="userSpaceOnUse">
            <stop stop-color="#00D1FF" />
            <stop offset="1" stop-color="#0085FF" />
        </linearGradient>
        <linearGradient id="paint1_linear_44200_1627" x1="4.73671" y1="4.71216" x2="4.73671" y2="13.0267"
            gradientUnits="userSpaceOnUse">
            <stop stop-color="#00D1FF" />
            <stop offset="1" stop-color="#0085FF" />
        </linearGradient>
    </defs>
</svg>