<svg fill="none" xmlns="http://www.w3.org/2000/svg" viewBox="70.38 88 81.24 94.8">
    <circle cx="111" cy="107" r="19" fill="url(#paint0_linear_36428_2449)"></circle>
    <g filter="url(#filter0_d_36428_2449)">
        <g filter="url(#filter1_d_36428_2449)">
            <path
                d="M118.142 99.1798C118.285 99.3242 118.428 99.4846 118.571 99.6449C122.114 103.686 121.971 109.845 118.158 113.678L111.85 120.045C111.723 120.173 111.516 120.173 111.389 120.045C111.087 119.724 110.817 119.371 110.563 119.018C110.515 118.954 110.483 118.89 110.436 118.826L110.42 118.81C109.848 117.928 109.387 116.933 109.149 116.019C108.974 115.314 108.879 114.608 108.863 113.886C108.831 111.529 109.721 109.316 111.373 107.648L114.011 105.034C114.106 104.937 113.963 104.777 113.852 104.873L109.324 108.931C107.671 110.582 106.781 112.812 106.813 115.169V115.281C106.813 115.538 106.559 115.698 106.352 115.586C105.415 115.105 104.541 114.48 103.763 113.694C99.7745 109.684 99.7745 103.173 103.747 99.1638C107.719 95.1544 114.17 95.1705 118.142 99.1798Z"
                fill="url(#paint1_angular_36428_2449)"></path>
        </g>
        <path fill-rule="evenodd" clip-rule="evenodd"
            d="M107.722 111.154L104.3 114.196C104.936 114.751 105.626 115.212 106.354 115.585C106.561 115.698 106.815 115.537 106.815 115.281V115.168C106.796 113.751 107.11 112.381 107.722 111.154Z"
            fill="white"></path>
    </g>
    <path
        d="M81.4597 157.21L76.1571 146.104C75.6406 145.022 74.5484 144.333 73.3495 144.333C72.4904 144.333 71.7939 145.029 71.7939 145.888V166.464C71.7939 167.105 72.314 167.625 72.9556 167.625C74.2387 167.625 75.2789 166.585 75.2789 165.302V151.454L79.3898 160.064C79.7706 160.862 80.5758 161.37 81.4597 161.37C82.3435 161.37 83.1487 160.862 83.5295 160.064L87.6404 151.454V165.302C87.6404 166.585 88.6806 167.625 89.9637 167.625C90.6053 167.625 91.1254 167.105 91.1254 166.464V145.888C91.1254 145.029 90.4289 144.333 89.5698 144.333C88.3709 144.333 87.2787 145.022 86.7622 146.104L81.4597 157.21Z"
        fill="url(#paint2_linear_36428_2449)"></path>
    <path
        d="M109.347 165.903C109.703 166.933 110.673 167.625 111.764 167.625C112.642 167.625 113.259 166.76 112.972 165.929L106.094 146.042C105.74 145.019 104.777 144.333 103.695 144.333C102.613 144.333 101.65 145.019 101.296 146.042L94.4184 165.929C94.1314 166.76 94.7479 167.625 95.6263 167.625C96.7167 167.625 97.6871 166.933 98.0426 165.903L99.3882 162.002H108.002L109.347 165.903ZM100.506 158.708L103.695 149.457L106.884 158.708H100.506Z"
        fill="url(#paint3_linear_36428_2449)"></path>
    <path
        d="M123.296 167.958C128.096 167.958 130.825 165.296 130.825 161.536C130.825 157.776 128.951 155.546 125.302 154.648L121.357 153.683C119.844 153.317 118.759 152.385 118.759 150.588C118.759 148.825 119.91 147.527 122.639 147.527C124.03 147.527 125.155 147.966 125.916 148.754C126.759 149.627 127.734 150.555 128.947 150.555C129.747 150.555 130.371 149.84 130.131 149.077C129.165 146.004 126.628 144 122.606 144C118.529 144 115.176 146.096 115.176 150.588C115.176 153.916 116.885 156.378 119.91 157.11L123.987 158.109C126.288 158.674 127.242 159.739 127.242 161.469C127.242 163.266 125.729 164.431 123.362 164.431C121.471 164.431 120.033 163.727 119.172 162.41C118.486 161.359 117.49 160.405 116.234 160.405C115.47 160.405 114.86 161.062 115.027 161.808C115.837 165.41 118.594 167.958 123.296 167.958Z"
        fill="url(#paint4_linear_36428_2449)"></path>
    <path
        d="M133.807 159.739C133.807 164.764 137.127 167.958 142.059 167.958C143.735 167.958 145.215 167.592 146.431 166.926L146.685 167.187C147.723 168.254 149.432 168.273 150.493 167.228C150.756 166.969 150.76 166.546 150.503 166.282L148.93 164.664C149.817 163.333 150.311 161.669 150.311 159.739V152.219C150.311 147.194 146.99 144 142.059 144C137.127 144 133.807 147.194 133.807 152.219V159.739ZM142.173 161.534C141.909 161.793 141.905 162.215 142.162 162.48L143.801 164.165C143.242 164.331 142.617 164.431 142.059 164.431C139.757 164.431 137.324 163 137.324 159.739V152.219C137.324 148.958 139.757 147.527 142.059 147.527C144.36 147.527 146.793 148.958 146.793 152.219V159.739C146.793 160.604 146.628 161.336 146.333 161.935L145.981 161.574C144.942 160.507 143.234 160.489 142.173 161.534Z"
        fill="url(#paint5_linear_36428_2449)"></path>
    <path
        d="M70.5041 176.159H72.8154C74.2588 176.159 75.1084 176.999 75.1084 178.388C75.1084 179.794 74.2588 180.626 72.8154 180.626H71.4725V182.553C71.4725 182.645 71.4268 182.69 71.3446 182.69H70.5041C70.4219 182.69 70.3762 182.645 70.3762 182.553V176.296C70.3762 176.204 70.4219 176.159 70.5041 176.159ZM71.4725 179.603H72.6875C73.5737 179.603 73.9848 179.219 73.9848 178.388C73.9848 177.565 73.5737 177.182 72.6875 177.182H71.4725V179.603ZM87.6956 182.69H86.6633C86.5994 182.69 86.5446 182.663 86.508 182.599L84.9093 180.306H84.0962V182.553C84.0962 182.645 84.0506 182.69 83.9684 182.69H83.1279C83.0457 182.69 83 182.645 83 182.553V176.296C83 176.204 83.0457 176.159 83.1279 176.159H85.2473C86.7455 176.159 87.6225 176.935 87.6225 178.241C87.6225 179.246 87.0653 179.932 86.1061 180.187L87.7778 182.526C87.8418 182.626 87.7961 182.69 87.6956 182.69ZM85.2473 177.173H84.0962V179.319H85.2473C86.0969 179.319 86.4989 178.981 86.4989 178.251C86.4989 177.511 86.0969 177.173 85.2473 177.173ZM96.7737 179.877V181.686H99.7062C99.7976 181.686 99.8433 181.731 99.8433 181.813V182.553C99.8433 182.645 99.7976 182.69 99.7062 182.69H95.7962C95.714 182.69 95.6683 182.645 95.6683 182.553V176.296C95.6683 176.204 95.714 176.159 95.7962 176.159H99.5783C99.6697 176.159 99.7154 176.204 99.7154 176.296V177.036C99.7154 177.118 99.6697 177.163 99.5783 177.163H96.7737V178.872H99.3408C99.4322 178.872 99.4778 178.917 99.4778 179.009V179.74C99.4778 179.831 99.4322 179.877 99.3408 179.877H96.7737ZM108.832 182.69H108.001C107.918 182.69 107.873 182.645 107.873 182.553V176.296C107.873 176.204 107.918 176.159 108.001 176.159H108.996C109.06 176.159 109.115 176.186 109.143 176.259L110.257 178.333C110.504 178.79 110.887 179.612 111.034 179.941H111.07C111.216 179.612 111.6 178.79 111.847 178.333L112.952 176.259C112.989 176.186 113.043 176.159 113.107 176.159H114.094C114.185 176.159 114.231 176.204 114.231 176.296V182.553C114.231 182.645 114.185 182.69 114.094 182.69H113.263C113.18 182.69 113.135 182.645 113.135 182.553V180.717C113.135 179.858 113.171 178.744 113.208 177.849L113.18 177.839C112.961 178.315 112.66 178.927 112.358 179.53L111.554 181.092C111.527 181.156 111.472 181.192 111.399 181.192H110.705C110.632 181.192 110.577 181.156 110.549 181.092L109.746 179.53C109.444 178.927 109.143 178.315 108.923 177.839L108.896 177.849C108.932 178.744 108.969 179.858 108.969 180.717V182.553C108.969 182.645 108.923 182.69 108.832 182.69ZM123.68 176.296V182.553C123.68 182.645 123.635 182.69 123.552 182.69H122.712C122.63 182.69 122.584 182.645 122.584 182.553V176.296C122.584 176.204 122.63 176.159 122.712 176.159H123.552C123.635 176.159 123.68 176.204 123.68 176.296ZM136.956 180.416C136.956 181.859 135.978 182.8 134.462 182.8C132.964 182.8 131.986 181.859 131.986 180.416V176.296C131.986 176.204 132.032 176.159 132.123 176.159H132.973C133.055 176.159 133.11 176.204 133.11 176.296V180.352C133.11 181.265 133.603 181.777 134.462 181.777C135.321 181.777 135.832 181.265 135.832 180.352V176.296C135.832 176.204 135.878 176.159 135.969 176.159H136.819C136.91 176.159 136.956 176.204 136.956 176.296V180.416ZM146.221 182.69H145.39C145.308 182.69 145.262 182.645 145.262 182.553V176.296C145.262 176.204 145.308 176.159 145.39 176.159H146.386C146.45 176.159 146.505 176.186 146.532 176.259L147.647 178.333C147.893 178.79 148.277 179.612 148.423 179.941H148.46C148.606 179.612 148.99 178.79 149.236 178.333L150.342 176.259C150.378 176.186 150.433 176.159 150.497 176.159H151.483C151.575 176.159 151.621 176.204 151.621 176.296V182.553C151.621 182.645 151.575 182.69 151.483 182.69H150.652C150.57 182.69 150.524 182.645 150.524 182.553V180.717C150.524 179.858 150.561 178.744 150.597 177.849L150.57 177.839C150.351 178.315 150.049 178.927 149.748 179.53L148.944 181.092C148.916 181.156 148.862 181.192 148.789 181.192H148.094C148.021 181.192 147.966 181.156 147.939 181.092L147.135 179.53C146.834 178.927 146.532 178.315 146.313 177.839L146.285 177.849C146.322 178.744 146.358 179.858 146.358 180.717V182.553C146.358 182.645 146.313 182.69 146.221 182.69Z"
        fill="url(#paint6_linear_36428_2449)"></path>
    <defs>
        <filter id="filter0_d_36428_2449" x="75.7695" y="75.1648" width="70.3574" height="73.9761"
            filterUnits="userSpaceOnUse" color-interpolation-filters="sRGB">
            <feFlood flood-opacity="0" result="BackgroundImageFix"></feFlood>
            <feColorMatrix in="SourceAlpha" type="matrix"
                values="0 0 0 0 0 0 0 0 0 0 0 0 0 0 0 0 0 0 127 0" result="hardAlpha"></feColorMatrix>
            <feOffset dy="4"></feOffset>
            <feGaussianBlur stdDeviation="12.5"></feGaussianBlur>
            <feColorMatrix type="matrix" values="0 0 0 0 0 0 0 0 0 0 0 0 0 0 0 0 0 0 0.05 0"></feColorMatrix>
            <feBlend mode="normal" in2="BackgroundImageFix" result="effect1_dropShadow_36428_2449"></feBlend>
            <feBlend mode="normal" in="SourceGraphic" in2="effect1_dropShadow_36428_2449"
                result="shape"></feBlend>
        </filter>
        <filter id="filter1_d_36428_2449" x="0.769531" y="0.164795" width="220.357" height="223.976"
            filterUnits="userSpaceOnUse" color-interpolation-filters="sRGB">
            <feFlood flood-opacity="0" result="BackgroundImageFix"></feFlood>
            <feColorMatrix in="SourceAlpha" type="matrix"
                values="0 0 0 0 0 0 0 0 0 0 0 0 0 0 0 0 0 0 127 0" result="hardAlpha"></feColorMatrix>
            <feOffset dy="4"></feOffset>
            <feGaussianBlur stdDeviation="50"></feGaussianBlur>
            <feComposite in2="hardAlpha" operator="out"></feComposite>
            <feColorMatrix type="matrix" values="0 0 0 0 0 0 0 0 0 0 0 0 0 0 0 0 0 0 0.25 0"></feColorMatrix>
            <feBlend mode="normal" in2="BackgroundImageFix" result="effect1_dropShadow_36428_2449"></feBlend>
            <feBlend mode="normal" in="SourceGraphic" in2="effect1_dropShadow_36428_2449"
                result="shape"></feBlend>
        </filter>
        <linearGradient id="paint0_linear_36428_2449" x1="111" y1="88" x2="111" y2="126"
            gradientUnits="userSpaceOnUse">
            <stop stop-color="#FDBC40"></stop>
            <stop offset="1" stop-color="#FF825A"></stop>
        </linearGradient>
        <radialGradient id="paint1_angular_36428_2449" cx="0" cy="0" r="1"
            gradientUnits="userSpaceOnUse"
            gradientTransform="translate(113.609 105.156) rotate(133.689) scale(6.73501 6.91124)">
            <stop stop-color="white"></stop>
            <stop offset="1" stop-color="#C9EBFF"></stop>
        </radialGradient>
        <linearGradient id="paint2_linear_36428_2449" x1="111.381" y1="144" x2="111.381"
            y2="169.123" gradientUnits="userSpaceOnUse">
            <stop stop-color="#FDBC40"></stop>
            <stop offset="1" stop-color="#FF6D03"></stop>
        </linearGradient>
        <linearGradient id="paint3_linear_36428_2449" x1="111.381" y1="144" x2="111.381"
            y2="169.123" gradientUnits="userSpaceOnUse">
            <stop stop-color="#FDBC40"></stop>
            <stop offset="1" stop-color="#FF6D03"></stop>
        </linearGradient>
        <linearGradient id="paint4_linear_36428_2449" x1="111.381" y1="144" x2="111.381"
            y2="169.123" gradientUnits="userSpaceOnUse">
            <stop stop-color="#FDBC40"></stop>
            <stop offset="1" stop-color="#FF6D03"></stop>
        </linearGradient>
        <linearGradient id="paint5_linear_36428_2449" x1="111.381" y1="144" x2="111.381"
            y2="169.123" gradientUnits="userSpaceOnUse">
            <stop stop-color="#FDBC40"></stop>
            <stop offset="1" stop-color="#FF6D03"></stop>
        </linearGradient>
        <linearGradient id="paint6_linear_36428_2449" x1="111" y1="173.69" x2="111" y2="185.871"
            gradientUnits="userSpaceOnUse">
            <stop stop-color="#FDBC40"></stop>
            <stop offset="1" stop-color="#FF6D03"></stop>
        </linearGradient>
    </defs>
</svg>