<svg width="18" height="19" viewBox="0 0 18 19" fill="none" xmlns="http://www.w3.org/2000/svg">
    <g opacity="0.5" clip-path="url(#clip0_18151_116)">
        <path
            d="M9.00012 2.75C10.752 4.29993 13.0385 5.10692 15.3751 5C15.7153 6.15726 15.8194 7.3711 15.6812 8.56939C15.543 9.76767 15.1654 10.926 14.5707 11.9754C13.976 13.0248 13.1764 13.944 12.2195 14.6784C11.2625 15.4127 10.1677 15.9472 9.00012 16.25C7.83253 15.9472 6.73773 15.4127 5.78078 14.6784C4.82383 13.944 4.02425 13.0248 3.42957 11.9754C2.83488 10.926 2.45722 9.76767 2.31903 8.56939C2.18083 7.3711 2.28493 6.15726 2.62512 5C4.96177 5.10692 7.24825 4.29993 9.00012 2.75"
            stroke="#86BCED" stroke-width="2" stroke-linecap="round" stroke-linejoin="round" />
        <path
            d="M8.99902 9.5C9.41324 9.5 9.74902 9.16421 9.74902 8.75C9.74902 8.33579 9.41324 8 8.99902 8C8.58481 8 8.24902 8.33579 8.24902 8.75C8.24902 9.16421 8.58481 9.5 8.99902 9.5Z"
            stroke="#86BCED" stroke-width="2" stroke-linecap="round" stroke-linejoin="round" />
        <path d="M9 9.5V11.375" stroke="#86BCED" stroke-width="2" stroke-linecap="round"
            stroke-linejoin="round" />
    </g>
    <defs>
        <clipPath id="clip0_18151_116">
            <rect width="18" height="18" fill="white" transform="translate(0 0.5)" />
        </clipPath>
    </defs>
</svg>

    