<svg width="16" height="16" viewBox="0 0 16 16" fill="none" xmlns="http://www.w3.org/2000/svg">
<g clip-path="url(#clip0_38421_6855)">
<path d="M12.6666 10.6667V12.6667C12.6666 12.8435 12.5964 13.013 12.4714 13.1381C12.3463 13.2631 12.1768 13.3333 12 13.3333H3.99996C3.64634 13.3333 3.3072 13.1928 3.05715 12.9428C2.8071 12.6927 2.66663 12.3536 2.66663 12V3.99999M11.3333 5.33332V3.33332C11.3333 3.15651 11.2631 2.98694 11.138 2.86192C11.013 2.73689 10.8434 2.66666 10.6666 2.66666H3.99996C3.64634 2.66666 3.3072 2.80713 3.05715 3.05718C2.8071 3.30723 2.66663 3.64637 2.66663 3.99999C2.66663 4.35361 2.8071 4.69275 3.05715 4.9428C3.3072 5.19285 3.64634 5.33332 3.99996 5.33332H12C12.1768 5.33332 12.3463 5.40356 12.4714 5.52858C12.5964 5.65361 12.6666 5.82318 12.6666 5.99999V7.99999L11.3333 5.33332Z" stroke="#87A7C3" stroke-width="1.5" stroke-linecap="round" stroke-linejoin="round"/>
<path d="M13.3334 8V10.6667H10.6667C10.3131 10.6667 9.97395 10.5262 9.7239 10.2761C9.47385 10.0261 9.33337 9.68696 9.33337 9.33333C9.33337 8.97971 9.47385 8.64057 9.7239 8.39052C9.97395 8.14048 10.3131 8 10.6667 8H13.3334Z" stroke="#87A7C3" stroke-width="1.5" stroke-linecap="round" stroke-linejoin="round"/>
</g>
<defs>
<clipPath id="clip0_38421_6855">
<rect width="16" height="16" fill="white"/>
</clipPath>
</defs>
</svg>
