<svg version="1.2" baseProfile="tiny-ps" xmlns="http://www.w3.org/2000/svg" viewBox="0 0 24 24" width="24" height="24">
	<title>image</title>
	<defs>
		<linearGradient id="grd1" gradientUnits="userSpaceOnUse"  x1="11.991" y1="2" x2="11.991" y2="22">
			<stop offset="0" stop-color="#00b2ff"  />
			<stop offset="1" stop-color="#0085ff"  />
		</linearGradient>
	</defs>
	<style>
		tspan { white-space:pre }
		.shp0 { fill: none;stroke: url(#grd1);stroke-width: 2 } 
	</style>
	<g id="Layer">
		<path id="Layer" class="shp0" d="M20.08 8.67L20.08 8.67C20.65 9.11 20.98 9.79 20.98 10.51L20.98 19.5C20.98 19.9 20.82 20.28 20.54 20.56C20.26 20.84 19.88 21 19.48 21L4.5 21C4.1 21 3.72 20.84 3.44 20.56C3.16 20.28 3 19.9 3 19.5L3 10.51L3 10.51C3 10.16 3.08 9.81 3.24 9.49C3.39 9.17 3.62 8.89 3.9 8.67L3.9 8.67L10.56 3.49L10.56 3.49C10.97 3.17 11.47 3 11.99 3C12.51 3 13.01 3.17 13.42 3.49L13.42 3.49L20.08 8.67Z" />
	</g>
</svg>