<svg width="20" height="20" viewBox="0 0 20 20" fill="none" xmlns="http://www.w3.org/2000/svg">
<g clip-path="url(#clip0_28382_1409)">
<mask id="mask0_28382_1409" style="mask-type:alpha" maskUnits="userSpaceOnUse" x="1" y="1" width="18" height="18">
<g clip-path="url(#clip1_28382_1409)">
<path d="M16.5231 10.7221C16.6676 9.41728 16.4174 8.09916 15.8049 6.93805C15.1924 5.77694 14.2457 4.82621 13.0872 4.20875C11.9287 3.59128 10.6117 3.33545 9.30626 3.47433C8.00086 3.6132 6.76711 4.14039 5.76446 4.98777C4.76181 5.83515 4.03635 6.96376 3.68182 8.22775C3.3273 9.49174 3.36002 10.833 3.77574 12.0782C4.19146 13.3234 4.97109 14.4153 6.01386 15.2128C7.05663 16.0103 8.31461 16.4767 9.62523 16.5518" stroke="#2C3E50" stroke-linecap="round" stroke-linejoin="round"/>
<path d="M3.875 7.8125H16.125" stroke="#2C3E50" stroke-linecap="round" stroke-linejoin="round"/>
<path d="M3.875 12.1875H14.0104" stroke="#2C3E50" stroke-linecap="round" stroke-linejoin="round"/>
<path d="M9.6355 3.4375C8.4071 5.40597 7.75586 7.67969 7.75586 10C7.75586 12.3203 8.4071 14.594 9.6355 16.5625" stroke="#2C3E50" stroke-linecap="round" stroke-linejoin="round"/>
<path d="M10.3647 3.4375C11.992 6.04459 12.5925 9.16328 12.0499 12.1882" stroke="#2C3E50" stroke-linecap="round" stroke-linejoin="round"/>
<path d="M12.1875 15.1038L13.6458 16.5622L16.5625 13.6455" stroke="#2C3E50" stroke-linecap="round" stroke-linejoin="round"/>
</g>
</mask>
<g mask="url(#mask0_28382_1409)">
</g>
<mask id="mask1_28382_1409" style="mask-type:alpha" maskUnits="userSpaceOnUse" x="0" y="0" width="20" height="20">
<g clip-path="url(#clip2_28382_1409)">
<path d="M3.3335 5.83301H16.6668" stroke="#2C3E50" stroke-linecap="round" stroke-linejoin="round"/>
<path d="M4.1665 5.83301L4.99984 15.833C4.99984 16.275 5.17543 16.699 5.48799 17.0115C5.80055 17.3241 6.22448 17.4997 6.6665 17.4997H13.3332C13.7752 17.4997 14.1991 17.3241 14.5117 17.0115C14.8242 16.699 14.9998 16.275 14.9998 15.833L15.8332 5.83301" stroke="#2C3E50" stroke-linecap="round" stroke-linejoin="round"/>
<path d="M7.5 5.83333V3.33333C7.5 3.11232 7.5878 2.90036 7.74408 2.74408C7.90036 2.5878 8.11232 2.5 8.33333 2.5H11.6667C11.8877 2.5 12.0996 2.5878 12.2559 2.74408C12.4122 2.90036 12.5 3.11232 12.5 3.33333V5.83333" stroke="#2C3E50" stroke-linecap="round" stroke-linejoin="round"/>
<path d="M8.3335 10L11.6668 13.3333M11.6668 10L8.3335 13.3333" stroke="#2C3E50" stroke-linecap="round" stroke-linejoin="round"/>
</g>
</mask>
<g mask="url(#mask1_28382_1409)">
<rect x="1.25" y="1.25" width="20" height="18.75" fill="url(#paint0_linear_28382_1409)"/>
</g>
</g>
<defs>
<linearGradient id="paint0_linear_28382_1409" x1="11.25" y1="1.25" x2="11.25" y2="20" gradientUnits="userSpaceOnUse">
<stop stop-color="#13D5FF"/>
<stop offset="1" stop-color="#0085FF"/>
</linearGradient>
<clipPath id="clip0_28382_1409">
<rect width="20" height="20" fill="white"/>
</clipPath>
<clipPath id="clip1_28382_1409">
<rect width="17.5" height="17.5" fill="white" transform="translate(1.25 1.25)"/>
</clipPath>
<clipPath id="clip2_28382_1409">
<rect width="20" height="20" fill="white"/>
</clipPath>
</defs>
</svg>
