<svg width="18" height="18" viewBox="0 0 18 18" fill="none" xmlns="http://www.w3.org/2000/svg">
<path d="M9.60974 11.5956L12.798 12.5519M4.44824 4.20215L5.40449 7.3889L4.44824 4.20215Z" stroke="#6389AA" stroke-width="2" stroke-linecap="round" stroke-linejoin="round"/>
<path d="M8.76221 8.23771L13.0815 3.91846" stroke="#6389AA" stroke-width="2" stroke-linecap="round" stroke-linejoin="round"/>
<path d="M4.125 4.25C4.74632 4.25 5.25 3.74632 5.25 3.125C5.25 2.50368 4.74632 2 4.125 2C3.50368 2 3 2.50368 3 3.125C3 3.74632 3.50368 4.25 4.125 4.25Z" stroke="#6389AA" stroke-width="2" stroke-linecap="round" stroke-linejoin="round"/>
<path d="M13.875 4.25C14.4963 4.25 15 3.74632 15 3.125C15 2.50368 14.4963 2 13.875 2C13.2537 2 12.75 2.50368 12.75 3.125C12.75 3.74632 13.2537 4.25 13.875 4.25Z" stroke="#6389AA" stroke-width="2" stroke-linecap="round" stroke-linejoin="round"/>
<path d="M13.875 14C14.4963 14 15 13.4963 15 12.875C15 12.2537 14.4963 11.75 13.875 11.75C13.2537 11.75 12.75 12.2537 12.75 12.875C12.75 13.4963 13.2537 14 13.875 14Z" stroke="#6389AA" stroke-width="2" stroke-linecap="round" stroke-linejoin="round"/>
<path d="M6.375 14C8.23896 14 9.75 12.489 9.75 10.625C9.75 8.76104 8.23896 7.25 6.375 7.25C4.51104 7.25 3 8.76104 3 10.625C3 12.489 4.51104 14 6.375 14Z" stroke="#6389AA" stroke-width="2" stroke-linecap="round" stroke-linejoin="round"/>
</svg>
