<svg width="17" height="17" viewBox="0 0 17 17" fill="none" xmlns="http://www.w3.org/2000/svg">
    <g clip-path="url(#clip0_24516_147)">
        <path
            d="M10.625 5.66666C11.0649 5.99655 11.4219 6.42433 11.6678 6.91611C11.9137 7.40789 12.0417 7.95016 12.0417 8.49999C12.0417 9.04982 11.9137 9.59209 11.6678 10.0839C11.4219 10.5757 11.0649 11.0034 10.625 11.3333"
            stroke="#87A7C3" stroke-width="1.5" stroke-linecap="round" stroke-linejoin="round" />
        <path
            d="M12.5376 3.54166C13.2771 4.13924 13.8735 4.89466 14.2833 5.75259C14.693 6.61052 14.9057 7.54924 14.9057 8.49999C14.9057 9.45074 14.693 10.3895 14.2833 11.2474C13.8735 12.1053 13.2771 12.8607 12.5376 13.4583"
            stroke="#87A7C3" stroke-width="1.5" stroke-linecap="round" stroke-linejoin="round" />
        <path
            d="M4.25 10.625H2.83333C2.64547 10.625 2.4653 10.5504 2.33247 10.4175C2.19963 10.2847 2.125 10.1045 2.125 9.91667V7.08333C2.125 6.89547 2.19963 6.71531 2.33247 6.58247C2.4653 6.44963 2.64547 6.375 2.83333 6.375H4.25L6.72917 3.1875C6.79108 3.06725 6.89396 2.9731 7.01922 2.92208C7.14448 2.87106 7.28386 2.86653 7.41218 2.9093C7.54049 2.95207 7.64928 3.03933 7.71887 3.1553C7.78847 3.27127 7.81429 3.40832 7.79167 3.54167V13.4583C7.81429 13.5917 7.78847 13.7287 7.71887 13.8447C7.64928 13.9607 7.54049 14.0479 7.41218 14.0907C7.28386 14.1335 7.14448 14.1289 7.01922 14.0779C6.89396 14.0269 6.79108 13.9328 6.72917 13.8125L4.25 10.625Z"
            stroke="#87A7C3" stroke-width="1.5" stroke-linecap="round" stroke-linejoin="round" />
    </g>
    <defs>
        <clipPath id="clip0_24516_147">
            <rect width="17" height="17" fill="white" />
        </clipPath>
    </defs>
</svg>