<svg width="52" height="52" viewBox="0 0 52 52" fill="none" xmlns="http://www.w3.org/2000/svg">
    <rect width="52" height="52" rx="6" fill="url(#paint0_linear)" />
    <rect x="0.5" y="0.5" width="51" height="51" rx="5.5" stroke="white" stroke-opacity="0.02" />
    <path d="M26.5 29.375V29.3846M26.5 23.625V25.5417V23.625Z" stroke="#FDBC40" stroke-width="2" stroke-linecap="round"
        stroke-linejoin="round" />
    <path
        d="M19.7916 33.2082H33.2082C33.5209 33.2061 33.8284 33.1274 34.1037 32.9791C34.379 32.8308 34.6139 32.6174 34.7878 32.3575C34.9617 32.0976 35.0693 31.7991 35.1014 31.488C35.1334 31.1769 35.0888 30.8627 34.9716 30.5728L28.1674 18.8332C28.0016 18.5337 27.7587 18.284 27.4637 18.1101C27.1688 17.9362 26.8327 17.8445 26.4903 17.8445C26.1479 17.8445 25.8118 17.9362 25.5169 18.1101C25.222 18.284 24.979 18.5337 24.8132 18.8332L18.0091 30.5728C17.894 30.8561 17.8484 31.1628 17.876 31.4673C17.9036 31.7717 18.0037 32.0652 18.1678 32.3231C18.332 32.5811 18.5554 32.796 18.8196 32.95C19.0837 33.104 19.3808 33.1925 19.6861 33.2082"
        stroke="#FDBC40" stroke-width="2" stroke-linecap="round" stroke-linejoin="round" />
</svg>