<svg width="14" height="14" viewBox="0 0 14 14" fill="none" xmlns="http://www.w3.org/2000/svg">
<path d="M9.24996 1.21537C9.51517 1.21306 9.77043 1.31619 9.9596 1.50209L12.5991 4.09595C12.7883 4.28184 12.8959 4.53527 12.8982 4.80047L12.9305 8.50105C12.9328 8.76625 12.8297 9.02152 12.6438 9.21068L10.0499 11.8502C9.86401 12.0394 9.61059 12.147 9.34538 12.1493L5.64481 12.1816C5.3796 12.1839 5.12434 12.0807 4.93517 11.8949L2.29564 9.30099C2.10647 9.1151 1.9989 8.86167 1.99659 8.59647L1.96429 4.89589C1.96198 4.63069 2.06511 4.37542 2.251 4.18626L4.84487 1.54672C5.03076 1.35756 5.28418 1.24998 5.54939 1.24767L9.24996 1.21537Z" stroke="#F03A35" stroke-width="2"/>
</svg>
