<svg width="18" height="18" viewBox="0 0 18 18" fill="none" xmlns="http://www.w3.org/2000/svg">
    <path
        d="M14.2498 13.5001C14.946 13.5001 15.6137 13.2235 16.106 12.7312C16.5983 12.2389 16.8748 11.5713 16.8748 10.8751C16.8748 10.1789 16.5983 9.51119 16.106 9.01891C15.6137 8.52662 14.946 8.25006 14.2498 8.25006H13.4998C13.7976 6.92406 13.2861 5.55531 12.1588 4.65981C11.0316 3.76506 9.45882 3.47856 8.03382 3.90981C6.60882 4.34106 5.54757 5.42406 5.24982 6.75006C3.60057 6.68406 2.13357 7.74456 1.75032 9.27981C1.36632 10.8151 2.17332 12.3953 3.67482 13.0501"
        stroke="url(#paint0_linear_41302_288)" stroke-linecap="round" stroke-linejoin="round" />
    <path
        d="M6 12C6 11.8011 6.07902 11.6103 6.21967 11.4697C6.36032 11.329 6.55109 11.25 6.75 11.25H11.25C11.4489 11.25 11.6397 11.329 11.7803 11.4697C11.921 11.6103 12 11.8011 12 12V14.25C12 14.4489 11.921 14.6397 11.7803 14.7803C11.6397 14.921 11.4489 15 11.25 15H6.75C6.55109 15 6.36032 14.921 6.21967 14.7803C6.07902 14.6397 6 14.4489 6 14.25V12Z"
        stroke="url(#paint1_linear_41302_288)" stroke-linecap="round" stroke-linejoin="round" />
    <path
        d="M7.5 11.25V9.75C7.5 9.35218 7.65804 8.97064 7.93934 8.68934C8.22064 8.40804 8.60218 8.25 9 8.25C9.39782 8.25 9.77936 8.40804 10.0607 8.68934C10.342 8.97064 10.5 9.35218 10.5 9.75V11.25"
        stroke="url(#paint2_linear_41302_288)" stroke-linecap="round" stroke-linejoin="round" />
    <defs>
        <linearGradient id="paint0_linear_41302_288" x1="9.26505" y1="3.7124" x2="9.26505"
            y2="13.5001" gradientUnits="userSpaceOnUse">
            <stop stop-color="#13D5FF" />
            <stop offset="1" stop-color="#0085FF" />
        </linearGradient>
        <linearGradient id="paint1_linear_41302_288" x1="9" y1="11.25" x2="9" y2="15"
            gradientUnits="userSpaceOnUse">
            <stop stop-color="#13D5FF" />
            <stop offset="1" stop-color="#0085FF" />
        </linearGradient>
        <linearGradient id="paint2_linear_41302_288" x1="9" y1="8.25" x2="9" y2="11.25"
            gradientUnits="userSpaceOnUse">
            <stop stop-color="#13D5FF" />
            <stop offset="1" stop-color="#0085FF" />
        </linearGradient>
    </defs>
</svg>