<svg width="39" height="41" viewBox="0 0 39 41" fill="none" xmlns="http://www.w3.org/2000/svg">
    <rect width="39" height="40.3043" rx="6" fill="url(#paint0_linear_27396_426)" />
    <path
        d="M19.8421 12C18.25 12.0002 16.6875 12.4303 15.3195 13.2447C13.9515 14.0591 12.8288 15.2277 12.0697 16.6272C11.3107 18.0267 10.9436 19.6052 11.007 21.196C11.0705 22.7868 11.5623 24.331 12.4304 25.6656C12.4973 25.7682 12.5888 25.8526 12.6966 25.911C12.8043 25.9694 12.925 26 13.0475 26H26.6366C26.7592 26 26.8798 25.9694 26.9876 25.911C27.0953 25.8526 27.1868 25.7682 27.2537 25.6656C28.1219 24.331 28.6136 22.7868 28.6771 21.196C28.7406 19.6052 28.3735 18.0268 27.6144 16.6273C26.8554 15.2278 25.7327 14.0592 24.3647 13.2447C22.9967 12.4303 21.4342 12.0002 19.8421 12V12ZM26.225 24.5263H13.4592C12.9366 23.6227 12.6132 22.6178 12.5105 21.5789H13.9474V20.1053H12.5105C12.5899 19.3136 12.7979 18.5403 13.1265 17.8157L14.3686 18.5328L15.1054 17.2566L13.8652 16.5408C14.3305 15.8962 14.8962 15.3305 15.5408 14.8652L16.2569 16.1055L17.5331 15.3687L16.8157 14.1265C17.5403 13.7979 18.3137 13.5899 19.1053 13.5105V14.9474H20.579V13.5105C21.3706 13.5898 22.1439 13.7979 22.8685 14.1264L22.1514 15.3686L23.4276 16.1054L24.1434 14.8652C24.788 15.3305 25.3537 15.8962 25.819 16.5408L24.5787 17.2569L25.3156 18.5331L26.5577 17.816C26.8863 18.5405 27.0943 19.3137 27.1737 20.1053H25.7369V21.5789H27.1737C27.0711 22.6178 26.7476 23.6227 26.225 24.5263Z"
        fill="url(#paint1_linear_27396_426)" />
    <path
        d="M21.4217 17.5166L20.2837 19.414C19.7718 19.3093 19.2395 19.389 18.7807 19.6389C18.322 19.8889 17.9663 20.293 17.7768 20.7798C17.5872 21.2666 17.5759 21.8048 17.7448 22.2992C17.9137 22.7936 18.252 23.2123 18.6998 23.4813C19.1476 23.7504 19.6762 23.8524 20.192 23.7694C20.7078 23.6863 21.1776 23.4236 21.5184 23.0276C21.8591 22.6316 22.0489 22.1279 22.0542 21.6055C22.0594 21.0831 21.8798 20.5757 21.547 20.1729L22.6854 18.2748L21.4217 17.5166ZM19.843 22.3168C19.6973 22.3168 19.5548 22.2735 19.4337 22.1926C19.3125 22.1116 19.2181 21.9965 19.1623 21.8619C19.1065 21.7273 19.0919 21.5791 19.1204 21.4362C19.1488 21.2932 19.219 21.1619 19.322 21.0589C19.4251 20.9558 19.5564 20.8857 19.6993 20.8572C19.8422 20.8288 19.9904 20.8434 20.125 20.8992C20.2597 20.9549 20.3747 21.0494 20.4557 21.1705C20.5367 21.2917 20.5799 21.4342 20.5799 21.5799C20.5797 21.7753 20.502 21.9626 20.3638 22.1007C20.2257 22.2388 20.0384 22.3165 19.843 22.3168V22.3168Z"
        fill="url(#paint2_linear_27396_426)" />
    <defs>
        <linearGradient id="paint1_linear_27396_426" x1="19.8421" y1="12" x2="19.8421" y2="26"
            gradientUnits="userSpaceOnUse">
            <stop stop-color="#00B2FF" />
            <stop offset="1" stop-color="#0085FF" />
        </linearGradient>
        <linearGradient id="paint2_linear_27396_426" x1="20.1556" y1="17.5166" x2="20.1556" y2="23.7975"
            gradientUnits="userSpaceOnUse">
            <stop stop-color="#00B2FF" />
            <stop offset="1" stop-color="#0085FF" />
        </linearGradient>
    </defs>
</svg>
