<svg width="16" height="16" viewBox="0 0 16 16" fill="none" xmlns="http://www.w3.org/2000/svg">
    <path
        d="M6.45494 1.98169L6.81461 1.62202C7.08716 1.34947 7.45681 1.19636 7.84225 1.19636C8.22769 1.19636 8.59734 1.34947 8.86989 1.62202L14.0081 6.7602C14.2806 7.03274 14.4337 7.40239 14.4337 7.78783C14.4337 8.17327 14.2806 8.54292 14.0081 8.81547L8.86988 13.9536C8.59734 14.2262 8.22769 14.3793 7.84225 14.3793C7.45681 14.3793 7.08716 14.2262 6.81461 13.9536L1.67643 8.81547C1.40389 8.54292 1.25077 8.17327 1.25077 7.78783C1.25077 7.4024 1.40389 7.03274 1.67644 6.7602L4.24552 4.19111L1.34759 4.19111M4.24552 7.08904L4.24552 4.19111"
        stroke="url(#paint0_linear_6348_7293)" stroke-width="1.5" stroke-linecap="round"
        stroke-linejoin="round" />
    <defs>
        <linearGradient id="paint0_linear_6348_7293" x1="2.79656" y1="2.74214" x2="11.439"
            y2="11.3846" gradientUnits="userSpaceOnUse">
            <stop stop-color="#FDBC40" />
            <stop offset="1" stop-color="#FF6D03" />
        </linearGradient>
    </defs>
</svg>
    