<svg width="52" height="52" viewBox="0 0 52 52" fill="none" xmlns="http://www.w3.org/2000/svg">
<rect width="52" height="52" rx="6" fill="#000E15"/>
<rect x="0.5" y="0.5" width="51" height="51" rx="5.5" stroke="white" stroke-opacity="0.06"/>
<path d="M26.0663 37.9187C32.7303 37.9187 38.1325 32.5825 38.1325 26C38.1325 19.4175 32.7303 14.0814 26.0663 14.0814C19.4023 14.0814 14 19.4175 14 26C14 32.5825 19.4023 37.9187 26.0663 37.9187Z" fill="#007896"/>
<path d="M27.3254 29.0011C27.0001 29.3277 26.5557 29.5117 26.0919 29.5117C25.6281 29.5117 25.1837 29.3277 24.8585 29.0011L23.2862 27.4312C23.0838 27.2278 22.8073 27.1133 22.5186 27.1133C22.23 27.1133 21.9534 27.2278 21.7511 27.4312C21.07 28.1157 21.07 29.2131 21.7511 29.8976L24.8635 33.0007C25.1887 33.3274 25.6331 33.5114 26.0969 33.5114C26.5608 33.5114 27.0052 33.3274 27.3304 33.0007L30.4348 29.8936C31.1159 29.2091 31.1159 28.1117 30.4348 27.4272C30.2324 27.2238 29.9559 27.1093 29.6672 27.1093C29.3786 27.1093 29.102 27.2238 28.8996 27.4272L27.3254 29.0011Z" fill="white"/>
<path d="M21.4244 23.5366C21.7345 23.2182 22.1611 23.0363 22.6084 23.0317C23.0556 23.027 23.486 23.2 23.8029 23.5118L25.3029 25.0083C25.4999 25.2022 25.7674 25.3098 26.0455 25.307C26.3236 25.3042 26.5888 25.1912 26.7818 24.9934C27.4463 24.3393 27.4561 23.2794 26.8039 22.6133L23.84 19.6529C23.5231 19.3411 23.0928 19.1682 22.6455 19.1728C22.1983 19.1775 21.7717 19.3594 21.4615 19.6777L18.4404 22.7015C17.7759 23.3557 17.7661 24.4156 18.4183 25.0817C18.6153 25.2756 18.8829 25.3832 19.161 25.3804C19.439 25.3776 19.7043 25.2646 19.8973 25.0668L21.4244 23.5366Z" fill="white"/>
<path d="M28.3385 23.4691C28.6486 23.1508 29.0752 22.9689 29.5225 22.9642C29.9697 22.9596 30.4001 23.1325 30.717 23.4443L32.217 24.9429C32.414 25.1367 32.6815 25.2443 32.9596 25.2416C33.2377 25.2388 33.503 25.1258 33.6959 24.928C34.3604 24.2738 34.3702 23.2139 33.718 22.5478L30.7521 19.5855C30.4353 19.2737 30.0049 19.1007 29.5576 19.1054C29.1104 19.11 28.6838 19.292 28.3736 19.6103L25.3525 22.6341C24.6881 23.2883 24.6782 24.3482 25.3305 25.0143C25.5274 25.2081 25.795 25.3158 26.0731 25.313C26.3511 25.3102 26.6164 25.1972 26.8094 24.9994L28.3385 23.4691Z" fill="white"/>
</svg>
