<svg width="274" height="52" viewBox="0 0 274 52" fill="none" xmlns="http://www.w3.org/2000/svg">
<mask id="mask0_38209_3045" style="mask-type:alpha" maskUnits="userSpaceOnUse" x="0" y="0" width="274" height="52">
<g opacity="0.9">
<rect width="274" height="52" rx="5" fill="#00121B"/>
<rect x="0.5" y="0.5" width="273" height="51" rx="4.5" stroke="white" stroke-opacity="0.05"/>
</g>
</mask>
<g mask="url(#mask0_38209_3045)">
<rect width="274" height="52" rx="8" fill="url(#paint0_linear_38209_3045)" stroke="#091F31"/>
<g opacity="0.25">
<rect x="34.632" y="0.68457" width="1.01859" height="50.6316" fill="white" fill-opacity="0.05"/>
<rect x="40.7436" y="0.68457" width="1.01859" height="50.6316" fill="white" fill-opacity="0.05"/>
<rect x="46.855" y="0.68457" width="1.01859" height="50.6316" fill="white" fill-opacity="0.05"/>
<rect x="52.9666" y="0.68457" width="1.01859" height="50.6316" fill="white" fill-opacity="0.05"/>
<rect x="59.0782" y="0.68457" width="1.01859" height="50.6316" fill="white" fill-opacity="0.05"/>
<rect x="65.1896" y="0.68457" width="1.01859" height="50.6316" fill="white" fill-opacity="0.05"/>
<rect x="71.3012" y="0.68457" width="1.01859" height="50.6316" fill="white" fill-opacity="0.05"/>
<rect x="77.4127" y="0.68457" width="1.01859" height="50.6316" fill="white" fill-opacity="0.05"/>
<rect x="83.5242" y="0.68457" width="1.01859" height="50.6316" fill="white" fill-opacity="0.05"/>
<rect x="89.6358" y="0.68457" width="1.01859" height="50.6316" fill="white" fill-opacity="0.05"/>
<rect x="95.7473" y="0.68457" width="1.01859" height="50.6316" fill="white" fill-opacity="0.05"/>
<rect x="101.859" y="0.68457" width="1.01859" height="50.6316" fill="white" fill-opacity="0.05"/>
<rect x="107.97" y="0.68457" width="1.01859" height="50.6316" fill="white" fill-opacity="0.05"/>
<rect x="114.082" y="0.68457" width="1.01859" height="50.6316" fill="white" fill-opacity="0.05"/>
<rect x="120.193" y="0.68457" width="1.01859" height="50.6316" fill="white" fill-opacity="0.05"/>
<rect x="126.305" y="0.68457" width="1.01859" height="50.6316" fill="white" fill-opacity="0.05"/>
<rect x="132.416" y="0.68457" width="1.01859" height="50.6316" fill="white" fill-opacity="0.05"/>
<rect x="138.528" y="0.68457" width="1.01859" height="50.6316" fill="white" fill-opacity="0.05"/>
<rect x="144.639" y="0.68457" width="1.01859" height="50.6316" fill="white" fill-opacity="0.05"/>
<rect x="150.751" y="0.68457" width="1.01859" height="50.6316" fill="white" fill-opacity="0.05"/>
<rect x="156.863" y="0.68457" width="1.01859" height="50.6316" fill="white" fill-opacity="0.05"/>
<rect x="162.974" y="0.68457" width="1.01859" height="50.6316" fill="white" fill-opacity="0.05"/>
<rect x="169.086" y="0.68457" width="1.01859" height="50.6316" fill="white" fill-opacity="0.05"/>
<rect x="175.197" y="0.68457" width="1.01859" height="50.6316" fill="white" fill-opacity="0.05"/>
<rect x="181.309" y="0.68457" width="1.01859" height="50.6316" fill="white" fill-opacity="0.05"/>
<rect x="187.42" y="0.68457" width="1.01859" height="50.6316" fill="white" fill-opacity="0.05"/>
<rect x="193.532" y="0.68457" width="1.01859" height="50.6316" fill="white" fill-opacity="0.05"/>
<rect x="199.643" y="0.68457" width="1.01859" height="50.6316" fill="white" fill-opacity="0.05"/>
<rect x="205.755" y="0.68457" width="1.01859" height="50.6316" fill="white" fill-opacity="0.05"/>
<rect x="211.866" y="0.68457" width="1.01859" height="50.6316" fill="white" fill-opacity="0.05"/>
<rect x="217.978" y="0.68457" width="1.01859" height="50.6316" fill="white" fill-opacity="0.05"/>
<rect x="224.089" y="0.68457" width="1.01859" height="50.6316" fill="white" fill-opacity="0.05"/>
<rect x="230.201" y="0.68457" width="1.01859" height="50.6316" fill="white" fill-opacity="0.05"/>
<rect x="236.312" y="0.68457" width="1.01859" height="50.6316" fill="white" fill-opacity="0.05"/>
<rect x="242.424" y="0.68457" width="1.01859" height="50.6316" fill="white" fill-opacity="0.05"/>
<rect x="248.535" y="0.68457" width="1.01859" height="50.6316" fill="white" fill-opacity="0.05"/>
<rect x="254.647" y="0.68457" width="1.01859" height="50.6316" fill="white" fill-opacity="0.05"/>
<rect x="260.758" y="0.68457" width="1.01859" height="50.6316" fill="white" fill-opacity="0.05"/>
<rect x="266.87" y="0.68457" width="1.01859" height="50.6316" fill="white" fill-opacity="0.05"/>
<rect x="272.982" y="0.68457" width="1.01859" height="50.6316" fill="white" fill-opacity="0.05"/>
</g>
<g opacity="0.25">
<rect x="29.539" y="4.10547" width="520.498" height="0.684211" fill="white" fill-opacity="0.05"/>
<rect x="29.539" y="8.21094" width="520.498" height="0.684211" fill="white" fill-opacity="0.05"/>
<rect x="30.5576" y="12.3164" width="520.498" height="0.684211" fill="white" fill-opacity="0.05"/>
<rect x="29.539" y="16.4209" width="520.498" height="0.684211" fill="white" fill-opacity="0.05"/>
<rect x="29.539" y="20.5264" width="520.498" height="0.684211" fill="white" fill-opacity="0.05"/>
<rect x="29.5391" y="24.6318" width="520.498" height="0.684211" fill="white" fill-opacity="0.05"/>
<rect x="29.539" y="28.7373" width="520.498" height="0.684211" fill="white" fill-opacity="0.05"/>
<rect x="29.539" y="32.8418" width="520.498" height="0.684211" fill="white" fill-opacity="0.05"/>
<rect x="29.539" y="36.9473" width="520.498" height="0.684211" fill="white" fill-opacity="0.05"/>
<rect x="29.539" y="41.0527" width="520.498" height="0.684211" fill="white" fill-opacity="0.05"/>
<rect x="29.5391" y="45.1582" width="520.498" height="0.684211" fill="white" fill-opacity="0.05"/>
<rect x="29.539" y="49.2637" width="520.498" height="0.684211" fill="white" fill-opacity="0.05"/>
</g>
</g>
<defs>
<linearGradient id="paint0_linear_38209_3045" x1="137" y1="0" x2="137" y2="52" gradientUnits="userSpaceOnUse">
<stop stop-color="#021423"/>
<stop offset="1" stop-color="#02111E"/>
</linearGradient>
<linearGradient id="paint1_linear_38209_3045" x1="138" y1="38.1015" x2="138" y2="16.3043" gradientUnits="userSpaceOnUse">
<stop stop-color="#0085FF"/>
<stop offset="0.9999" stop-color="#00B2FF"/>
<stop offset="1" stop-color="#00B2FF"/>
</linearGradient>
</defs>
</svg>
