<svg xmlns="http://www.w3.org/2000/svg" width="25" height="26" viewBox="0 0 25 26" fill="none">
    <path
        d="M10.3711 5.2649C10.799 3.50106 13.3082 3.50106 13.7361 5.2649C13.8003 5.52987 13.9261 5.77595 14.1034 5.98309C14.2807 6.19023 14.5044 6.35258 14.7563 6.45694C15.0082 6.5613 15.2811 6.6047 15.5529 6.58363C15.8248 6.56255 16.0878 6.47759 16.3206 6.33565C17.8705 5.39146 19.6453 7.16534 18.7012 8.71624C18.5594 8.94892 18.4746 9.21177 18.4536 9.48342C18.4325 9.75506 18.4759 10.0278 18.5801 10.2796C18.6844 10.5313 18.8465 10.7549 19.0534 10.9321C19.2604 11.1094 19.5062 11.2353 19.7709 11.2997C21.5347 11.7276 21.5347 14.2368 19.7709 14.6647C19.5059 14.7289 19.2599 14.8547 19.0527 15.032C18.8456 15.2093 18.6832 15.433 18.5789 15.6849C18.4745 15.9367 18.4311 16.2097 18.4522 16.4815C18.4733 16.7534 18.5582 17.0164 18.7001 17.2492C19.6443 18.799 17.8705 20.5739 16.3196 19.6297C16.0869 19.488 15.824 19.4032 15.5524 19.3822C15.2807 19.3611 15.008 19.4045 14.7562 19.5087C14.5045 19.613 14.2809 19.7751 14.1037 19.982C13.9264 20.1889 13.8005 20.4348 13.7361 20.6995C13.3082 22.4633 10.799 22.4633 10.3711 20.6995C10.3069 20.4345 10.1811 20.1884 10.0038 19.9813C9.82651 19.7742 9.60282 19.6118 9.35094 19.5075C9.09906 19.4031 8.8261 19.3597 8.55427 19.3808C8.28244 19.4018 8.01943 19.4868 7.78664 19.6287C6.23675 20.5729 4.46187 18.799 5.40606 17.2482C5.54779 17.0155 5.63262 16.7526 5.65365 16.481C5.67467 16.2093 5.63131 15.9366 5.52707 15.6848C5.42284 15.4331 5.26068 15.2095 5.05377 15.0323C4.84686 14.855 4.60105 14.7291 4.33631 14.6647C2.57247 14.2368 2.57247 11.7276 4.33631 11.2997C4.60128 11.2355 4.84736 11.1097 5.0545 10.9324C5.26164 10.7551 5.424 10.5314 5.52835 10.2795C5.63271 10.0276 5.67611 9.75469 5.65504 9.48286C5.63396 9.21103 5.549 8.94802 5.40707 8.71523C4.46287 7.16534 6.23675 5.39045 7.78765 6.33465C8.79211 6.94536 10.0939 6.40496 10.3711 5.2649Z"
        stroke="url(#paint0_linear_21931_1644)" stroke-width="2" stroke-linecap="round"
        stroke-linejoin="round" />
    <path
        d="M12.0536 15.9955C13.7178 15.9955 15.0669 14.6464 15.0669 12.9821C15.0669 11.3179 13.7178 9.96875 12.0536 9.96875C10.3893 9.96875 9.04016 11.3179 9.04016 12.9821C9.04016 14.6464 10.3893 15.9955 12.0536 15.9955Z"
        stroke="url(#paint1_linear_21931_1644)" stroke-width="2" stroke-linecap="round"
        stroke-linejoin="round" />
    <defs>
        <linearGradient id="paint0_linear_21931_1644" x1="12.0536" y1="3.82148" x2="12.0417"
            y2="22.0224" gradientUnits="userSpaceOnUse">
            <stop stop-color="#00D1FF" />
            <stop offset="1" stop-color="#0085FF" />
        </linearGradient>
        <linearGradient id="paint1_linear_21931_1644" x1="11.5714" y1="5.26786" x2="11.5604"
            y2="22.1429" gradientUnits="userSpaceOnUse">
            <stop stop-color="#00D1FF" />
            <stop offset="1" stop-color="#0085FF" />
        </linearGradient>
    </defs>
</svg>