<svg width="26" height="25" viewBox="0 0 26 25" fill="none" xmlns="http://www.w3.org/2000/svg">
<path d="M14.222 17.4937L20.1459 19.2708M6.60425 5.72913L8.38133 11.651L6.60425 5.72913Z" stroke="#35648E" stroke-width="2" stroke-linecap="round" stroke-linejoin="round"/>
<path d="M13.0449 12.8302L20.146 5.72913" stroke="#35648E" stroke-width="2" stroke-linecap="round" stroke-linejoin="round"/>
<path d="M6.60425 7.29163C7.46719 7.29163 8.16675 6.59207 8.16675 5.72913C8.16675 4.86618 7.46719 4.16663 6.60425 4.16663C5.7413 4.16663 5.04175 4.86618 5.04175 5.72913C5.04175 6.59207 5.7413 7.29163 6.60425 7.29163Z" stroke="#35648E" stroke-width="2" stroke-linecap="round" stroke-linejoin="round"/>
<path d="M20.1458 7.29163C21.0087 7.29163 21.7083 6.59207 21.7083 5.72913C21.7083 4.86618 21.0087 4.16663 20.1458 4.16663C19.2828 4.16663 18.5833 4.86618 18.5833 5.72913C18.5833 6.59207 19.2828 7.29163 20.1458 7.29163Z" stroke="#35648E" stroke-width="2" stroke-linecap="round" stroke-linejoin="round"/>
<path d="M20.1458 20.8334C21.0087 20.8334 21.7083 20.1338 21.7083 19.2709C21.7083 18.4079 21.0087 17.7084 20.1458 17.7084C19.2828 17.7084 18.5833 18.4079 18.5833 19.2709C18.5833 20.1338 19.2828 20.8334 20.1458 20.8334Z" stroke="#35648E" stroke-width="2" stroke-linecap="round" stroke-linejoin="round"/>
<path d="M9.72925 20.8334C12.3181 20.8334 14.4167 18.7347 14.4167 16.1459C14.4167 13.557 12.3181 11.4584 9.72925 11.4584C7.14041 11.4584 5.04175 13.557 5.04175 16.1459C5.04175 18.7347 7.14041 20.8334 9.72925 20.8334Z" stroke="#35648E" stroke-width="2" stroke-linecap="round" stroke-linejoin="round"/>
</svg>
