<svg width="13" height="13" viewBox="0 0 13 13" fill="none" xmlns="http://www.w3.org/2000/svg">
<path d="M2.1665 4.33317V3.24984C2.1665 2.96252 2.28064 2.68697 2.4838 2.4838C2.68697 2.28064 2.96252 2.1665 3.24984 2.1665H4.33317" stroke="#86BCED" stroke-width="1.5" stroke-linecap="round" stroke-linejoin="round"/>
<path d="M2.1665 8.6665V9.74984C2.1665 10.0372 2.28064 10.3127 2.4838 10.5159C2.68697 10.719 2.96252 10.8332 3.24984 10.8332H4.33317" stroke="#86BCED" stroke-width="1.5" stroke-linecap="round" stroke-linejoin="round"/>
<path d="M8.6665 2.1665H9.74984C10.0372 2.1665 10.3127 2.28064 10.5159 2.4838C10.719 2.68697 10.8332 2.96252 10.8332 3.24984V4.33317" stroke="#86BCED" stroke-width="1.5" stroke-linecap="round" stroke-linejoin="round"/>
<path d="M8.6665 10.8332H9.74984C10.0372 10.8332 10.3127 10.719 10.5159 10.5159C10.719 10.3127 10.8332 10.0372 10.8332 9.74984V8.6665" stroke="#86BCED" stroke-width="1.5" stroke-linecap="round" stroke-linejoin="round"/>
</svg>
