<svg width="24" height="24" viewBox="0 0 24 24" fill="none" xmlns="http://www.w3.org/2000/svg">
<g clip-path="url(#clip0_28382_1471)">
<path d="M8 10C8 9.46957 8.21071 8.96086 8.58579 8.58579C8.96086 8.21071 9.46957 8 10 8H18C18.5304 8 19.0391 8.21071 19.4142 8.58579C19.7893 8.96086 20 9.46957 20 10V18C20 18.5304 19.7893 19.0391 19.4142 19.4142C19.0391 19.7893 18.5304 20 18 20H10C9.46957 20 8.96086 19.7893 8.58579 19.4142C8.21071 19.0391 8 18.5304 8 18V10Z" stroke="url(#paint0_linear_28382_1471)" stroke-width="1.25" stroke-linecap="round" stroke-linejoin="round"/>
<path d="M8 14.4998L14.492 8.00781" stroke="url(#paint1_linear_28382_1471)" stroke-width="1.25" stroke-linecap="round" stroke-linejoin="round"/>
<path d="M13.4961 20.0001L20.0001 13.4961" stroke="url(#paint2_linear_28382_1471)" stroke-width="1.25" stroke-linecap="round" stroke-linejoin="round"/>
<path d="M8.58594 19.4139L19.4129 8.58691" stroke="url(#paint3_linear_28382_1471)" stroke-width="1.25" stroke-linecap="round" stroke-linejoin="round"/>
<path d="M16 8V6C16 5.46957 15.7893 4.96086 15.4142 4.58579C15.0391 4.21071 14.5304 4 14 4H6C5.46957 4 4.96086 4.21071 4.58579 4.58579C4.21071 4.96086 4 5.46957 4 6V14C4 14.5304 4.21071 15.0391 4.58579 15.4142C4.96086 15.7893 5.46957 16 6 16H8" stroke="url(#paint4_linear_28382_1471)" stroke-width="1.25" stroke-linecap="round" stroke-linejoin="round"/>
</g>
<defs>
<linearGradient id="paint0_linear_28382_1471" x1="14" y1="8" x2="14" y2="20" gradientUnits="userSpaceOnUse">
<stop stop-color="#5EE671"/>
<stop offset="1" stop-color="#0EAF6B"/>
</linearGradient>
<linearGradient id="paint1_linear_28382_1471" x1="11.246" y1="8.00781" x2="11.246" y2="14.4998" gradientUnits="userSpaceOnUse">
<stop stop-color="#5EE671"/>
<stop offset="1" stop-color="#0EAF6B"/>
</linearGradient>
<linearGradient id="paint2_linear_28382_1471" x1="16.7481" y1="13.4961" x2="16.7481" y2="20.0001" gradientUnits="userSpaceOnUse">
<stop stop-color="#5EE671"/>
<stop offset="1" stop-color="#0EAF6B"/>
</linearGradient>
<linearGradient id="paint3_linear_28382_1471" x1="13.9994" y1="8.58691" x2="13.9994" y2="19.4139" gradientUnits="userSpaceOnUse">
<stop stop-color="#5EE671"/>
<stop offset="1" stop-color="#0EAF6B"/>
</linearGradient>
<linearGradient id="paint4_linear_28382_1471" x1="10" y1="4" x2="10" y2="16" gradientUnits="userSpaceOnUse">
<stop stop-color="#5EE671"/>
<stop offset="1" stop-color="#0EAF6B"/>
</linearGradient>
<clipPath id="clip0_28382_1471">
<rect width="24" height="24" fill="white"/>
</clipPath>
</defs>
</svg>
