<svg width="52" height="55" viewBox="0 0 52 55" fill="none" xmlns="http://www.w3.org/2000/svg">
<rect y="0.337891" width="52" height="53.7391" rx="6" fill="url(#paint0_linear_11784_932)"/>
<rect x="0.5" y="0.837891" width="51" height="52.7391" rx="5.5" stroke="white" stroke-opacity="0.02"/>
<path d="M20.75 28.318V22.242C20.75 22.074 20.666 21.99 20.512 21.99H18.72C18.566 21.99 18.482 22.074 18.482 22.242V28.318C18.482 29.452 17.88 30.04 16.844 30.04C15.808 30.04 15.234 29.452 15.234 28.318V22.242C15.234 22.074 15.136 21.99 14.982 21.99H13.204C13.036 21.99 12.952 22.074 12.952 22.242V28.318C12.952 30.768 14.38 32.168 16.844 32.168C19.308 32.168 20.75 30.768 20.75 28.318ZM31.297 32C31.493 32 31.563 31.874 31.465 31.706L29.225 28.318C30.513 27.842 31.241 26.82 31.241 25.364C31.241 23.292 29.897 21.99 27.517 21.99H24.115C23.947 21.99 23.863 22.074 23.863 22.242V31.748C23.863 31.916 23.947 32 24.115 32H25.865C26.033 32 26.117 31.916 26.117 31.748V28.654H27.013L28.959 31.832C29.015 31.944 29.113 32 29.239 32H31.297ZM27.447 24.062C28.483 24.062 28.931 24.482 28.931 25.378C28.931 26.288 28.483 26.694 27.447 26.694H26.117V24.062H27.447ZM40.0688 32C40.2228 32 40.3068 31.916 40.3068 31.748V30.152C40.3068 29.998 40.2228 29.914 40.0688 29.914H36.2468V22.242C36.2468 22.074 36.1628 21.99 36.0088 21.99H34.2448C34.0768 21.99 33.9928 22.074 33.9928 22.242V31.748C33.9928 31.916 34.0768 32 34.2448 32H40.0688Z" fill="url(#paint1_linear_11784_932)"/>
<defs>
<linearGradient id="paint0_linear_11784_932" x1="26" y1="0.337891" x2="26" y2="54.077" gradientUnits="userSpaceOnUse">
<stop stop-color="#0A141A"/>
<stop offset="1" stop-color="#000E15"/>
</linearGradient>
<linearGradient id="paint1_linear_11784_932" x1="27.5" y1="21.5" x2="27.5" y2="32" gradientUnits="userSpaceOnUse">
<stop stop-color="#00B2FF"/>
<stop offset="1" stop-color="#0085FF"/>
</linearGradient>
</defs>
</svg>
