<svg width="93" height="12" viewBox="0 0 93 12" fill="none" xmlns="http://www.w3.org/2000/svg">
<path d="M39.112 7.92H41.922C42.022 7.92 42.072 7.87 42.072 7.77V6.97C42.072 6.87 42.022 6.82 41.922 6.82H39.112V4.95H42.182C42.282 4.95 42.332 4.9 42.332 4.81V4C42.332 3.9 42.282 3.85 42.182 3.85H38.042C37.952 3.85 37.902 3.9 37.902 4V10.85C37.902 10.95 37.952 11 38.042 11H42.322C42.422 11 42.472 10.95 42.472 10.85V10.04C42.472 9.95 42.422 9.9 42.322 9.9H39.112V7.92ZM46.1714 8.4L47.6914 5.99C47.7514 5.9 47.7014 5.82 47.5914 5.82H46.5814C46.5014 5.82 46.4414 5.86 46.4014 5.92L45.4514 7.59L44.5014 5.92C44.4614 5.86 44.4014 5.82 44.3214 5.82H43.3114C43.2014 5.82 43.1514 5.9 43.2114 5.99L44.7314 8.4L43.1214 10.82C43.0614 10.93 43.1014 11 43.2214 11H44.2714C44.3514 11 44.4114 10.97 44.4514 10.9L45.4514 9.2L46.4514 10.9C46.4914 10.97 46.5514 11 46.6314 11H47.6914C47.8014 11 47.8414 10.93 47.7814 10.82L46.1714 8.4ZM49.6109 11C49.7009 11 49.7509 10.95 49.7509 10.85V5.96C49.7509 5.87 49.7009 5.82 49.6109 5.82H48.7409C48.6509 5.82 48.5909 5.87 48.5909 5.96V10.85C48.5909 10.95 48.6509 11 48.7409 11H49.6109ZM49.8309 4.46C49.8309 4.08 49.5609 3.81 49.1809 3.81C48.8109 3.81 48.5209 4.08 48.5209 4.46C48.5209 4.83 48.8109 5.12 49.1809 5.12C49.5609 5.12 49.8309 4.83 49.8309 4.46ZM52.1428 9.19V6.9H53.2028C53.2928 6.9 53.3528 6.85 53.3528 6.76V6.03C53.3528 5.94 53.2928 5.89 53.2028 5.89H52.1328L52.0428 4.69C52.0328 4.61 51.9728 4.56 51.8928 4.56H51.1328C51.0328 4.56 50.9828 4.61 50.9828 4.7V9.27C50.9828 10.59 51.7928 11.12 52.8328 11.12C52.9828 11.12 53.1928 11.11 53.3628 11.1C53.4628 11.09 53.5028 11.02 53.5028 10.94V10.18C53.5028 10.09 53.4428 10.04 53.3428 10.04C53.1828 10.05 53.0228 10.06 52.9328 10.06C52.4228 10.06 52.1428 9.74 52.1428 9.19ZM60.8411 11C60.9411 11 60.9911 10.95 60.9911 10.85V10.03C60.9911 9.94 60.9411 9.89 60.8411 9.89H57.9011V4C57.9011 3.9 57.8511 3.85 57.7611 3.85H56.8311C56.7411 3.85 56.6911 3.9 56.6911 4V10.85C56.6911 10.95 56.7411 11 56.8311 11H60.8411ZM66.1352 9.1V7.76C66.1352 6.5 65.2352 5.7 63.8552 5.7C62.4752 5.7 61.5752 6.5 61.5752 7.76V9.1C61.5752 10.34 62.4752 11.12 63.8552 11.12C65.2352 11.12 66.1352 10.34 66.1352 9.1ZM62.7452 9.1V7.76C62.7452 7.1 63.1352 6.74 63.8552 6.74C64.5652 6.74 64.9652 7.1 64.9652 7.76V9.1C64.9652 9.74 64.5652 10.08 63.8552 10.08C63.1352 10.08 62.7452 9.74 62.7452 9.1ZM71.0638 10.56C71.1438 10.5 71.1438 10.44 71.0938 10.36L70.6738 9.76C70.6238 9.67 70.5538 9.67 70.4638 9.72C70.0938 9.96 69.6838 10.08 69.3038 10.08C68.6138 10.08 68.2138 9.73 68.2138 9.11V7.71C68.2138 7.09 68.6038 6.74 69.3138 6.74C69.6838 6.74 70.0538 6.85 70.3638 7.03C70.4538 7.08 70.5238 7.06 70.5738 6.99L70.9638 6.39C71.0138 6.31 71.0038 6.23 70.9238 6.18C70.4138 5.86 69.8638 5.7 69.2838 5.7C67.9038 5.7 67.0538 6.49 67.0538 7.71V9.1C67.0538 10.32 67.8938 11.12 69.2938 11.12C69.9938 11.12 70.5538 10.92 71.0638 10.56ZM71.9005 6.23C71.8505 6.27 71.8505 6.32 71.9005 6.4L72.3005 7.01C72.3505 7.09 72.4305 7.1 72.5005 7.05C72.8205 6.86 73.2805 6.73 73.7805 6.73C74.5205 6.73 74.7805 7.03 74.7805 7.74V7.93C74.4805 7.89 74.1105 7.85 73.7805 7.85C72.5005 7.85 71.5905 8.36 71.5905 9.45C71.5905 10.7 72.6605 11.12 73.8205 11.12C74.5605 11.12 75.3105 10.98 75.8305 10.82C75.9005 10.79 75.9405 10.73 75.9405 10.65V7.73C75.9405 6.32 75.1005 5.7 73.8605 5.7C73.0505 5.7 72.3805 5.9 71.9005 6.23ZM72.7605 9.44C72.7605 9.03 73.0605 8.78 73.8105 8.78C74.1205 8.78 74.5105 8.82 74.7805 8.86V9.99C74.5305 10.05 74.1505 10.11 73.8205 10.11C73.2105 10.11 72.7605 9.91 72.7605 9.44ZM78.2659 9.19V6.9H79.3259C79.4159 6.9 79.4759 6.85 79.4759 6.76V6.03C79.4759 5.94 79.4159 5.89 79.3259 5.89H78.2559L78.1659 4.69C78.1559 4.61 78.0959 4.56 78.0159 4.56H77.2559C77.1559 4.56 77.1059 4.61 77.1059 4.7V9.27C77.1059 10.59 77.9159 11.12 78.9559 11.12C79.1059 11.12 79.3159 11.11 79.4859 11.1C79.5859 11.09 79.6259 11.02 79.6259 10.94V10.18C79.6259 10.09 79.5659 10.04 79.4659 10.04C79.3059 10.05 79.1459 10.06 79.0559 10.06C78.5459 10.06 78.2659 9.74 78.2659 9.19ZM81.4859 11C81.5759 11 81.6259 10.95 81.6259 10.85V5.96C81.6259 5.87 81.5759 5.82 81.4859 5.82H80.6159C80.5259 5.82 80.4659 5.87 80.4659 5.96V10.85C80.4659 10.95 80.5259 11 80.6159 11H81.4859ZM81.7059 4.46C81.7059 4.08 81.4359 3.81 81.0559 3.81C80.6859 3.81 80.3959 4.08 80.3959 4.46C80.3959 4.83 80.6859 5.12 81.0559 5.12C81.4359 5.12 81.7059 4.83 81.7059 4.46ZM87.2778 9.1V7.76C87.2778 6.5 86.3778 5.7 84.9978 5.7C83.6178 5.7 82.7178 6.5 82.7178 7.76V9.1C82.7178 10.34 83.6178 11.12 84.9978 11.12C86.3778 11.12 87.2778 10.34 87.2778 9.1ZM83.8878 9.1V7.76C83.8878 7.1 84.2778 6.74 84.9978 6.74C85.7078 6.74 86.1078 7.1 86.1078 7.76V9.1C86.1078 9.74 85.7078 10.08 84.9978 10.08C84.2778 10.08 83.8878 9.74 83.8878 9.1ZM89.3663 11C89.4663 11 89.5163 10.95 89.5163 10.85V6.85C89.7463 6.79 90.1163 6.74 90.4563 6.74C91.1863 6.74 91.6163 7.02 91.6163 7.96V10.85C91.6163 10.95 91.6763 11 91.7663 11H92.6363C92.7263 11 92.7763 10.95 92.7763 10.85V7.94C92.7763 6.34 91.8363 5.7 90.4563 5.7C89.7463 5.7 89.0463 5.84 88.4663 6.09C88.3863 6.13 88.3563 6.19 88.3563 6.27V10.85C88.3563 10.95 88.4063 11 88.5063 11H89.3663Z" fill="#87A7C3"/>
</svg>
