<svg width="52" height="52" viewBox="0 0 23 23" fill="none" xmlns="http://www.w3.org/2000/svg">
    <path
        d="M15.7778 15.7778H5.03681C4.66258 15.7785 4.29188 15.7054 3.94597 15.5626C3.60005 15.4198 3.28572 15.2102 3.02099 14.9456L0.823914 12.7486C0.294793 12.2151 -0.00145158 11.4937 5.73717e-06 10.7424V5.03681C-0.000745939 4.66258 0.0723721 4.29188 0.215169 3.94597C0.357966 3.60005 0.567633 3.28572 0.832153 3.02099L3.02923 0.823914C3.56321 0.294712 4.28502 -0.00151459 5.03681 5.82395e-06H15.7778V3.15831H5.99666C5.24411 3.15903 4.52258 3.45831 3.99045 3.99045C3.45831 4.52258 3.15903 5.24411 3.15831 5.99666V9.78117C3.15831 10.5341 3.45726 11.2564 3.98948 11.7891C4.52169 12.3218 5.24363 12.6215 5.99666 12.6223H15.7778V15.7778Z"
        fill="white" />
    <path
        d="M6.31641 6.31641H17.0587C17.8092 6.31568 18.5294 6.61185 19.0623 7.14031L21.2593 9.33738C21.7921 9.87018 22.0914 10.5929 22.0914 11.3463V17.0519C22.0914 17.8054 21.7921 18.5281 21.2593 19.0609L19.0623 21.2579C18.5294 21.7907 17.8068 22.0901 17.0533 22.0901H6.31641V18.9317H16.0976C16.851 18.9317 17.5737 18.6324 18.1065 18.0996C18.6393 17.5668 18.9386 16.8442 18.9386 16.0907V12.3076C18.9386 11.5541 18.6393 10.8314 18.1065 10.2986C17.5737 9.76583 16.851 9.4665 16.0976 9.4665H6.31641V6.31641Z"
        fill="white" />
</svg>