<svg width="28" height="28" viewBox="0 0 28 28" fill="none" xmlns="http://www.w3.org/2000/svg">
<path d="M18.21 19C18.378 19 18.462 18.916 18.462 18.748V17.278C18.462 17.124 18.378 17.04 18.21 17.04H14.64C15.382 16.368 16.11 15.64 16.712 14.954C17.748 13.764 18.294 12.91 18.294 11.762C18.294 9.858 16.964 8.808 15.004 8.808C13.548 8.808 12.526 9.466 11.756 10.25C11.658 10.362 11.658 10.474 11.742 10.6L12.61 11.762C12.708 11.888 12.834 11.902 12.946 11.776C13.492 11.244 14.094 10.81 14.92 10.81C15.788 10.81 16.11 11.286 16.11 11.818C16.11 12.63 15.41 13.386 13.884 14.912L11.588 17.222C11.504 17.306 11.462 17.404 11.462 17.53V18.748C11.462 18.916 11.56 19 11.714 19H18.21Z" fill="url(#paint0_linear_20307_9439)"/>
<defs>
<linearGradient id="paint0_linear_20307_9439" x1="19.5" y1="8" x2="19.5" y2="19" gradientUnits="userSpaceOnUse">
<stop stop-color="#00B2FF"/>
<stop offset="1" stop-color="#0085FF"/>
</linearGradient>
</defs>
</svg>
