<svg width="248" height="248" viewBox="0 0 248 248" fill="none" xmlns="http://www.w3.org/2000/svg">
    <rect x="98" y="98" width="52" height="52" rx="12" fill="url(#paint0_linear_32022_723)" />
    <rect x="100" y="100" width="48" height="48" rx="10" stroke="white" stroke-opacity="0.05"
        stroke-width="4" />
    <g clip-path="url(#clip0_32022_723)">
        <path
            d="M130.958 118.333V114.458C130.958 114.116 130.822 113.787 130.58 113.545C130.338 113.303 130.009 113.167 129.667 113.167H116.75C116.065 113.167 115.408 113.439 114.923 113.923C114.439 114.408 114.167 115.065 114.167 115.75M114.167 115.75C114.167 116.435 114.439 117.092 114.923 117.577C115.408 118.061 116.065 118.333 116.75 118.333H132.25C132.593 118.333 132.921 118.469 133.163 118.712C133.406 118.954 133.542 119.282 133.542 119.625V123.5M114.167 115.75V131.25C114.167 131.935 114.439 132.592 114.923 133.077C115.408 133.561 116.065 133.833 116.75 133.833H132.25C132.593 133.833 132.921 133.697 133.163 133.455C133.406 133.213 133.542 132.884 133.542 132.542V128.667"
            stroke="url(#paint1_linear_32022_723)" stroke-width="2.75" stroke-linecap="round"
            stroke-linejoin="round" />
        <path
            d="M134.833 123.5V128.667H129.667C128.981 128.667 128.324 128.394 127.84 127.91C127.355 127.426 127.083 126.768 127.083 126.083C127.083 125.398 127.355 124.741 127.84 124.257C128.324 123.772 128.981 123.5 129.667 123.5H134.833Z"
            stroke="url(#paint2_linear_32022_723)" stroke-width="2.75" stroke-linecap="round"
            stroke-linejoin="round" />
    </g>
    <g clip-path="url(#clip1_32022_723)">
        <path
            d="M150.167 95.7833C151.424 96.509 152.469 97.5504 153.2 98.8044C153.931 100.058 154.321 101.481 154.333 102.933C154.345 104.384 153.977 105.813 153.267 107.079C152.556 108.345 151.528 109.403 150.283 110.149C149.038 110.895 147.62 111.302 146.168 111.332C144.717 111.361 143.284 111.011 142.01 110.316C140.736 109.621 139.665 108.605 138.904 107.37C138.143 106.134 137.718 104.721 137.671 103.27L137.667 103L137.671 102.73C137.718 101.291 138.136 99.8883 138.886 98.6592C139.637 97.43 140.692 96.4162 141.951 95.7166C143.209 95.0169 144.628 94.6553 146.068 94.667C147.507 94.6787 148.92 95.0633 150.167 95.7833ZM149.089 100.744C148.946 100.601 148.755 100.514 148.552 100.502C148.35 100.489 148.15 100.551 147.989 100.675L147.911 100.744L145.167 103.487L144.089 102.411L144.011 102.342C143.851 102.217 143.65 102.156 143.448 102.169C143.245 102.181 143.055 102.268 142.911 102.411C142.768 102.555 142.681 102.745 142.669 102.948C142.656 103.15 142.717 103.35 142.842 103.511L142.911 103.589L144.578 105.256L144.656 105.325C144.802 105.438 144.982 105.5 145.167 105.5C145.352 105.5 145.531 105.438 145.678 105.325L145.756 105.256L149.089 101.922L149.158 101.844C149.283 101.684 149.344 101.484 149.332 101.281C149.319 101.079 149.233 100.888 149.089 100.744Z"
            fill="#34FFAA" />
    </g>
    <g opacity="0.2">
        <circle opacity="0.4" cx="125" cy="125" r="58.5" stroke="#00D1FF" />
        <circle opacity="0.3" cx="125" cy="125" r="80.5" stroke="#00D1FF" />
        <circle opacity="0.2" cx="124" cy="124" r="101.5" stroke="#00D1FF" />
        <circle opacity="0.1" cx="124" cy="124" r="123.5" stroke="#00D1FF" />
    </g>
    <defs>
        <linearGradient id="paint0_linear_32022_723" x1="124" y1="98" x2="124" y2="150"
            gradientUnits="userSpaceOnUse">
            <stop stop-color="#062038" />
            <stop offset="1" stop-color="#01152D" />
        </linearGradient>
        <linearGradient id="paint1_linear_32022_723" x1="123.854" y1="113.167" x2="123.854"
            y2="133.833" gradientUnits="userSpaceOnUse">
            <stop stop-color="#13D5FF" />
            <stop offset="1" stop-color="#0085FF" />
        </linearGradient>
        <linearGradient id="paint2_linear_32022_723" x1="130.958" y1="123.5" x2="130.958"
            y2="128.667" gradientUnits="userSpaceOnUse">
            <stop stop-color="#13D5FF" />
            <stop offset="1" stop-color="#0085FF" />
        </linearGradient>
        <clipPath id="clip0_32022_723">
            <rect width="31" height="31" fill="white" transform="translate(109 108)" />
        </clipPath>
        <clipPath id="clip1_32022_723">
            <rect width="20" height="20" fill="white" transform="translate(136 93)" />
        </clipPath>
    </defs>
</svg>