<svg width="13" height="13" viewBox="0 0 13 13" fill="none" xmlns="http://www.w3.org/2000/svg">
<path d="M10.107 0.75465C9.13364 0.268032 7.8527 0 6.50009 0C5.1474 0 3.86642 0.268032 2.8931 0.754689C1.78962 1.30643 1.18188 2.08772 1.18188 2.95458V5.31821V7.68176V10.0454C1.18188 10.9123 1.78962 11.6936 2.8931 12.2453C3.86642 12.732 5.14736 13 6.50009 13C7.8527 13 9.13364 12.7319 10.107 12.2453C11.2105 11.6935 11.8183 10.9123 11.8183 10.0454V7.68176V5.31821V2.95458C11.8183 2.08772 11.2106 1.30643 10.107 0.75465ZM10.6364 7.6818C10.6364 8.51855 8.86746 9.45444 6.50013 9.45444C4.1328 9.45444 2.3639 8.51855 2.3639 7.6818V7.21039C2.52508 7.31932 2.70143 7.42227 2.89314 7.51813C3.86646 8.00479 5.14744 8.27278 6.50013 8.27278C7.85274 8.27278 9.13368 8.00475 10.107 7.51813C10.2987 7.42227 10.4751 7.31932 10.6364 7.21035V7.6818ZM10.6364 5.31821C10.6364 6.15492 8.86746 7.09077 6.50013 7.09077C4.1328 7.09077 2.3639 6.15492 2.3639 5.31821V4.84676C2.52508 4.95573 2.70143 5.05864 2.89314 5.15446C3.86646 5.64116 5.14744 5.90915 6.50013 5.90915C7.85274 5.90915 9.13368 5.64112 10.107 5.15446C10.2988 5.05857 10.4752 4.95566 10.6364 4.84668V5.31821ZM6.50009 1.18197C8.86742 1.18197 10.6363 2.11782 10.6363 2.95458C10.6363 3.79137 8.86742 4.72722 6.50009 4.72722C4.13276 4.72722 2.36386 3.79137 2.36386 2.95458C2.36386 2.11782 4.13276 1.18197 6.50009 1.18197ZM6.50009 11.818C4.13276 11.818 2.36386 10.8822 2.36386 10.0454V9.57398C2.52504 9.68295 2.70139 9.78586 2.8931 9.88172C3.86642 10.3684 5.1474 10.6364 6.50009 10.6364C7.8527 10.6364 9.13364 10.3684 10.107 9.88172C10.2987 9.78582 10.4751 9.68291 10.6363 9.57394V10.0454C10.6364 10.8822 8.86746 11.818 6.50009 11.818Z" fill="#35648E"/>
</svg>
