<svg width="11" height="14" viewBox="0 0 11 14" fill="none" xmlns="http://www.w3.org/2000/svg">
    <path
        d="M6.24982 3.41675C6.60344 3.41675 6.94257 3.55722 7.19262 3.80727C7.44267 4.05732 7.58314 4.39646 7.58314 4.75008V12.75L4.24982 10.7501L0.916504 12.75V4.75008C0.916504 4.39646 1.05698 4.05732 1.30703 3.80727C1.55707 3.55722 1.89621 3.41675 2.24983 3.41675H6.24982Z"
        stroke="#FD4C76" stroke-width="1.5" stroke-linecap="round" stroke-linejoin="round" />
    <path
        d="M3.75977 1.41667C3.87696 1.21369 4.04558 1.04518 4.24865 0.928142C4.45172 0.8111 4.68205 0.749656 4.91643 0.750001H8.91641C9.27003 0.750001 9.60917 0.890477 9.85922 1.14052C10.1093 1.39057 10.2497 1.72971 10.2497 2.08333V10.0833L9.58308 9.6833"
        stroke="#FD4C76" stroke-width="1.5" stroke-linecap="round" stroke-linejoin="round" />
</svg>
    