<svg width="14" height="12" viewBox="0 0 14 12" fill="none" xmlns="http://www.w3.org/2000/svg">
<path d="M10.5635 3.66597C10.3052 3.51375 9.96947 3.51375 9.6854 3.66597L7.6708 4.83299L6.30194 5.59411L4.2874 6.7611C4.02912 6.91332 3.69336 6.91332 3.40925 6.7611L1.80794 5.84776C1.54966 5.69555 1.36887 5.4165 1.36887 5.11206V3.31078C1.36887 3.00634 1.52384 2.72727 1.80794 2.57505L3.38342 1.68711C3.6417 1.53489 3.97746 1.53489 4.26157 1.68711L5.83707 2.57505C6.09532 2.72727 6.27613 3.00634 6.27613 3.31078V4.47781L7.64499 3.69134V2.52432C7.64499 2.21987 7.49005 1.9408 7.20593 1.78858L4.2874 0.114165C4.02912 -0.038055 3.69336 -0.038055 3.40925 0.114165L0.439071 1.78858C0.154966 1.9408 0 2.21987 0 2.52432V5.89853C0 6.20296 0.154966 6.48206 0.439071 6.63427L3.40925 8.30869C3.66753 8.4609 4.00329 8.4609 4.2874 8.30869L6.30194 7.16703L7.6708 6.38056L9.6854 5.23891C9.94366 5.08669 10.2794 5.08669 10.5635 5.23891L12.139 6.12686C12.3973 6.27907 12.5781 6.55817 12.5781 6.8626V8.66384C12.5781 8.96832 12.4231 9.24736 12.139 9.39958L10.5635 10.3129C10.3052 10.4651 9.96947 10.4651 9.6854 10.3129L8.10992 9.42496C7.85161 9.27275 7.6708 8.99365 7.6708 8.68923V7.52223L6.30194 8.30869V9.47569C6.30194 9.78011 6.45694 10.0592 6.741 10.2114L9.71122 11.8858C9.96947 12.0381 10.3052 12.0381 10.5893 11.8858L13.5596 10.2114C13.8178 10.0592 13.9986 9.78011 13.9986 9.47569V6.10147C13.9986 5.79704 13.8436 5.518 13.5596 5.36578L10.5635 3.66597Z" fill="#8247E5"/>
</svg>
