<svg width="18" height="9" viewBox="0 0 18 9" fill="none" xmlns="http://www.w3.org/2000/svg">
    <path
        d="M16.3097 4.59427L14.3043 4.11966L13.9462 3.97363L4.74268 4.04665V8.57363L16.3097 8.61014V4.59427Z"
        fill="white" />
    <path
        d="M12.5495 8.17223C12.6569 7.80715 12.6211 7.44207 12.4421 7.22302C12.263 7.00397 12.0123 6.85794 11.69 6.82143L5.45887 6.74842C5.42306 6.74842 5.38724 6.71191 5.35143 6.71191C5.31562 6.6754 5.31562 6.6389 5.35143 6.60239C5.38724 6.52937 5.42305 6.49286 5.49468 6.49286L11.7616 6.41985C12.5137 6.38334 13.3015 5.7627 13.588 5.03255L13.9461 4.08334C13.9461 4.04683 13.9819 4.01032 13.9461 3.97382C13.5522 2.11191 11.9049 0.724609 9.97109 0.724609C8.18052 0.724609 6.64064 1.89286 6.10347 3.53572C5.74536 3.28017 5.31562 3.13413 4.81426 3.17064C3.95479 3.24366 3.27438 3.97382 3.16694 4.85001C3.13113 5.06905 3.16694 5.2881 3.20276 5.50715C1.80612 5.54366 0.660156 6.71191 0.660156 8.17223C0.660156 8.31826 0.660156 8.42778 0.695967 8.57382C0.695967 8.64683 0.767589 8.68334 0.803401 8.68334H12.2988C12.3704 8.68334 12.4421 8.64683 12.4421 8.57382L12.5495 8.17223Z"
        fill="url(#paint0_linear_26239_33)" />
    <path
        d="M14.5193 4.08301H14.3402C14.3044 4.08301 14.2686 4.11952 14.2328 4.15602L13.9821 5.03221C13.8747 5.39729 13.9105 5.76237 14.0895 5.98142C14.2686 6.20047 14.5193 6.3465 14.8416 6.38301L16.1666 6.45602C16.2024 6.45602 16.2382 6.49253 16.274 6.49253C16.3098 6.52904 16.3098 6.56555 16.274 6.60206C16.2382 6.67507 16.2024 6.71158 16.1308 6.71158L14.77 6.7846C14.0179 6.8211 13.2301 7.44174 12.9436 8.1719L12.872 8.50047C12.8361 8.53698 12.872 8.60999 12.9436 8.60999H17.6707C17.7423 8.60999 17.7781 8.57348 17.7781 8.50047C17.8497 8.2084 17.9213 7.87983 17.9213 7.55126C17.9213 5.65285 16.3815 4.08301 14.5193 4.08301Z"
        fill="#FDBC40" />
    <defs>
        <linearGradient id="paint0_linear_26239_33" x1="7.3111" y1="0.724609" x2="7.3111"
            y2="8.68334" gradientUnits="userSpaceOnUse">
            <stop stop-color="#EFF9FF" />
            <stop offset="1" stop-color="#D1EEFF" />
        </linearGradient>
    </defs>
</svg>
    