<svg version="1.2" baseProfile="tiny-ps" xmlns="http://www.w3.org/2000/svg" viewBox="0 0 16 16" width="16" height="16">
	<title>image</title>
	<defs>
		<clipPath clipPathUnits="userSpaceOnUse" id="cp1">
			<path d="M18 18L0 18L0 0L18 0L18 18Z" />
		</clipPath>
		<linearGradient id="grd1" gradientUnits="userSpaceOnUse"  x1="8.1" y1="14.85" x2="8.1" y2="1.35">
			<stop offset="0" stop-color="#0085ff"  />
			<stop offset="1" stop-color="#00b2ff"  />
		</linearGradient>
		<linearGradient id="grd2" gradientUnits="userSpaceOnUse"  x1="9.6" y1="11.1" x2="9.6" y2="8.1">
			<stop offset="0" stop-color="#0085ff"  />
			<stop offset="1" stop-color="#00b2ff"  />
		</linearGradient>
		<linearGradient id="grd3" gradientUnits="userSpaceOnUse"  x1="0" y1="16.2" x2="0" y2="0">
			<stop offset="0" stop-color="#0085ff"  />
			<stop offset="1" stop-color="#00b2ff"  />
		</linearGradient>
		<linearGradient id="grd4" gradientUnits="userSpaceOnUse"  x1="6.6" y1="11.1" x2="6.6" y2="8.1">
			<stop offset="0" stop-color="#0085ff"  />
			<stop offset="1" stop-color="#00b2ff"  />
		</linearGradient>
	</defs>
	<style>
		tspan { white-space:pre }
		.shp0 { fill: none;stroke: #35648E;stroke-linecap:round;stroke-linejoin:round;stroke-width: 1.2 } 
		.shp1 { fill: none;stroke: #35648E;stroke-linecap:round;stroke-linejoin:round;stroke-width: 1.2 } 
		.shp2 { fill: none;stroke: #35648E;stroke-linecap:round;stroke-linejoin:round;stroke-width: 1.2 } 
		.shp3 { fill: none;stroke: #35648E;stroke-linecap:round;stroke-linejoin:round;stroke-width: 1.2 } 
	</style>
	<g id="Clip-Path" clip-path="url(#cp1)">
		<g id="Layer">
			<path id="Layer" class="shp0" d="M8.1 1.35C4.37 1.35 1.35 4.37 1.35 8.1C1.35 11.83 4.37 14.85 8.1 14.85C11.83 14.85 14.85 11.83 14.85 8.1C14.85 4.37 11.83 1.35 8.1 1.35Z" />
			<path id="Layer" class="shp1" d="M8.1 11.1L11.1 8.1" />
			<path id="Layer" class="shp2" d="M8.1 11.1L8.1 5.1" />
			<path id="Layer" class="shp3" d="M5.1 8.1L8.1 11.1" />
		</g>
	</g>
</svg>