<svg xmlns="http://www.w3.org/2000/svg" width="11" height="11" viewBox="0 0 11 11" fill="none">
    <g clip-path="url(#clip0_31996_339)">
        <path
            d="M5.59116 1.35231C6.64404 2.28383 8.01823 2.76884 9.42257 2.70457C9.62703 3.4001 9.68959 4.12962 9.60654 4.8498C9.52348 5.56998 9.29651 6.26611 8.9391 6.89683C8.58169 7.52756 8.10114 8.08 7.526 8.52133C6.95087 8.96266 6.29289 9.28388 5.59116 9.4659C4.88943 9.28388 4.23145 8.96266 3.65631 8.52133C3.08118 8.08 2.60063 7.52756 2.24322 6.89683C1.88581 6.26611 1.65883 5.56998 1.57578 4.8498C1.49272 4.12962 1.55528 3.4001 1.75974 2.70457C3.16408 2.76884 4.53827 2.28383 5.59116 1.35231"
            stroke="#4DE3A4" stroke-width="1.69999" stroke-linecap="round" stroke-linejoin="round" />
        <path
            d="M5.59053 5.40913C5.83947 5.40913 6.04128 5.20732 6.04128 4.95837C6.04128 4.70942 5.83947 4.50761 5.59053 4.50761C5.34158 4.50761 5.13977 4.70942 5.13977 4.95837C5.13977 5.20732 5.34158 5.40913 5.59053 5.40913Z"
            stroke="#4DE3A4" stroke-width="1.69999" stroke-linecap="round" stroke-linejoin="round" />
        <path d="M5.59082 5.40912V6.53601" stroke="#4DE3A4" stroke-width="1.69999"
            stroke-linecap="round" stroke-linejoin="round" />
    </g>
    <defs>
        <clipPath id="clip0_31996_339">
            <rect x="0.181885" y="7.62939e-05" width="10.8181" height="10.8181" fill="white" />
        </clipPath>
    </defs>
</svg>