<svg width="22" height="22" viewBox="0 0 22 22" fill="none" xmlns="http://www.w3.org/2000/svg">
    <circle cx="11" cy="11" r="11" fill="black" fill-opacity="0.75" />
    <path
        d="M9.6665 11.6667C9.6665 12.0203 9.80698 12.3595 10.057 12.6095C10.3071 12.8596 10.6462 13 10.9998 13C11.3535 13 11.6926 12.8596 11.9426 12.6095C12.1927 12.3595 12.3332 12.0203 12.3332 11.6667C12.3332 11.3131 12.1927 10.9739 11.9426 10.7239C11.6926 10.4739 11.3535 10.3334 10.9998 10.3334C10.6462 10.3334 10.3071 10.4739 10.057 10.7239C9.80698 10.9739 9.6665 11.3131 9.6665 11.6667Z"
        stroke="url(#paint0_linear_36109_5)" stroke-linecap="round" stroke-linejoin="round" />
    <path
        d="M8.3335 17V16.3333C8.3335 15.9797 8.47397 15.6406 8.72402 15.3905C8.97407 15.1405 9.31321 15 9.66683 15H12.3335C12.6871 15 13.0263 15.1405 13.2763 15.3905C13.5264 15.6406 13.6668 15.9797 13.6668 16.3333V17"
        stroke="url(#paint1_linear_36109_5)" stroke-linecap="round" stroke-linejoin="round" />
    <path
        d="M13 6.33333C13 6.68696 13.1405 7.02609 13.3905 7.27614C13.6406 7.52619 13.9797 7.66667 14.3333 7.66667C14.687 7.66667 15.0261 7.52619 15.2761 7.27614C15.5262 7.02609 15.6667 6.68696 15.6667 6.33333C15.6667 5.97971 15.5262 5.64057 15.2761 5.39052C15.0261 5.14048 14.687 5 14.3333 5C13.9797 5 13.6406 5.14048 13.3905 5.39052C13.1405 5.64057 13 5.97971 13 6.33333Z"
        stroke="url(#paint2_linear_36109_5)" stroke-linecap="round" stroke-linejoin="round" />
    <path
        d="M14.3335 9.66663H15.6668C16.0205 9.66663 16.3596 9.8071 16.6096 10.0572C16.8597 10.3072 17.0002 10.6463 17.0002 11V11.6666"
        stroke="url(#paint3_linear_36109_5)" stroke-linecap="round" stroke-linejoin="round" />
    <path
        d="M6.3335 6.33333C6.3335 6.68696 6.47397 7.02609 6.72402 7.27614C6.97407 7.52619 7.31321 7.66667 7.66683 7.66667C8.02045 7.66667 8.35959 7.52619 8.60964 7.27614C8.85969 7.02609 9.00016 6.68696 9.00016 6.33333C9.00016 5.97971 8.85969 5.64057 8.60964 5.39052C8.35959 5.14048 8.02045 5 7.66683 5C7.31321 5 6.97407 5.14048 6.72402 5.39052C6.47397 5.64057 6.3335 5.97971 6.3335 6.33333Z"
        stroke="url(#paint4_linear_36109_5)" stroke-linecap="round" stroke-linejoin="round" />
    <path
        d="M5 11.6666V11C5 10.6463 5.14048 10.3072 5.39052 10.0572C5.64057 9.8071 5.97971 9.66663 6.33333 9.66663H7.66667"
        stroke="url(#paint5_linear_36109_5)" stroke-linecap="round" stroke-linejoin="round" />
    <defs>
        <linearGradient id="paint0_linear_36109_5" x1="10.9998" y1="10.3334" x2="10.9998" y2="13"
            gradientUnits="userSpaceOnUse">
            <stop stop-color="#13D5FF" />
            <stop offset="1" stop-color="#0085FF" />
        </linearGradient>
        <linearGradient id="paint1_linear_36109_5" x1="11.0002" y1="15" x2="11.0002" y2="17"
            gradientUnits="userSpaceOnUse">
            <stop stop-color="#13D5FF" />
            <stop offset="1" stop-color="#0085FF" />
        </linearGradient>
        <linearGradient id="paint2_linear_36109_5" x1="14.3333" y1="5" x2="14.3333" y2="7.66667"
            gradientUnits="userSpaceOnUse">
            <stop stop-color="#13D5FF" />
            <stop offset="1" stop-color="#0085FF" />
        </linearGradient>
        <linearGradient id="paint3_linear_36109_5" x1="15.6668" y1="9.66663" x2="15.6668"
            y2="11.6666" gradientUnits="userSpaceOnUse">
            <stop stop-color="#13D5FF" />
            <stop offset="1" stop-color="#0085FF" />
        </linearGradient>
        <linearGradient id="paint4_linear_36109_5" x1="7.66683" y1="5" x2="7.66683" y2="7.66667"
            gradientUnits="userSpaceOnUse">
            <stop stop-color="#13D5FF" />
            <stop offset="1" stop-color="#0085FF" />
        </linearGradient>
        <linearGradient id="paint5_linear_36109_5" x1="6.33333" y1="9.66663" x2="6.33333"
            y2="11.6666" gradientUnits="userSpaceOnUse">
            <stop stop-color="#13D5FF" />
            <stop offset="1" stop-color="#0085FF" />
        </linearGradient>
    </defs>
</svg>