<svg width="344" height="366" viewBox="0 0 344 366" fill="none" xmlns="http://www.w3.org/2000/svg">
    <path
        d="M169.5 212L169.41 212.492L169.848 212.572L169.978 212.147L169.5 212ZM225.902 183.99C226.173 184.044 226.436 183.869 226.49 183.598C226.544 183.327 226.369 183.064 226.098 183.01L225.902 183.99ZM115.867 240.829C115.987 240.58 115.882 240.281 115.633 240.162C115.384 240.042 115.086 240.147 114.966 240.396L115.867 240.829ZM115.861 238.613C115.733 238.858 115.827 239.16 116.072 239.288C116.316 239.416 116.619 239.322 116.747 239.077L115.861 238.613ZM117.683 237.358C117.819 237.118 117.735 236.813 117.495 236.677C117.254 236.541 116.949 236.625 116.813 236.865L117.683 237.358ZM117.825 235.145C117.681 235.38 117.756 235.688 117.992 235.832C118.227 235.976 118.535 235.901 118.679 235.665L117.825 235.145ZM119.728 234.007C119.88 233.776 119.815 233.466 119.584 233.315C119.353 233.163 119.043 233.228 118.892 233.459L119.728 234.007ZM120.01 231.813C119.851 232.039 119.905 232.35 120.131 232.509C120.357 232.668 120.669 232.614 120.828 232.388L120.01 231.813ZM121.981 230.805C122.147 230.585 122.104 230.271 121.883 230.105C121.663 229.939 121.349 229.983 121.183 230.203L121.981 230.805ZM122.41 228.633C122.236 228.847 122.27 229.162 122.484 229.336C122.699 229.51 123.014 229.476 123.187 229.262L122.41 228.633ZM124.446 227.761C124.627 227.552 124.605 227.237 124.397 227.055C124.188 226.874 123.872 226.896 123.691 227.105L124.446 227.761ZM125.026 225.623C124.838 225.825 124.848 226.141 125.05 226.33C125.252 226.518 125.568 226.508 125.757 226.306L125.026 225.623ZM127.12 224.9C127.315 224.705 127.316 224.389 127.122 224.193C126.927 223.997 126.61 223.996 126.415 224.191L127.12 224.9ZM127.856 222.811C127.653 222.998 127.64 223.314 127.827 223.518C128.014 223.721 128.331 223.734 128.534 223.547L127.856 222.811ZM129.999 222.25C130.209 222.071 130.234 221.755 130.055 221.545C129.876 221.334 129.561 221.309 129.351 221.488L129.999 222.25ZM130.897 220.225C130.679 220.395 130.641 220.71 130.812 220.927C130.982 221.145 131.296 221.183 131.513 221.012L130.897 220.225ZM133.077 219.839C133.302 219.678 133.353 219.365 133.192 219.141C133.031 218.917 132.718 218.865 132.494 219.027L133.077 219.839ZM134.14 217.896C133.909 218.047 133.845 218.357 133.996 218.588C134.148 218.819 134.458 218.883 134.689 218.732L134.14 217.896ZM136.346 217.696C136.583 217.555 136.661 217.248 136.52 217.01C136.379 216.773 136.072 216.695 135.835 216.837L136.346 217.696ZM137.574 215.852C137.331 215.983 137.239 216.286 137.37 216.529C137.501 216.773 137.804 216.864 138.047 216.733L137.574 215.852ZM139.79 215.848C140.038 215.728 140.143 215.429 140.024 215.18C139.904 214.932 139.606 214.827 139.357 214.946L139.79 215.848ZM141.179 214.121C140.925 214.229 140.807 214.523 140.915 214.777C141.023 215.031 141.317 215.149 141.571 215.041L141.179 214.121ZM143.384 214.318C143.642 214.221 143.774 213.933 143.677 213.675C143.581 213.416 143.293 213.284 143.034 213.381L143.384 214.318ZM144.92 212.726C144.657 212.811 144.513 213.092 144.597 213.355C144.682 213.618 144.964 213.762 145.227 213.678L144.92 212.726ZM147.097 213.122C147.364 213.049 147.521 212.774 147.448 212.508C147.375 212.242 147.101 212.084 146.834 212.157L147.097 213.122ZM148.773 211.675C148.503 211.735 148.334 212.003 148.395 212.272C148.456 212.542 148.723 212.711 148.993 212.65L148.773 211.675ZM150.91 212.263C151.181 212.214 151.362 211.954 151.314 211.683C151.265 211.411 151.005 211.23 150.733 211.279L150.91 212.263ZM152.712 210.968C152.439 211.005 152.247 211.257 152.284 211.531C152.321 211.804 152.572 211.996 152.846 211.959L152.712 210.968ZM154.782 211.74C155.057 211.714 155.26 211.471 155.234 211.196C155.209 210.921 154.965 210.719 154.69 210.744L154.782 211.74ZM156.678 210.602C156.402 210.616 156.19 210.851 156.204 211.127C156.218 211.402 156.453 211.615 156.729 211.6L156.678 210.602ZM158.686 211.54C158.962 211.536 159.184 211.31 159.181 211.034C159.177 210.758 158.951 210.536 158.675 210.54L158.686 211.54ZM160.679 210.556C160.402 210.548 160.173 210.766 160.165 211.042C160.158 211.318 160.375 211.548 160.651 211.555L160.679 210.556ZM162.597 211.644C162.872 211.661 163.11 211.452 163.128 211.177C163.145 210.901 162.936 210.663 162.66 210.646L162.597 211.644ZM164.646 210.808C164.371 210.781 164.126 210.981 164.099 211.256C164.072 211.531 164.272 211.776 164.547 211.803L164.646 210.808ZM166.504 212.031C166.778 212.068 167.029 211.876 167.066 211.602C167.103 211.328 166.911 211.077 166.637 211.04L166.504 212.031ZM168.596 211.334C168.323 211.289 168.066 211.473 168.02 211.745C167.975 212.018 168.159 212.275 168.431 212.321L168.596 211.334ZM170.288 211.196C170.378 210.935 170.239 210.651 169.978 210.561C169.717 210.471 169.432 210.609 169.342 210.87L170.288 211.196ZM170.079 208.931C169.973 209.186 170.094 209.479 170.35 209.584C170.605 209.69 170.897 209.569 171.003 209.314L170.079 208.931ZM171.827 207.47C171.946 207.221 171.841 206.922 171.592 206.803C171.343 206.683 171.044 206.788 170.925 207.038L171.827 207.47ZM171.869 205.189C171.737 205.432 171.827 205.735 172.07 205.867C172.313 205.999 172.616 205.908 172.748 205.666L171.869 205.189ZM173.752 203.916C173.895 203.679 173.819 203.372 173.583 203.229C173.347 203.086 173.039 203.161 172.896 203.398L173.752 203.916ZM174.009 201.654C173.855 201.883 173.916 202.194 174.145 202.347C174.375 202.501 174.685 202.44 174.839 202.211L174.009 201.654ZM176.005 200.556C176.169 200.333 176.122 200.02 175.9 199.856C175.678 199.692 175.365 199.739 175.2 199.961L176.005 200.556ZM176.468 198.325C176.294 198.539 176.327 198.854 176.542 199.028C176.756 199.202 177.071 199.169 177.245 198.955L176.468 198.325ZM178.556 197.412C178.74 197.206 178.721 196.89 178.515 196.706C178.309 196.522 177.993 196.541 177.809 196.747L178.556 197.412ZM179.22 195.233C179.027 195.43 179.031 195.747 179.229 195.94C179.427 196.133 179.743 196.129 179.936 195.931L179.22 195.233ZM181.381 194.516C181.582 194.327 181.593 194.011 181.404 193.809C181.216 193.608 180.899 193.597 180.698 193.786L181.381 194.516ZM182.24 192.408C182.03 192.587 182.005 192.903 182.184 193.113C182.363 193.323 182.679 193.348 182.889 193.169L182.24 192.408ZM184.459 191.894C184.677 191.725 184.717 191.411 184.548 191.192C184.379 190.974 184.064 190.934 183.846 191.103L184.459 191.894ZM185.512 189.875C185.286 190.033 185.231 190.345 185.39 190.571C185.548 190.797 185.86 190.852 186.086 190.693L185.512 189.875ZM187.769 189.57C188.002 189.423 188.071 189.114 187.924 188.881C187.776 188.647 187.467 188.578 187.234 188.726L187.769 189.57ZM189.007 187.66C188.768 187.796 188.684 188.102 188.82 188.342C188.957 188.582 189.262 188.665 189.502 188.529L189.007 187.66ZM191.281 187.571C191.527 187.446 191.626 187.145 191.5 186.899C191.375 186.653 191.074 186.554 190.828 186.68L191.281 187.571ZM192.693 185.786C192.441 185.9 192.329 186.196 192.442 186.448C192.556 186.699 192.852 186.812 193.103 186.698L192.693 185.786ZM194.965 185.911C195.221 185.81 195.347 185.519 195.245 185.262C195.144 185.005 194.853 184.88 194.597 184.981L194.965 185.911ZM196.536 184.265C196.275 184.355 196.136 184.639 196.225 184.9C196.315 185.162 196.6 185.301 196.861 185.211L196.536 184.265ZM198.788 184.597C199.053 184.519 199.205 184.242 199.127 183.977C199.049 183.712 198.771 183.56 198.506 183.638L198.788 184.597ZM200.505 183.099C200.236 183.165 200.073 183.436 200.139 183.704C200.205 183.972 200.476 184.136 200.744 184.07L200.505 183.099ZM202.724 183.627C202.995 183.573 203.17 183.309 203.116 183.039C203.062 182.768 202.798 182.593 202.527 182.647L202.724 183.627ZM204.557 182.283C204.285 182.326 204.098 182.582 204.141 182.855C204.184 183.128 204.44 183.314 204.713 183.271L204.557 182.283ZM206.715 182.997C206.99 182.965 207.186 182.717 207.154 182.443C207.122 182.168 206.874 181.972 206.6 182.004L206.715 182.997ZM208.655 181.805C208.38 181.827 208.174 182.067 208.195 182.342C208.216 182.618 208.457 182.824 208.732 182.802L208.655 181.805ZM210.763 182.685C211.039 182.674 211.254 182.442 211.243 182.166C211.232 181.89 211 181.675 210.724 181.686L210.763 182.685ZM212.783 181.643C212.506 181.644 212.283 181.868 212.284 182.145C212.285 182.421 212.509 182.644 212.785 182.643L212.783 181.643ZM214.808 182.673C215.084 182.682 215.315 182.465 215.324 182.189C215.333 181.913 215.116 181.682 214.84 181.673L214.808 182.673ZM216.906 181.774C216.631 181.756 216.393 181.965 216.375 182.24C216.357 182.516 216.565 182.754 216.841 182.772L216.906 181.774ZM218.863 182.937C219.138 182.963 219.383 182.762 219.41 182.487C219.436 182.213 219.235 181.968 218.96 181.941L218.863 182.937ZM221.001 182.171C220.727 182.136 220.477 182.33 220.442 182.604C220.407 182.878 220.6 183.128 220.874 183.163L221.001 182.171ZM222.896 183.452C223.169 183.495 223.425 183.309 223.468 183.036C223.511 182.763 223.324 182.507 223.052 182.464L222.896 183.452ZM225.072 182.812C224.801 182.761 224.54 182.94 224.489 183.212C224.439 183.483 224.618 183.744 224.889 183.795L225.072 182.812ZM115.455 241.708C115.586 241.422 115.724 241.128 115.867 240.829L114.966 240.396C114.82 240.701 114.679 241 114.545 241.292L115.455 241.708ZM116.747 239.077C117.039 238.519 117.351 237.945 117.683 237.358L116.813 236.865C116.476 237.461 116.158 238.045 115.861 238.613L116.747 239.077ZM118.679 235.665C119.012 235.119 119.362 234.566 119.728 234.007L118.892 233.459C118.519 234.027 118.164 234.589 117.825 235.145L118.679 235.665ZM120.828 232.388C121.197 231.863 121.582 231.334 121.981 230.805L121.183 230.203C120.777 230.741 120.386 231.278 120.01 231.813L120.828 232.388ZM123.187 229.262C123.593 228.76 124.013 228.259 124.446 227.761L123.691 227.105C123.25 227.613 122.823 228.122 122.41 228.633L123.187 229.262ZM125.757 226.306C126.198 225.833 126.652 225.364 127.12 224.9L126.415 224.191C125.938 224.664 125.476 225.142 125.026 225.623L125.757 226.306ZM128.534 223.547C129.01 223.108 129.498 222.676 129.999 222.25L129.351 221.488C128.84 221.923 128.342 222.364 127.856 222.811L128.534 223.547ZM131.513 221.012C132.023 220.613 132.544 220.222 133.077 219.839L132.494 219.027C131.949 219.418 131.417 219.818 130.897 220.225L131.513 221.012ZM134.689 218.732C135.23 218.377 135.782 218.032 136.346 217.696L135.835 216.837C135.258 217.18 134.693 217.533 134.14 217.896L134.689 218.732ZM138.047 216.733C138.617 216.428 139.198 216.132 139.79 215.848L139.357 214.946C138.751 215.237 138.157 215.54 137.574 215.852L138.047 216.733ZM141.571 215.041C142.164 214.789 142.769 214.547 143.384 214.318L143.034 213.381C142.405 213.615 141.787 213.863 141.179 214.121L141.571 215.041ZM145.227 213.678C145.84 213.48 146.464 213.295 147.097 213.122L146.834 212.157C146.186 212.334 145.548 212.524 144.92 212.726L145.227 213.678ZM148.993 212.65C149.622 212.509 150.261 212.379 150.91 212.263L150.733 211.279C150.07 211.398 149.417 211.53 148.773 211.675L148.993 212.65ZM152.846 211.959C153.482 211.873 154.128 211.8 154.782 211.74L154.69 210.744C154.022 210.806 153.363 210.881 152.712 210.968L152.846 211.959ZM156.729 211.6C157.373 211.568 158.025 211.547 158.686 211.54L158.675 210.54C158.001 210.547 157.335 210.568 156.678 210.602L156.729 211.6ZM160.651 211.555C161.292 211.573 161.941 211.602 162.597 211.644L162.66 210.646C161.992 210.603 161.332 210.573 160.679 210.556L160.651 211.555ZM164.547 211.803C165.192 211.867 165.845 211.943 166.504 212.031L166.637 211.04C165.966 210.95 165.303 210.873 164.646 210.808L164.547 211.803ZM168.431 212.321C168.756 212.375 169.082 212.432 169.41 212.492L169.59 211.508C169.257 211.447 168.925 211.389 168.596 211.334L168.431 212.321ZM169.978 212.147C170.073 211.837 170.176 211.52 170.288 211.196L169.342 210.87C169.227 211.204 169.12 211.532 169.022 211.853L169.978 212.147ZM171.003 209.314C171.252 208.713 171.526 208.097 171.827 207.47L170.925 207.038C170.617 207.681 170.335 208.314 170.079 208.931L171.003 209.314ZM172.748 205.666C173.061 205.088 173.396 204.504 173.752 203.916L172.896 203.398C172.532 203.999 172.19 204.597 171.869 205.189L172.748 205.666ZM174.839 202.211C175.209 201.66 175.597 201.107 176.005 200.556L175.2 199.961C174.784 200.525 174.386 201.09 174.009 201.654L174.839 202.211ZM177.245 198.955C177.665 198.438 178.102 197.923 178.556 197.412L177.809 196.747C177.344 197.27 176.897 197.796 176.468 198.325L177.245 198.955ZM179.936 195.931C180.401 195.454 180.883 194.982 181.381 194.516L180.698 193.786C180.188 194.262 179.696 194.745 179.22 195.233L179.936 195.931ZM182.889 193.169C183.397 192.737 183.92 192.311 184.459 191.894L183.846 191.103C183.295 191.53 182.76 191.965 182.24 192.408L182.889 193.169ZM186.086 190.693C186.633 190.31 187.193 189.935 187.769 189.57L187.234 188.726C186.645 189.099 186.071 189.482 185.512 189.875L186.086 190.693ZM189.502 188.529C190.082 188.199 190.675 187.879 191.281 187.571L190.828 186.68C190.207 186.995 189.6 187.322 189.007 187.66L189.502 188.529ZM193.103 186.698C193.711 186.424 194.331 186.162 194.965 185.911L194.597 184.981C193.949 185.238 193.314 185.506 192.693 185.786L193.103 186.698ZM196.861 185.211C197.491 184.994 198.134 184.789 198.788 184.597L198.506 183.638C197.837 183.834 197.18 184.044 196.536 184.265L196.861 185.211ZM200.744 184.07C201.393 183.91 202.053 183.762 202.724 183.627L202.527 182.647C201.842 182.785 201.167 182.935 200.505 183.099L200.744 184.07ZM204.713 183.271C205.37 183.168 206.038 183.076 206.715 182.997L206.6 182.004C205.909 182.084 205.228 182.178 204.557 182.283L204.713 183.271ZM208.732 182.802C209.399 182.751 210.076 182.712 210.763 182.685L210.724 181.686C210.025 181.713 209.335 181.753 208.655 181.805L208.732 182.802ZM212.785 182.643C213.451 182.641 214.125 182.651 214.808 182.673L214.84 181.673C214.146 181.651 213.46 181.641 212.783 181.643L212.785 182.643ZM216.841 182.772C217.507 182.815 218.181 182.87 218.863 182.937L218.96 181.941C218.268 181.874 217.583 181.818 216.906 181.774L216.841 182.772ZM220.874 183.163C221.541 183.249 222.215 183.345 222.896 183.452L223.052 182.464C222.361 182.355 221.677 182.258 221.001 182.171L220.874 183.163ZM224.889 183.795C225.225 183.857 225.563 183.922 225.902 183.99L226.098 183.01C225.754 182.941 225.412 182.875 225.072 182.812L224.889 183.795Z"
        fill="url(#paint0_linear_36103_9)" />
    <ellipse opacity="0.5" cx="115.5" cy="247.5" rx="14.5" ry="3.5"
        fill="url(#paint1_linear_36103_9)" />
    <ellipse opacity="0.5" cx="171.5" cy="219.5" rx="14.5" ry="3.5"
        fill="url(#paint2_linear_36103_9)" />
    <ellipse opacity="0.5" cx="227.5" cy="191.5" rx="14.5" ry="3.5"
        fill="url(#paint3_linear_36103_9)" />
    <rect x="146" y="112" width="52" height="52" rx="12" fill="url(#paint4_linear_36103_9)" />
    <rect x="148" y="114" width="48" height="48" rx="10" stroke="white" stroke-opacity="0.05"
        stroke-width="4" />
    <g filter="url(#filter0_d_36103_9)">
        <path
            d="M169.927 128.831C171.21 128.09 172.79 128.09 174.073 128.831L178.904 131.62C180.187 132.361 180.977 133.73 180.977 135.211V140.789C180.977 142.27 180.187 143.639 178.904 144.38L174.073 147.169C172.79 147.91 171.21 147.91 169.927 147.169L165.096 144.38C163.813 143.639 163.023 142.27 163.023 140.789V135.211C163.023 133.73 163.813 132.361 165.096 131.62L169.927 128.831Z"
            fill="#000F19" />
        <path
            d="M170.549 129.908C171.447 129.39 172.553 129.39 173.451 129.908L178.282 132.697C179.18 133.216 179.733 134.174 179.733 135.211V140.789C179.733 141.826 179.18 142.784 178.282 143.303L173.451 146.092C172.553 146.61 171.447 146.61 170.549 146.092L165.718 143.303C164.82 142.784 164.267 141.826 164.267 140.789V135.211C164.267 134.174 164.82 133.216 165.718 132.697L170.549 129.908Z"
            stroke="url(#paint5_linear_36103_9)" stroke-width="2.4878" />
    </g>
    <path
        d="M174.238 139.587C174.238 141.075 173.256 141.895 171.701 141.895C170.604 141.895 169.908 141.542 169.365 141.075C169.288 140.998 169.298 140.922 169.365 140.836L169.927 140.045C169.984 139.969 170.089 139.978 170.166 140.045C170.595 140.321 170.986 140.522 171.701 140.522C172.34 140.522 172.731 140.188 172.731 139.52C172.731 138.91 172.359 138.605 171.625 138.605C171.453 138.605 171.224 138.633 170.995 138.691C170.9 138.719 170.833 138.681 170.786 138.586L170.557 138.061C170.519 137.985 170.538 137.899 170.604 137.832L172.121 136.306H169.841C169.737 136.306 169.679 136.249 169.679 136.144V135.133C169.679 135.019 169.737 134.962 169.841 134.962H173.818C173.923 134.962 173.98 135.019 173.98 135.133V135.925C173.98 136.011 173.952 136.078 173.894 136.135L172.35 137.68V137.699C173.379 137.661 174.238 138.443 174.238 139.587Z"
        fill="white" />
    <g opacity="0.5" filter="url(#filter1_d_36103_9)">
        <path
            d="M169.098 123.633C170.894 122.596 173.106 122.596 174.902 123.633L182.991 128.303C184.787 129.34 185.893 131.256 185.893 133.33V142.67C185.893 144.744 184.787 146.66 182.991 147.697L174.902 152.367C173.106 153.404 170.894 153.404 169.098 152.367L161.009 147.697C159.213 146.66 158.107 144.744 158.107 142.67V133.33C158.107 131.256 159.213 129.34 161.009 128.303L169.098 123.633Z"
            stroke="url(#paint6_linear_36103_9)" stroke-width="1.65854" shape-rendering="crispEdges" />
    </g>
    <circle cx="186.098" cy="128.049" r="5.39024" fill="#4DE3A4" stroke="#062541"
        stroke-width="2.4878" />
    <g clip-path="url(#clip0_36103_9)">
        <path d="M184.405 128.049L185.614 129.258L188.033 126.839" stroke="#000E15"
            stroke-width="1.65854" stroke-linecap="round" stroke-linejoin="round" />
    </g>
    <g opacity="0.3">
        <circle opacity="0.4" cx="173" cy="142" r="58.5" stroke="#0085FF" />
        <circle opacity="0.3" cx="173" cy="142" r="80.5" stroke="#0085FF" />
        <circle opacity="0.2" cx="172" cy="141" r="101.5" stroke="#0085FF" />
        <circle opacity="0.1" cx="172" cy="141" r="123.5" stroke="#0085FF" />
    </g>
    <defs>
        <filter id="filter0_d_36103_9" x="154.73" y="119.983" width="34.5395" height="36.0342"
            filterUnits="userSpaceOnUse" color-interpolation-filters="sRGB">
            <feFlood flood-opacity="0" result="BackgroundImageFix" />
            <feColorMatrix in="SourceAlpha" type="matrix"
                values="0 0 0 0 0 0 0 0 0 0 0 0 0 0 0 0 0 0 127 0" result="hardAlpha" />
            <feOffset />
            <feGaussianBlur stdDeviation="4.14634" />
            <feComposite in2="hardAlpha" operator="out" />
            <feColorMatrix type="matrix" values="0 0 0 0 0 0 0 0 0 0.52 0 0 0 0 1 0 0 0 1 0" />
            <feBlend mode="normal" in2="BackgroundImageFix" result="effect1_dropShadow_36103_9" />
            <feBlend mode="normal" in="SourceGraphic" in2="effect1_dropShadow_36103_9"
                result="shape" />
        </filter>
        <filter id="filter1_d_36103_9" x="148.985" y="113.734" width="46.0302" height="48.5328"
            filterUnits="userSpaceOnUse" color-interpolation-filters="sRGB">
            <feFlood flood-opacity="0" result="BackgroundImageFix" />
            <feColorMatrix in="SourceAlpha" type="matrix"
                values="0 0 0 0 0 0 0 0 0 0 0 0 0 0 0 0 0 0 127 0" result="hardAlpha" />
            <feOffset />
            <feGaussianBlur stdDeviation="4.14634" />
            <feComposite in2="hardAlpha" operator="out" />
            <feColorMatrix type="matrix" values="0 0 0 0 0 0 0 0 0 0.52 0 0 0 0 1 0 0 0 1 0" />
            <feBlend mode="normal" in2="BackgroundImageFix" result="effect1_dropShadow_36103_9" />
            <feBlend mode="normal" in="SourceGraphic" in2="effect1_dropShadow_36103_9"
                result="shape" />
        </filter>
        <linearGradient id="paint0_linear_36103_9" x1="142.25" y1="211.036" x2="142.25" y2="241.5"
            gradientUnits="userSpaceOnUse">
            <stop stop-color="#0085FF" />
            <stop offset="1" stop-color="#00D1FF" />
        </linearGradient>
        <linearGradient id="paint1_linear_36103_9" x1="115.5" y1="244" x2="115.5" y2="251"
            gradientUnits="userSpaceOnUse">
            <stop offset="0.055" stop-color="#005099" stop-opacity="0" />
            <stop offset="1" stop-color="#0085FF" />
        </linearGradient>
        <linearGradient id="paint2_linear_36103_9" x1="171.5" y1="216" x2="171.5" y2="223"
            gradientUnits="userSpaceOnUse">
            <stop offset="0.055" stop-color="#005099" stop-opacity="0" />
            <stop offset="1" stop-color="#0085FF" />
        </linearGradient>
        <linearGradient id="paint3_linear_36103_9" x1="227.5" y1="188" x2="227.5" y2="195"
            gradientUnits="userSpaceOnUse">
            <stop offset="0.055" stop-color="#005099" stop-opacity="0" />
            <stop offset="1" stop-color="#0085FF" />
        </linearGradient>
        <linearGradient id="paint4_linear_36103_9" x1="172" y1="112" x2="172" y2="164"
            gradientUnits="userSpaceOnUse">
            <stop stop-color="#062038" />
            <stop offset="1" stop-color="#01152D" />
        </linearGradient>
        <linearGradient id="paint5_linear_36103_9" x1="172" y1="127.634" x2="172" y2="148.366"
            gradientUnits="userSpaceOnUse">
            <stop stop-color="#13D5FF" />
            <stop offset="1" stop-color="#0085FF" />
        </linearGradient>
        <linearGradient id="paint6_linear_36103_9" x1="172" y1="121" x2="172" y2="155"
            gradientUnits="userSpaceOnUse">
            <stop stop-color="#13D5FF" />
            <stop offset="1" stop-color="#0085FF" />
        </linearGradient>
        <clipPath id="clip0_36103_9">
            <rect width="5.80488" height="5.80488" fill="white"
                transform="translate(183.195 125.146)" />
        </clipPath>
    </defs>
</svg>