<svg width="14" height="14" viewBox="0 0 14 14" fill="none" xmlns="http://www.w3.org/2000/svg">
<path d="M4.78308 6.8833H4.19975C3.55542 6.8833 3.03308 7.40563 3.03308 8.04997V9.79997C3.03308 10.4443 3.55542 10.9666 4.19975 10.9666H4.78308C5.42741 10.9666 5.94975 10.4443 5.94975 9.79997V8.04997C5.94975 7.40563 5.42741 6.8833 4.78308 6.8833Z" stroke="#35648E" stroke-width="1.5" stroke-linecap="round" stroke-linejoin="round"/>
<path d="M11.2 6.8833H10.6166C9.97229 6.8833 9.44995 7.40563 9.44995 8.04997V9.79997C9.44995 10.4443 9.97229 10.9666 10.6166 10.9666H11.2C11.8443 10.9666 12.3666 10.4443 12.3666 9.79997V8.04997C12.3666 7.40563 11.8443 6.8833 11.2 6.8833Z" stroke="#35648E" stroke-width="1.5" stroke-linecap="round" stroke-linejoin="round"/>
<path d="M3.03308 8.04997V6.29997C3.03308 5.06229 3.52475 3.87531 4.39992 3.00014C5.27509 2.12497 6.46207 1.6333 7.69975 1.6333C8.93742 1.6333 10.1244 2.12497 10.9996 3.00014C11.8747 3.87531 12.3664 5.06229 12.3664 6.29997V8.04997" stroke="#35648E" stroke-width="1.5" stroke-linecap="round" stroke-linejoin="round"/>
</svg>
