<svg width="16" height="16" viewBox="0 0 16 16" fill="none" xmlns="http://www.w3.org/2000/svg">
    <g clip-path="url(#clip0_5400_5212)">
        <path d="M2.66675 4.66675H13.3334" stroke="#FC605C" stroke-width="1.75"
            stroke-linecap="round" stroke-linejoin="round" />
        <path d="M6.66675 7.33325V11.3333" stroke="#FC605C" stroke-width="1.75"
            stroke-linecap="round" stroke-linejoin="round" />
        <path d="M9.33325 7.33325V11.3333" stroke="#FC605C" stroke-width="1.75"
            stroke-linecap="round" stroke-linejoin="round" />
        <path
            d="M3.33325 4.66675L3.99992 12.6667C3.99992 13.0204 4.14039 13.3595 4.39044 13.6096C4.64049 13.8596 4.97963 14.0001 5.33325 14.0001H10.6666C11.0202 14.0001 11.3593 13.8596 11.6094 13.6096C11.8594 13.3595 11.9999 13.0204 11.9999 12.6667L12.6666 4.66675"
            stroke="#FC605C" stroke-width="1.75" stroke-linecap="round" stroke-linejoin="round" />
        <path
            d="M6 4.66667V2.66667C6 2.48986 6.07024 2.32029 6.19526 2.19526C6.32029 2.07024 6.48986 2 6.66667 2H9.33333C9.51014 2 9.67971 2.07024 9.80474 2.19526C9.92976 2.32029 10 2.48986 10 2.66667V4.66667"
            stroke="#FC605C" stroke-width="1.75" stroke-linecap="round" stroke-linejoin="round" />
    </g>
    <defs>
        <clipPath id="clip0_5400_5212">
            <rect width="16" height="16" fill="white" />
        </clipPath>
    </defs>
</svg>
    