<svg width="60" height="14" viewBox="0 0 60 14" fill="none" xmlns="http://www.w3.org/2000/svg">
<rect x="6.65771" y="0.5" width="46.2105" height="13" rx="2.5" stroke="url(#paint0_linear_37959_5036)"/>
<path d="M13.6663 5.07914C13.6123 5.07914 13.5823 5.10914 13.5823 5.16914V9.27914C13.5823 9.33914 13.6123 9.36914 13.6663 9.36914H14.2183C14.2723 9.36914 14.3023 9.33914 14.3023 9.27914V8.01314H15.1843C16.1323 8.01314 16.6903 7.46714 16.6903 6.54314C16.6903 5.63114 16.1323 5.07914 15.1843 5.07914H13.6663ZM14.3023 7.34114V5.75114H15.1003C15.6823 5.75114 15.9523 6.00314 15.9523 6.54314C15.9523 7.08914 15.6823 7.34114 15.1003 7.34114H14.3023ZM21.4573 9.36914C21.5233 9.36914 21.5533 9.32714 21.5113 9.26114L20.4133 7.72514C21.0433 7.55714 21.4093 7.10714 21.4093 6.44714C21.4093 5.58914 20.8333 5.07914 19.8493 5.07914H18.4573C18.4033 5.07914 18.3733 5.10914 18.3733 5.16914V9.27914C18.3733 9.33914 18.4033 9.36914 18.4573 9.36914H19.0093C19.0633 9.36914 19.0933 9.33914 19.0933 9.27914V7.80314H19.6273L20.6773 9.30914C20.7013 9.35114 20.7373 9.36914 20.7793 9.36914H21.4573ZM19.8493 5.74514C20.4073 5.74514 20.6713 5.96714 20.6713 6.45314C20.6713 6.93314 20.4073 7.15514 19.8493 7.15514H19.0933V5.74514H19.8493ZM23.9196 7.52114H25.6056C25.6656 7.52114 25.6956 7.49114 25.6956 7.43114V6.95114C25.6956 6.89114 25.6656 6.86114 25.6056 6.86114H23.9196V5.73914H25.7616C25.8216 5.73914 25.8516 5.70914 25.8516 5.65514V5.16914C25.8516 5.10914 25.8216 5.07914 25.7616 5.07914H23.2776C23.2236 5.07914 23.1936 5.10914 23.1936 5.16914V9.27914C23.1936 9.33914 23.2236 9.36914 23.2776 9.36914H25.8456C25.9056 9.36914 25.9356 9.33914 25.9356 9.27914V8.79314C25.9356 8.73914 25.9056 8.70914 25.8456 8.70914H23.9196V7.52114ZM28.3393 9.36914C28.3993 9.36914 28.4293 9.33914 28.4293 9.27914V8.07314C28.4293 7.50914 28.4053 6.77714 28.3813 6.18914L28.3993 6.18314C28.5433 6.49514 28.7413 6.89714 28.9393 7.29314L29.4673 8.31914C29.4853 8.36114 29.5213 8.38514 29.5693 8.38514H30.0253C30.0733 8.38514 30.1093 8.36114 30.1273 8.31914L30.6553 7.29314C30.8533 6.89714 31.0513 6.49514 31.1953 6.18314L31.2133 6.18914C31.1893 6.77714 31.1653 7.50914 31.1653 8.07314V9.27914C31.1653 9.33914 31.1953 9.36914 31.2493 9.36914H31.7953C31.8553 9.36914 31.8853 9.33914 31.8853 9.27914V5.16914C31.8853 5.10914 31.8553 5.07914 31.7953 5.07914H31.1473C31.1053 5.07914 31.0693 5.09714 31.0453 5.14514L30.3193 6.50714C30.1573 6.80714 29.9053 7.34714 29.8093 7.56314H29.7853C29.6893 7.34714 29.4373 6.80714 29.2753 6.50714L28.5433 5.14514C28.5253 5.09714 28.4893 5.07914 28.4473 5.07914H27.7933C27.7393 5.07914 27.7093 5.10914 27.7093 5.16914V9.27914C27.7093 9.33914 27.7393 9.36914 27.7933 9.36914H28.3393ZM34.5914 5.16914C34.5914 5.10914 34.5614 5.07914 34.5074 5.07914H33.9554C33.9014 5.07914 33.8714 5.10914 33.8714 5.16914V9.27914C33.8714 9.33914 33.9014 9.36914 33.9554 9.36914H34.5074C34.5614 9.36914 34.5914 9.33914 34.5914 9.27914V5.16914ZM39.8105 7.87514V5.16914C39.8105 5.10914 39.7805 5.07914 39.7204 5.07914H39.1624C39.1024 5.07914 39.0724 5.10914 39.0724 5.16914V7.83314C39.0724 8.43314 38.7364 8.76914 38.1724 8.76914C37.6084 8.76914 37.2844 8.43314 37.2844 7.83314V5.16914C37.2844 5.10914 37.2484 5.07914 37.1944 5.07914H36.6364C36.5764 5.07914 36.5464 5.10914 36.5464 5.16914V7.87514C36.5464 8.82314 37.1884 9.44114 38.1724 9.44114C39.1684 9.44114 39.8105 8.82314 39.8105 7.87514ZM42.3959 9.36914C42.4559 9.36914 42.4859 9.33914 42.4859 9.27914V8.07314C42.4859 7.50914 42.4619 6.77714 42.4379 6.18914L42.4559 6.18314C42.5999 6.49514 42.7979 6.89714 42.9959 7.29314L43.5239 8.31914C43.5419 8.36114 43.5779 8.38514 43.6259 8.38514H44.0819C44.1299 8.38514 44.1659 8.36114 44.1839 8.31914L44.7119 7.29314C44.9099 6.89714 45.1079 6.49514 45.2519 6.18314L45.2699 6.18914C45.2459 6.77714 45.2219 7.50914 45.2219 8.07314V9.27914C45.2219 9.33914 45.2519 9.36914 45.3059 9.36914H45.8519C45.9119 9.36914 45.9419 9.33914 45.9419 9.27914V5.16914C45.9419 5.10914 45.9119 5.07914 45.8519 5.07914H45.2039C45.1619 5.07914 45.1259 5.09714 45.1019 5.14514L44.3759 6.50714C44.2139 6.80714 43.9619 7.34714 43.8659 7.56314H43.8419C43.7459 7.34714 43.4939 6.80714 43.3319 6.50714L42.5999 5.14514C42.5819 5.09714 42.5459 5.07914 42.5039 5.07914H41.8499C41.7959 5.07914 41.7659 5.10914 41.7659 5.16914V9.27914C41.7659 9.33914 41.7959 9.36914 41.8499 9.36914H42.3959Z" fill="url(#paint1_linear_37959_5036)"/>
<defs>
<linearGradient id="paint0_linear_37959_5036" x1="29.763" y1="0" x2="29.763" y2="14" gradientUnits="userSpaceOnUse">
<stop stop-color="#FDBC40"/>
<stop offset="1" stop-color="#FC605C"/>
</linearGradient>
<linearGradient id="paint1_linear_37959_5036" x1="29.7632" y1="6.79019" x2="29.7632" y2="12.2639" gradientUnits="userSpaceOnUse">
<stop stop-color="#FDBC40"/>
<stop offset="1" stop-color="#FC605C"/>
</linearGradient>
</defs>
</svg>
