<svg width="14" height="14" viewBox="0 0 14 14" fill="none" xmlns="http://www.w3.org/2000/svg">
<path d="M4.7832 6.88345H4.19987C3.55554 6.88345 3.0332 7.40579 3.0332 8.05012V9.80012C3.0332 10.4445 3.55554 10.9668 4.19987 10.9668H4.7832C5.42754 10.9668 5.94987 10.4445 5.94987 9.80012V8.05012C5.94987 7.40579 5.42754 6.88345 4.7832 6.88345Z" stroke="#35648E" stroke-width="1.5" stroke-linecap="round" stroke-linejoin="round"/>
<path d="M11.2002 6.88345H10.6169C9.97253 6.88345 9.4502 7.40579 9.4502 8.05012V9.80012C9.4502 10.4445 9.97253 10.9668 10.6169 10.9668H11.2002C11.8445 10.9668 12.3669 10.4445 12.3669 9.80012V8.05012C12.3669 7.40579 11.8445 6.88345 11.2002 6.88345Z" stroke="#35648E" stroke-width="1.5" stroke-linecap="round" stroke-linejoin="round"/>
<path d="M3.0332 8.05012V6.30012C3.0332 5.06244 3.52487 3.87546 4.40004 3.00029C5.27521 2.12512 6.46219 1.63345 7.69987 1.63345C8.93755 1.63345 10.1245 2.12512 10.9997 3.00029C11.8749 3.87546 12.3665 5.06244 12.3665 6.30012V8.05012" stroke="#35648E" stroke-width="1.5" stroke-linecap="round" stroke-linejoin="round"/>
</svg>
