<svg width="12" height="15" viewBox="0 0 12 15" fill="none" xmlns="http://www.w3.org/2000/svg">
    <path
        d="M6.69475 3.63867C7.07784 3.63867 7.44523 3.79085 7.71612 4.06174C7.987 4.33262 8.13919 4.70002 8.13919 5.08311V13.7497L4.52809 11.5831L0.916992 13.7497V5.08311C0.916992 4.70002 1.06917 4.33262 1.34006 4.06174C1.61094 3.79085 1.97834 3.63867 2.36143 3.63867H6.69475Z"
        stroke="url(#paint0_linear_12960_2480)" stroke-width="1.5" stroke-linecap="round"
        stroke-linejoin="round" />
    <path
        d="M3.99707 1.47222C4.12403 1.25233 4.30671 1.06978 4.52669 0.942987C4.74668 0.816192 4.99621 0.749627 5.25012 0.750002H9.58344C9.96653 0.750002 10.3339 0.902183 10.6048 1.17307C10.8757 1.44395 11.0279 1.81135 11.0279 2.19444V10.8611L10.3057 10.4277"
        stroke="url(#paint1_linear_12960_2480)" stroke-width="1.5" stroke-linecap="round"
        stroke-linejoin="round" />
    <defs>
        <linearGradient id="paint0_linear_12960_2480" x1="4.52809" y1="3.63867" x2="4.52809"
            y2="13.7497" gradientUnits="userSpaceOnUse">
            <stop stop-color="#13D5FF" />
            <stop offset="1" stop-color="#0085FF" />
        </linearGradient>
        <linearGradient id="paint1_linear_12960_2480" x1="7.51247" y1="0.75" x2="7.51247"
            y2="10.8611" gradientUnits="userSpaceOnUse">
            <stop stop-color="#13D5FF" />
            <stop offset="1" stop-color="#0085FF" />
        </linearGradient>
    </defs>
</svg>
    