<svg width="16" height="16" viewBox="0 0 16 16" fill="none" xmlns="http://www.w3.org/2000/svg">
<g clip-path="url(#clip0_32153_155)">
<path d="M2.66667 4.66667H4.66667C4.84348 4.66667 5.01305 4.59643 5.13807 4.4714C5.2631 4.34638 5.33333 4.17681 5.33333 4V3.33333C5.33333 2.97971 5.47381 2.64057 5.72386 2.39052C5.97391 2.14048 6.31304 2 6.66667 2C7.02029 2 7.35943 2.14048 7.60948 2.39052C7.85952 2.64057 8 2.97971 8 3.33333V4C8 4.17681 8.07024 4.34638 8.19526 4.4714C8.32029 4.59643 8.48986 4.66667 8.66667 4.66667H10.6667C10.8435 4.66667 11.013 4.7369 11.1381 4.86193C11.2631 4.98695 11.3333 5.15652 11.3333 5.33333V7.33333C11.3333 7.51014 11.4036 7.67971 11.5286 7.80474C11.6536 7.92976 11.8232 8 12 8H12.6667C13.0203 8 13.3594 8.14048 13.6095 8.39052C13.8595 8.64057 14 8.97971 14 9.33333C14 9.68696 13.8595 10.0261 13.6095 10.2761C13.3594 10.5262 13.0203 10.6667 12.6667 10.6667H12C11.8232 10.6667 11.6536 10.7369 11.5286 10.8619C11.4036 10.987 11.3333 11.1565 11.3333 11.3333V13.3333C11.3333 13.5101 11.2631 13.6797 11.1381 13.8047C11.013 13.9298 10.8435 14 10.6667 14H8.66667C8.48986 14 8.32029 13.9298 8.19526 13.8047C8.07024 13.6797 8 13.5101 8 13.3333V12.6667C8 12.313 7.85952 11.9739 7.60948 11.7239C7.35943 11.4738 7.02029 11.3333 6.66667 11.3333C6.31304 11.3333 5.97391 11.4738 5.72386 11.7239C5.47381 11.9739 5.33333 12.313 5.33333 12.6667V13.3333C5.33333 13.5101 5.2631 13.6797 5.13807 13.8047C5.01305 13.9298 4.84348 14 4.66667 14H2.66667C2.48986 14 2.32029 13.9298 2.19526 13.8047C2.07024 13.6797 2 13.5101 2 13.3333V11.3333C2 11.1565 2.07024 10.987 2.19526 10.8619C2.32029 10.7369 2.48986 10.6667 2.66667 10.6667H3.33333C3.68696 10.6667 4.02609 10.5262 4.27614 10.2761C4.52619 10.0261 4.66667 9.68696 4.66667 9.33333C4.66667 8.97971 4.52619 8.64057 4.27614 8.39052C4.02609 8.14048 3.68696 8 3.33333 8H2.66667C2.48986 8 2.32029 7.92976 2.19526 7.80474C2.07024 7.67971 2 7.51014 2 7.33333V5.33333C2 5.15652 2.07024 4.98695 2.19526 4.86193C2.32029 4.7369 2.48986 4.66667 2.66667 4.66667Z" stroke="#87A7C3" stroke-linecap="round" stroke-linejoin="round"/>
</g>
<defs>
<clipPath id="clip0_32153_155">
<rect width="16" height="16" fill="white"/>
</clipPath>
</defs>
</svg>
