<svg width="274" height="129" viewBox="0 0 274 129" fill="none" xmlns="http://www.w3.org/2000/svg">
    <mask id="mask0_27845_837" style="mask-type:alpha" maskUnits="userSpaceOnUse" x="0" y="0"
        width="274" height="129">
        <g opacity="0.9">
            <rect width="274" height="129" rx="5" fill="#00121B" />
            <rect x="0.5" y="0.5" width="273" height="128" rx="4.5" stroke="white"
                stroke-opacity="0.05" />
        </g>
    </mask>
    <g mask="url(#mask0_27845_837)">
        <rect width="274" height="129" rx="8" fill="url(#paint0_linear_27845_837)" stroke="#091F31" />
        <g opacity="0.25">
            <rect x="34.6318" y="1.69824" width="1.01859" height="125.605" fill="white"
                fill-opacity="0.05" />
            <rect x="40.7432" y="1.69824" width="1.01859" height="125.605" fill="white"
                fill-opacity="0.05" />
            <rect x="46.8545" y="1.69824" width="1.01859" height="125.605" fill="white"
                fill-opacity="0.05" />
            <rect x="52.9668" y="1.69824" width="1.01859" height="125.605" fill="white"
                fill-opacity="0.05" />
            <rect x="59.0781" y="1.69824" width="1.01859" height="125.605" fill="white"
                fill-opacity="0.05" />
            <rect x="65.1895" y="1.69824" width="1.01859" height="125.605" fill="white"
                fill-opacity="0.05" />
            <rect x="71.3008" y="1.69824" width="1.01859" height="125.605" fill="white"
                fill-opacity="0.05" />
            <rect x="77.4121" y="1.69824" width="1.01859" height="125.605" fill="white"
                fill-opacity="0.05" />
            <rect x="83.5244" y="1.69824" width="1.01859" height="125.605" fill="white"
                fill-opacity="0.05" />
            <rect x="89.6357" y="1.69824" width="1.01859" height="125.605" fill="white"
                fill-opacity="0.05" />
            <rect x="95.7471" y="1.69824" width="1.01859" height="125.605" fill="white"
                fill-opacity="0.05" />
            <rect x="101.858" y="1.69824" width="1.01859" height="125.605" fill="white"
                fill-opacity="0.05" />
            <rect x="107.97" y="1.69824" width="1.01859" height="125.605" fill="white"
                fill-opacity="0.05" />
            <rect x="114.082" y="1.69824" width="1.01859" height="125.605" fill="white"
                fill-opacity="0.05" />
            <rect x="120.193" y="1.69824" width="1.01859" height="125.605" fill="white"
                fill-opacity="0.05" />
            <rect x="126.305" y="1.69824" width="1.01859" height="125.605" fill="white"
                fill-opacity="0.05" />
            <rect x="132.416" y="1.69824" width="1.01859" height="125.605" fill="white"
                fill-opacity="0.05" />
            <rect x="138.527" y="1.69824" width="1.01859" height="125.605" fill="white"
                fill-opacity="0.05" />
            <rect x="144.64" y="1.69824" width="1.01859" height="125.605" fill="white"
                fill-opacity="0.05" />
            <rect x="150.751" y="1.69824" width="1.01859" height="125.605" fill="white"
                fill-opacity="0.05" />
            <rect x="156.862" y="1.69824" width="1.01859" height="125.605" fill="white"
                fill-opacity="0.05" />
            <rect x="162.974" y="1.69824" width="1.01859" height="125.605" fill="white"
                fill-opacity="0.05" />
            <rect x="169.085" y="1.69824" width="1.01859" height="125.605" fill="white"
                fill-opacity="0.05" />
            <rect x="175.197" y="1.69824" width="1.01859" height="125.605" fill="white"
                fill-opacity="0.05" />
            <rect x="181.309" y="1.69824" width="1.01859" height="125.605" fill="white"
                fill-opacity="0.05" />
            <rect x="187.42" y="1.69824" width="1.01859" height="125.605" fill="white"
                fill-opacity="0.05" />
            <rect x="193.531" y="1.69824" width="1.01859" height="125.605" fill="white"
                fill-opacity="0.05" />
            <rect x="199.643" y="1.69824" width="1.01859" height="125.605" fill="white"
                fill-opacity="0.05" />
            <rect x="205.755" y="1.69824" width="1.01859" height="125.605" fill="white"
                fill-opacity="0.05" />
            <rect x="211.866" y="1.69824" width="1.01859" height="125.605" fill="white"
                fill-opacity="0.05" />
            <rect x="217.978" y="1.69824" width="1.01859" height="125.605" fill="white"
                fill-opacity="0.05" />
            <rect x="224.089" y="1.69824" width="1.01859" height="125.605" fill="white"
                fill-opacity="0.05" />
            <rect x="230.201" y="1.69824" width="1.01859" height="125.605" fill="white"
                fill-opacity="0.05" />
            <rect x="236.312" y="1.69824" width="1.01859" height="125.605" fill="white"
                fill-opacity="0.05" />
            <rect x="242.424" y="1.69824" width="1.01859" height="125.605" fill="white"
                fill-opacity="0.05" />
            <rect x="248.535" y="1.69824" width="1.01859" height="125.605" fill="white"
                fill-opacity="0.05" />
            <rect x="254.646" y="1.69824" width="1.01859" height="125.605" fill="white"
                fill-opacity="0.05" />
            <rect x="260.758" y="1.69824" width="1.01859" height="125.605" fill="white"
                fill-opacity="0.05" />
            <rect x="266.87" y="1.69824" width="1.01859" height="125.605" fill="white"
                fill-opacity="0.05" />
            <rect x="272.981" y="1.69824" width="1.01859" height="125.605" fill="white"
                fill-opacity="0.05" />
        </g>
        <g opacity="0.25">
            <rect x="29.5391" y="10.1848" width="520.498" height="1.69737" fill="white"
                fill-opacity="0.05" />
            <rect x="29.5391" y="20.3696" width="520.498" height="1.69737" fill="white"
                fill-opacity="0.05" />
            <rect x="30.5576" y="30.5544" width="520.498" height="1.69737" fill="white"
                fill-opacity="0.05" />
            <rect x="29.5391" y="40.7368" width="520.498" height="1.69737" fill="white"
                fill-opacity="0.05" />
            <rect x="29.5391" y="50.9214" width="520.498" height="1.69737" fill="white"
                fill-opacity="0.05" />
            <rect x="29.5391" y="61.1062" width="520.498" height="1.69737" fill="white"
                fill-opacity="0.05" />
            <rect x="29.5391" y="71.2908" width="520.498" height="1.69737" fill="white"
                fill-opacity="0.05" />
            <rect x="29.5391" y="81.4731" width="520.498" height="1.69737" fill="white"
                fill-opacity="0.05" />
            <rect x="29.5391" y="91.658" width="520.498" height="1.69737" fill="white"
                fill-opacity="0.05" />
            <rect x="29.5391" y="101.843" width="520.498" height="1.69737" fill="white"
                fill-opacity="0.05" />
            <rect x="29.5391" y="112.027" width="520.498" height="1.69737" fill="white"
                fill-opacity="0.05" />
            <rect x="29.5391" y="122.212" width="520.498" height="1.69737" fill="white"
                fill-opacity="0.05" />
        </g>
    </g>
    <defs>
        <linearGradient id="paint0_linear_27845_837" x1="137" y1="0" x2="137" y2="129"
            gradientUnits="userSpaceOnUse">
            <stop stop-color="#021423" />
            <stop offset="1" stop-color="#02111E" />
        </linearGradient>
    </defs>
</svg>
    