<svg width="14" height="14" viewBox="0 0 14 14" fill="none" xmlns="http://www.w3.org/2000/svg">
<path d="M7.00016 5.25C9.57749 5.25 11.6668 4.4665 11.6668 3.5C11.6668 2.5335 9.57749 1.75 7.00016 1.75C4.42283 1.75 2.3335 2.5335 2.3335 3.5C2.3335 4.4665 4.42283 5.25 7.00016 5.25Z" stroke="#35648E" stroke-width="1.5" stroke-linecap="round" stroke-linejoin="round"/>
<path d="M2.3335 3.5V7C2.3335 7.96658 4.423 8.75 7.00016 8.75C7.64544 8.75187 8.28974 8.69977 8.92633 8.59425M11.6668 7V3.5" stroke="#35648E" stroke-width="1.5" stroke-linecap="round" stroke-linejoin="round"/>
<path d="M2.3335 7V10.5C2.3335 11.4328 4.27891 12.1946 6.73066 12.2471M11.6668 8.16667V7M8.16683 11.0833H12.2502M12.2502 11.0833L10.5002 9.33333M12.2502 11.0833L10.5002 12.8333" stroke="#35648E" stroke-width="1.5" stroke-linecap="round" stroke-linejoin="round"/>
</svg>
