<svg width="19" height="19" viewBox="0 0 19 19" fill="none" xmlns="http://www.w3.org/2000/svg">
    <g clip-path="url(#clip0_28532_1658)">
        <path
            d="M2.375 11.8751C2.375 11.4552 2.54181 11.0524 2.83875 10.7555C3.13568 10.4586 3.53841 10.2917 3.95833 10.2917H15.0417C15.4616 10.2917 15.8643 10.4586 16.1613 10.7555C16.4582 11.0524 16.625 11.4552 16.625 11.8751V15.0417C16.625 15.4617 16.4582 15.8644 16.1613 16.1613C15.8643 16.4583 15.4616 16.6251 15.0417 16.6251H3.95833C3.53841 16.6251 3.13568 16.4583 2.83875 16.1613C2.54181 15.8644 2.375 15.4617 2.375 15.0417V11.8751Z"
            stroke="url(#paint0_linear_28532_1658)" stroke-width="2" stroke-linecap="round"
            stroke-linejoin="round" />
        <path d="M13.4585 13.4583V13.4662" stroke="url(#paint1_linear_28532_1658)" stroke-width="2"
            stroke-linecap="round" stroke-linejoin="round" />
        <path d="M10.2915 13.4583V13.4662" stroke="url(#paint2_linear_28532_1658)" stroke-width="2"
            stroke-linecap="round" stroke-linejoin="round" />
        <path d="M11.875 10.2916V8.70825" stroke="url(#paint3_linear_28532_1658)" stroke-width="2"
            stroke-linecap="round" stroke-linejoin="round" />
        <path
            d="M9.30225 6.92707C9.59543 6.51845 9.98172 6.18553 10.4291 5.95588C10.8766 5.72623 11.3722 5.60645 11.8752 5.60645C12.3781 5.60645 12.8738 5.72623 13.3212 5.95588C13.7686 6.18553 14.1549 6.51845 14.4481 6.92707"
            stroke="url(#paint4_linear_28532_1658)" stroke-width="2" stroke-linecap="round"
            stroke-linejoin="round" />
        <path
            d="M6.729 5.14588C7.31537 4.32864 8.08795 3.66281 8.98279 3.20351C9.87763 2.74421 10.869 2.50464 11.8748 2.50464C12.8807 2.50464 13.872 2.74421 14.7669 3.20351C15.6617 3.66281 16.4343 4.32864 17.0207 5.14588"
            stroke="url(#paint5_linear_28532_1658)" stroke-width="2" stroke-linecap="round"
            stroke-linejoin="round" />
    </g>
    <defs>
        <linearGradient id="paint0_linear_28532_1658" x1="9.5" y1="10.2917" x2="9.5" y2="16.6251"
            gradientUnits="userSpaceOnUse">
            <stop stop-color="#13D5FF" />
            <stop offset="1" stop-color="#0085FF" />
        </linearGradient>
        <linearGradient id="paint1_linear_28532_1658" x1="13.9585" y1="13.4583" x2="13.9585"
            y2="13.4662" gradientUnits="userSpaceOnUse">
            <stop stop-color="#13D5FF" />
            <stop offset="1" stop-color="#0085FF" />
        </linearGradient>
        <linearGradient id="paint2_linear_28532_1658" x1="10.7915" y1="13.4583" x2="10.7915"
            y2="13.4662" gradientUnits="userSpaceOnUse">
            <stop stop-color="#13D5FF" />
            <stop offset="1" stop-color="#0085FF" />
        </linearGradient>
        <linearGradient id="paint3_linear_28532_1658" x1="12.375" y1="8.70825" x2="12.375"
            y2="10.2916" gradientUnits="userSpaceOnUse">
            <stop stop-color="#13D5FF" />
            <stop offset="1" stop-color="#0085FF" />
        </linearGradient>
        <linearGradient id="paint4_linear_28532_1658" x1="11.8752" y1="5.60645" x2="11.8752"
            y2="6.92707" gradientUnits="userSpaceOnUse">
            <stop stop-color="#13D5FF" />
            <stop offset="1" stop-color="#0085FF" />
        </linearGradient>
        <linearGradient id="paint5_linear_28532_1658" x1="11.8748" y1="2.50464" x2="11.8748"
            y2="5.14588" gradientUnits="userSpaceOnUse">
            <stop stop-color="#13D5FF" />
            <stop offset="1" stop-color="#0085FF" />
        </linearGradient>
        <clipPath id="clip0_28532_1658">
            <rect width="19" height="19" fill="white" />
        </clipPath>
    </defs>
</svg>
    