<svg width="18" height="18" viewBox="0 0 18 18" fill="none" xmlns="http://www.w3.org/2000/svg">
<path d="M9.19 10.646C9.311 10.646 9.388 10.613 9.388 10.492V10.261C9.388 8.941 11.28 9.238 11.28 7.313C11.28 5.696 10.026 4.992 8.684 4.992C7.683 4.992 6.792 5.377 6.33 5.806C6.253 5.894 6.242 5.982 6.308 6.07L6.924 6.994C6.99 7.093 7.089 7.104 7.188 7.016C7.529 6.719 7.969 6.477 8.596 6.477C9.344 6.477 9.619 6.895 9.619 7.357C9.619 8.534 7.771 8.358 7.771 10.03V10.459C7.771 10.58 7.837 10.646 7.969 10.646H9.19ZM9.575 12.142C9.575 11.581 9.168 11.185 8.596 11.185C8.013 11.185 7.617 11.581 7.617 12.142C7.617 12.692 8.013 13.11 8.596 13.11C9.168 13.11 9.575 12.692 9.575 12.142Z" fill="#FDBC40"/>
<circle cx="9" cy="9" r="8.25" stroke="#FDBC40" stroke-width="1.5"/>
</svg>
