<svg xmlns="http://www.w3.org/2000/svg" width="142" height="142" viewBox="0 0 142 142" fill="none">
    <path
        d="M71.2288 135.716C106.906 135.716 135.829 106.817 135.829 71.1683C135.829 35.5199 106.906 6.62109 71.2288 6.62109C35.5513 6.62109 6.62891 35.5199 6.62891 71.1683C6.62891 106.817 35.5513 135.716 71.2288 135.716Z"
        fill="#7D69F4" />
    <path
        d="M142.455 71.2544C142.475 54.709 136.816 39.461 127.315 27.3483C127.323 27.3441 127.331 27.3358 127.34 27.3316C127.098 27.0239 126.853 26.7121 126.603 26.4044C127.34 25.3357 128.06 24.159 128.659 22.9198C132.275 15.4767 129.633 10.3455 127.735 7.94626C125.925 5.65927 122.475 2.93567 116.316 2.93567C110.668 2.93567 104.593 5.33077 101.509 6.74039C101.322 6.65307 101.13 6.56991 100.939 6.48258C100.939 6.48258 100.939 6.4909 100.939 6.49506C91.9165 2.34105 81.883 0.0124745 71.3168 0H71.2252C32.0025 0 0.0499934 31.8848 5.46142e-05 71.0797C-0.0373995 101.547 19.1932 127.627 46.1726 137.789C46.1643 137.872 46.1643 137.956 46.1518 138.043C52.7354 152.8 62.0531 153.902 64.8372 153.994C73.8803 154.297 81.2463 143.723 81.3586 141.611C115.804 136.679 142.405 107.01 142.446 71.2544H142.455Z"
        fill="white" />
    <path
        d="M71.1378 142.338C31.8652 142.288 -0.0498802 110.325 5.85261e-05 71.0797C0.0499973 31.8848 32.0025 0 71.2252 0H71.3168C110.589 0.049898 142.504 32.0137 142.455 71.2544C142.405 110.449 110.456 142.334 71.2294 142.334H71.1378V142.338Z"
        fill="white" />
    <path
        d="M71.2288 135.716C106.906 135.716 135.829 106.817 135.829 71.1683C135.829 35.5199 106.906 6.62109 71.2288 6.62109C35.5513 6.62109 6.62891 35.5199 6.62891 71.1683C6.62891 106.817 35.5513 135.716 71.2288 135.716Z"
        fill="#7D69F4" />
    <path
        d="M78.3208 135.327C84.6797 134.633 90.7597 133.019 96.4277 130.62C90.7639 133.011 84.688 134.616 78.3333 135.298C78.3333 135.306 78.325 135.315 78.3208 135.327Z"
        fill="white" />
    <path
        d="M38.0899 126.437C38.0899 126.486 38.0857 126.532 38.0815 126.578C42.1391 129.006 46.4837 130.998 51.0531 132.499C51.0407 132.466 51.0282 132.428 51.0157 132.395C46.4588 130.882 42.1307 128.873 38.0899 126.437Z"
        fill="white" />
    <path
        d="M42.5941 79.2747C42.3985 80.9088 42.2279 82.4307 42.0781 83.7946C39.2982 108.873 38.3576 122.087 38.0913 126.441C42.1322 128.882 46.4602 130.886 51.0171 132.399C48.7574 126.237 46.9013 117.605 46.0898 105.525C46.0898 105.525 45.6945 88.4434 42.6025 79.2705L42.5941 79.2747Z"
        fill="white" />
    <path
        d="M95.4217 65.2101C95.2178 64.6238 94.9181 63.9086 94.5686 63.0769C93.2077 59.8252 91.3475 55.3718 91.3558 50.0369C91.3642 46.9682 92.0092 44.0076 93.2743 41.1717C88.3262 40.5022 78.7588 41.3131 76.4949 56.7648C76.2161 58.6609 76.8237 66.3619 77.8641 71.543C80.8562 86.4999 85.7169 117.803 78.3343 135.3C84.689 134.618 90.7649 133.013 96.4288 130.622C100.69 128.818 104.714 126.568 108.447 123.932C106.354 104.363 99.3336 76.329 95.4217 65.2101Z"
        fill="white" />
    <path
        d="M108.522 123.875C108.522 123.875 108.509 123.891 108.501 123.9C111.31 121.916 113.948 119.712 116.4 117.317C116.4 117.313 116.4 117.309 116.4 117.305C113.953 119.696 111.323 121.895 108.522 123.875Z"
        fill="#7D69F4" />
    <path
        d="M108.451 123.938C108.451 123.938 108.485 123.913 108.501 123.901C108.51 123.893 108.514 123.884 108.522 123.876C108.497 123.893 108.472 123.909 108.447 123.926V123.934L108.451 123.938Z"
        fill="#7D69F4" />
    <path
        d="M82.2824 26.1233C80.8924 24.6721 78.9365 23.7656 76.7683 23.7656C74.2006 23.7656 71.9284 25.038 70.5426 26.9799C69.6521 28.2273 69.1235 29.7534 69.1235 31.4042C69.1235 35.6206 72.5443 39.0427 76.7683 39.0427C80.9923 39.0427 84.4131 35.6247 84.4131 31.4042C84.4131 29.3542 83.6016 27.4955 82.2824 26.1233ZM76.8765 35.816C74.3796 35.816 72.3529 33.7951 72.3529 31.2961C72.3529 28.797 74.3754 26.7761 76.8765 26.7761C79.3776 26.7761 81.4001 28.797 81.4001 31.2961C81.4001 33.7951 79.3776 35.816 76.8765 35.816Z"
        fill="white" />
    <path
        d="M122.542 12.0568C117.502 5.69067 102.749 13.4956 102.604 13.5746C102.233 13.7742 101.347 14.2357 101.259 14.2814C91.2842 19.4376 88.3919 18.7182 87.4139 18.4729L87.0269 18.3897C75.0749 16.4146 64.8832 18.5477 56.7224 24.7226C38.7861 38.299 35.4485 68.4083 33.8463 82.8787C32.1525 98.1725 31.083 109.283 30.6793 115.899C30.5753 117.57 30.3797 119.55 30.2632 121.072C32.3731 122.805 34.5995 124.402 36.9217 125.862L38.0828 126.573C38.0828 126.527 38.0869 126.481 38.0911 126.431C38.3574 122.078 39.2979 108.863 42.0779 83.7852C42.2277 82.4213 42.3983 80.8995 42.5939 79.2653C45.6859 88.4341 46.0813 105.52 46.0813 105.52C46.897 117.599 48.7488 126.232 51.0086 132.394C51.0211 132.427 51.0335 132.465 51.046 132.498C51.1917 132.897 51.3415 133.288 51.4913 133.667C56.9721 147.434 64.4879 147.709 65.6739 147.264C70.8301 145.996 74.5089 142.632 77.0641 137.941C77.5177 137.11 77.9297 136.236 78.3168 135.326C78.3168 135.317 78.3251 135.309 78.3292 135.297C85.7118 117.795 80.8511 86.4922 77.859 71.5394C76.8227 66.3583 76.2152 58.6574 76.4898 56.7613C78.7537 41.3095 88.3212 40.4987 93.2693 41.1682C92.0041 44.0082 91.3591 46.9646 91.3508 50.0334C91.3383 55.3683 93.2027 59.8217 94.5635 63.0734C94.9089 63.905 95.2085 64.6202 95.4166 65.2065C99.3285 76.3255 106.349 104.36 108.442 123.928C111.268 121.932 113.927 119.716 116.391 117.304C114.668 97.291 107.46 74.4959 103.228 62.4621C102.941 61.6513 102.583 60.7906 102.204 59.8841C99.7488 54.0127 96.6942 46.7068 105.438 38.2283C105.829 37.8499 106.694 37.1139 107.697 36.2657C110.432 33.9496 114.56 30.4526 117.798 26.7975C117.81 26.7809 117.827 26.7643 117.839 26.7518C117.881 26.7061 117.918 26.6603 117.96 26.6146C120.632 23.5957 126.383 16.9219 122.533 12.0568H122.542ZM84.4134 31.4048C84.4134 35.9081 80.5182 39.4966 75.9114 38.9976C72.4781 38.6234 69.6773 35.9039 69.2029 32.4859C68.9158 30.4235 69.4651 28.4982 70.5471 26.9805C71.9329 25.0386 74.201 23.7662 76.7728 23.7662C78.941 23.7662 80.8969 24.6727 82.2869 26.1239C83.6019 27.4961 84.4176 29.3548 84.4176 31.4048H84.4134Z"
        fill="#2D2B69" />
    <path
        d="M108.451 123.968C108.451 123.968 108.486 123.928 108.503 123.906C108.486 123.919 108.468 123.933 108.451 123.946C108.451 123.954 108.451 123.963 108.451 123.972V123.968Z"
        fill="#2D2B69" />
    <path
        d="M77.9164 35.7052C80.348 35.1317 81.8539 32.6974 81.28 30.2678C80.7061 27.8383 78.2697 26.3336 75.8382 26.907C73.4067 27.4805 71.9008 29.9148 72.4747 32.3444C73.0486 34.7739 75.4849 36.2786 77.9164 35.7052Z"
        fill="#2D2B69" />
</svg>