<svg width="13" height="13" viewBox="0 0 13 13" fill="none" xmlns="http://www.w3.org/2000/svg">
    <path
        d="M6.57234 11.3214C9.35348 11.3214 11.608 9.06686 11.608 6.28571C11.608 3.50457 9.35348 1.25 6.57234 1.25C3.79119 1.25 1.53662 3.50457 1.53662 6.28571C1.53662 9.06686 3.79119 11.3214 6.57234 11.3214Z"
        fill="#8247E5" stroke="#132339" stroke-width="1.5" />
    <path
        d="M8.01294 5.28536C7.90608 5.22012 7.76717 5.22012 7.64964 5.28536L6.81616 5.78551L6.24983 6.11171L5.41637 6.61185C5.30951 6.67708 5.1706 6.67708 5.05306 6.61185L4.39056 6.22042C4.28371 6.15518 4.20891 6.03559 4.20891 5.90512V5.13314C4.20891 5.00267 4.27302 4.88307 4.39056 4.81783L5.04238 4.43728C5.14923 4.37204 5.28814 4.37204 5.40568 4.43728L6.0575 4.81783C6.16435 4.88307 6.23915 5.00267 6.23915 5.13314V5.63329L6.80548 5.29623V4.79608C6.80548 4.66561 6.74138 4.54601 6.62383 4.48077L5.41637 3.76316C5.30951 3.69792 5.1706 3.69792 5.05306 3.76316L3.82423 4.48077C3.70669 4.54601 3.64258 4.66561 3.64258 4.79608V6.24218C3.64258 6.37265 3.70669 6.49226 3.82423 6.55749L5.05306 7.2751C5.15992 7.34033 5.29883 7.34033 5.41637 7.2751L6.24983 6.78582L6.81616 6.44876L7.64964 5.95948C7.75649 5.89424 7.8954 5.89424 8.01294 5.95948L8.66476 6.34003C8.7716 6.40526 8.8464 6.52488 8.8464 6.65535V7.42731C8.8464 7.5578 8.7823 7.67739 8.66476 7.74262L8.01294 8.13406C7.90608 8.19929 7.76717 8.19929 7.64964 8.13406L6.99783 7.7535C6.89096 7.68827 6.81616 7.56866 6.81616 7.43819V6.93805L6.24983 7.2751V7.77524C6.24983 7.90571 6.31396 8.02532 6.43148 8.09056L7.66032 8.80816C7.76717 8.8734 7.90608 8.8734 8.02362 8.80816L9.25247 8.09056C9.35931 8.02532 9.43412 7.90571 9.43412 7.77524V6.32915C9.43412 6.19868 9.36999 6.07909 9.25247 6.01385L8.01294 5.28536Z"
        fill="white" />
</svg>