<svg width="22" height="22" viewBox="0 0 22 22" fill="none" xmlns="http://www.w3.org/2000/svg">
<path d="M11 19.25C15.5563 19.25 19.25 15.5563 19.25 11C19.25 6.44365 15.5563 2.75 11 2.75C6.44365 2.75 2.75 6.44365 2.75 11C2.75 15.5563 6.44365 19.25 11 19.25Z" stroke="#13D5FF" stroke-width="2" stroke-linecap="round" stroke-linejoin="round"/>
<path d="M3.29956 8.25H18.6996" stroke="#13D5FF" stroke-width="2" stroke-linecap="round" stroke-linejoin="round"/>
<path d="M3.29956 13.75H18.6996" stroke="#13D5FF" stroke-width="2" stroke-linecap="round" stroke-linejoin="round"/>
<path d="M10.5422 2.75C8.99791 5.22464 8.1792 8.08304 8.1792 11C8.1792 13.917 8.99791 16.7754 10.5422 19.25" stroke="#13D5FF" stroke-width="2" stroke-linecap="round" stroke-linejoin="round"/>
<path d="M11.4578 2.75C13.002 5.22464 13.8207 8.08304 13.8207 11C13.8207 13.917 13.002 16.7754 11.4578 19.25" stroke="#13D5FF" stroke-width="2" stroke-linecap="round" stroke-linejoin="round"/>
</svg>
