<svg width="22" height="22" viewBox="0 0 22 22" fill="none" xmlns="http://www.w3.org/2000/svg">
<g clip-path="url(#clip0_28382_1426)">
<path d="M10.7246 19.541C15.281 19.541 18.9746 15.8474 18.9746 11.291C18.9746 6.73467 15.281 3.04102 10.7246 3.04102C6.16826 3.04102 2.47461 6.73467 2.47461 11.291C2.47461 15.8474 6.16826 19.541 10.7246 19.541Z" stroke="url(#paint0_linear_28382_1426)" stroke-width="1.2" stroke-linecap="round" stroke-linejoin="round"/>
<path d="M10.7248 7.62402L7.05811 11.2907" stroke="url(#paint1_linear_28382_1426)" stroke-width="1.2" stroke-linecap="round" stroke-linejoin="round"/>
<path d="M10.7246 7.62402V14.9574" stroke="url(#paint2_linear_28382_1426)" stroke-width="1.2" stroke-linecap="round" stroke-linejoin="round"/>
<path d="M14.3913 11.2907L10.7246 7.62402" stroke="url(#paint3_linear_28382_1426)" stroke-width="1.2" stroke-linecap="round" stroke-linejoin="round"/>
</g>
<defs>
<linearGradient id="paint0_linear_28382_1426" x1="10.7246" y1="3.04102" x2="10.7246" y2="19.541" gradientUnits="userSpaceOnUse">
<stop stop-color="#00B2FF"/>
<stop offset="1" stop-color="#0085FF"/>
</linearGradient>
<linearGradient id="paint1_linear_28382_1426" x1="8.89144" y1="7.62402" x2="8.89144" y2="11.2907" gradientUnits="userSpaceOnUse">
<stop stop-color="#00B2FF"/>
<stop offset="1" stop-color="#0085FF"/>
</linearGradient>
<linearGradient id="paint2_linear_28382_1426" x1="11.2246" y1="7.62402" x2="11.2246" y2="14.9574" gradientUnits="userSpaceOnUse">
<stop stop-color="#00B2FF"/>
<stop offset="1" stop-color="#0085FF"/>
</linearGradient>
<linearGradient id="paint3_linear_28382_1426" x1="12.5579" y1="7.62402" x2="12.5579" y2="11.2907" gradientUnits="userSpaceOnUse">
<stop stop-color="#00B2FF"/>
<stop offset="1" stop-color="#0085FF"/>
</linearGradient>
<clipPath id="clip0_28382_1426">
<rect width="22" height="22" fill="white" transform="matrix(0 -1 1 0 0 22)"/>
</clipPath>
</defs>
</svg>
