<svg width="39" height="41" viewBox="0 0 39 41" fill="none" xmlns="http://www.w3.org/2000/svg">
    <path
        d="M23.2773 12.4386L27.2816 16.3736C27.4708 16.5595 27.5783 16.8129 27.5806 17.0781L27.6296 22.692C27.632 22.9572 27.5288 23.2125 27.3429 23.4017L23.4079 27.406C23.222 27.5951 22.9686 27.7027 22.7034 27.705L17.0895 27.754C16.8243 27.7563 16.569 27.6532 16.3799 27.4673L12.3756 23.5323C12.1864 23.3464 12.0788 23.093 12.0765 22.8278L12.0275 17.2139C12.0252 16.9486 12.1283 16.6934 12.3142 16.5042L16.2492 12.4999C16.4351 12.3108 16.6886 12.2032 16.9538 12.2009L22.5677 12.1519C22.8329 12.1496 23.0881 12.2527 23.2773 12.4386Z"
        stroke="url(#paint1_linear_14627_5637)" stroke-width="2" />
    <defs>
        <linearGradient id="paint1_linear_14627_5637" x1="23.3873" y1="11.1447" x2="16.2698" y2="28.7612"
            gradientUnits="userSpaceOnUse">
            <stop stop-color="#F97471" />
            <stop offset="1" stop-color="#FF0600" />
        </linearGradient>
    </defs>
</svg>
