<svg width="57" height="59" viewBox="0 0 57 59" fill="none" xmlns="http://www.w3.org/2000/svg">
    <g filter="url(#filter0_d_1_2)">
        <path
            d="M26 18.4434C27.547 17.5502 29.453 17.5502 31 18.4434L36.8253 21.8066C38.3723 22.6998 39.3253 24.3504 39.3253 26.1368V32.8632C39.3253 34.6496 38.3723 36.3002 36.8253 37.1934L31 40.5566C29.453 41.4498 27.547 41.4498 26 40.5566L20.1747 37.1934C18.6277 36.3002 17.6747 34.6496 17.6747 32.8632V26.1368C17.6747 24.3504 18.6277 22.6998 20.1747 21.8066L26 18.4434Z"
            fill="#000F19" />
        <path
            d="M30.25 19.7424L36.0753 23.1057C37.1582 23.7309 37.8253 24.8863 37.8253 26.1368V32.8632C37.8253 34.1137 37.1582 35.2691 36.0753 35.8943L30.25 39.2576C29.1671 39.8828 27.8329 39.8828 26.75 39.2576L20.9247 35.8943C19.8418 35.2691 19.1747 34.1137 19.1747 32.8632V26.1368C19.1747 24.8863 19.8418 23.7309 20.9247 23.1057L26.75 19.7424C27.8329 19.1172 29.1671 19.1172 30.25 19.7424Z"
            stroke="url(#paint0_linear_1_2)" stroke-width="3" />
    </g>
    <g opacity="0.5" filter="url(#filter1_d_1_2)">
        <path
            d="M32 12.1754L41.7535 17.8066C43.9193 19.0571 45.2535 21.3679 45.2535 23.8688V35.1312C45.2535 37.6321 43.9193 39.9429 41.7535 41.1934L32 46.8246C29.8342 48.075 27.1658 48.075 25 46.8246L15.2465 41.1934C13.0807 39.9429 11.7465 37.6321 11.7465 35.1312V23.8688C11.7465 21.3679 13.0807 19.0571 15.2465 17.8066L25 12.1754C27.1658 10.925 29.8342 10.925 32 12.1754Z"
            stroke="url(#paint1_linear_1_2)" stroke-width="2" shape-rendering="crispEdges" />
    </g>
    <defs>
        <filter id="filter0_d_1_2" x="7.67468" y="7.77344" width="41.6506" height="43.4531"
            filterUnits="userSpaceOnUse" color-interpolation-filters="sRGB">
            <feFlood flood-opacity="0" result="BackgroundImageFix" />
            <feColorMatrix in="SourceAlpha" type="matrix"
                values="0 0 0 0 0 0 0 0 0 0 0 0 0 0 0 0 0 0 127 0" result="hardAlpha" />
            <feOffset />
            <feGaussianBlur stdDeviation="5" />
            <feComposite in2="hardAlpha" operator="out" />
            <feColorMatrix type="matrix" values="0 0 0 0 0 0 0 0 0 0.52 0 0 0 0 1 0 0 0 1 0" />
            <feBlend mode="normal" in2="BackgroundImageFix" result="effect1_dropShadow_1_2" />
            <feBlend mode="normal" in="SourceGraphic" in2="effect1_dropShadow_1_2" result="shape" />
        </filter>
        <filter id="filter1_d_1_2" x="0.74646" y="0.237305" width="55.5071" height="58.5254"
            filterUnits="userSpaceOnUse" color-interpolation-filters="sRGB">
            <feFlood flood-opacity="0" result="BackgroundImageFix" />
            <feColorMatrix in="SourceAlpha" type="matrix"
                values="0 0 0 0 0 0 0 0 0 0 0 0 0 0 0 0 0 0 127 0" result="hardAlpha" />
            <feOffset />
            <feGaussianBlur stdDeviation="5" />
            <feComposite in2="hardAlpha" operator="out" />
            <feColorMatrix type="matrix" values="0 0 0 0 0 0 0 0 0 0.52 0 0 0 0 1 0 0 0 1 0" />
            <feBlend mode="normal" in2="BackgroundImageFix" result="effect1_dropShadow_1_2" />
            <feBlend mode="normal" in="SourceGraphic" in2="effect1_dropShadow_1_2" result="shape" />
        </filter>
        <linearGradient id="paint0_linear_1_2" x1="28.5" y1="17" x2="28.5" y2="42"
            gradientUnits="userSpaceOnUse">
            <stop stop-color="#13D5FF" />
            <stop offset="1" stop-color="#0085FF" />
        </linearGradient>
        <linearGradient id="paint1_linear_1_2" x1="28.5" y1="9" x2="28.5" y2="50"
            gradientUnits="userSpaceOnUse">
            <stop stop-color="#13D5FF" />
            <stop offset="1" stop-color="#0085FF" />
        </linearGradient>
    </defs>
</svg>
    