<svg width="15" height="12" viewBox="0 0 15 12" fill="none" xmlns="http://www.w3.org/2000/svg">
<path d="M10.7532 3.66597C10.4903 3.51375 10.1485 3.51375 9.85933 3.66597L7.80856 4.83299L6.41511 5.59411L4.36439 6.7611C4.10147 6.91332 3.75968 6.91332 3.47048 6.7611L1.84041 5.84776C1.57749 5.69555 1.39345 5.4165 1.39345 5.11206V3.31078C1.39345 3.00634 1.5512 2.72727 1.84041 2.57505L3.44418 1.68711C3.7071 1.53489 4.04889 1.53489 4.33809 1.68711L5.94189 2.57505C6.20478 2.72727 6.38883 3.00634 6.38883 3.31078V4.47781L7.78228 3.69134V2.52432C7.78228 2.21987 7.62456 1.9408 7.33533 1.78858L4.36439 0.114165C4.10147 -0.038055 3.75968 -0.038055 3.47048 0.114165L0.446956 1.78858C0.157749 1.9408 0 2.21987 0 2.52432V5.89853C0 6.20296 0.157749 6.48206 0.446956 6.63427L3.47048 8.30869C3.73339 8.4609 4.07518 8.4609 4.36439 8.30869L6.41511 7.16703L7.80856 6.38056L9.85933 5.23891C10.1222 5.08669 10.464 5.08669 10.7532 5.23891L12.357 6.12686C12.6199 6.27907 12.8039 6.55817 12.8039 6.8626V8.66384C12.8039 8.96832 12.6462 9.24736 12.357 9.39958L10.7532 10.3129C10.4903 10.4651 10.1485 10.4651 9.85933 10.3129L8.25556 9.42496C7.99261 9.27275 7.80856 8.99365 7.80856 8.68923V7.52223L6.41511 8.30869V9.47569C6.41511 9.78011 6.57289 10.0592 6.86206 10.2114L9.88561 11.8858C10.1485 12.0381 10.4903 12.0381 10.7795 11.8858L13.8031 10.2114C14.0659 10.0592 14.25 9.78011 14.25 9.47569V6.10147C14.25 5.79704 14.0922 5.518 13.8031 5.36578L10.7532 3.66597Z" fill="#8247E5"/>
</svg>
