<svg width="52" height="52" viewBox="0 0 52 52" fill="none" xmlns="http://www.w3.org/2000/svg">
<rect width="52" height="52" rx="6" fill="#000E15"/>
<rect x="0.5" y="0.5" width="51" height="51" rx="5.5" stroke="white" stroke-opacity="0.06"/>
<path d="M36.9268 25.0642L33.8072 24.3259L33.2501 24.0988L18.9336 24.2123V31.2543L36.9268 31.3111V25.0642Z" fill="white"/>
<path d="M31.0766 30.6296C31.2437 30.0617 31.188 29.4938 30.9094 29.1531C30.6309 28.8123 30.241 28.5852 29.7396 28.5284L20.0467 28.4148C19.991 28.4148 19.9353 28.358 19.8796 28.358C19.8239 28.3012 19.8239 28.2444 19.8796 28.1876C19.9353 28.0741 19.991 28.0173 20.1024 28.0173L29.851 27.9037C31.0209 27.8469 32.2464 26.8815 32.692 25.7457L33.2491 24.2691C33.2491 24.2123 33.3048 24.1555 33.2491 24.0988C32.6363 21.2025 30.0738 19.0444 27.0657 19.0444C24.2804 19.0444 21.885 20.8617 21.0494 23.4173C20.4923 23.0197 19.8239 22.7926 19.044 22.8494C17.707 22.963 16.6486 24.0988 16.4815 25.4617C16.4258 25.8025 16.4815 26.1432 16.5372 26.4839C14.3646 26.5407 12.582 28.358 12.582 30.6296C12.582 30.8568 12.582 31.0272 12.6377 31.2543C12.6377 31.3679 12.7491 31.4247 12.8049 31.4247H30.6866C30.798 31.4247 30.9094 31.3679 30.9094 31.2543L31.0766 30.6296Z" fill="#F48120"/>
<path d="M34.141 24.2692H33.8625C33.8068 24.2692 33.751 24.326 33.6953 24.3827L33.3054 25.7457C33.1383 26.3136 33.194 26.8815 33.4725 27.2223C33.751 27.563 34.141 27.7902 34.6423 27.8469L36.7035 27.9605C36.7592 27.9605 36.8149 28.0173 36.8706 28.0173C36.9263 28.0741 36.9263 28.1309 36.8706 28.1877C36.8149 28.3013 36.7592 28.3581 36.6478 28.3581L34.5309 28.4716C33.3611 28.5284 32.1356 29.4939 31.6899 30.6297L31.5785 31.1408C31.5228 31.1976 31.5785 31.3111 31.6899 31.3111H39.0432C39.1546 31.3111 39.2103 31.2543 39.2103 31.1408C39.3217 30.6864 39.4331 30.1753 39.4331 29.6642C39.4331 26.7111 37.0377 24.2692 34.141 24.2692Z" fill="#FAAD3F"/>
</svg>

