<svg width="16" height="16" viewBox="0 0 16 16" fill="none" xmlns="http://www.w3.org/2000/svg">
<g clip-path="url(#clip0_17416_974)">
<path d="M8 2C9.55722 3.37772 11.5897 4.09504 13.6667 4C13.9691 5.02868 14.0616 6.10764 13.9388 7.17279C13.8159 8.23793 13.4802 9.26751 12.9516 10.2004C12.423 11.1332 11.7123 11.9503 10.8616 12.603C10.011 13.2557 9.03786 13.7308 8 14C6.96214 13.7308 5.98899 13.2557 5.13837 12.603C4.28774 11.9503 3.57701 11.1332 3.0484 10.2004C2.51979 9.26751 2.18409 8.23793 2.06125 7.17279C1.93841 6.10764 2.03094 5.02868 2.33333 4C4.41035 4.09504 6.44278 3.37772 8 2" stroke="#FC605C" stroke-width="1.5" stroke-linecap="round" stroke-linejoin="round"/>
<path d="M2.41016 1.54492L14.2053 13.0423" stroke="#FC605C" stroke-width="1.5" stroke-linecap="round" stroke-linejoin="round"/>
</g>
<defs>
<clipPath id="clip0_17416_974">
<rect width="16" height="16" fill="white"/>
</clipPath>
</defs>
</svg>
