<svg width="18" height="18" viewBox="0 0 18 18" fill="none" xmlns="http://www.w3.org/2000/svg">
    <path
        d="M9 15.75C12.7279 15.75 15.75 12.7279 15.75 9C15.75 5.27208 12.7279 2.25 9 2.25C5.27208 2.25 2.25 5.27208 2.25 9C2.25 12.7279 5.27208 15.75 9 15.75Z"
        stroke="url(#paint0_linear_40086_3473)" stroke-width="1.5" stroke-linecap="round" stroke-linejoin="round" />
    <path d="M7.87962 8.616L9.75012 5.25M6.00012 12L6.82962 10.5075L6.00012 12Z" stroke="url(#paint1_linear_40086_3473)"
        stroke-width="1.5" stroke-linecap="round" stroke-linejoin="round" />
    <path d="M11.1749 10.5H12.7499M5.24988 10.5H8.99988H5.24988Z" stroke="url(#paint2_linear_40086_3473)"
        stroke-width="1.5" stroke-linecap="round" stroke-linejoin="round" />
    <path d="M9.00237 6.60375L8.25012 5.25M12.0001 12L10.1176 8.6115L12.0001 12Z"
        stroke="url(#paint3_linear_40086_3473)" stroke-width="1.5" stroke-linecap="round" stroke-linejoin="round" />
    <defs>
        <linearGradient id="paint0_linear_40086_3473" x1="9" y1="2.25" x2="9" y2="15.75" gradientUnits="userSpaceOnUse">
            <stop stop-color="#00D1FF" />
            <stop offset="1" stop-color="#0085FF" />
        </linearGradient>
        <linearGradient id="paint1_linear_40086_3473" x1="7.87512" y1="5.25" x2="7.87512" y2="12"
            gradientUnits="userSpaceOnUse">
            <stop stop-color="#00D1FF" />
            <stop offset="1" stop-color="#0085FF" />
        </linearGradient>
        <linearGradient id="paint2_linear_40086_3473" x1="8.99998" y1="8.66666" x2="8.99973" y2="11.5"
            gradientUnits="userSpaceOnUse">
            <stop stop-color="#00D1FF" />
            <stop offset="1" stop-color="#0085FF" />
        </linearGradient>
        <linearGradient id="paint3_linear_40086_3473" x1="10.1251" y1="5.25" x2="10.1251" y2="12"
            gradientUnits="userSpaceOnUse">
            <stop stop-color="#00D1FF" />
            <stop offset="1" stop-color="#0085FF" />
        </linearGradient>
    </defs>
</svg>