<svg width="106" height="32" viewBox="0 0 106 32" fill="none" xmlns="http://www.w3.org/2000/svg">
<path d="M12 25V7.3553C12 4.05115 14.6714 1.36884 17.9755 1.35535L98.9755 1.0246C102.299 1.01103 105 3.70127 105 7.02455V25C105 28.3137 102.314 31 99 31H94.9459H22.0541H18C14.6863 31 12 28.3137 12 25Z" fill="url(#paint0_linear_41492_1474)" stroke="#091F31"/>
<rect x="0.807617" y="16.1924" width="20.9" height="20.9" rx="6" transform="rotate(-45 0.807617 16.1924)" fill="url(#paint1_linear_41492_1474)" stroke="#091F31"/>
<rect x="15" y="3" width="18" height="25" rx="2" fill="url(#paint2_linear_41492_1474)"/>
<defs>
<linearGradient id="paint0_linear_41492_1474" x1="58.5" y1="1" x2="58.5" y2="31" gradientUnits="userSpaceOnUse">
<stop stop-color="#021423"/>
<stop offset="1" stop-color="#02111E"/>
</linearGradient>
<linearGradient id="paint1_linear_41492_1474" x1="11.2576" y1="16.1924" x2="11.2576" y2="37.0924" gradientUnits="userSpaceOnUse">
<stop stop-color="#021423"/>
<stop offset="1" stop-color="#02111E"/>
</linearGradient>
<linearGradient id="paint2_linear_41492_1474" x1="24" y1="3" x2="24" y2="28" gradientUnits="userSpaceOnUse">
<stop stop-color="#021322"/>
<stop offset="1" stop-color="#01101E"/>
</linearGradient>
</defs>
</svg>
