<svg width="20" height="20" viewBox="0 0 20 20" fill="none" xmlns="http://www.w3.org/2000/svg">
    <g clip-path="url(#clip0_21931_91)">
        <path
            d="M7.5 11.6667C7.5 13.0475 9.73833 14.1667 12.5 14.1667C15.2617 14.1667 17.5 13.0475 17.5 11.6667C17.5 10.2858 15.2617 9.16666 12.5 9.16666C9.73833 9.16666 7.5 10.2858 7.5 11.6667Z"
            stroke="url(#paint0_linear_21931_91)" stroke-width="1.5" stroke-linecap="round"
            stroke-linejoin="round" />
        <path
            d="M7.5 11.6667V15C7.5 16.38 9.73833 17.5 12.5 17.5C15.2617 17.5 17.5 16.38 17.5 15V11.6667"
            stroke="url(#paint1_linear_21931_91)" stroke-width="1.5" stroke-linecap="round"
            stroke-linejoin="round" />
        <path
            d="M2.5 5C2.5 5.89333 3.45333 6.71833 5 7.165C6.54667 7.61167 8.45333 7.61167 10 7.165C11.5467 6.71833 12.5 5.89333 12.5 5C12.5 4.10667 11.5467 3.28167 10 2.835C8.45333 2.38833 6.54667 2.38833 5 2.835C3.45333 3.28167 2.5 4.10667 2.5 5Z"
            stroke="url(#paint2_linear_21931_91)" stroke-width="1.5" stroke-linecap="round"
            stroke-linejoin="round" />
        <path d="M2.5 5V13.3333C2.5 14.0733 3.14333 14.5417 4.16667 15"
            stroke="url(#paint3_linear_21931_91)" stroke-width="1.5" stroke-linecap="round"
            stroke-linejoin="round" />
        <path d="M2.5 9.16666C2.5 9.90666 3.14333 10.375 4.16667 10.8333"
            stroke="url(#paint4_linear_21931_91)" stroke-width="1.5" stroke-linecap="round"
            stroke-linejoin="round" />
    </g>
    <defs>
        <linearGradient id="paint0_linear_21931_91" x1="12.5" y1="9.16666" x2="12.5" y2="14.1667"
            gradientUnits="userSpaceOnUse">
            <stop stop-color="#13D5FF" />
            <stop offset="1" stop-color="#0085FF" />
        </linearGradient>
        <linearGradient id="paint1_linear_21931_91" x1="12.5" y1="11.6667" x2="12.5" y2="17.5"
            gradientUnits="userSpaceOnUse">
            <stop stop-color="#13D5FF" />
            <stop offset="1" stop-color="#0085FF" />
        </linearGradient>
        <linearGradient id="paint2_linear_21931_91" x1="7.5" y1="2.5" x2="7.5" y2="7.5"
            gradientUnits="userSpaceOnUse">
            <stop stop-color="#13D5FF" />
            <stop offset="1" stop-color="#0085FF" />
        </linearGradient>
        <linearGradient id="paint3_linear_21931_91" x1="3.33333" y1="5" x2="3.33333" y2="15"
            gradientUnits="userSpaceOnUse">
            <stop stop-color="#13D5FF" />
            <stop offset="1" stop-color="#0085FF" />
        </linearGradient>
        <linearGradient id="paint4_linear_21931_91" x1="3.33333" y1="9.16666" x2="3.33333"
            y2="10.8333" gradientUnits="userSpaceOnUse">
            <stop stop-color="#13D5FF" />
            <stop offset="1" stop-color="#0085FF" />
        </linearGradient>
        <clipPath id="clip0_21931_91">
            <rect width="20" height="20" fill="white" />
        </clipPath>
    </defs>
</svg>
    