<svg width="113" height="28" viewBox="0 0 113 28" fill="none" xmlns="http://www.w3.org/2000/svg">
<rect width="94" height="28" rx="6" fill="#000E15"/>
<rect x="0.5" y="0.5" width="93" height="27" rx="5.5" stroke="white" stroke-opacity="0.06"/>
<path d="M10.0741 14.9022C10.6305 13.5957 11.683 12.5638 13.0003 12.0333C14.3175 11.5029 15.7915 11.5175 17.098 12.0738C18.4045 12.6302 19.4365 13.6828 19.9669 15M17.0003 15H20.3336V11.6667" stroke="url(#paint0_linear_27530_695)" stroke-width="2" stroke-linecap="round" stroke-linejoin="round"/>
<path d="M35.35 15.808C35.35 13.96 33.908 12.938 32.424 12.98L32.41 12.952L34.944 10.264C35 10.194 35.042 10.11 35.042 10.012V9.2C35.042 9.06 34.972 8.99 34.846 8.99H29.134C29.008 8.99 28.938 9.06 28.938 9.2V10.292C28.938 10.432 29.008 10.502 29.134 10.502H32.928C32.662 10.712 32.004 11.398 31.738 11.678L30.366 13.176C30.282 13.274 30.268 13.372 30.31 13.47L30.576 14.044C30.632 14.142 30.716 14.198 30.828 14.17C31.15 14.1 31.5 14.072 31.71 14.072C32.984 14.072 33.684 14.646 33.684 15.766C33.684 16.984 32.928 17.628 31.864 17.628C30.73 17.628 30.114 17.25 29.428 16.76C29.33 16.676 29.218 16.676 29.134 16.76L28.448 17.558C28.364 17.656 28.364 17.754 28.448 17.852C29.302 18.594 30.296 19.168 31.864 19.168C33.866 19.168 35.35 17.894 35.35 15.808Z" fill="white"/>
<path d="M40.4305 19C40.5205 19 40.5705 18.95 40.5705 18.85V16.56C40.5705 15.71 40.5305 14.67 40.4805 13.81L40.5105 13.8C40.7905 14.39 41.2105 15.17 41.5805 15.77L43.4705 18.9C43.5105 18.97 43.5705 19 43.6405 19H44.6505C44.7505 19 44.8005 18.95 44.8005 18.85V12C44.8005 11.9 44.7505 11.85 44.6505 11.85H43.7505C43.6505 11.85 43.6005 11.9 43.6005 12V14.44C43.6005 15.28 43.6305 16.3 43.6905 17.15L43.6605 17.16C43.3805 16.62 43.0005 15.95 42.6605 15.35L40.7105 11.95C40.6705 11.89 40.6105 11.85 40.5305 11.85H39.5205C39.4305 11.85 39.3805 11.9 39.3805 12V18.85C39.3805 18.95 39.4305 19 39.5205 19H40.4305ZM50.6411 17.1V15.76C50.6411 14.5 49.7411 13.7 48.3611 13.7C46.9811 13.7 46.0811 14.5 46.0811 15.76V17.1C46.0811 18.34 46.9811 19.12 48.3611 19.12C49.7411 19.12 50.6411 18.34 50.6411 17.1ZM47.2511 17.1V15.76C47.2511 15.1 47.6411 14.74 48.3611 14.74C49.0711 14.74 49.4711 15.1 49.4711 15.76V17.1C49.4711 17.74 49.0711 18.08 48.3611 18.08C47.6411 18.08 47.2511 17.74 47.2511 17.1ZM54.8096 13.92C54.5096 13.79 54.1296 13.7 53.7296 13.7C52.4696 13.7 51.5496 14.52 51.5496 15.82V16.92C51.5496 18.44 52.5196 19.12 53.8396 19.12C54.4896 19.12 55.2596 18.98 55.8596 18.76C55.9396 18.73 55.9696 18.68 55.9696 18.59V12C55.9696 11.9 55.9196 11.85 55.8196 11.85H54.9596C54.8596 11.85 54.8096 11.9 54.8096 12V13.92ZM52.7196 16.93V15.82C52.7196 15.06 53.1296 14.73 53.8496 14.73C54.2396 14.73 54.5696 14.83 54.8096 14.99V17.96C54.5696 18.05 54.2096 18.1 53.8696 18.1C53.1496 18.1 52.7196 17.79 52.7196 16.93ZM61.4179 15.75C61.4179 14.28 60.3479 13.7 59.2579 13.7C58.1579 13.7 57.0579 14.28 57.0579 15.75V17.17C57.0579 18.5 58.1179 19.12 59.2479 19.12C60.0979 19.12 60.7479 18.85 61.2779 18.43C61.3579 18.37 61.3679 18.29 61.3079 18.22L60.8979 17.67C60.8479 17.6 60.7679 17.59 60.6979 17.64C60.3279 17.89 59.9079 18.1 59.2879 18.1C58.6479 18.1 58.2279 17.79 58.2279 17.18V16.9H61.2679C61.3679 16.9 61.4179 16.85 61.4179 16.76V15.75ZM60.2879 15.74V16H58.2279V15.74C58.2279 15 58.6679 14.72 59.2579 14.72C59.8179 14.72 60.2879 15.01 60.2879 15.74ZM65.7902 13.87V12C65.7902 11.9 65.7402 11.85 65.6402 11.85H64.7802C64.6802 11.85 64.6302 11.9 64.6302 12V18.85C64.6302 18.95 64.6802 19 64.7802 19H65.6402C65.7402 19 65.7902 18.95 65.7902 18.85V14.92C66.0302 14.8 66.3902 14.74 66.7502 14.74C67.4902 14.74 67.8902 15.03 67.8902 15.99V18.85C67.8902 18.95 67.9502 19 68.0402 19H68.9102C69.0002 19 69.0502 18.95 69.0502 18.85V15.96C69.0502 14.35 68.0902 13.7 66.8702 13.7C66.4402 13.7 66.0802 13.77 65.7902 13.87ZM74.6548 17.1V15.76C74.6548 14.5 73.7548 13.7 72.3748 13.7C70.9948 13.7 70.0948 14.5 70.0948 15.76V17.1C70.0948 18.34 70.9948 19.12 72.3748 19.12C73.7548 19.12 74.6548 18.34 74.6548 17.1ZM71.2648 17.1V15.76C71.2648 15.1 71.6548 14.74 72.3748 14.74C73.0848 14.74 73.4848 15.1 73.4848 15.76V17.1C73.4848 17.74 73.0848 18.08 72.3748 18.08C71.6548 18.08 71.2648 17.74 71.2648 17.1ZM75.8433 14.06C75.7633 14.09 75.7333 14.14 75.7333 14.22V20.75C75.7333 20.85 75.7833 20.9 75.8833 20.9H76.7433C76.8433 20.9 76.8933 20.85 76.8933 20.75V18.9C77.1933 19.03 77.5533 19.12 77.9533 19.12C79.2233 19.12 80.1633 18.3 80.1633 16.99V15.89C80.1633 14.38 79.1833 13.7 77.8633 13.7C77.2133 13.7 76.4333 13.83 75.8433 14.06ZM77.8533 18.1C77.4733 18.1 77.1433 17.99 76.8933 17.82V14.86C77.1333 14.76 77.4933 14.72 77.8333 14.72C78.5533 14.72 78.9833 15.02 78.9833 15.88V17C78.9833 17.75 78.5733 18.1 77.8533 18.1ZM85.1413 17.46C85.1413 16.31 84.1013 16.05 83.2813 15.9C82.6213 15.77 82.1713 15.67 82.1713 15.26C82.1713 14.93 82.4913 14.71 83.0813 14.71C83.5313 14.71 83.9813 14.84 84.3513 15.04C84.4313 15.08 84.5013 15.06 84.5513 14.99L84.9313 14.35C84.9813 14.27 84.9613 14.19 84.8813 14.15C84.2913 13.83 83.7113 13.69 83.1413 13.69C82.0713 13.69 81.0213 14.15 81.0213 15.26C81.0213 16.47 82.2913 16.78 83.0413 16.92C83.4913 17 83.9713 17.11 83.9713 17.51C83.9713 17.89 83.5613 18.09 83.0413 18.09C82.5213 18.09 81.9813 17.91 81.5313 17.58C81.4413 17.52 81.3813 17.53 81.3313 17.62L80.9513 18.27C80.9013 18.35 80.9013 18.42 80.9913 18.47C81.6213 18.93 82.3413 19.12 83.0213 19.12C84.2213 19.12 85.1413 18.58 85.1413 17.46Z" fill="#87A7C3"/>
<defs>
<linearGradient id="paint0_linear_27530_695" x1="10.0741" y1="13.3229" x2="20.3336" y2="13.3229" gradientUnits="userSpaceOnUse">
<stop stop-color="#00D1FF"/>
<stop offset="1" stop-color="#0085FF"/>
</linearGradient>
</defs>
</svg>
