<svg width="270" height="72" viewBox="0 0 270 72" fill="none" xmlns="http://www.w3.org/2000/svg">
<g opacity="0.5">
<circle opacity="0.632653" cx="100.5" cy="68.5" r="0.5" fill="#13D5FF"/>
<circle opacity="0.65102" cx="95.5" cy="63.5" r="0.5" fill="#13D5FF"/>
<circle opacity="0.669388" cx="90.5" cy="58.5" r="0.5" fill="#13D5FF"/>
<circle opacity="0.687755" cx="85.5" cy="53.5" r="0.5" fill="#13D5FF"/>
<circle opacity="0.706122" cx="80.5" cy="48.5" r="0.5" fill="#13D5FF"/>
<circle opacity="0.72449" cx="75.5" cy="43.5" r="0.5" fill="#13D5FF"/>
<circle opacity="0.742857" cx="70.5" cy="38.5" r="0.5" fill="#13D5FF"/>
<circle opacity="0.761225" cx="65.5" cy="33.5" r="0.5" fill="#13D5FF"/>
<circle opacity="0.779592" cx="60.5" cy="28.5" r="0.5" fill="#13D5FF"/>
<circle opacity="0.797959" cx="55.5" cy="23.5" r="0.5" fill="#13D5FF"/>
<circle opacity="0.816327" cx="50.5" cy="18.5" r="0.5" fill="#13D5FF"/>
<circle opacity="0.834694" cx="45.5" cy="13.5" r="0.5" fill="#13D5FF"/>
<circle opacity="0.853061" cx="40.5" cy="8.5" r="0.5" fill="#13D5FF"/>
<circle opacity="0.871429" cx="35.5" cy="3.5" r="0.5" fill="#13D5FF"/>
<circle opacity="0.595918" cx="120.5" cy="68.5" r="0.5" fill="#13D5FF"/>
<circle opacity="0.614286" cx="115.5" cy="63.5" r="0.5" fill="#13D5FF"/>
<circle opacity="0.632653" cx="110.5" cy="58.5" r="0.5" fill="#13D5FF"/>
<circle opacity="0.65102" cx="105.5" cy="53.5" r="0.5" fill="#13D5FF"/>
<circle opacity="0.669388" cx="100.5" cy="48.5" r="0.5" fill="#13D5FF"/>
<circle opacity="0.687755" cx="95.5" cy="43.5" r="0.5" fill="#13D5FF"/>
<circle opacity="0.706122" cx="90.5" cy="38.5" r="0.5" fill="#13D5FF"/>
<circle opacity="0.72449" cx="85.5" cy="33.5" r="0.5" fill="#13D5FF"/>
<circle opacity="0.742857" cx="80.5" cy="28.5" r="0.5" fill="#13D5FF"/>
<circle opacity="0.761225" cx="75.5" cy="23.5" r="0.5" fill="#13D5FF"/>
<circle opacity="0.779592" cx="70.5" cy="18.5" r="0.5" fill="#13D5FF"/>
<circle opacity="0.797959" cx="65.5" cy="13.5" r="0.5" fill="#13D5FF"/>
<circle opacity="0.816327" cx="60.5" cy="8.5" r="0.5" fill="#13D5FF"/>
<circle opacity="0.834694" cx="55.5" cy="3.5" r="0.5" fill="#13D5FF"/>
<circle opacity="0.559184" cx="140.5" cy="68.5" r="0.5" fill="#13D5FF"/>
<circle opacity="0.577551" cx="135.5" cy="63.5" r="0.5" fill="#13D5FF"/>
<circle opacity="0.595918" cx="130.5" cy="58.5" r="0.5" fill="#13D5FF"/>
<circle opacity="0.614286" cx="125.5" cy="53.5" r="0.5" fill="#13D5FF"/>
<circle opacity="0.632653" cx="120.5" cy="48.5" r="0.5" fill="#13D5FF"/>
<circle opacity="0.65102" cx="115.5" cy="43.5" r="0.5" fill="#13D5FF"/>
<circle opacity="0.669388" cx="110.5" cy="38.5" r="0.5" fill="#13D5FF"/>
<circle opacity="0.687755" cx="105.5" cy="33.5" r="0.5" fill="#13D5FF"/>
<circle opacity="0.706122" cx="100.5" cy="28.5" r="0.5" fill="#13D5FF"/>
<circle opacity="0.72449" cx="95.5" cy="23.5" r="0.5" fill="#13D5FF"/>
<circle opacity="0.742857" cx="90.5" cy="18.5" r="0.5" fill="#13D5FF"/>
<circle opacity="0.761225" cx="85.5" cy="13.5" r="0.5" fill="#13D5FF"/>
<circle opacity="0.779592" cx="80.5" cy="8.5" r="0.5" fill="#13D5FF"/>
<circle opacity="0.797959" cx="75.5" cy="3.5" r="0.5" fill="#13D5FF"/>
<circle opacity="0.522449" cx="160.5" cy="68.5" r="0.5" fill="#13D5FF"/>
<circle opacity="0.540816" cx="155.5" cy="63.5" r="0.5" fill="#13D5FF"/>
<circle opacity="0.559184" cx="150.5" cy="58.5" r="0.5" fill="#13D5FF"/>
<circle opacity="0.577551" cx="145.5" cy="53.5" r="0.5" fill="#13D5FF"/>
<circle opacity="0.595918" cx="140.5" cy="48.5" r="0.5" fill="#13D5FF"/>
<circle opacity="0.614286" cx="135.5" cy="43.5" r="0.5" fill="#13D5FF"/>
<circle opacity="0.632653" cx="130.5" cy="38.5" r="0.5" fill="#13D5FF"/>
<circle opacity="0.65102" cx="125.5" cy="33.5" r="0.5" fill="#13D5FF"/>
<circle opacity="0.669388" cx="120.5" cy="28.5" r="0.5" fill="#13D5FF"/>
<circle opacity="0.687755" cx="115.5" cy="23.5" r="0.5" fill="#13D5FF"/>
<circle opacity="0.706122" cx="110.5" cy="18.5" r="0.5" fill="#13D5FF"/>
<circle opacity="0.72449" cx="105.5" cy="13.5" r="0.5" fill="#13D5FF"/>
<circle opacity="0.742857" cx="100.5" cy="8.5" r="0.5" fill="#13D5FF"/>
<circle opacity="0.761225" cx="95.5" cy="3.5" r="0.5" fill="#13D5FF"/>
<circle opacity="0.485714" cx="180.5" cy="68.5" r="0.5" fill="#13D5FF"/>
<circle opacity="0.504082" cx="175.5" cy="63.5" r="0.5" fill="#13D5FF"/>
<circle opacity="0.522449" cx="170.5" cy="58.5" r="0.5" fill="#13D5FF"/>
<circle opacity="0.540816" cx="165.5" cy="53.5" r="0.5" fill="#13D5FF"/>
<circle opacity="0.559184" cx="160.5" cy="48.5" r="0.5" fill="#13D5FF"/>
<circle opacity="0.577551" cx="155.5" cy="43.5" r="0.5" fill="#13D5FF"/>
<circle opacity="0.595918" cx="150.5" cy="38.5" r="0.5" fill="#13D5FF"/>
<circle opacity="0.614286" cx="145.5" cy="33.5" r="0.5" fill="#13D5FF"/>
<circle opacity="0.632653" cx="140.5" cy="28.5" r="0.5" fill="#13D5FF"/>
<circle opacity="0.65102" cx="135.5" cy="23.5" r="0.5" fill="#13D5FF"/>
<circle opacity="0.669388" cx="130.5" cy="18.5" r="0.5" fill="#13D5FF"/>
<circle opacity="0.687755" cx="125.5" cy="13.5" r="0.5" fill="#13D5FF"/>
<circle opacity="0.706122" cx="120.5" cy="8.5" r="0.5" fill="#13D5FF"/>
<circle opacity="0.72449" cx="115.5" cy="3.5" r="0.5" fill="#13D5FF"/>
<circle opacity="0.44898" cx="200.5" cy="68.5" r="0.5" fill="#13D5FF"/>
<circle opacity="0.467347" cx="195.5" cy="63.5" r="0.5" fill="#13D5FF"/>
<circle opacity="0.485714" cx="190.5" cy="58.5" r="0.5" fill="#13D5FF"/>
<circle opacity="0.504082" cx="185.5" cy="53.5" r="0.5" fill="#13D5FF"/>
<circle opacity="0.522449" cx="180.5" cy="48.5" r="0.5" fill="#13D5FF"/>
<circle opacity="0.540816" cx="175.5" cy="43.5" r="0.5" fill="#13D5FF"/>
<circle opacity="0.559184" cx="170.5" cy="38.5" r="0.5" fill="#13D5FF"/>
<circle opacity="0.577551" cx="165.5" cy="33.5" r="0.5" fill="#13D5FF"/>
<circle opacity="0.595918" cx="160.5" cy="28.5" r="0.5" fill="#13D5FF"/>
<circle opacity="0.614286" cx="155.5" cy="23.5" r="0.5" fill="#13D5FF"/>
<circle opacity="0.632653" cx="150.5" cy="18.5" r="0.5" fill="#13D5FF"/>
<circle opacity="0.65102" cx="145.5" cy="13.5" r="0.5" fill="#13D5FF"/>
<circle opacity="0.669388" cx="140.5" cy="8.5" r="0.5" fill="#13D5FF"/>
<circle opacity="0.687755" cx="135.5" cy="3.5" r="0.5" fill="#13D5FF"/>
<circle opacity="0.412245" cx="220.5" cy="68.5" r="0.5" fill="#13D5FF"/>
<circle opacity="0.430612" cx="215.5" cy="63.5" r="0.5" fill="#13D5FF"/>
<circle opacity="0.44898" cx="210.5" cy="58.5" r="0.5" fill="#13D5FF"/>
<circle opacity="0.467347" cx="205.5" cy="53.5" r="0.5" fill="#13D5FF"/>
<circle opacity="0.485714" cx="200.5" cy="48.5" r="0.5" fill="#13D5FF"/>
<circle opacity="0.504082" cx="195.5" cy="43.5" r="0.5" fill="#13D5FF"/>
<circle opacity="0.522449" cx="190.5" cy="38.5" r="0.5" fill="#13D5FF"/>
<circle opacity="0.540816" cx="185.5" cy="33.5" r="0.5" fill="#13D5FF"/>
<circle opacity="0.559184" cx="180.5" cy="28.5" r="0.5" fill="#13D5FF"/>
<circle opacity="0.577551" cx="175.5" cy="23.5" r="0.5" fill="#13D5FF"/>
<circle opacity="0.595918" cx="170.5" cy="18.5" r="0.5" fill="#13D5FF"/>
<circle opacity="0.614286" cx="165.5" cy="13.5" r="0.5" fill="#13D5FF"/>
<circle opacity="0.632653" cx="160.5" cy="8.5" r="0.5" fill="#13D5FF"/>
<circle opacity="0.65102" cx="155.5" cy="3.5" r="0.5" fill="#13D5FF"/>
</g>
</svg>