<svg width="340" height="124" viewBox="0 0 340 124" fill="none" xmlns="http://www.w3.org/2000/svg">
    <path
        d="M334 112L6.80655 112C3.51065 112 0.831796 109.341 0.806724 106.046L0.0459912 6.04565C0.0206478 2.7142 2.71426 0 6.04581 0L334 0C337.314 0 340 2.68629 340 6.00001V12.1081V99.8919V106C340 109.314 337.314 112 334 112Z"
        fill="#ffffff" />
    <path
        d="M334 111.5L6.80655 111.5C3.78531 111.5 1.32969 109.063 1.30671 106.042L0.545977 6.04184C0.522745 2.98801 2.99189 0.5 6.04581 0.5L334 0.5C337.038 0.5 339.5 2.96243 339.5 6.00001V12.1081V99.8919V106C339.5 109.038 337.038 111.5 334 111.5Z"
        stroke="white" stroke-opacity="0.07" />
    <rect x="16.1924" y="123.485" width="19.9" height="19.9" rx="1.5" transform="rotate(-135 16.1924 123.485)"
        fill="#ffffff" stroke="#ffffff" />
    <rect x="3" y="111" width="18" height="29" rx="2" transform="rotate(-90 3 111)" fill="#ffffff" />
</svg>