<svg width="52" height="52" viewBox="0 0 52 52" fill="none" xmlns="http://www.w3.org/2000/svg">
<rect width="52" height="52" rx="6" fill="#000E15"/>
<rect x="0.5" y="0.5" width="51" height="51" rx="5.5" stroke="white" stroke-opacity="0.06"/>
<g filter="url(#filter0_d)">
<path d="M32.3665 20.7209C31.8929 20.4419 31.2774 20.4419 30.7566 20.7209L27.0631 22.8605L24.5536 24.2559L20.8602 26.3954C20.3867 26.6744 19.7712 26.6744 19.2503 26.3954L16.3146 24.7209C15.841 24.4418 15.5096 23.9303 15.5096 23.3721V20.0698C15.5096 19.5116 15.7937 19 16.3146 18.7209L19.2029 17.093C19.6765 16.814 20.292 16.814 20.8129 17.093L23.7013 18.7209C24.1748 19 24.5062 19.5116 24.5062 20.0698V22.2093L27.0158 20.7675V18.6279C27.0158 18.0698 26.7318 17.5581 26.2109 17.2791L20.8602 14.2093C20.3867 13.9302 19.7712 13.9302 19.2503 14.2093L13.805 17.2791C13.2841 17.5581 13 18.0698 13 18.6279V24.814C13 25.3721 13.2841 25.8838 13.805 26.1628L19.2503 29.2326C19.7238 29.5117 20.3394 29.5117 20.8602 29.2326L24.5536 27.1395L27.0631 25.6977L30.7566 23.6047C31.23 23.3256 31.8456 23.3256 32.3665 23.6047L35.2549 25.2326C35.7283 25.5116 36.0598 26.0233 36.0598 26.5814V29.8837C36.0598 30.4419 35.7757 30.9535 35.2549 31.2326L32.3665 32.907C31.8929 33.1861 31.2774 33.1861 30.7566 32.907L27.8682 31.2791C27.3946 31 27.0631 30.4884 27.0631 29.9302V27.7908L24.5536 29.2326V31.3721C24.5536 31.9302 24.8377 32.4419 25.3585 32.7209L30.8039 35.7907C31.2774 36.0698 31.8929 36.0698 32.4138 35.7907L37.8592 32.7209C38.3326 32.4419 38.6641 31.9302 38.6641 31.3721V25.186C38.6641 24.6279 38.38 24.1163 37.8592 23.8373L32.3665 20.7209Z" fill="#8247E5"/>
</g>
<defs>
<filter id="filter0_d" x="3" y="4" width="45.6641" height="42" filterUnits="userSpaceOnUse" color-interpolation-filters="sRGB">
<feFlood flood-opacity="0" result="BackgroundImageFix"/>
<feColorMatrix in="SourceAlpha" type="matrix" values="0 0 0 0 0 0 0 0 0 0 0 0 0 0 0 0 0 0 127 0" result="hardAlpha"/>
<feOffset/>
<feGaussianBlur stdDeviation="5"/>
<feComposite in2="hardAlpha" operator="out"/>
<feColorMatrix type="matrix" values="0 0 0 0 0.509804 0 0 0 0 0.278431 0 0 0 0 0.898039 0 0 0 0.75 0"/>
<feBlend mode="normal" in2="BackgroundImageFix" result="effect1_dropShadow"/>
<feBlend mode="normal" in="SourceGraphic" in2="effect1_dropShadow" result="shape"/>
</filter>
</defs>
</svg>
