<svg xmlns="http://www.w3.org/2000/svg" width="18" height="18" viewBox="0 0 18 18" fill="none">
    <path
        d="M16.2118 6.08295L16.2122 6.08328C16.6988 6.46132 16.9834 7.0431 16.9834 7.65954V15.7521C16.9834 16.083 16.8519 16.4005 16.6179 16.6345C16.3839 16.8685 16.0665 17 15.7355 17H2.24793C1.91695 17 1.59954 16.8685 1.36551 16.6345C1.13148 16.4005 1 16.083 1 15.7521L1 7.65954L1 7.65907C0.999857 7.35503 1.0692 7.05498 1.20272 6.78183C1.33625 6.50867 1.53043 6.26965 1.77044 6.083C1.77044 6.083 1.77044 6.083 1.77044 6.083L7.76565 1.42081L7.7658 1.42069C8.11628 1.14803 8.54766 1 8.9917 1C9.43575 1 9.86712 1.14803 10.2176 1.42069L10.2177 1.42075L16.2118 6.08295Z"
        stroke="url(#paint0_linear_3830_16601)" stroke-width="2" />
    <defs>
        <linearGradient id="paint0_linear_3830_16601" x1="8.9917" y1="0" x2="8.9917" y2="18"
            gradientUnits="userSpaceOnUse">
            <stop stop-color="#13D5FF" />
            <stop offset="1" stop-color="#0085FF" />
        </linearGradient>
    </defs>
</svg>