<svg fill="none" height="35" width="35" xmlns="http://www.w3.org/2000/svg" xmlns:xlink="http://www.w3.org/1999/xlink"><linearGradient id="a"><stop offset="0" stop-color="#c90202"/><stop offset=".37" stop-color="#c90202"/><stop offset="1" stop-color="#820202"/></linearGradient><linearGradient id="d" gradientUnits="userSpaceOnUse" x1="15.764" x2="15.791" xlink:href="#a" y1="16.762" y2="16.794"/><linearGradient id="e" gradientUnits="userSpaceOnUse" x1="22968.9" x2="23090.7" xlink:href="#a" y1="3638.84" y2="3918.85"/><linearGradient id="b"><stop offset="0" stop-color="#b50202"/><stop offset=".98" stop-color="#780202"/></linearGradient><linearGradient id="f" gradientUnits="userSpaceOnUse" x1="15.428" x2="15.563" xlink:href="#b" y1="17.299" y2="17.462"/><linearGradient id="g" gradientUnits="userSpaceOnUse" x1="674.374" x2="678.068" xlink:href="#b" y1="466.421" y2="468.664"/><linearGradient id="c"><stop offset="0" stop-color="#f4edef"/><stop offset=".25" stop-color="#f1eaec"/><stop offset=".47" stop-color="#e6e1e3"/><stop offset=".67" stop-color="#d4d1d3"/><stop offset=".87" stop-color="#bcbbbe"/><stop offset="1" stop-color="#a6a8ab"/></linearGradient><linearGradient id="h" gradientUnits="userSpaceOnUse" x1="15.434" x2="15.505" xlink:href="#c" y1="17.284" y2="17.361"/><linearGradient id="i" gradientUnits="userSpaceOnUse" x1="462.864" x2="462.877" xlink:href="#c" y1="118.523" y2="118.541"/><linearGradient id="j" gradientUnits="userSpaceOnUse" x1=".088" x2="34.888" y1="1.456" y2="1.863"><stop offset="0" stop-color="#6458ed"/><stop offset=".49" stop-color="#4e5cf4"/><stop offset="1" stop-color="#018edd"/></linearGradient><path d="M15.78 16.774c0 .082-.007-.068 0 0z" fill="url(#d)"/><path d="M1.884 24.166a15.028 15.028 0 0 0 .159.346c-.055-.115-.104-.227-.159-.346zm13.583-6.827a.36.36 0 0 0 0 .036v.144c.016-.04.032-.08.05-.118.02-.04 0-.111 0-.165a1.09 1.09 0 0 0-.05.103z" fill="url(#e)"/><path d="M15.522 17.24v.165a1.861 1.861 0 0 0-.051.118v-.09-.054a.36.36 0 0 1 0-.036 1.09 1.09 0 0 1 .05-.103z" fill="url(#f)"/><path d="M18.486 5.826c-6.506 0-11.343 5.25-10.793 11.725.364 4.318 4.162 7.817 8.484 7.817s7.54-3.5 7.19-7.817c-.176-2.158-2.074-3.908-4.24-3.908-2.076 0-3.578 1.273-3.604 3.597v.165l.035-.07.037-.067c.01-.021.024-.04.036-.06.04-.064.085-.126.134-.184l.05-.056.05-.054.053-.052c.035-.032.07-.064.108-.093.119-.093.247-.173.382-.24l.068-.031.07-.03.057-.023a2.28 2.28 0 0 1 .301-.092l.047-.01a2.592 2.592 0 0 1 .396-.055h.072c.885-.03 1.782.383 2.077 1.242.667 1.956-1.132 4.026-3.695 4.018-2.222-.007-4.174-1.8-4.36-4.018-.37-4.437 2.936-8.034 7.396-8.034s8.357 3.597 8.715 8.034c.533 6.656-4.427 12.052-11.085 12.052-6.66 0-12.516-5.396-13.078-12.052C2.635 8.655 9.261 1.462 18.18 1.462c6.62 0 12.624 3.96 15.567 9.628a17.493 17.493 0 0 0-7.828-8.916A17.465 17.465 0 0 0 4.002 6.356 17.509 17.509 0 0 0 0 17.53c0 .568.027 1.13.08 1.683a16.632 16.632 0 0 0 1.804 4.96c2.945 5.327 8.674 9.019 14.936 9.019 8.631 0 15.068-7.001 14.379-15.629-.518-6.487-6.21-11.737-12.713-11.737zM15.785 16.78c0 .076-.008-.073 0 0z" fill="#fff"/><path d="M2.043 24.512a15.028 15.028 0 0 1-.418-.828 9.13 9.13 0 0 0 .26.482c.054.119.103.23.158.346z" fill="url(#g)"/><path d="M15.522 17.24v.165a1.861 1.861 0 0 0-.051.118v-.09-.054a.36.36 0 0 1 0-.036 1.09 1.09 0 0 1 .05-.103z" fill="url(#f)"/><path d="M15.467 17.339v0z" fill="url(#h)"/><path d="M33.747 11.084c-2.944-5.67-8.94-9.628-15.567-9.628-8.922 0-15.545 7.193-14.79 16.067.564 6.656 6.42 12.053 13.077 12.053 6.656 0 11.62-5.397 11.085-12.053-.358-4.437-4.26-8.034-8.715-8.034s-7.767 3.597-7.396 8.034c.186 2.219 2.135 4.008 4.36 4.018 2.563.008 4.365-2.062 3.695-4.018-.295-.859-1.192-1.271-2.077-1.242h-.072a2.587 2.587 0 0 0-.396.055l-.047.01-.073.02a2.28 2.28 0 0 0-.228.073l-.058.022-.07.03-.067.032a2.153 2.153 0 0 0-.382.239c-.036.03-.073.061-.108.093l-.053.052-.051.054-.05.056c-.048.058-.092.12-.133.184l-.036.06-.037.067-.035.07c-.018.038-.034.079-.05.119v-.091V17.255v.081c.016-.035.034-.07.054-.103.023-2.324 1.525-3.597 3.603-3.597 2.167 0 4.065 1.75 4.24 3.909.352 4.317-2.868 7.816-7.189 7.816s-8.12-3.5-8.484-7.816C7.152 11.069 11.984 5.819 18.49 5.819c6.505 0 12.199 5.25 12.716 11.726.69 8.632-5.747 15.628-14.378 15.628-6.271 0-11.99-3.692-14.936-9.02.052.117.104.232.159.347a14.983 14.983 0 0 1-.426-.844 16.632 16.632 0 0 1-1.537-4.462A17.51 17.51 0 0 0 7.36 31.731a17.472 17.472 0 0 0 20.89-.48 17.494 17.494 0 0 0 6.69-12.858 17.513 17.513 0 0 0-1.185-7.321zm-17.236 3.39c.082-.08.168-.155.259-.225-.09.071-.177.151-.26.225z" fill="url(#j)"/><g fill="#ff8080"><path d="M2.043 24.512a15.028 15.028 0 0 1-.418-.828 9.13 9.13 0 0 0 .26.482c.054.119.103.23.158.346zm13.738-7.738c0 .082-.009-.068 0 0z"/></g></svg>