<svg width="16" height="16" viewBox="0 0 16 16" fill="none" xmlns="http://www.w3.org/2000/svg">
<path d="M5.33333 2H2.66667C2.29848 2 2 2.29848 2 2.66667V5.33333C2 5.70152 2.29848 6 2.66667 6H5.33333C5.70152 6 6 5.70152 6 5.33333V2.66667C6 2.29848 5.70152 2 5.33333 2Z" stroke="url(#paint0_linear_31934_1824)" stroke-width="1.5" stroke-linecap="round" stroke-linejoin="round"/>
<path d="M13.3333 10H10.6667C10.2985 10 10 10.2985 10 10.6667V13.3333C10 13.7015 10.2985 14 10.6667 14H13.3333C13.7015 14 14 13.7015 14 13.3333V10.6667C14 10.2985 13.7015 10 13.3333 10Z" stroke="url(#paint1_linear_31934_1824)" stroke-width="1.5" stroke-linecap="round" stroke-linejoin="round"/>
<path d="M13.9998 7.33333V5.33333C13.9998 4.97971 13.8594 4.64057 13.6093 4.39052C13.3593 4.14048 13.0201 4 12.6665 4H8.6665L10.6665 2" stroke="url(#paint2_linear_31934_1824)" stroke-width="1.5" stroke-linecap="round" stroke-linejoin="round"/>
<path d="M2 8.66699V10.667C2 11.0206 2.14048 11.3598 2.39052 11.6098C2.64057 11.8598 2.97971 12.0003 3.33333 12.0003H7.33333L5.33333 14.0003" stroke="url(#paint3_linear_31934_1824)" stroke-width="1.5" stroke-linecap="round" stroke-linejoin="round"/>
<defs>
<linearGradient id="paint0_linear_31934_1824" x1="4" y1="2" x2="4" y2="6" gradientUnits="userSpaceOnUse">
<stop stop-color="#FEC932"/>
<stop offset="1" stop-color="#FE9432"/>
</linearGradient>
<linearGradient id="paint1_linear_31934_1824" x1="12" y1="10" x2="12" y2="14" gradientUnits="userSpaceOnUse">
<stop stop-color="#FEC932"/>
<stop offset="1" stop-color="#FE9432"/>
</linearGradient>
<linearGradient id="paint2_linear_31934_1824" x1="11.3332" y1="2" x2="11.3332" y2="7.33333" gradientUnits="userSpaceOnUse">
<stop stop-color="#FEC932"/>
<stop offset="1" stop-color="#FE9432"/>
</linearGradient>
<linearGradient id="paint3_linear_31934_1824" x1="4.66667" y1="8.66699" x2="4.66667" y2="14.0003" gradientUnits="userSpaceOnUse">
<stop stop-color="#FEC932"/>
<stop offset="1" stop-color="#FE9432"/>
</linearGradient>
</defs>
</svg>
