<svg width="1128" height="800" viewBox="0 0 1128 800" fill="none" xmlns="http://www.w3.org/2000/svg">
    <g opacity="0.1">
        <path opacity="0.0526316" d="M-1236.26 288.096C-1130.21 218.518 -805.007 99.1046 -352.646 178.077C99.7149 257.05 366.95 -102.65 444.023 -292.372C495.594 -427.719 665.283 -670.755 931.473 -560.119" stroke="url(#paint0_linear_1_7013)" stroke-width="5" />
        <path opacity="0.105263" d="M-1233.2 297.773C-1127.15 228.195 -801.95 108.781 -349.589 187.754C102.772 266.727 370.007 -92.9732 447.08 -282.695C498.65 -418.042 668.339 -661.078 934.529 -550.442" stroke="url(#paint1_linear_1_7013)" stroke-width="5" />
        <path opacity="0.157895" d="M-1230.15 307.45C-1124.09 237.872 -798.894 118.459 -346.533 197.431C105.828 276.404 373.064 -83.2961 450.136 -273.018C501.707 -408.365 671.396 -651.401 937.586 -540.765" stroke="url(#paint2_linear_1_7013)" stroke-width="5" />
        <path opacity="0.210526" d="M-1227.09 317.127C-1121.03 247.549 -795.835 128.135 -343.474 207.108C108.887 286.081 376.122 -73.6193 453.195 -263.341C504.766 -398.688 674.455 -641.724 940.644 -531.088" stroke="url(#paint3_linear_1_7013)" stroke-width="5" />
        <path opacity="0.263158" d="M-1224.03 326.804C-1117.98 257.226 -792.778 137.812 -340.417 216.785C111.943 295.758 379.179 -63.9423 456.251 -253.664C507.822 -389.011 677.511 -632.047 943.701 -521.411" stroke="url(#paint4_linear_1_7013)" stroke-width="5" />
        <path opacity="0.315789" d="M-1220.98 336.481C-1114.92 266.903 -789.722 147.489 -337.361 226.462C115 305.435 382.236 -54.2653 459.308 -243.987C510.879 -379.334 680.568 -622.37 946.758 -511.734" stroke="url(#paint5_linear_1_7013)" stroke-width="5" />
        <path opacity="0.368421" d="M-1217.92 346.158C-1111.86 276.58 -786.665 157.166 -334.304 236.139C118.057 315.112 385.292 -44.5883 462.365 -234.31C513.936 -369.657 683.625 -612.693 949.814 -502.057" stroke="url(#paint6_linear_1_7013)" stroke-width="5" />
        <path opacity="0.421053" d="M-1214.86 355.835C-1108.81 286.257 -783.608 166.843 -331.248 245.816C121.113 324.788 388.349 -34.9116 465.421 -224.633C516.992 -359.981 686.681 -603.016 952.871 -492.38" stroke="url(#paint7_linear_1_7013)" stroke-width="5" />
        <path opacity="0.473684" d="M-1211.81 365.512C-1105.75 295.934 -780.552 176.52 -328.191 255.493C124.17 334.465 391.405 -25.2346 468.478 -214.956C520.049 -350.304 689.738 -593.339 955.928 -482.703" stroke="url(#paint8_linear_1_7013)" stroke-width="5" />
        <path opacity="0.526316" d="M-1208.75 375.189C-1102.69 305.61 -777.495 186.197 -325.134 265.17C127.227 344.142 394.462 -15.5577 471.535 -205.279C523.105 -340.627 692.795 -583.662 958.984 -473.026" stroke="url(#paint9_linear_1_7013)" stroke-width="5" />
        <path opacity="0.578947" d="M-1205.69 384.866C-1099.64 315.287 -774.439 195.874 -322.078 274.847C130.283 353.819 397.519 -5.88068 474.591 -195.602C526.162 -330.95 695.851 -573.985 962.041 -463.349" stroke="url(#paint10_linear_1_7013)" stroke-width="5" />
        <path opacity="0.631579" d="M-1202.64 394.543C-1096.58 324.965 -771.382 205.551 -319.021 284.524C133.34 363.496 400.575 3.79645 477.648 -185.925C529.219 -321.272 698.908 -564.308 965.098 -453.672" stroke="url(#paint11_linear_1_7013)" stroke-width="5" />
        <path opacity="0.684211" d="M-1199.58 404.22C-1093.52 334.641 -768.325 215.228 -315.964 294.201C136.397 373.173 403.632 13.4733 480.705 -176.248C532.275 -311.596 701.964 -554.631 968.154 -443.995" stroke="url(#paint12_linear_1_7013)" stroke-width="5" />
        <path opacity="0.736842" d="M-1196.52 413.897C-1090.47 344.319 -765.267 224.905 -312.906 303.878C139.455 382.85 406.691 23.1505 483.763 -166.571C535.334 -301.918 705.023 -544.954 971.213 -434.318" stroke="url(#paint13_linear_1_7013)" stroke-width="5" />
        <path opacity="0.789474" d="M-1193.46 423.574C-1087.41 353.995 -762.21 234.582 -309.849 313.555C142.512 392.527 409.747 32.8273 486.82 -156.894C538.391 -292.242 708.08 -535.277 974.269 -424.641" stroke="url(#paint14_linear_1_7013)" stroke-width="5" />
        <path opacity="0.842105" d="M-1190.41 433.251C-1084.35 363.672 -759.153 244.259 -306.792 323.232C145.568 402.204 412.804 42.5043 489.876 -147.217C541.447 -282.565 711.136 -525.6 977.326 -414.964" stroke="url(#paint15_linear_1_7013)" stroke-width="5" />
        <path opacity="0.894737" d="M-1187.35 442.927C-1081.3 373.349 -756.097 253.936 -303.736 332.908C148.625 411.881 415.861 52.1811 492.933 -137.54C544.504 -272.888 714.193 -515.924 980.383 -405.288" stroke="url(#paint16_linear_1_7013)" stroke-width="5" />
        <path opacity="0.947368" d="M-1184.29 452.605C-1078.24 383.026 -753.04 263.613 -300.679 342.585C151.682 421.558 418.917 61.8582 495.99 -127.863C547.561 -263.211 717.25 -506.247 983.439 -395.61" stroke="url(#paint17_linear_1_7013)" stroke-width="5" />
        <path d="M-1181.24 462.281C-1075.18 392.703 -749.983 273.29 -297.623 352.262C154.738 431.235 421.974 71.535 499.046 -118.187C550.617 -253.534 720.306 -496.57 986.496 -385.934" stroke="url(#paint18_linear_1_7013)" stroke-width="5" />
        <path opacity="0.0526316" d="M-1300.52 167.098C-1194.47 97.5202 -869.267 -21.8932 -416.906 57.0794C35.4552 136.052 302.691 -223.648 379.763 -413.369C431.334 -548.717 601.023 -791.753 867.213 -681.117" stroke="url(#paint19_linear_1_7013)" stroke-width="5" />
        <path opacity="0.105263" d="M-1297.46 176.775C-1191.41 107.197 -866.21 -12.2164 -413.849 66.7562C38.5118 145.729 305.747 -213.971 382.82 -403.693C434.391 -539.04 604.08 -782.076 870.269 -671.44" stroke="url(#paint20_linear_1_7013)" stroke-width="5" />
        <path opacity="0.157895" d="M-1294.41 186.452C-1188.35 116.874 -863.153 -2.53944 -410.792 76.4332C41.5684 155.406 308.804 -204.294 385.876 -394.016C437.447 -529.363 607.136 -772.399 873.326 -661.763" stroke="url(#paint21_linear_1_7013)" stroke-width="5" />
        <path opacity="0.210526" d="M-1291.35 196.129C-1185.3 126.551 -860.097 7.13744 -407.736 86.11C44.6251 165.083 311.861 -194.617 388.933 -384.339C440.504 -519.686 610.193 -762.722 876.383 -652.086" stroke="url(#paint22_linear_1_7013)" stroke-width="5" />
        <path opacity="0.263158" d="M-1288.29 205.806C-1182.24 136.228 -857.04 16.8146 -404.679 95.7872C47.6817 174.76 314.917 -184.94 391.99 -374.662C443.561 -510.009 613.25 -753.045 879.439 -642.409" stroke="url(#paint23_linear_1_7013)" stroke-width="5" />
        <path opacity="0.315789" d="M-1285.24 215.483C-1179.18 145.905 -853.983 26.4914 -401.623 105.464C50.7384 184.437 317.974 -175.263 395.046 -364.985C446.617 -500.332 616.306 -743.368 882.496 -632.732" stroke="url(#paint24_linear_1_7013)" stroke-width="5" />
        <path opacity="0.368421" d="M-1282.18 225.16C-1176.13 155.582 -850.927 36.1686 -398.566 115.141C53.795 194.114 321.03 -165.586 398.103 -355.308C449.674 -490.655 619.363 -733.691 885.553 -623.055" stroke="url(#paint25_linear_1_7013)" stroke-width="5" />
        <path opacity="0.421053" d="M-1279.12 234.837C-1173.07 165.259 -847.87 45.8453 -395.509 124.818C56.8516 203.791 324.087 -155.909 401.16 -345.631C452.73 -480.978 622.42 -724.014 888.609 -613.378" stroke="url(#paint26_linear_1_7013)" stroke-width="5" />
        <path opacity="0.473684" d="M-1276.07 244.514C-1170.01 174.936 -844.814 55.5225 -392.453 134.495C59.9083 213.468 327.144 -146.232 404.216 -335.954C455.787 -471.301 625.476 -714.337 891.666 -603.701" stroke="url(#paint27_linear_1_7013)" stroke-width="5" />
        <path opacity="0.526316" d="M-1273.01 254.191C-1166.96 184.613 -841.757 65.1993 -389.396 144.172C62.9649 223.145 330.2 -136.555 407.273 -326.277C458.844 -461.624 628.533 -704.66 894.723 -594.024" stroke="url(#paint28_linear_1_7013)" stroke-width="5" />
        <path opacity="0.578947" d="M-1269.95 263.868C-1163.9 194.29 -838.698 74.8765 -386.337 153.849C66.0235 232.822 333.259 -126.878 410.332 -316.6C461.902 -451.947 631.591 -694.983 897.781 -584.347" stroke="url(#paint29_linear_1_7013)" stroke-width="5" />
        <path opacity="0.631579" d="M-1266.9 273.545C-1160.84 203.967 -835.644 84.5531 -383.283 163.526C69.0782 242.498 336.314 -117.202 413.386 -306.923C464.957 -442.271 634.646 -685.306 900.836 -574.67" stroke="url(#paint30_linear_1_7013)" stroke-width="5" />
        <path opacity="0.684211" d="M-1263.84 283.222C-1157.79 213.644 -832.587 94.2301 -380.226 173.203C72.1348 252.175 339.37 -107.525 416.443 -297.246C468.014 -432.594 637.703 -675.629 903.892 -564.993" stroke="url(#paint31_linear_1_7013)" stroke-width="5" />
        <path opacity="0.736842" d="M-1260.78 292.899C-1154.73 223.321 -829.528 103.907 -377.167 182.88C75.1934 261.852 342.429 -97.8475 419.501 -287.569C471.072 -422.916 640.761 -665.952 906.951 -555.316" stroke="url(#paint32_linear_1_7013)" stroke-width="5" />
        <path opacity="0.789474" d="M-1257.73 302.576C-1151.67 232.998 -826.472 113.584 -374.111 192.557C78.2501 271.529 345.486 -88.1706 422.558 -277.892C474.129 -413.24 643.818 -656.275 910.008 -545.639" stroke="url(#paint33_linear_1_7013)" stroke-width="5" />
        <path opacity="0.842105" d="M-1254.67 312.253C-1148.61 242.674 -823.415 123.261 -371.054 202.233C81.3067 281.206 348.542 -78.4938 425.615 -268.215C477.186 -403.563 646.875 -646.599 913.064 -535.963" stroke="url(#paint34_linear_1_7013)" stroke-width="5" />
        <path opacity="0.894737" d="M-1251.61 321.93C-1145.56 252.351 -820.358 132.938 -367.998 211.911C84.3634 290.883 351.599 -68.8167 428.671 -258.538C480.242 -393.886 649.931 -636.922 916.121 -526.285" stroke="url(#paint35_linear_1_7013)" stroke-width="5" />
        <path opacity="0.947368" d="M-1248.56 331.607C-1142.5 262.028 -817.302 142.615 -364.941 221.588C87.42 300.56 354.655 -59.1397 431.728 -248.861C483.299 -384.209 652.988 -627.245 919.178 -516.608" stroke="url(#paint36_linear_1_7013)" stroke-width="5" />
        <path d="M-1245.5 341.284C-1139.44 271.705 -814.245 152.292 -361.884 231.265C90.4766 310.237 357.712 -49.4627 434.785 -239.184C486.355 -374.532 656.045 -617.568 922.234 -506.931" stroke="url(#paint37_linear_1_7013)" stroke-width="5" />
        <path opacity="0.0526316" d="M-1364.79 46.1004C-1258.73 -23.4778 -933.532 -142.891 -481.171 -63.9187C-28.8105 15.0539 238.425 -344.646 315.498 -534.367C367.068 -669.715 536.757 -912.751 802.947 -802.115" stroke="url(#paint38_linear_1_7013)" stroke-width="5" />
        <path opacity="0.105263" d="M-1361.73 55.7772C-1255.68 -13.8011 -930.476 -133.214 -478.115 -54.2419C-25.7538 24.7307 241.482 -334.969 318.554 -524.691C370.125 -660.038 539.814 -903.074 806.004 -792.438" stroke="url(#paint39_linear_1_7013)" stroke-width="5" />
        <path opacity="0.157895" d="M-1358.67 65.4542C-1252.62 -4.12407 -927.419 -123.537 -475.058 -44.5649C-22.6972 34.4077 244.538 -325.292 321.611 -515.014C373.182 -650.361 542.871 -893.397 809.06 -782.761" stroke="url(#paint40_linear_1_7013)" stroke-width="5" />
        <path opacity="0.210526" d="M-1355.61 75.131C-1249.56 5.55269 -924.36 -113.861 -472 -34.8881C-19.6386 44.0845 247.597 -315.615 324.669 -505.337C376.24 -640.684 545.929 -883.72 812.119 -773.084" stroke="url(#paint41_linear_1_7013)" stroke-width="5" />
        <path opacity="0.263158" d="M-1352.56 84.808C-1246.5 15.2297 -921.304 -104.184 -468.943 -25.2111C-16.582 53.7615 250.653 -305.938 327.726 -495.66C379.297 -631.007 548.986 -874.043 815.176 -763.407" stroke="url(#paint42_linear_1_7013)" stroke-width="5" />
        <path opacity="0.315789" d="M-1349.5 94.485C-1243.45 24.9067 -918.247 -94.5067 -465.886 -15.5341C-13.5253 63.4385 253.71 -296.261 330.783 -485.983C382.354 -621.33 552.043 -864.366 818.232 -753.73" stroke="url(#paint43_linear_1_7013)" stroke-width="5" />
        <path opacity="0.368421" d="M-1346.44 104.162C-1240.39 34.5837 -915.191 -84.8297 -462.83 -5.85713C-10.4687 73.1155 256.767 -286.584 333.839 -476.306C385.41 -611.653 555.099 -854.689 821.289 -744.053" stroke="url(#paint44_linear_1_7013)" stroke-width="5" />
        <path opacity="0.421053" d="M-1343.39 113.839C-1237.33 44.2606 -912.134 -75.1528 -459.773 3.81975C-7.41203 82.7923 259.823 -276.908 336.896 -466.629C388.467 -601.976 558.156 -845.012 824.346 -734.376" stroke="url(#paint45_linear_1_7013)" stroke-width="5" />
        <path opacity="0.473684" d="M-1340.33 123.516C-1234.28 53.9377 -909.077 -65.4757 -456.716 13.4969C-4.35539 92.4695 262.88 -267.23 339.953 -456.952C391.523 -592.299 561.212 -835.335 827.402 -724.699" stroke="url(#paint46_linear_1_7013)" stroke-width="5" />
        <path opacity="0.526316" d="M-1337.27 133.193C-1231.22 63.6147 -906.021 -55.7987 -453.66 23.1739C-1.29875 102.146 265.937 -257.553 343.009 -447.275C394.58 -582.622 564.269 -825.658 830.459 -715.022" stroke="url(#paint47_linear_1_7013)" stroke-width="5" />
        <path opacity="0.578947" d="M-1334.22 142.87C-1228.16 73.2915 -902.964 -46.122 -450.603 32.8506C1.75789 111.823 268.993 -247.877 346.066 -437.598C397.637 -572.946 567.326 -815.981 833.516 -705.345" stroke="url(#paint48_linear_1_7013)" stroke-width="5" />
        <path opacity="0.631579" d="M-1331.16 152.547C-1225.11 82.9688 -899.907 -36.4446 -447.546 42.528C4.81453 121.501 272.05 -238.199 349.123 -427.921C400.693 -563.268 570.382 -806.304 836.572 -695.668" stroke="url(#paint49_linear_1_7013)" stroke-width="5" />
        <path opacity="0.684211" d="M-1328.1 162.224C-1222.05 92.6457 -896.851 -26.7677 -444.49 52.2049C7.87117 131.177 275.107 -228.522 352.179 -418.244C403.75 -553.591 573.439 -796.627 839.629 -685.991" stroke="url(#paint50_linear_1_7013)" stroke-width="5" />
        <path opacity="0.736842" d="M-1325.05 171.901C-1218.99 102.322 -893.794 -17.0911 -441.433 61.8815C10.9278 140.854 278.163 -218.846 355.236 -408.567C406.807 -543.915 576.496 -786.951 842.685 -676.314" stroke="url(#paint51_linear_1_7013)" stroke-width="5" />
        <path opacity="0.789474" d="M-1321.99 181.578C-1215.93 111.999 -890.735 -7.41395 -438.375 71.5586C13.9864 150.531 281.222 -209.169 358.294 -398.89C409.865 -534.238 579.554 -777.273 845.744 -666.637" stroke="url(#paint52_linear_1_7013)" stroke-width="5" />
        <path opacity="0.842105" d="M-1318.93 191.255C-1212.88 121.676 -887.679 2.26305 -435.318 81.2356C17.043 160.208 284.278 -199.492 361.351 -389.213C412.922 -524.561 582.611 -767.596 848.801 -656.96" stroke="url(#paint53_linear_1_7013)" stroke-width="5" />
        <path opacity="0.894737" d="M-1315.88 200.932C-1209.82 131.353 -884.622 11.9399 -432.261 90.9125C20.0997 169.885 287.335 -189.815 364.408 -379.536C415.979 -514.884 585.668 -757.92 851.857 -647.283" stroke="url(#paint54_linear_1_7013)" stroke-width="5" />
        <path opacity="0.947368" d="M-1312.82 210.609C-1206.76 141.03 -881.566 21.6169 -429.205 100.59C23.1563 179.562 290.392 -180.138 367.464 -369.859C419.035 -505.207 588.724 -748.243 854.914 -637.606" stroke="url(#paint55_linear_1_7013)" stroke-width="5" />
        <path d="M-1309.76 220.286C-1203.71 150.707 -878.509 31.2939 -426.148 110.267C26.213 189.239 293.448 -170.461 370.521 -360.182C422.092 -495.53 591.781 -738.566 857.971 -627.929" stroke="url(#paint56_linear_1_7013)" stroke-width="5" />
        <path opacity="0.0526316" d="M-1429.05 -74.8974C-1322.99 -144.476 -997.794 -263.889 -545.433 -184.916C-93.0722 -105.944 174.163 -465.644 251.236 -655.365C302.807 -790.713 472.496 -1033.75 738.685 -923.112" stroke="url(#paint57_linear_1_7013)" stroke-width="5" />
        <path opacity="0.105263" d="M-1425.99 -65.2201C-1319.93 -134.798 -994.735 -254.212 -542.375 -175.239C-90.0136 -96.2666 177.222 -455.966 254.294 -645.688C305.865 -781.035 475.554 -1024.07 741.744 -913.435" stroke="url(#paint58_linear_1_7013)" stroke-width="5" />
        <path opacity="0.157895" d="M-1422.93 -55.5434C-1316.88 -125.122 -991.679 -244.535 -539.318 -165.562C-86.957 -86.5899 180.278 -446.29 257.351 -636.011C308.922 -771.359 478.611 -1014.39 744.801 -903.758" stroke="url(#paint59_linear_1_7013)" stroke-width="5" />
        <path opacity="0.210526" d="M-1419.88 -45.8664C-1313.82 -115.445 -988.622 -234.858 -536.261 -155.885C-83.9003 -76.9129 183.335 -436.613 260.408 -626.334C311.979 -761.682 481.668 -1004.72 747.857 -894.081" stroke="url(#paint60_linear_1_7013)" stroke-width="5" />
        <path opacity="0.263158" d="M-1416.82 -36.1891C-1310.76 -105.767 -985.566 -225.181 -533.205 -146.208C-80.8437 -67.2356 186.392 -426.935 263.464 -616.657C315.035 -752.004 484.724 -995.04 750.914 -884.404" stroke="url(#paint61_linear_1_7013)" stroke-width="5" />
        <path opacity="0.315789" d="M-1413.76 -26.5124C-1307.71 -96.0906 -982.509 -215.504 -530.148 -136.531C-77.787 -57.5589 189.448 -417.259 266.521 -606.98C318.092 -742.328 487.781 -985.364 753.971 -874.727" stroke="url(#paint62_linear_1_7013)" stroke-width="5" />
        <path opacity="0.368421" d="M-1410.71 -16.8356C-1304.65 -86.4139 -979.452 -205.827 -527.091 -126.855C-74.7304 -47.8821 192.505 -407.582 269.578 -597.303C321.148 -732.651 490.837 -975.687 757.027 -865.051" stroke="url(#paint63_linear_1_7013)" stroke-width="5" />
        <path opacity="0.421053" d="M-1407.65 -7.1586C-1301.6 -76.7369 -976.396 -196.15 -524.035 -117.178C-71.6738 -38.2051 195.562 -397.905 272.634 -587.626C324.205 -722.974 493.894 -966.01 760.084 -855.374" stroke="url(#paint64_linear_1_7013)" stroke-width="5" />
        <path opacity="0.473684" d="M-1404.59 2.5184C-1298.54 -67.0599 -973.339 -186.473 -520.978 -107.501C-68.6171 -28.5281 198.618 -388.228 275.691 -577.949C327.262 -713.297 496.951 -956.333 763.141 -845.697" stroke="url(#paint65_linear_1_7013)" stroke-width="5" />
        <path opacity="0.526316" d="M-1401.54 12.1954C-1295.48 -57.3829 -970.282 -176.796 -517.921 -97.8237C-65.5605 -18.8511 201.675 -378.551 278.748 -568.272C330.318 -703.62 500.007 -946.656 766.197 -836.02" stroke="url(#paint66_linear_1_7013)" stroke-width="5" />
        <path opacity="0.578947" d="M-1398.48 21.8724C-1292.43 -47.7059 -967.226 -167.119 -514.865 -88.1467C-62.5038 -9.17409 204.732 -368.874 281.804 -558.595C333.375 -693.943 503.064 -936.979 769.254 -826.343" stroke="url(#paint67_linear_1_7013)" stroke-width="5" />
        <path opacity="0.631579" d="M-1395.42 31.5492C-1289.37 -38.0291 -964.169 -157.443 -511.808 -78.4699C-59.4472 0.502669 207.788 -359.197 284.861 -548.919C336.432 -684.266 506.121 -927.302 772.31 -816.666" stroke="url(#paint68_linear_1_7013)" stroke-width="5" />
        <path opacity="0.684211" d="M-1392.36 41.2264C-1286.31 -28.3519 -961.11 -147.765 -508.75 -68.7927C-56.3886 10.1799 210.847 -349.52 287.919 -539.241C339.49 -674.589 509.179 -917.625 775.369 -806.989" stroke="url(#paint69_linear_1_7013)" stroke-width="5" />
        <path opacity="0.736842" d="M-1389.31 50.9032C-1283.25 -18.6751 -958.054 -138.089 -505.693 -59.1159C-53.332 19.8567 213.903 -339.843 290.976 -529.565C342.547 -664.912 512.236 -907.948 778.426 -797.312" stroke="url(#paint70_linear_1_7013)" stroke-width="5" />
        <path opacity="0.789474" d="M-1386.25 60.5804C-1280.2 -8.99785 -954.997 -128.411 -502.636 -49.4387C-50.2753 29.5339 216.96 -330.166 294.033 -519.887C345.604 -655.235 515.293 -898.271 781.482 -787.635" stroke="url(#paint71_linear_1_7013)" stroke-width="5" />
        <path opacity="0.842105" d="M-1383.19 70.2572C-1277.14 0.678909 -951.941 -118.735 -499.58 -39.7619C-47.2187 39.2107 220.017 -320.489 297.089 -510.211C348.66 -645.558 518.349 -888.594 784.539 -777.958" stroke="url(#paint72_linear_1_7013)" stroke-width="5" />
        <path opacity="0.894737" d="M-1380.14 79.9342C-1274.08 10.3559 -948.884 -109.058 -496.523 -30.0849C-44.162 48.8877 223.073 -310.812 300.146 -500.534C351.717 -635.881 521.406 -878.917 787.596 -768.281" stroke="url(#paint73_linear_1_7013)" stroke-width="5" />
        <path opacity="0.947368" d="M-1377.08 89.6109C-1271.03 20.0327 -945.827 -99.3807 -493.466 -20.4082C-41.1054 58.5644 226.13 -301.135 303.203 -490.857C354.773 -626.204 524.462 -869.24 790.652 -758.604" stroke="url(#paint74_linear_1_7013)" stroke-width="5" />
        <path d="M-1374.02 99.2879C-1267.97 29.7097 -942.771 -89.7037 -490.41 -10.7312C-38.0488 68.2414 229.187 -291.458 306.259 -481.18C357.83 -616.527 527.519 -859.563 793.709 -748.927" stroke="url(#paint75_linear_1_7013)" stroke-width="5" />
        <path opacity="0.0526316" d="M-1493.31 -195.895C-1387.26 -265.474 -1062.06 -384.887 -609.695 -305.915C-157.334 -226.942 109.902 -586.642 186.974 -776.363C238.545 -911.711 408.234 -1154.75 674.424 -1044.11" stroke="url(#paint76_linear_1_7013)" stroke-width="5" />
        <path opacity="0.105263" d="M-1490.25 -186.218C-1384.2 -255.797 -1059 -375.21 -606.638 -296.237C-154.277 -217.265 112.958 -576.965 190.031 -766.686C241.602 -902.034 411.291 -1145.07 677.48 -1034.43" stroke="url(#paint77_linear_1_7013)" stroke-width="5" />
        <path opacity="0.157895" d="M-1487.19 -176.542C-1381.14 -246.12 -1055.94 -365.533 -603.58 -286.561C-151.219 -207.588 116.017 -567.288 193.089 -757.01C244.66 -892.357 414.349 -1135.39 680.539 -1024.76" stroke="url(#paint78_linear_1_7013)" stroke-width="5" />
        <path opacity="0.210526" d="M-1484.14 -166.864C-1378.08 -236.443 -1052.88 -355.856 -600.523 -276.883C-148.162 -197.911 119.073 -557.611 196.146 -747.332C247.717 -882.68 417.406 -1125.72 683.596 -1015.08" stroke="url(#paint79_linear_1_7013)" stroke-width="5" />
        <path opacity="0.263158" d="M-1481.08 -157.188C-1375.03 -226.766 -1049.83 -346.179 -597.466 -267.207C-145.105 -188.234 122.13 -547.934 199.203 -737.656C250.773 -873.003 420.462 -1116.04 686.652 -1005.4" stroke="url(#paint80_linear_1_7013)" stroke-width="5" />
        <path opacity="0.315789" d="M-1478.02 -147.511C-1371.97 -217.089 -1046.77 -336.502 -594.41 -257.53C-142.049 -178.557 125.187 -538.257 202.259 -727.979C253.83 -863.326 423.519 -1106.36 689.709 -995.726" stroke="url(#paint81_linear_1_7013)" stroke-width="5" />
        <path opacity="0.368421" d="M-1474.97 -137.834C-1368.91 -207.412 -1043.71 -326.825 -591.353 -247.853C-138.992 -168.88 128.243 -528.58 205.316 -718.302C256.887 -853.649 426.576 -1096.68 692.766 -986.049" stroke="url(#paint82_linear_1_7013)" stroke-width="5" />
        <path opacity="0.421053" d="M-1471.91 -128.157C-1365.86 -197.735 -1040.66 -317.148 -588.296 -238.176C-135.935 -159.203 131.3 -518.903 208.373 -708.625C259.943 -843.972 429.632 -1087.01 695.822 -976.372" stroke="url(#paint83_linear_1_7013)" stroke-width="5" />
        <path opacity="0.473684" d="M-1468.85 -118.48C-1362.8 -188.058 -1037.6 -307.472 -585.24 -228.499C-132.879 -149.526 134.357 -509.226 211.429 -698.948C263 -834.295 432.689 -1077.33 698.879 -966.695" stroke="url(#paint84_linear_1_7013)" stroke-width="5" />
        <path opacity="0.526316" d="M-1465.8 -108.803C-1359.74 -178.381 -1034.54 -297.794 -582.183 -218.822C-129.822 -139.849 137.413 -499.549 214.486 -689.271C266.057 -824.618 435.746 -1067.65 701.935 -957.018" stroke="url(#paint85_linear_1_7013)" stroke-width="5" />
        <path opacity="0.578947" d="M-1462.74 -99.1256C-1356.69 -168.704 -1031.49 -288.117 -579.126 -209.145C-126.766 -130.172 140.47 -489.872 217.542 -679.594C269.113 -814.941 438.802 -1057.98 704.992 -947.341" stroke="url(#paint86_linear_1_7013)" stroke-width="5" />
        <path opacity="0.631579" d="M-1459.68 -89.4489C-1353.63 -159.027 -1028.43 -278.441 -576.07 -199.468C-123.709 -120.495 143.527 -480.195 220.599 -669.917C272.17 -805.264 441.859 -1048.3 708.049 -937.664" stroke="url(#paint87_linear_1_7013)" stroke-width="5" />
        <path opacity="0.684211" d="M-1456.63 -79.7719C-1350.57 -149.35 -1025.37 -268.764 -573.013 -189.791C-120.652 -110.818 146.583 -470.518 223.656 -660.24C275.227 -795.587 444.916 -1038.62 711.105 -927.987" stroke="url(#paint88_linear_1_7013)" stroke-width="5" />
        <path opacity="0.736842" d="M-1453.57 -70.0949C-1347.51 -139.673 -1022.32 -259.087 -569.955 -180.114C-117.594 -101.141 149.642 -460.841 226.714 -650.563C278.285 -785.91 447.974 -1028.95 714.164 -918.31" stroke="url(#paint89_linear_1_7013)" stroke-width="5" />
        <path opacity="0.789474" d="M-1450.51 -60.4179C-1344.46 -129.996 -1019.26 -249.41 -566.898 -170.437C-114.537 -91.4644 152.698 -451.164 229.771 -640.886C281.342 -776.233 451.031 -1019.27 717.221 -908.633" stroke="url(#paint90_linear_1_7013)" stroke-width="5" />
        <path opacity="0.842105" d="M-1447.46 -50.7411C-1341.4 -120.319 -1016.2 -239.733 -563.841 -160.76C-111.48 -81.7876 155.755 -441.487 232.828 -631.209C284.398 -766.556 454.087 -1009.59 720.277 -898.956" stroke="url(#paint91_linear_1_7013)" stroke-width="5" />
        <path opacity="0.894737" d="M-1444.4 -41.0641C-1338.35 -110.642 -1013.15 -230.056 -560.785 -151.083C-108.424 -72.1106 158.812 -431.81 235.884 -621.532C287.455 -756.879 457.144 -999.915 723.334 -889.279" stroke="url(#paint92_linear_1_7013)" stroke-width="5" />
        <path opacity="0.947368" d="M-1441.34 -31.3871C-1335.29 -100.965 -1010.09 -220.379 -557.728 -141.406C-105.367 -62.4336 161.868 -422.133 238.941 -611.855C290.512 -747.202 460.201 -990.238 726.391 -879.602" stroke="url(#paint93_linear_1_7013)" stroke-width="5" />
        <path d="M-1438.29 -21.7101C-1332.23 -91.2884 -1007.03 -210.702 -554.671 -131.729C-102.31 -52.7566 164.925 -412.456 241.998 -602.178C293.568 -737.525 463.257 -980.561 729.447 -869.925" stroke="url(#paint94_linear_1_7013)" stroke-width="5" />
    </g>
    <defs>
        <linearGradient id="paint0_linear_1_7013" x1="28.5169" y1="152.309" x2="-304.025" y2="-340.705" gradientUnits="userSpaceOnUse">
            <stop stop-color="#00B2FF" />
            <stop offset="1" stop-color="#0085FF" />
        </linearGradient>
        <linearGradient id="paint1_linear_1_7013" x1="31.5735" y1="161.986" x2="-300.969" y2="-331.028" gradientUnits="userSpaceOnUse">
            <stop stop-color="#00B2FF" />
            <stop offset="1" stop-color="#0085FF" />
        </linearGradient>
        <linearGradient id="paint2_linear_1_7013" x1="34.6302" y1="171.663" x2="-297.912" y2="-321.351" gradientUnits="userSpaceOnUse">
            <stop stop-color="#00B2FF" />
            <stop offset="1" stop-color="#0085FF" />
        </linearGradient>
        <linearGradient id="paint3_linear_1_7013" x1="37.6888" y1="181.34" x2="-294.853" y2="-311.674" gradientUnits="userSpaceOnUse">
            <stop stop-color="#00B2FF" />
            <stop offset="1" stop-color="#0085FF" />
        </linearGradient>
        <linearGradient id="paint4_linear_1_7013" x1="40.7454" y1="191.017" x2="-291.797" y2="-301.997" gradientUnits="userSpaceOnUse">
            <stop stop-color="#00B2FF" />
            <stop offset="1" stop-color="#0085FF" />
        </linearGradient>
        <linearGradient id="paint5_linear_1_7013" x1="43.802" y1="200.694" x2="-288.74" y2="-292.32" gradientUnits="userSpaceOnUse">
            <stop stop-color="#00B2FF" />
            <stop offset="1" stop-color="#0085FF" />
        </linearGradient>
        <linearGradient id="paint6_linear_1_7013" x1="46.8587" y1="210.371" x2="-285.684" y2="-282.643" gradientUnits="userSpaceOnUse">
            <stop stop-color="#00B2FF" />
            <stop offset="1" stop-color="#0085FF" />
        </linearGradient>
        <linearGradient id="paint7_linear_1_7013" x1="49.9153" y1="220.048" x2="-282.627" y2="-272.966" gradientUnits="userSpaceOnUse">
            <stop stop-color="#00B2FF" />
            <stop offset="1" stop-color="#0085FF" />
        </linearGradient>
        <linearGradient id="paint8_linear_1_7013" x1="52.972" y1="229.725" x2="-279.57" y2="-263.289" gradientUnits="userSpaceOnUse">
            <stop stop-color="#00B2FF" />
            <stop offset="1" stop-color="#0085FF" />
        </linearGradient>
        <linearGradient id="paint9_linear_1_7013" x1="56.0286" y1="239.402" x2="-276.514" y2="-253.612" gradientUnits="userSpaceOnUse">
            <stop stop-color="#00B2FF" />
            <stop offset="1" stop-color="#0085FF" />
        </linearGradient>
        <linearGradient id="paint10_linear_1_7013" x1="59.0852" y1="249.079" x2="-273.457" y2="-243.935" gradientUnits="userSpaceOnUse">
            <stop stop-color="#00B2FF" />
            <stop offset="1" stop-color="#0085FF" />
        </linearGradient>
        <linearGradient id="paint11_linear_1_7013" x1="62.1419" y1="258.756" x2="-270.4" y2="-234.258" gradientUnits="userSpaceOnUse">
            <stop stop-color="#00B2FF" />
            <stop offset="1" stop-color="#0085FF" />
        </linearGradient>
        <linearGradient id="paint12_linear_1_7013" x1="65.1985" y1="268.433" x2="-267.344" y2="-224.581" gradientUnits="userSpaceOnUse">
            <stop stop-color="#00B2FF" />
            <stop offset="1" stop-color="#0085FF" />
        </linearGradient>
        <linearGradient id="paint13_linear_1_7013" x1="68.2571" y1="278.11" x2="-264.285" y2="-214.904" gradientUnits="userSpaceOnUse">
            <stop stop-color="#00B2FF" />
            <stop offset="1" stop-color="#0085FF" />
        </linearGradient>
        <linearGradient id="paint14_linear_1_7013" x1="71.3138" y1="287.787" x2="-261.228" y2="-205.227" gradientUnits="userSpaceOnUse">
            <stop stop-color="#00B2FF" />
            <stop offset="1" stop-color="#0085FF" />
        </linearGradient>
        <linearGradient id="paint15_linear_1_7013" x1="74.3704" y1="297.464" x2="-258.172" y2="-195.55" gradientUnits="userSpaceOnUse">
            <stop stop-color="#00B2FF" />
            <stop offset="1" stop-color="#0085FF" />
        </linearGradient>
        <linearGradient id="paint16_linear_1_7013" x1="77.427" y1="307.141" x2="-255.115" y2="-185.873" gradientUnits="userSpaceOnUse">
            <stop stop-color="#00B2FF" />
            <stop offset="1" stop-color="#0085FF" />
        </linearGradient>
        <linearGradient id="paint17_linear_1_7013" x1="80.4837" y1="316.818" x2="-252.059" y2="-176.196" gradientUnits="userSpaceOnUse">
            <stop stop-color="#00B2FF" />
            <stop offset="1" stop-color="#0085FF" />
        </linearGradient>
        <linearGradient id="paint18_linear_1_7013" x1="83.5403" y1="326.495" x2="-249.002" y2="-166.52" gradientUnits="userSpaceOnUse">
            <stop stop-color="#00B2FF" />
            <stop offset="1" stop-color="#0085FF" />
        </linearGradient>
        <linearGradient id="paint19_linear_1_7013" x1="-35.7429" y1="31.3117" x2="-368.285" y2="-461.702" gradientUnits="userSpaceOnUse">
            <stop stop-color="#00B2FF" />
            <stop offset="1" stop-color="#0085FF" />
        </linearGradient>
        <linearGradient id="paint20_linear_1_7013" x1="-32.6862" y1="40.9884" x2="-365.228" y2="-452.026" gradientUnits="userSpaceOnUse">
            <stop stop-color="#00B2FF" />
            <stop offset="1" stop-color="#0085FF" />
        </linearGradient>
        <linearGradient id="paint21_linear_1_7013" x1="-29.6296" y1="50.6654" x2="-362.172" y2="-442.349" gradientUnits="userSpaceOnUse">
            <stop stop-color="#00B2FF" />
            <stop offset="1" stop-color="#0085FF" />
        </linearGradient>
        <linearGradient id="paint22_linear_1_7013" x1="-26.573" y1="60.3423" x2="-359.115" y2="-432.672" gradientUnits="userSpaceOnUse">
            <stop stop-color="#00B2FF" />
            <stop offset="1" stop-color="#0085FF" />
        </linearGradient>
        <linearGradient id="paint23_linear_1_7013" x1="-23.5163" y1="70.0194" x2="-356.059" y2="-422.995" gradientUnits="userSpaceOnUse">
            <stop stop-color="#00B2FF" />
            <stop offset="1" stop-color="#0085FF" />
        </linearGradient>
        <linearGradient id="paint24_linear_1_7013" x1="-20.4597" y1="79.6963" x2="-353.002" y2="-413.318" gradientUnits="userSpaceOnUse">
            <stop stop-color="#00B2FF" />
            <stop offset="1" stop-color="#0085FF" />
        </linearGradient>
        <linearGradient id="paint25_linear_1_7013" x1="-17.403" y1="89.3734" x2="-349.945" y2="-403.641" gradientUnits="userSpaceOnUse">
            <stop stop-color="#00B2FF" />
            <stop offset="1" stop-color="#0085FF" />
        </linearGradient>
        <linearGradient id="paint26_linear_1_7013" x1="-14.3464" y1="99.0502" x2="-346.889" y2="-393.964" gradientUnits="userSpaceOnUse">
            <stop stop-color="#00B2FF" />
            <stop offset="1" stop-color="#0085FF" />
        </linearGradient>
        <linearGradient id="paint27_linear_1_7013" x1="-11.2898" y1="108.727" x2="-343.832" y2="-384.287" gradientUnits="userSpaceOnUse">
            <stop stop-color="#00B2FF" />
            <stop offset="1" stop-color="#0085FF" />
        </linearGradient>
        <linearGradient id="paint28_linear_1_7013" x1="-8.23312" y1="118.404" x2="-340.775" y2="-374.61" gradientUnits="userSpaceOnUse">
            <stop stop-color="#00B2FF" />
            <stop offset="1" stop-color="#0085FF" />
        </linearGradient>
        <linearGradient id="paint29_linear_1_7013" x1="-5.17453" y1="128.081" x2="-337.717" y2="-364.933" gradientUnits="userSpaceOnUse">
            <stop stop-color="#00B2FF" />
            <stop offset="1" stop-color="#0085FF" />
        </linearGradient>
        <linearGradient id="paint30_linear_1_7013" x1="-2.11984" y1="137.758" x2="-334.662" y2="-355.256" gradientUnits="userSpaceOnUse">
            <stop stop-color="#00B2FF" />
            <stop offset="1" stop-color="#0085FF" />
        </linearGradient>
        <linearGradient id="paint31_linear_1_7013" x1="0.936802" y1="147.435" x2="-331.605" y2="-345.579" gradientUnits="userSpaceOnUse">
            <stop stop-color="#00B2FF" />
            <stop offset="1" stop-color="#0085FF" />
        </linearGradient>
        <linearGradient id="paint32_linear_1_7013" x1="3.9954" y1="157.112" x2="-328.547" y2="-335.902" gradientUnits="userSpaceOnUse">
            <stop stop-color="#00B2FF" />
            <stop offset="1" stop-color="#0085FF" />
        </linearGradient>
        <linearGradient id="paint33_linear_1_7013" x1="7.05204" y1="166.789" x2="-325.49" y2="-326.225" gradientUnits="userSpaceOnUse">
            <stop stop-color="#00B2FF" />
            <stop offset="1" stop-color="#0085FF" />
        </linearGradient>
        <linearGradient id="paint34_linear_1_7013" x1="10.1087" y1="176.466" x2="-322.434" y2="-316.548" gradientUnits="userSpaceOnUse">
            <stop stop-color="#00B2FF" />
            <stop offset="1" stop-color="#0085FF" />
        </linearGradient>
        <linearGradient id="paint35_linear_1_7013" x1="13.1653" y1="186.143" x2="-319.377" y2="-306.871" gradientUnits="userSpaceOnUse">
            <stop stop-color="#00B2FF" />
            <stop offset="1" stop-color="#0085FF" />
        </linearGradient>
        <linearGradient id="paint36_linear_1_7013" x1="16.222" y1="195.82" x2="-316.32" y2="-297.194" gradientUnits="userSpaceOnUse">
            <stop stop-color="#00B2FF" />
            <stop offset="1" stop-color="#0085FF" />
        </linearGradient>
        <linearGradient id="paint37_linear_1_7013" x1="19.2786" y1="205.497" x2="-313.264" y2="-287.517" gradientUnits="userSpaceOnUse">
            <stop stop-color="#00B2FF" />
            <stop offset="1" stop-color="#0085FF" />
        </linearGradient>
        <linearGradient id="paint38_linear_1_7013" x1="-100.009" y1="-89.6864" x2="-432.551" y2="-582.7" gradientUnits="userSpaceOnUse">
            <stop stop-color="#00B2FF" />
            <stop offset="1" stop-color="#0085FF" />
        </linearGradient>
        <linearGradient id="paint39_linear_1_7013" x1="-96.9519" y1="-80.0096" x2="-429.494" y2="-573.024" gradientUnits="userSpaceOnUse">
            <stop stop-color="#00B2FF" />
            <stop offset="1" stop-color="#0085FF" />
        </linearGradient>
        <linearGradient id="paint40_linear_1_7013" x1="-93.8952" y1="-70.3326" x2="-426.437" y2="-563.347" gradientUnits="userSpaceOnUse">
            <stop stop-color="#00B2FF" />
            <stop offset="1" stop-color="#0085FF" />
        </linearGradient>
        <linearGradient id="paint41_linear_1_7013" x1="-90.8366" y1="-60.6559" x2="-423.379" y2="-553.67" gradientUnits="userSpaceOnUse">
            <stop stop-color="#00B2FF" />
            <stop offset="1" stop-color="#0085FF" />
        </linearGradient>
        <linearGradient id="paint42_linear_1_7013" x1="-87.78" y1="-50.9789" x2="-420.322" y2="-543.993" gradientUnits="userSpaceOnUse">
            <stop stop-color="#00B2FF" />
            <stop offset="1" stop-color="#0085FF" />
        </linearGradient>
        <linearGradient id="paint43_linear_1_7013" x1="-84.7234" y1="-41.3019" x2="-417.266" y2="-534.316" gradientUnits="userSpaceOnUse">
            <stop stop-color="#00B2FF" />
            <stop offset="1" stop-color="#0085FF" />
        </linearGradient>
        <linearGradient id="paint44_linear_1_7013" x1="-81.6667" y1="-31.6249" x2="-414.209" y2="-524.639" gradientUnits="userSpaceOnUse">
            <stop stop-color="#00B2FF" />
            <stop offset="1" stop-color="#0085FF" />
        </linearGradient>
        <linearGradient id="paint45_linear_1_7013" x1="-78.6101" y1="-21.948" x2="-411.152" y2="-514.962" gradientUnits="userSpaceOnUse">
            <stop stop-color="#00B2FF" />
            <stop offset="1" stop-color="#0085FF" />
        </linearGradient>
        <linearGradient id="paint46_linear_1_7013" x1="-75.5534" y1="-12.2709" x2="-408.096" y2="-505.285" gradientUnits="userSpaceOnUse">
            <stop stop-color="#00B2FF" />
            <stop offset="1" stop-color="#0085FF" />
        </linearGradient>
        <linearGradient id="paint47_linear_1_7013" x1="-72.4968" y1="-2.59385" x2="-405.039" y2="-495.608" gradientUnits="userSpaceOnUse">
            <stop stop-color="#00B2FF" />
            <stop offset="1" stop-color="#0085FF" />
        </linearGradient>
        <linearGradient id="paint48_linear_1_7013" x1="-69.4402" y1="7.08291" x2="-401.982" y2="-485.931" gradientUnits="userSpaceOnUse">
            <stop stop-color="#00B2FF" />
            <stop offset="1" stop-color="#0085FF" />
        </linearGradient>
        <linearGradient id="paint49_linear_1_7013" x1="-66.3835" y1="16.7603" x2="-398.926" y2="-476.254" gradientUnits="userSpaceOnUse">
            <stop stop-color="#00B2FF" />
            <stop offset="1" stop-color="#0085FF" />
        </linearGradient>
        <linearGradient id="paint50_linear_1_7013" x1="-63.3269" y1="26.4372" x2="-395.869" y2="-466.577" gradientUnits="userSpaceOnUse">
            <stop stop-color="#00B2FF" />
            <stop offset="1" stop-color="#0085FF" />
        </linearGradient>
        <linearGradient id="paint51_linear_1_7013" x1="-60.2702" y1="36.1138" x2="-392.812" y2="-456.9" gradientUnits="userSpaceOnUse">
            <stop stop-color="#00B2FF" />
            <stop offset="1" stop-color="#0085FF" />
        </linearGradient>
        <linearGradient id="paint52_linear_1_7013" x1="-57.2116" y1="45.7909" x2="-389.754" y2="-447.223" gradientUnits="userSpaceOnUse">
            <stop stop-color="#00B2FF" />
            <stop offset="1" stop-color="#0085FF" />
        </linearGradient>
        <linearGradient id="paint53_linear_1_7013" x1="-54.155" y1="55.4679" x2="-386.697" y2="-437.546" gradientUnits="userSpaceOnUse">
            <stop stop-color="#00B2FF" />
            <stop offset="1" stop-color="#0085FF" />
        </linearGradient>
        <linearGradient id="paint54_linear_1_7013" x1="-51.0984" y1="65.1448" x2="-383.641" y2="-427.869" gradientUnits="userSpaceOnUse">
            <stop stop-color="#00B2FF" />
            <stop offset="1" stop-color="#0085FF" />
        </linearGradient>
        <linearGradient id="paint55_linear_1_7013" x1="-48.0417" y1="74.8218" x2="-380.584" y2="-418.192" gradientUnits="userSpaceOnUse">
            <stop stop-color="#00B2FF" />
            <stop offset="1" stop-color="#0085FF" />
        </linearGradient>
        <linearGradient id="paint56_linear_1_7013" x1="-44.9851" y1="84.4988" x2="-377.527" y2="-408.515" gradientUnits="userSpaceOnUse">
            <stop stop-color="#00B2FF" />
            <stop offset="1" stop-color="#0085FF" />
        </linearGradient>
        <linearGradient id="paint57_linear_1_7013" x1="-164.27" y1="-210.684" x2="-496.812" y2="-703.698" gradientUnits="userSpaceOnUse">
            <stop stop-color="#00B2FF" />
            <stop offset="1" stop-color="#0085FF" />
        </linearGradient>
        <linearGradient id="paint58_linear_1_7013" x1="-161.212" y1="-201.007" x2="-493.754" y2="-694.021" gradientUnits="userSpaceOnUse">
            <stop stop-color="#00B2FF" />
            <stop offset="1" stop-color="#0085FF" />
        </linearGradient>
        <linearGradient id="paint59_linear_1_7013" x1="-158.155" y1="-191.33" x2="-490.697" y2="-684.344" gradientUnits="userSpaceOnUse">
            <stop stop-color="#00B2FF" />
            <stop offset="1" stop-color="#0085FF" />
        </linearGradient>
        <linearGradient id="paint60_linear_1_7013" x1="-155.098" y1="-181.653" x2="-487.641" y2="-674.667" gradientUnits="userSpaceOnUse">
            <stop stop-color="#00B2FF" />
            <stop offset="1" stop-color="#0085FF" />
        </linearGradient>
        <linearGradient id="paint61_linear_1_7013" x1="-152.042" y1="-171.976" x2="-484.584" y2="-664.99" gradientUnits="userSpaceOnUse">
            <stop stop-color="#00B2FF" />
            <stop offset="1" stop-color="#0085FF" />
        </linearGradient>
        <linearGradient id="paint62_linear_1_7013" x1="-148.985" y1="-162.299" x2="-481.527" y2="-655.313" gradientUnits="userSpaceOnUse">
            <stop stop-color="#00B2FF" />
            <stop offset="1" stop-color="#0085FF" />
        </linearGradient>
        <linearGradient id="paint63_linear_1_7013" x1="-145.928" y1="-152.622" x2="-478.471" y2="-645.636" gradientUnits="userSpaceOnUse">
            <stop stop-color="#00B2FF" />
            <stop offset="1" stop-color="#0085FF" />
        </linearGradient>
        <linearGradient id="paint64_linear_1_7013" x1="-142.872" y1="-142.945" x2="-475.414" y2="-635.959" gradientUnits="userSpaceOnUse">
            <stop stop-color="#00B2FF" />
            <stop offset="1" stop-color="#0085FF" />
        </linearGradient>
        <linearGradient id="paint65_linear_1_7013" x1="-139.815" y1="-133.268" x2="-472.357" y2="-626.282" gradientUnits="userSpaceOnUse">
            <stop stop-color="#00B2FF" />
            <stop offset="1" stop-color="#0085FF" />
        </linearGradient>
        <linearGradient id="paint66_linear_1_7013" x1="-136.759" y1="-123.591" x2="-469.301" y2="-616.605" gradientUnits="userSpaceOnUse">
            <stop stop-color="#00B2FF" />
            <stop offset="1" stop-color="#0085FF" />
        </linearGradient>
        <linearGradient id="paint67_linear_1_7013" x1="-133.702" y1="-113.914" x2="-466.244" y2="-606.928" gradientUnits="userSpaceOnUse">
            <stop stop-color="#00B2FF" />
            <stop offset="1" stop-color="#0085FF" />
        </linearGradient>
        <linearGradient id="paint68_linear_1_7013" x1="-130.645" y1="-104.238" x2="-463.187" y2="-597.252" gradientUnits="userSpaceOnUse">
            <stop stop-color="#00B2FF" />
            <stop offset="1" stop-color="#0085FF" />
        </linearGradient>
        <linearGradient id="paint69_linear_1_7013" x1="-127.587" y1="-94.5604" x2="-460.129" y2="-587.574" gradientUnits="userSpaceOnUse">
            <stop stop-color="#00B2FF" />
            <stop offset="1" stop-color="#0085FF" />
        </linearGradient>
        <linearGradient id="paint70_linear_1_7013" x1="-124.53" y1="-84.8836" x2="-457.072" y2="-577.898" gradientUnits="userSpaceOnUse">
            <stop stop-color="#00B2FF" />
            <stop offset="1" stop-color="#0085FF" />
        </linearGradient>
        <linearGradient id="paint71_linear_1_7013" x1="-121.473" y1="-75.2064" x2="-454.016" y2="-568.22" gradientUnits="userSpaceOnUse">
            <stop stop-color="#00B2FF" />
            <stop offset="1" stop-color="#0085FF" />
        </linearGradient>
        <linearGradient id="paint72_linear_1_7013" x1="-118.417" y1="-65.5296" x2="-450.959" y2="-558.544" gradientUnits="userSpaceOnUse">
            <stop stop-color="#00B2FF" />
            <stop offset="1" stop-color="#0085FF" />
        </linearGradient>
        <linearGradient id="paint73_linear_1_7013" x1="-115.36" y1="-55.8526" x2="-447.902" y2="-548.867" gradientUnits="userSpaceOnUse">
            <stop stop-color="#00B2FF" />
            <stop offset="1" stop-color="#0085FF" />
        </linearGradient>
        <linearGradient id="paint74_linear_1_7013" x1="-112.303" y1="-46.1759" x2="-444.846" y2="-539.19" gradientUnits="userSpaceOnUse">
            <stop stop-color="#00B2FF" />
            <stop offset="1" stop-color="#0085FF" />
        </linearGradient>
        <linearGradient id="paint75_linear_1_7013" x1="-109.247" y1="-36.4989" x2="-441.789" y2="-529.513" gradientUnits="userSpaceOnUse">
            <stop stop-color="#00B2FF" />
            <stop offset="1" stop-color="#0085FF" />
        </linearGradient>
        <linearGradient id="paint76_linear_1_7013" x1="-228.532" y1="-331.682" x2="-561.074" y2="-824.696" gradientUnits="userSpaceOnUse">
            <stop stop-color="#00B2FF" />
            <stop offset="1" stop-color="#0085FF" />
        </linearGradient>
        <linearGradient id="paint77_linear_1_7013" x1="-225.475" y1="-322.005" x2="-558.017" y2="-815.019" gradientUnits="userSpaceOnUse">
            <stop stop-color="#00B2FF" />
            <stop offset="1" stop-color="#0085FF" />
        </linearGradient>
        <linearGradient id="paint78_linear_1_7013" x1="-222.417" y1="-312.328" x2="-554.959" y2="-805.343" gradientUnits="userSpaceOnUse">
            <stop stop-color="#00B2FF" />
            <stop offset="1" stop-color="#0085FF" />
        </linearGradient>
        <linearGradient id="paint79_linear_1_7013" x1="-219.36" y1="-302.651" x2="-551.902" y2="-795.665" gradientUnits="userSpaceOnUse">
            <stop stop-color="#00B2FF" />
            <stop offset="1" stop-color="#0085FF" />
        </linearGradient>
        <linearGradient id="paint80_linear_1_7013" x1="-216.303" y1="-292.974" x2="-548.846" y2="-785.989" gradientUnits="userSpaceOnUse">
            <stop stop-color="#00B2FF" />
            <stop offset="1" stop-color="#0085FF" />
        </linearGradient>
        <linearGradient id="paint81_linear_1_7013" x1="-213.247" y1="-283.297" x2="-545.789" y2="-776.312" gradientUnits="userSpaceOnUse">
            <stop stop-color="#00B2FF" />
            <stop offset="1" stop-color="#0085FF" />
        </linearGradient>
        <linearGradient id="paint82_linear_1_7013" x1="-210.19" y1="-273.62" x2="-542.732" y2="-766.635" gradientUnits="userSpaceOnUse">
            <stop stop-color="#00B2FF" />
            <stop offset="1" stop-color="#0085FF" />
        </linearGradient>
        <linearGradient id="paint83_linear_1_7013" x1="-207.134" y1="-263.943" x2="-539.676" y2="-756.958" gradientUnits="userSpaceOnUse">
            <stop stop-color="#00B2FF" />
            <stop offset="1" stop-color="#0085FF" />
        </linearGradient>
        <linearGradient id="paint84_linear_1_7013" x1="-204.077" y1="-254.267" x2="-536.619" y2="-747.281" gradientUnits="userSpaceOnUse">
            <stop stop-color="#00B2FF" />
            <stop offset="1" stop-color="#0085FF" />
        </linearGradient>
        <linearGradient id="paint85_linear_1_7013" x1="-201.02" y1="-244.589" x2="-533.562" y2="-737.604" gradientUnits="userSpaceOnUse">
            <stop stop-color="#00B2FF" />
            <stop offset="1" stop-color="#0085FF" />
        </linearGradient>
        <linearGradient id="paint86_linear_1_7013" x1="-197.964" y1="-234.912" x2="-530.506" y2="-727.927" gradientUnits="userSpaceOnUse">
            <stop stop-color="#00B2FF" />
            <stop offset="1" stop-color="#0085FF" />
        </linearGradient>
        <linearGradient id="paint87_linear_1_7013" x1="-194.907" y1="-225.236" x2="-527.449" y2="-718.25" gradientUnits="userSpaceOnUse">
            <stop stop-color="#00B2FF" />
            <stop offset="1" stop-color="#0085FF" />
        </linearGradient>
        <linearGradient id="paint88_linear_1_7013" x1="-191.85" y1="-215.559" x2="-524.392" y2="-708.573" gradientUnits="userSpaceOnUse">
            <stop stop-color="#00B2FF" />
            <stop offset="1" stop-color="#0085FF" />
        </linearGradient>
        <linearGradient id="paint89_linear_1_7013" x1="-188.792" y1="-205.882" x2="-521.334" y2="-698.896" gradientUnits="userSpaceOnUse">
            <stop stop-color="#00B2FF" />
            <stop offset="1" stop-color="#0085FF" />
        </linearGradient>
        <linearGradient id="paint90_linear_1_7013" x1="-185.735" y1="-196.205" x2="-518.277" y2="-689.219" gradientUnits="userSpaceOnUse">
            <stop stop-color="#00B2FF" />
            <stop offset="1" stop-color="#0085FF" />
        </linearGradient>
        <linearGradient id="paint91_linear_1_7013" x1="-182.678" y1="-186.528" x2="-515.221" y2="-679.542" gradientUnits="userSpaceOnUse">
            <stop stop-color="#00B2FF" />
            <stop offset="1" stop-color="#0085FF" />
        </linearGradient>
        <linearGradient id="paint92_linear_1_7013" x1="-179.622" y1="-176.851" x2="-512.164" y2="-669.865" gradientUnits="userSpaceOnUse">
            <stop stop-color="#00B2FF" />
            <stop offset="1" stop-color="#0085FF" />
        </linearGradient>
        <linearGradient id="paint93_linear_1_7013" x1="-176.565" y1="-167.174" x2="-509.107" y2="-660.188" gradientUnits="userSpaceOnUse">
            <stop stop-color="#00B2FF" />
            <stop offset="1" stop-color="#0085FF" />
        </linearGradient>
        <linearGradient id="paint94_linear_1_7013" x1="-173.509" y1="-157.497" x2="-506.051" y2="-650.511" gradientUnits="userSpaceOnUse">
            <stop stop-color="#00B2FF" />
            <stop offset="1" stop-color="#0085FF" />
        </linearGradient>
    </defs>
</svg>
    