<svg width="11" height="9" viewBox="0 0 11 9" fill="none" xmlns="http://www.w3.org/2000/svg">
    <path
        d="M1.5 8.5L2.8785 4.8245C2.91422 4.72921 2.97816 4.64709 3.06179 4.58911C3.14541 4.53113 3.24474 4.50004 3.3465 4.5H9.5M1.5 8.5H8.513C8.74564 8.49994 8.97098 8.41877 9.15022 8.27047C9.32945 8.12217 9.45138 7.91601 9.495 7.6875L9.993 5.082C10.0049 5.0104 10.0011 4.93707 9.98178 4.8671C9.96249 4.79713 9.9282 4.7322 9.88129 4.67682C9.83438 4.62144 9.77597 4.57694 9.71013 4.5464C9.64428 4.51587 9.57258 4.50003 9.5 4.5M1.5 8.5C1.23478 8.5 0.98043 8.39464 0.792893 8.20711C0.605357 8.01957 0.5 7.76522 0.5 7.5V2C0.5 1.73478 0.605357 1.48043 0.792893 1.29289C0.98043 1.10536 1.23478 1 1.5 1H3.5L5 2.5H8.5C8.76522 2.5 9.01957 2.60536 9.20711 2.79289C9.39464 2.98043 9.5 3.23478 9.5 3.5V4.5"
        stroke="url(#paint0_linear_39859_137)" stroke-linecap="round" stroke-linejoin="round" />
    <defs>
        <linearGradient id="paint0_linear_39859_137" x1="5.24989" y1="1" x2="5.24989" y2="8.5"
            gradientUnits="userSpaceOnUse">
            <stop stop-color="#13D5FF" />
            <stop offset="1" stop-color="#0085FF" />
        </linearGradient>
    </defs>
</svg>