<svg width="16" height="16" viewBox="0 0 16 16" fill="none" xmlns="http://www.w3.org/2000/svg">
<path d="M8.00021 2C9.55743 3.37772 11.5899 4.09504 13.6669 4C13.9693 5.02868 14.0618 6.10764 13.939 7.17279C13.8161 8.23793 13.4804 9.26751 12.9518 10.2004C12.4232 11.1332 11.7125 11.9503 10.8619 12.603C10.0112 13.2557 9.03807 13.7308 8.00021 14C6.96236 13.7308 5.9892 13.2557 5.13858 12.603C4.28795 11.9503 3.57722 11.1332 3.04861 10.2004C2.52 9.26751 2.1843 8.23793 2.06147 7.17279C1.93863 6.10764 2.03115 5.02868 2.33355 4C4.41057 4.09504 6.44299 3.37772 8.00021 2" stroke="#87A7C3" stroke-width="2" stroke-linecap="round" stroke-linejoin="round"/>
</svg>
