<svg width="39" height="41" viewBox="0 0 39 41" fill="none" xmlns="http://www.w3.org/2000/svg">
    <path d="M13.3335 15.8335H26.6668" stroke="url(#paint1_linear_14627_5650)" stroke-width="2" stroke-linecap="round"
        stroke-linejoin="round" />
    <path d="M18.3335 19.1665V24.1665" stroke="url(#paint2_linear_14627_5650)" stroke-width="2" stroke-linecap="round"
        stroke-linejoin="round" />
    <path d="M21.6665 19.1665V24.1665" stroke="url(#paint3_linear_14627_5650)" stroke-width="2" stroke-linecap="round"
        stroke-linejoin="round" />
    <path
        d="M14.1665 15.8335L14.9998 25.8335C14.9998 26.2755 15.1754 26.6994 15.488 27.012C15.8006 27.3246 16.2245 27.5002 16.6665 27.5002H23.3332C23.7752 27.5002 24.1991 27.3246 24.5117 27.012C24.8242 26.6994 24.9998 26.2755 24.9998 25.8335L25.8332 15.8335"
        stroke="url(#paint4_linear_14627_5650)" stroke-width="2" stroke-linecap="round" stroke-linejoin="round" />
    <path
        d="M17.5 14.9242V12.4242C17.5 12.2031 17.5878 11.9912 17.7441 11.8349C17.9004 11.6786 18.1123 11.5908 18.3333 11.5908H21.6667C21.8877 11.5908 22.0996 11.6786 22.2559 11.8349C22.4122 11.9912 22.5 12.2031 22.5 12.4242V14.9242"
        stroke="#00B2FF" stroke-width="2" stroke-linecap="round" stroke-linejoin="round" />
    <defs>
        <linearGradient id="paint1_linear_14627_5650" x1="20.0002" y1="15.8335" x2="20.0002" y2="16.8335"
            gradientUnits="userSpaceOnUse">
            <stop stop-color="#00B2FF" />
            <stop offset="1" stop-color="#0085FF" />
        </linearGradient>
        <linearGradient id="paint2_linear_14627_5650" x1="18.8335" y1="19.1665" x2="18.8335" y2="24.1665"
            gradientUnits="userSpaceOnUse">
            <stop stop-color="#00B2FF" />
            <stop offset="1" stop-color="#0085FF" />
        </linearGradient>
        <linearGradient id="paint3_linear_14627_5650" x1="22.1665" y1="19.1665" x2="22.1665" y2="24.1665"
            gradientUnits="userSpaceOnUse">
            <stop stop-color="#00B2FF" />
            <stop offset="1" stop-color="#0085FF" />
        </linearGradient>
        <linearGradient id="paint4_linear_14627_5650" x1="19.9998" y1="15.8335" x2="19.9998" y2="27.5002"
            gradientUnits="userSpaceOnUse">
            <stop stop-color="#00B2FF" />
            <stop offset="1" stop-color="#0085FF" />
        </linearGradient>
    </defs>
</svg>
