<svg xmlns="http://www.w3.org/2000/svg" width="17" height="16" viewBox="0 0 17 16" fill="none">
    <path
        d="M8.69838 0.83277C8.81483 0.833212 8.92938 0.862315 9.03192 0.917508C9.13445 0.972701 9.22183 1.05229 9.28633 1.14924L9.33419 1.23211L11.3716 5.36198L15.9294 6.02279C16.4588 6.09995 16.7009 6.69432 16.4316 7.11295L16.3816 7.18081L16.3259 7.24225L13.0226 10.4563L13.8013 14.9962C13.8215 15.1146 13.8117 15.2363 13.7725 15.3499C13.7334 15.4635 13.6663 15.5654 13.5773 15.6462C13.4884 15.727 13.3806 15.7841 13.2638 15.8122C13.1469 15.8403 13.0249 15.8385 12.909 15.807L12.8368 15.782L12.7647 15.7492L8.69767 13.606L4.62138 15.7492C4.54637 15.7885 4.46993 15.8135 4.39277 15.8249L4.31705 15.832C4.21734 15.8357 4.11798 15.8185 4.02531 15.7815C3.93264 15.7445 3.84872 15.6886 3.77891 15.6173C3.70911 15.546 3.65496 15.4609 3.61993 15.3675C3.58491 15.2741 3.56978 15.1744 3.57552 15.0748L3.5848 14.9962L4.36348 10.4563L1.06087 7.24154C0.97547 7.15835 0.912219 7.05514 0.876875 6.94128C0.841531 6.82742 0.835214 6.70653 0.858499 6.5896C0.881784 6.47268 0.933933 6.36343 1.0102 6.2718C1.08647 6.18017 1.18444 6.10906 1.29519 6.06494L1.37592 6.03922L1.45736 6.02279L6.01443 5.36198L8.05258 1.23283C8.10943 1.11039 8.20087 1.00727 8.31563 0.936176C8.43039 0.865087 8.56344 0.829141 8.69838 0.83277ZM8.69838 3.17167V12.0844C8.75592 12.0844 8.81325 12.0913 8.86912 12.1051L8.95128 12.1308L9.03129 12.1665L12.1482 13.8089L11.5509 10.3277C11.5215 10.1556 11.556 9.97878 11.6481 9.83047L11.6981 9.75975L11.7567 9.69546L14.2899 7.22868L10.7958 6.72289C10.6231 6.69782 10.4656 6.61041 10.3529 6.47714L10.3008 6.40785L10.2579 6.33212L8.69838 3.17167Z"
        fill="url(#paint0_linear_35268_1084)" />
    <defs>
        <linearGradient id="paint0_linear_35268_1084" x1="8.6936" y1="0.83252" x2="8.6936"
            y2="15.8325" gradientUnits="userSpaceOnUse">
            <stop stop-color="#13D5FF" />
            <stop offset="1" stop-color="#0085FF" />
        </linearGradient>
    </defs>
</svg>