<svg width="29" height="29" viewBox="0 0 29 29" fill="none" xmlns="http://www.w3.org/2000/svg">
<path d="M4.8335 25.375V9.66663C4.8335 8.70522 5.21541 7.78318 5.89523 7.10336C6.57505 6.42354 7.49709 6.04163 8.4585 6.04163H20.5418C21.5032 6.04163 22.4253 6.42354 23.1051 7.10336C23.7849 7.78318 24.1668 8.70522 24.1668 9.66663V16.9166C24.1668 17.878 23.7849 18.8001 23.1051 19.4799C22.4253 20.1597 21.5032 20.5416 20.5418 20.5416H9.66683L4.8335 25.375Z" stroke="url(#paint0_linear_21326_3537)" stroke-width="2" stroke-linecap="round" stroke-linejoin="round"/>
<path d="M14.5 9.66663V13.2916" stroke="url(#paint1_linear_21326_3537)" stroke-width="2" stroke-linecap="round" stroke-linejoin="round"/>
<path d="M14.5 16.9166V16.9279" stroke="url(#paint2_linear_21326_3537)" stroke-width="2" stroke-linecap="round" stroke-linejoin="round"/>
<defs>
<linearGradient id="paint0_linear_21326_3537" x1="14.5002" y1="6.04163" x2="14.5002" y2="25.375" gradientUnits="userSpaceOnUse">
<stop stop-color="#00B2FF"/>
<stop offset="1" stop-color="#0085FF"/>
</linearGradient>
<linearGradient id="paint1_linear_21326_3537" x1="15" y1="9.66663" x2="15" y2="13.2916" gradientUnits="userSpaceOnUse">
<stop stop-color="#00B2FF"/>
<stop offset="1" stop-color="#0085FF"/>
</linearGradient>
<linearGradient id="paint2_linear_21326_3537" x1="15" y1="16.9166" x2="15" y2="16.9279" gradientUnits="userSpaceOnUse">
<stop stop-color="#00B2FF"/>
<stop offset="1" stop-color="#0085FF"/>
</linearGradient>
</defs>
</svg>
