<svg version="1.2" baseProfile="tiny-ps" xmlns="http://www.w3.org/2000/svg" viewBox="0 0 16 16" width="16" height="16">
	<title>image</title>
	<defs>
		<clipPath clipPathUnits="userSpaceOnUse" id="cp1">
			<path d="M-2 -2L16 -2L16 16L-2 16L-2 -2Z" />
		</clipPath>
		<linearGradient id="grd1" gradientUnits="userSpaceOnUse"  x1="7.9" y1="1.15" x2="7.9" y2="14.65">
			<stop offset="0" stop-color="#00b2ff"  />
			<stop offset="1" stop-color="#0085ff"  />
		</linearGradient>
		<linearGradient id="grd2" gradientUnits="userSpaceOnUse"  x1="6.4" y1="4.9" x2="6.4" y2="7.9">
			<stop offset="0" stop-color="#00b2ff"  />
			<stop offset="1" stop-color="#0085ff"  />
		</linearGradient>
		<linearGradient id="grd3" gradientUnits="userSpaceOnUse"  x1="0" y1="15.8" x2="0" y2="0">
			<stop offset="0" stop-color="#00b2ff"  />
			<stop offset="1" stop-color="#0085ff"  />
		</linearGradient>
		<linearGradient id="grd4" gradientUnits="userSpaceOnUse"  x1="9.4" y1="4.9" x2="9.4" y2="7.9">
			<stop offset="0" stop-color="#00b2ff"  />
			<stop offset="1" stop-color="#0085ff"  />
		</linearGradient>
	</defs>
	<style>
		tspan { white-space:pre }
		.shp0 { fill: none;stroke: url(#grd1);stroke-linecap:round;stroke-linejoin:round;stroke-width: 1.2 } 
		.shp1 { fill: none;stroke: url(#grd2);stroke-linecap:round;stroke-linejoin:round;stroke-width: 1.2 } 
		.shp2 { fill: none;stroke: url(#grd3);stroke-linecap:round;stroke-linejoin:round;stroke-width: 1.2 } 
		.shp3 { fill: none;stroke: url(#grd4);stroke-linecap:round;stroke-linejoin:round;stroke-width: 1.2 } 
	</style>
	<g id="Clip-Path" clip-path="url(#cp1)">
		<g id="Layer">
			<path id="Layer" class="shp0" d="M7.9 14.65C11.63 14.65 14.65 11.63 14.65 7.9C14.65 4.17 11.63 1.15 7.9 1.15C4.17 1.15 1.15 4.17 1.15 7.9C1.15 11.63 4.17 14.65 7.9 14.65Z" />
			<path id="Layer" class="shp1" d="M7.9 4.9L4.9 7.9" />
			<path id="Layer" class="shp2" d="M7.9 4.9L7.9 10.9" />
			<path id="Layer" class="shp3" d="M10.9 7.9L7.9 4.9" />
		</g>
	</g>
</svg>