<svg width="35" height="35" viewBox="0 0 35 35" fill="none" xmlns="http://www.w3.org/2000/svg">
<path d="M28.4374 19.7925L17.4999 30.625L6.56241 19.7925C5.84098 19.0905 5.27272 18.2467 4.89342 17.3143C4.51411 16.3818 4.33198 15.381 4.35849 14.3747C4.38499 13.3684 4.61956 12.3785 5.04743 11.4674C5.4753 10.5562 6.08719 9.74349 6.84458 9.08042C7.60197 8.41736 8.48844 7.91829 9.44818 7.61465C10.4079 7.31102 11.4201 7.20939 12.4211 7.31616C13.422 7.42294 14.39 7.73581 15.2641 8.23507C16.1382 8.73432 16.8994 9.40916 17.4999 10.2171C18.103 9.41503 18.8651 8.74609 19.7386 8.25212C20.6121 7.75816 21.5781 7.44982 22.5763 7.34638C23.5744 7.24294 24.5832 7.34664 25.5394 7.65098C26.4956 7.95533 27.3787 8.45377 28.1334 9.11511C28.8882 9.77645 29.4983 10.5864 29.9255 11.4944C30.3528 12.4024 30.5881 13.3888 30.6166 14.3919C30.6452 15.3949 30.4663 16.3931 30.0914 17.3239C29.7164 18.2547 29.1533 19.0981 28.4374 19.8012" stroke="#F24242" stroke-width="2.75" stroke-linecap="round" stroke-linejoin="round"/>
<path d="M17.4999 10.2084L14.5833 16.0417L20.4166 20.4167L17.4999 26.25V30.625" stroke="#F24242" stroke-width="2.75" stroke-linecap="round" stroke-linejoin="round"/>
</svg>
