<svg width="1440" height="800" viewBox="0 0 1440 800" fill="none" xmlns="http://www.w3.org/2000/svg">
    <g opacity="0.2">
        <path opacity="0.0526316" d="M117.128 1207.85C223.182 1138.27 548.382 1018.85 1000.74 1097.83C1453.1 1176.8 1720.34 817.1 1797.41 627.379C1848.98 492.031 2018.67 248.995 2284.86 359.631" stroke="url(#paint0_linear_1_7123)" stroke-width="5" />
        <path opacity="0.105263" d="M120.184 1217.52C226.239 1147.95 551.438 1028.53 1003.8 1107.5C1456.16 1186.48 1723.4 826.777 1800.47 637.056C1852.04 501.708 2021.73 258.672 2287.92 369.308" stroke="url(#paint1_linear_1_7123)" stroke-width="5" />
        <path opacity="0.157895" d="M123.241 1227.2C229.296 1157.62 554.495 1038.21 1006.86 1117.18C1459.22 1196.15 1726.45 836.454 1803.52 646.733C1855.1 511.385 2024.78 268.349 2290.97 378.985" stroke="url(#paint2_linear_1_7123)" stroke-width="5" />
        <path opacity="0.210526" d="M126.3 1236.88C232.354 1167.3 557.554 1047.89 1009.91 1126.86C1462.28 1205.83 1729.51 846.131 1806.58 656.409C1858.15 521.062 2027.84 278.026 2294.03 388.662" stroke="url(#paint3_linear_1_7123)" stroke-width="5" />
        <path opacity="0.263158" d="M129.356 1246.55C235.411 1176.98 560.61 1057.56 1012.97 1136.54C1465.33 1215.51 1732.57 855.808 1809.64 666.086C1861.21 530.739 2030.9 287.703 2297.09 398.339" stroke="url(#paint4_linear_1_7123)" stroke-width="5" />
        <path opacity="0.315789" d="M132.413 1256.23C238.467 1186.65 563.667 1067.24 1016.03 1146.21C1468.39 1225.18 1735.62 865.485 1812.7 675.763C1864.27 540.416 2033.96 297.38 2300.15 408.016" stroke="url(#paint5_linear_1_7123)" stroke-width="5" />
        <path opacity="0.368421" d="M135.47 1265.91C241.524 1196.33 566.724 1076.92 1019.08 1155.89C1471.45 1234.86 1738.68 875.162 1815.75 685.44C1867.32 550.093 2037.01 307.057 2303.2 417.693" stroke="url(#paint6_linear_1_7123)" stroke-width="5" />
        <path opacity="0.421053" d="M138.526 1275.59C244.581 1206.01 569.78 1086.59 1022.14 1165.57C1474.5 1244.54 1741.74 884.839 1818.81 695.117C1870.38 559.77 2040.07 316.734 2306.26 427.37" stroke="url(#paint7_linear_1_7123)" stroke-width="5" />
        <path opacity="0.473684" d="M141.583 1285.26C247.637 1215.68 572.837 1096.27 1025.2 1175.24C1477.56 1254.22 1744.79 894.516 1821.87 704.794C1873.44 569.447 2043.13 326.411 2309.32 437.047" stroke="url(#paint8_linear_1_7123)" stroke-width="5" />
        <path opacity="0.526316" d="M144.639 1294.94C250.694 1225.36 575.893 1105.95 1028.25 1184.92C1480.62 1263.89 1747.85 904.193 1824.92 714.471C1876.49 579.124 2046.18 336.088 2312.37 446.724" stroke="url(#paint9_linear_1_7123)" stroke-width="5" />
        <path opacity="0.578947" d="M147.696 1304.62C253.751 1235.04 578.95 1115.62 1031.31 1194.6C1483.67 1273.57 1750.91 913.87 1827.98 724.148C1879.55 588.801 2049.24 345.765 2315.43 456.401" stroke="url(#paint10_linear_1_7123)" stroke-width="5" />
        <path opacity="0.631579" d="M150.753 1314.29C256.807 1244.71 582.007 1125.3 1034.37 1204.27C1486.73 1283.25 1753.96 923.547 1831.04 733.825C1882.61 598.478 2052.3 355.442 2318.49 466.078" stroke="url(#paint11_linear_1_7123)" stroke-width="5" />
        <path opacity="0.684211" d="M153.809 1323.97C259.864 1254.39 585.063 1134.98 1037.42 1213.95C1489.79 1292.92 1757.02 933.224 1834.09 743.502C1885.66 608.155 2055.35 365.119 2321.54 475.755" stroke="url(#paint12_linear_1_7123)" stroke-width="5" />
        <path opacity="0.736842" d="M156.868 1333.65C262.923 1264.07 588.122 1144.66 1040.48 1223.63C1492.84 1302.6 1760.08 942.901 1837.15 753.179C1888.72 617.832 2058.41 374.796 2324.6 485.432" stroke="url(#paint13_linear_1_7123)" stroke-width="5" />
        <path opacity="0.789474" d="M159.925 1343.32C265.979 1273.75 591.179 1154.33 1043.54 1233.3C1495.9 1312.28 1763.14 952.578 1840.21 762.856C1891.78 627.509 2061.47 384.473 2327.66 495.109" stroke="url(#paint14_linear_1_7123)" stroke-width="5" />
        <path opacity="0.842105" d="M162.981 1353C269.036 1283.42 594.235 1164.01 1046.6 1242.98C1498.96 1321.95 1766.19 962.255 1843.27 772.533C1894.84 637.186 2064.52 394.15 2330.71 504.786" stroke="url(#paint15_linear_1_7123)" stroke-width="5" />
        <path opacity="0.894737" d="M166.038 1362.68C272.092 1293.1 597.292 1173.69 1049.65 1252.66C1502.01 1331.63 1769.25 971.931 1846.32 782.21C1897.89 646.862 2067.58 403.827 2333.77 514.463" stroke="url(#paint16_linear_1_7123)" stroke-width="5" />
        <path opacity="0.947368" d="M169.095 1372.35C275.149 1302.78 600.349 1183.36 1052.71 1262.34C1505.07 1341.31 1772.31 981.609 1849.38 791.887C1900.95 656.54 2070.64 413.504 2336.83 524.14" stroke="url(#paint17_linear_1_7123)" stroke-width="5" />
        <path d="M172.151 1382.03C278.206 1312.45 603.405 1193.04 1055.77 1272.01C1508.13 1350.99 1775.36 991.285 1852.44 801.564C1904.01 666.216 2073.69 423.18 2339.88 533.817" stroke="url(#paint18_linear_1_7123)" stroke-width="5" />
        <path opacity="0.0526316" d="M52.868 1086.85C158.923 1017.27 484.122 897.857 936.483 976.83C1388.84 1055.8 1656.08 696.103 1733.15 506.381C1784.72 371.034 1954.41 127.998 2220.6 238.634" stroke="url(#paint19_linear_1_7123)" stroke-width="5" />
        <path opacity="0.105263" d="M55.9246 1096.53C161.979 1026.95 487.179 907.534 939.54 986.507C1391.9 1065.48 1659.14 705.779 1736.21 516.058C1787.78 380.71 1957.47 137.675 2223.66 248.311" stroke="url(#paint20_linear_1_7123)" stroke-width="5" />
        <path opacity="0.157895" d="M58.9812 1106.2C165.036 1036.62 490.235 917.211 942.596 996.184C1394.96 1075.16 1662.19 715.456 1739.27 525.735C1790.84 390.387 1960.52 147.352 2226.71 257.988" stroke="url(#paint21_linear_1_7123)" stroke-width="5" />
        <path opacity="0.210526" d="M62.0379 1115.88C168.092 1046.3 493.292 926.888 945.653 1005.86C1398.01 1084.83 1665.25 725.133 1742.32 535.412C1793.89 400.064 1963.58 157.028 2229.77 267.665" stroke="url(#paint22_linear_1_7123)" stroke-width="5" />
        <path opacity="0.263158" d="M65.0945 1125.56C171.149 1055.98 496.349 936.565 948.709 1015.54C1401.07 1094.51 1668.31 734.81 1745.38 545.089C1796.95 409.741 1966.64 166.706 2232.83 277.342" stroke="url(#paint23_linear_1_7123)" stroke-width="5" />
        <path opacity="0.315789" d="M68.1512 1135.23C174.206 1065.66 499.405 946.242 951.766 1025.21C1404.13 1104.19 1671.36 744.487 1748.44 554.766C1800.01 419.418 1969.69 176.382 2235.88 287.019" stroke="url(#paint24_linear_1_7123)" stroke-width="5" />
        <path opacity="0.368421" d="M71.2078 1144.91C177.262 1075.33 502.462 955.919 954.823 1034.89C1407.18 1113.86 1674.42 754.164 1751.49 564.443C1803.06 429.095 1972.75 186.06 2238.94 296.696" stroke="url(#paint25_linear_1_7123)" stroke-width="5" />
        <path opacity="0.421053" d="M74.2644 1154.59C180.319 1085.01 505.518 965.596 957.879 1044.57C1410.24 1123.54 1677.48 763.841 1754.55 574.12C1806.12 438.772 1975.81 195.736 2242 306.372" stroke="url(#paint26_linear_1_7123)" stroke-width="5" />
        <path opacity="0.473684" d="M77.3211 1164.26C183.376 1094.69 508.575 975.273 960.936 1054.25C1413.3 1133.22 1680.53 773.518 1757.6 583.797C1809.18 448.449 1978.86 205.413 2245.05 316.05" stroke="url(#paint27_linear_1_7123)" stroke-width="5" />
        <path opacity="0.526316" d="M80.3777 1173.94C186.432 1104.36 511.632 984.95 963.993 1063.92C1416.35 1142.89 1683.59 783.195 1760.66 593.474C1812.23 458.126 1981.92 215.09 2248.11 325.726" stroke="url(#paint28_linear_1_7123)" stroke-width="5" />
        <path opacity="0.578947" d="M83.4363 1183.62C189.491 1114.04 514.69 994.627 967.051 1073.6C1419.41 1152.57 1686.65 792.872 1763.72 603.151C1815.29 467.803 1984.98 224.767 2251.17 335.404" stroke="url(#paint29_linear_1_7123)" stroke-width="5" />
        <path opacity="0.631579" d="M86.491 1193.3C192.546 1123.72 517.745 1004.3 970.106 1083.28C1422.47 1162.25 1689.7 802.549 1766.77 612.827C1818.35 477.48 1988.03 234.444 2254.22 345.08" stroke="url(#paint30_linear_1_7123)" stroke-width="5" />
        <path opacity="0.684211" d="M89.5477 1202.97C195.602 1133.39 520.802 1013.98 973.163 1092.95C1425.52 1171.93 1692.76 812.226 1769.83 622.504C1821.4 487.157 1991.09 244.121 2257.28 354.757" stroke="url(#paint31_linear_1_7123)" stroke-width="5" />
        <path opacity="0.736842" d="M92.6062 1212.65C198.661 1143.07 523.86 1023.66 976.221 1102.63C1428.58 1181.6 1695.82 821.903 1772.89 632.181C1824.46 496.834 1994.15 253.798 2260.34 364.434" stroke="url(#paint32_linear_1_7123)" stroke-width="5" />
        <path opacity="0.789474" d="M95.6629 1222.33C201.717 1152.75 526.917 1033.33 979.278 1112.31C1431.64 1191.28 1698.87 831.58 1775.95 641.858C1827.52 506.511 1997.21 263.475 2263.4 374.111" stroke="url(#paint33_linear_1_7123)" stroke-width="5" />
        <path opacity="0.842105" d="M98.7195 1232C204.774 1162.42 529.974 1043.01 982.334 1121.98C1434.7 1200.96 1701.93 841.257 1779 651.535C1830.57 516.188 2000.26 273.152 2266.45 383.788" stroke="url(#paint34_linear_1_7123)" stroke-width="5" />
        <path opacity="0.894737" d="M101.776 1241.68C207.831 1172.1 533.03 1052.69 985.391 1131.66C1437.75 1210.63 1704.99 850.934 1782.06 661.212C1833.63 525.865 2003.32 282.829 2269.51 393.465" stroke="url(#paint35_linear_1_7123)" stroke-width="5" />
        <path opacity="0.947368" d="M104.833 1251.36C210.887 1181.78 536.087 1062.37 988.448 1141.34C1440.81 1220.31 1708.04 860.611 1785.12 670.889C1836.69 535.542 2006.38 292.506 2272.57 403.142" stroke="url(#paint36_linear_1_7123)" stroke-width="5" />
        <path d="M107.889 1261.03C213.944 1191.46 539.143 1072.04 991.504 1151.02C1443.87 1229.99 1711.1 870.288 1788.17 680.566C1839.74 545.219 2009.43 302.183 2275.62 412.819" stroke="url(#paint37_linear_1_7123)" stroke-width="5" />
        <path opacity="0.0526316" d="M-11.3977 965.851C94.6569 896.272 419.856 776.859 872.217 855.832C1324.58 934.804 1591.81 575.104 1668.89 385.383C1720.46 250.035 1890.15 6.99951 2156.34 117.636" stroke="url(#paint38_linear_1_7123)" stroke-width="5" />
        <path opacity="0.105263" d="M-8.34102 975.528C97.7136 905.949 422.913 786.536 875.274 865.508C1327.63 944.481 1594.87 584.781 1671.94 395.06C1723.51 259.712 1893.2 16.6764 2159.39 127.313" stroke="url(#paint39_linear_1_7123)" stroke-width="5" />
        <path opacity="0.157895" d="M-5.28438 985.205C100.77 915.626 425.97 796.213 878.331 875.185C1330.69 954.158 1597.93 594.458 1675 404.737C1726.57 269.389 1896.26 26.3534 2162.45 136.99" stroke="url(#paint40_linear_1_7123)" stroke-width="5" />
        <path opacity="0.210526" d="M-2.22579 994.881C103.829 925.303 429.028 805.89 881.389 884.862C1333.75 963.835 1600.99 604.135 1678.06 414.413C1729.63 279.066 1899.32 36.0302 2165.51 146.666" stroke="url(#paint41_linear_1_7123)" stroke-width="5" />
        <path opacity="0.263158" d="M0.830854 1004.56C106.885 934.98 432.085 815.567 884.446 894.539C1336.81 973.512 1604.04 613.812 1681.11 424.09C1732.69 288.743 1902.37 45.707 2168.56 156.343" stroke="url(#paint42_linear_1_7123)" stroke-width="5" />
        <path opacity="0.315789" d="M3.88749 1014.24C109.942 944.657 435.142 825.244 887.502 904.216C1339.86 983.189 1607.1 623.489 1684.17 433.767C1735.74 298.42 1905.43 55.3842 2171.62 166.02" stroke="url(#paint43_linear_1_7123)" stroke-width="5" />
        <path opacity="0.368421" d="M6.94414 1023.91C112.999 954.334 438.198 834.921 890.559 913.893C1342.92 992.866 1610.16 633.166 1687.23 443.444C1738.8 308.097 1908.49 65.061 2174.68 175.697" stroke="url(#paint44_linear_1_7123)" stroke-width="5" />
        <path opacity="0.421053" d="M10.0008 1033.59C116.055 964.011 441.255 844.597 893.616 923.57C1345.98 1002.54 1613.21 642.843 1690.28 453.121C1741.86 317.774 1911.54 74.7379 2177.73 185.374" stroke="url(#paint45_linear_1_7123)" stroke-width="5" />
        <path opacity="0.473684" d="M13.0574 1043.27C119.112 973.688 444.311 854.275 896.672 933.247C1349.03 1012.22 1616.27 652.52 1693.34 462.798C1744.91 327.451 1914.6 84.415 2180.79 195.051" stroke="url(#paint46_linear_1_7123)" stroke-width="5" />
        <path opacity="0.526316" d="M16.1141 1052.94C122.169 983.365 447.368 863.952 899.729 942.924C1352.09 1021.9 1619.33 662.197 1696.4 472.475C1747.97 337.128 1917.66 94.092 2183.85 204.728" stroke="url(#paint47_linear_1_7123)" stroke-width="5" />
        <path opacity="0.578947" d="M19.1707 1062.62C125.225 993.042 450.425 873.628 902.786 952.601C1355.15 1031.57 1622.38 671.874 1699.45 482.152C1751.03 346.805 1920.71 103.769 2186.9 214.405" stroke="url(#paint48_linear_1_7123)" stroke-width="5" />
        <path opacity="0.631579" d="M22.2273 1072.3C128.282 1002.72 453.481 883.306 905.842 962.278C1358.2 1041.25 1625.44 681.551 1702.51 491.829C1754.08 356.482 1923.77 113.446 2189.96 224.082" stroke="url(#paint49_linear_1_7123)" stroke-width="5" />
        <path opacity="0.684211" d="M25.284 1081.97C131.339 1012.4 456.538 892.983 908.899 971.955C1361.26 1050.93 1628.5 691.228 1705.57 501.506C1757.14 366.159 1926.83 123.123 2193.02 233.759" stroke="url(#paint50_linear_1_7123)" stroke-width="5" />
        <path opacity="0.736842" d="M28.3406 1091.65C134.395 1022.07 459.595 902.659 911.956 981.632C1364.32 1060.6 1631.55 700.904 1708.62 511.183C1760.2 375.836 1929.88 132.8 2196.07 243.436" stroke="url(#paint51_linear_1_7123)" stroke-width="5" />
        <path opacity="0.789474" d="M31.3992 1101.33C137.454 1031.75 462.653 912.336 915.014 991.309C1367.38 1070.28 1634.61 710.582 1711.68 520.86C1763.25 385.513 1932.94 142.477 2199.13 253.113" stroke="url(#paint52_linear_1_7123)" stroke-width="5" />
        <path opacity="0.842105" d="M34.4559 1111C140.51 1041.43 465.71 922.013 918.071 1000.99C1370.43 1079.96 1637.67 720.259 1714.74 530.537C1766.31 395.19 1936 152.154 2202.19 262.79" stroke="url(#paint53_linear_1_7123)" stroke-width="5" />
        <path opacity="0.894737" d="M37.5125 1120.68C143.567 1051.1 468.767 931.69 921.127 1010.66C1373.49 1089.64 1640.72 729.935 1717.8 540.214C1769.37 404.867 1939.06 161.831 2205.25 272.467" stroke="url(#paint54_linear_1_7123)" stroke-width="5" />
        <path opacity="0.947368" d="M40.5691 1130.36C146.624 1060.78 471.823 941.367 924.184 1020.34C1376.54 1099.31 1643.78 739.612 1720.85 549.891C1772.42 414.544 1942.11 171.508 2208.3 282.144" stroke="url(#paint55_linear_1_7123)" stroke-width="5" />
        <path d="M43.6258 1140.04C149.68 1070.46 474.88 951.044 927.241 1030.02C1379.6 1108.99 1646.84 749.29 1723.91 559.568C1775.48 424.221 1945.17 181.185 2211.36 291.821" stroke="url(#paint56_linear_1_7123)" stroke-width="5" />
        <path opacity="0.0526316" d="M-55.6594 874.853C50.3952 805.275 375.595 685.861 827.956 764.834C1280.32 843.806 1547.55 484.107 1624.62 294.385C1676.2 159.038 1845.88 -83.9983 2112.07 26.6378" stroke="url(#paint57_linear_1_7123)" stroke-width="5" />
        <path opacity="0.105263" d="M-52.6008 884.53C53.4538 814.952 378.653 695.538 831.014 774.511C1283.38 853.484 1550.61 493.784 1627.68 304.062C1679.25 168.715 1848.94 -74.321 2115.13 36.3151" stroke="url(#paint58_linear_1_7123)" stroke-width="5" />
        <path opacity="0.157895" d="M-49.5441 894.207C56.5105 824.629 381.71 705.215 834.071 784.188C1286.43 863.161 1553.67 503.461 1630.74 313.739C1682.31 178.392 1852 -64.6442 2118.19 45.992" stroke="url(#paint59_linear_1_7123)" stroke-width="5" />
        <path opacity="0.210526" d="M-46.4875 903.884C59.5671 834.306 384.767 714.892 837.127 793.865C1289.49 872.838 1556.72 513.138 1633.8 323.416C1685.37 188.069 1855.06 -54.9672 2121.25 55.669" stroke="url(#paint60_linear_1_7123)" stroke-width="5" />
        <path opacity="0.263158" d="M-43.4309 913.561C62.6237 843.983 387.823 724.569 840.184 803.542C1292.54 882.515 1559.78 522.815 1636.85 333.093C1688.42 197.746 1858.11 -45.29 2124.3 65.3461" stroke="url(#paint61_linear_1_7123)" stroke-width="5" />
        <path opacity="0.315789" d="M-40.3742 923.238C65.6804 853.66 390.88 734.246 843.241 813.219C1295.6 892.191 1562.84 532.492 1639.91 342.77C1691.48 207.423 1861.17 -35.6133 2127.36 75.0228" stroke="url(#paint62_linear_1_7123)" stroke-width="5" />
        <path opacity="0.368421" d="M-37.3176 932.915C68.737 863.337 393.936 743.923 846.297 822.896C1298.66 901.868 1565.89 542.168 1642.97 352.447C1694.54 217.099 1864.23 -25.9364 2130.42 84.6997" stroke="url(#paint63_linear_1_7123)" stroke-width="5" />
        <path opacity="0.421053" d="M-34.2609 942.592C71.7937 873.014 396.993 753.6 849.354 832.573C1301.71 911.545 1568.95 551.845 1646.02 362.124C1697.59 226.776 1867.28 -16.2594 2133.47 94.3767" stroke="url(#paint64_linear_1_7123)" stroke-width="5" />
        <path opacity="0.473684" d="M-31.2043 952.269C74.8503 882.691 400.05 763.277 852.411 842.25C1304.77 921.222 1572.01 561.522 1649.08 371.801C1700.65 236.453 1870.34 -6.5824 2136.53 104.054" stroke="url(#paint65_linear_1_7123)" stroke-width="5" />
        <path opacity="0.526316" d="M-28.1477 961.946C77.9069 892.367 403.106 772.954 855.467 851.927C1307.83 930.899 1575.06 571.199 1652.14 381.478C1703.71 246.13 1873.4 3.09448 2139.59 113.731" stroke="url(#paint66_linear_1_7123)" stroke-width="5" />
        <path opacity="0.578947" d="M-25.091 971.623C80.9636 902.044 406.163 782.631 858.524 861.604C1310.88 940.576 1578.12 580.876 1655.19 391.155C1706.76 255.807 1876.45 12.7715 2142.64 123.408" stroke="url(#paint67_linear_1_7123)" stroke-width="5" />
        <path opacity="0.631579" d="M-22.0344 981.3C84.0202 911.721 409.22 792.308 861.581 871.28C1313.94 950.253 1581.18 590.553 1658.25 400.832C1709.82 265.484 1879.51 22.4484 2145.7 133.084" stroke="url(#paint68_linear_1_7123)" stroke-width="5" />
        <path opacity="0.684211" d="M-18.9758 990.977C87.0788 921.398 412.278 801.985 864.639 880.958C1317 959.93 1584.24 600.23 1661.31 410.509C1712.88 275.161 1882.57 32.1255 2148.76 142.762" stroke="url(#paint69_linear_1_7123)" stroke-width="5" />
        <path opacity="0.736842" d="M-15.9191 1000.65C90.1355 931.075 415.335 811.662 867.696 890.634C1320.06 969.607 1587.29 609.907 1664.36 420.186C1715.94 284.838 1885.62 41.8022 2151.81 152.438" stroke="url(#paint70_linear_1_7123)" stroke-width="5" />
        <path opacity="0.789474" d="M-12.8625 1010.33C93.1921 940.752 418.392 821.339 870.752 900.312C1323.11 979.284 1590.35 619.584 1667.42 429.863C1718.99 294.515 1888.68 51.4795 2154.87 162.116" stroke="url(#paint71_linear_1_7123)" stroke-width="5" />
        <path opacity="0.842105" d="M-9.80586 1020.01C96.2487 950.429 421.448 831.016 873.809 909.988C1326.17 988.961 1593.41 629.261 1670.48 439.54C1722.05 304.192 1891.74 61.1564 2157.93 171.792" stroke="url(#paint72_linear_1_7123)" stroke-width="5" />
        <path opacity="0.894737" d="M-6.74922 1029.68C99.3054 960.106 424.505 840.693 876.866 919.665C1329.23 998.638 1596.46 638.938 1673.53 449.217C1725.11 313.869 1894.79 70.8333 2160.98 181.469" stroke="url(#paint73_linear_1_7123)" stroke-width="5" />
        <path opacity="0.947368" d="M-3.69258 1039.36C102.362 969.783 427.561 850.37 879.922 929.342C1332.28 1008.31 1599.52 648.615 1676.59 458.893C1728.16 323.546 1897.85 80.5101 2164.04 191.146" stroke="url(#paint74_linear_1_7123)" stroke-width="5" />
        <path d="M-0.635943 1049.04C105.419 979.46 430.618 860.047 882.979 939.019C1335.34 1017.99 1602.58 658.292 1679.65 468.57C1731.22 333.223 1900.91 90.187 2167.1 200.823" stroke="url(#paint75_linear_1_7123)" stroke-width="5" />
        <path opacity="0.0526316" d="M-139.921 723.855C-33.8665 654.277 291.333 534.863 743.694 613.836C1196.05 692.808 1463.29 333.109 1540.36 143.387C1591.93 8.03964 1761.62 -234.996 2027.81 -124.36" stroke="url(#paint76_linear_1_7123)" stroke-width="5" />
        <path opacity="0.105263" d="M-136.864 733.532C-30.8099 663.954 294.39 544.54 746.75 623.513C1199.11 702.485 1466.35 342.785 1543.42 153.064C1594.99 17.7165 1764.68 -225.319 2030.87 -114.683" stroke="url(#paint77_linear_1_7123)" stroke-width="5" />
        <path opacity="0.157895" d="M-133.806 743.209C-27.7513 673.631 297.448 554.217 749.809 633.19C1202.17 712.162 1469.41 352.462 1546.48 162.741C1598.05 27.3935 1767.74 -215.642 2033.93 -105.006" stroke="url(#paint78_linear_1_7123)" stroke-width="5" />
        <path opacity="0.210526" d="M-130.749 752.886C-24.6946 683.308 300.505 563.894 752.866 642.867C1205.23 721.839 1472.46 362.14 1549.53 172.418C1601.11 37.0706 1770.79 -205.965 2036.98 -95.3291" stroke="url(#paint79_linear_1_7123)" stroke-width="5" />
        <path opacity="0.263158" d="M-127.693 762.563C-21.638 692.984 303.561 573.571 755.922 652.544C1208.28 731.516 1475.52 371.816 1552.59 182.095C1604.16 46.7474 1773.85 -196.288 2040.04 -85.6523" stroke="url(#paint80_linear_1_7123)" stroke-width="5" />
        <path opacity="0.315789" d="M-124.636 772.24C-18.5813 702.661 306.618 583.248 758.979 662.221C1211.34 741.193 1478.58 381.493 1555.65 191.772C1607.22 56.4243 1776.91 -186.612 2043.1 -75.9755" stroke="url(#paint81_linear_1_7123)" stroke-width="5" />
        <path opacity="0.368421" d="M-121.579 781.917C-15.5247 712.338 309.675 592.925 762.036 671.898C1214.4 750.87 1481.63 391.17 1558.7 201.449C1610.28 66.1014 1779.96 -176.934 2046.15 -66.2983" stroke="url(#paint82_linear_1_7123)" stroke-width="5" />
        <path opacity="0.421053" d="M-118.523 791.594C-12.4681 722.015 312.731 602.602 765.092 681.575C1217.45 760.547 1484.69 400.847 1561.76 211.126C1613.33 75.7783 1783.02 -167.258 2049.21 -56.6214" stroke="url(#paint83_linear_1_7123)" stroke-width="5" />
        <path opacity="0.473684" d="M-115.466 801.271C-9.41142 731.692 315.788 612.279 768.149 691.252C1220.51 770.224 1487.75 410.524 1564.82 220.803C1616.39 85.4553 1786.08 -157.581 2052.27 -46.9444" stroke="url(#paint84_linear_1_7123)" stroke-width="5" />
        <path opacity="0.526316" d="M-112.409 810.948C-6.35478 741.369 318.845 621.956 771.206 700.929C1223.57 779.901 1490.8 420.201 1567.87 230.48C1619.45 95.1324 1789.13 -147.903 2055.32 -37.2673" stroke="url(#paint85_linear_1_7123)" stroke-width="5" />
        <path opacity="0.578947" d="M-109.353 820.625C-3.29814 751.046 321.901 631.633 774.262 710.606C1226.62 789.578 1493.86 429.878 1570.93 240.157C1622.5 104.809 1792.19 -138.227 2058.38 -27.5904" stroke="url(#paint86_linear_1_7123)" stroke-width="5" />
        <path opacity="0.631579" d="M-106.296 830.301C-0.241497 760.723 324.958 641.31 777.319 720.282C1229.68 799.255 1496.92 439.555 1573.99 249.834C1625.56 114.486 1795.25 -128.55 2061.44 -17.9136" stroke="url(#paint87_linear_1_7123)" stroke-width="5" />
        <path opacity="0.684211" d="M-103.239 839.978C2.81514 770.4 328.015 650.987 780.375 729.959C1232.74 808.932 1499.97 449.232 1577.04 259.511C1628.62 124.163 1798.3 -118.873 2064.49 -8.23656" stroke="url(#paint88_linear_1_7123)" stroke-width="5" />
        <path opacity="0.736842" d="M-100.181 849.655C5.87374 780.077 331.073 660.664 783.434 739.636C1235.79 818.609 1503.03 458.909 1580.1 269.187C1631.67 133.84 1801.36 -109.196 2067.55 1.44032" stroke="url(#paint89_linear_1_7123)" stroke-width="5" />
        <path opacity="0.789474" d="M-97.1242 859.332C8.93038 789.754 334.13 670.341 786.491 749.313C1238.85 828.286 1506.09 468.586 1583.16 278.864C1634.73 143.517 1804.42 -99.5188 2070.61 11.1173" stroke="url(#paint90_linear_1_7123)" stroke-width="5" />
        <path opacity="0.842105" d="M-94.0676 869.009C11.987 799.431 337.186 680.018 789.547 758.99C1241.91 837.963 1509.14 478.263 1586.22 288.541C1637.79 153.194 1807.48 -89.8419 2073.67 20.7942" stroke="url(#paint91_linear_1_7123)" stroke-width="5" />
        <path opacity="0.894737" d="M-91.0109 878.686C15.0437 809.108 340.243 689.695 792.604 768.667C1244.96 847.64 1512.2 487.94 1589.27 298.218C1640.84 162.871 1810.53 -80.1649 2076.72 30.4712" stroke="url(#paint92_linear_1_7123)" stroke-width="5" />
        <path opacity="0.947368" d="M-87.9543 888.363C18.1003 818.785 343.3 699.371 795.661 778.344C1248.02 857.317 1515.26 497.617 1592.33 307.895C1643.9 172.548 1813.59 -70.488 2079.78 40.1481" stroke="url(#paint93_linear_1_7123)" stroke-width="5" />
        <path d="M-84.8977 898.04C21.1569 828.462 346.356 709.049 798.717 788.021C1251.08 866.994 1518.31 507.294 1595.39 317.572C1646.96 182.225 1816.65 -60.8109 2082.84 49.8252" stroke="url(#paint94_linear_1_7123)" stroke-width="5" />
    </g>
    <defs>
        <linearGradient id="paint0_linear_1_7123" x1="1381.91" y1="1072.06" x2="1049.36" y2="579.046" gradientUnits="userSpaceOnUse">
            <stop stop-color="#00B2FF" />
            <stop offset="1" stop-color="#0085FF" />
        </linearGradient>
        <linearGradient id="paint1_linear_1_7123" x1="1384.96" y1="1081.74" x2="1052.42" y2="588.723" gradientUnits="userSpaceOnUse">
            <stop stop-color="#00B2FF" />
            <stop offset="1" stop-color="#0085FF" />
        </linearGradient>
        <linearGradient id="paint2_linear_1_7123" x1="1388.02" y1="1091.41" x2="1055.48" y2="598.4" gradientUnits="userSpaceOnUse">
            <stop stop-color="#00B2FF" />
            <stop offset="1" stop-color="#0085FF" />
        </linearGradient>
        <linearGradient id="paint3_linear_1_7123" x1="1391.08" y1="1101.09" x2="1058.54" y2="608.076" gradientUnits="userSpaceOnUse">
            <stop stop-color="#00B2FF" />
            <stop offset="1" stop-color="#0085FF" />
        </linearGradient>
        <linearGradient id="paint4_linear_1_7123" x1="1394.13" y1="1110.77" x2="1061.59" y2="617.753" gradientUnits="userSpaceOnUse">
            <stop stop-color="#00B2FF" />
            <stop offset="1" stop-color="#0085FF" />
        </linearGradient>
        <linearGradient id="paint5_linear_1_7123" x1="1397.19" y1="1120.44" x2="1064.65" y2="627.43" gradientUnits="userSpaceOnUse">
            <stop stop-color="#00B2FF" />
            <stop offset="1" stop-color="#0085FF" />
        </linearGradient>
        <linearGradient id="paint6_linear_1_7123" x1="1400.25" y1="1130.12" x2="1067.71" y2="637.107" gradientUnits="userSpaceOnUse">
            <stop stop-color="#00B2FF" />
            <stop offset="1" stop-color="#0085FF" />
        </linearGradient>
        <linearGradient id="paint7_linear_1_7123" x1="1403.3" y1="1139.8" x2="1070.76" y2="646.784" gradientUnits="userSpaceOnUse">
            <stop stop-color="#00B2FF" />
            <stop offset="1" stop-color="#0085FF" />
        </linearGradient>
        <linearGradient id="paint8_linear_1_7123" x1="1406.36" y1="1149.48" x2="1073.82" y2="656.461" gradientUnits="userSpaceOnUse">
            <stop stop-color="#00B2FF" />
            <stop offset="1" stop-color="#0085FF" />
        </linearGradient>
        <linearGradient id="paint9_linear_1_7123" x1="1409.42" y1="1159.15" x2="1076.88" y2="666.138" gradientUnits="userSpaceOnUse">
            <stop stop-color="#00B2FF" />
            <stop offset="1" stop-color="#0085FF" />
        </linearGradient>
        <linearGradient id="paint10_linear_1_7123" x1="1412.47" y1="1168.83" x2="1079.93" y2="675.815" gradientUnits="userSpaceOnUse">
            <stop stop-color="#00B2FF" />
            <stop offset="1" stop-color="#0085FF" />
        </linearGradient>
        <linearGradient id="paint11_linear_1_7123" x1="1415.53" y1="1178.51" x2="1082.99" y2="685.492" gradientUnits="userSpaceOnUse">
            <stop stop-color="#00B2FF" />
            <stop offset="1" stop-color="#0085FF" />
        </linearGradient>
        <linearGradient id="paint12_linear_1_7123" x1="1418.59" y1="1188.18" x2="1086.05" y2="695.169" gradientUnits="userSpaceOnUse">
            <stop stop-color="#00B2FF" />
            <stop offset="1" stop-color="#0085FF" />
        </linearGradient>
        <linearGradient id="paint13_linear_1_7123" x1="1421.65" y1="1197.86" x2="1089.1" y2="704.846" gradientUnits="userSpaceOnUse">
            <stop stop-color="#00B2FF" />
            <stop offset="1" stop-color="#0085FF" />
        </linearGradient>
        <linearGradient id="paint14_linear_1_7123" x1="1424.7" y1="1207.54" x2="1092.16" y2="714.523" gradientUnits="userSpaceOnUse">
            <stop stop-color="#00B2FF" />
            <stop offset="1" stop-color="#0085FF" />
        </linearGradient>
        <linearGradient id="paint15_linear_1_7123" x1="1427.76" y1="1217.21" x2="1095.22" y2="724.2" gradientUnits="userSpaceOnUse">
            <stop stop-color="#00B2FF" />
            <stop offset="1" stop-color="#0085FF" />
        </linearGradient>
        <linearGradient id="paint16_linear_1_7123" x1="1430.82" y1="1226.89" x2="1098.27" y2="733.877" gradientUnits="userSpaceOnUse">
            <stop stop-color="#00B2FF" />
            <stop offset="1" stop-color="#0085FF" />
        </linearGradient>
        <linearGradient id="paint17_linear_1_7123" x1="1433.87" y1="1236.57" x2="1101.33" y2="743.554" gradientUnits="userSpaceOnUse">
            <stop stop-color="#00B2FF" />
            <stop offset="1" stop-color="#0085FF" />
        </linearGradient>
        <linearGradient id="paint18_linear_1_7123" x1="1436.93" y1="1246.24" x2="1104.39" y2="753.231" gradientUnits="userSpaceOnUse">
            <stop stop-color="#00B2FF" />
            <stop offset="1" stop-color="#0085FF" />
        </linearGradient>
        <linearGradient id="paint19_linear_1_7123" x1="1317.65" y1="951.062" x2="985.104" y2="458.048" gradientUnits="userSpaceOnUse">
            <stop stop-color="#00B2FF" />
            <stop offset="1" stop-color="#0085FF" />
        </linearGradient>
        <linearGradient id="paint20_linear_1_7123" x1="1320.7" y1="960.739" x2="988.16" y2="467.725" gradientUnits="userSpaceOnUse">
            <stop stop-color="#00B2FF" />
            <stop offset="1" stop-color="#0085FF" />
        </linearGradient>
        <linearGradient id="paint21_linear_1_7123" x1="1323.76" y1="970.416" x2="991.217" y2="477.402" gradientUnits="userSpaceOnUse">
            <stop stop-color="#00B2FF" />
            <stop offset="1" stop-color="#0085FF" />
        </linearGradient>
        <linearGradient id="paint22_linear_1_7123" x1="1326.82" y1="980.093" x2="994.274" y2="487.079" gradientUnits="userSpaceOnUse">
            <stop stop-color="#00B2FF" />
            <stop offset="1" stop-color="#0085FF" />
        </linearGradient>
        <linearGradient id="paint23_linear_1_7123" x1="1329.87" y1="989.77" x2="997.33" y2="496.756" gradientUnits="userSpaceOnUse">
            <stop stop-color="#00B2FF" />
            <stop offset="1" stop-color="#0085FF" />
        </linearGradient>
        <linearGradient id="paint24_linear_1_7123" x1="1332.93" y1="999.447" x2="1000.39" y2="506.433" gradientUnits="userSpaceOnUse">
            <stop stop-color="#00B2FF" />
            <stop offset="1" stop-color="#0085FF" />
        </linearGradient>
        <linearGradient id="paint25_linear_1_7123" x1="1335.99" y1="1009.12" x2="1003.44" y2="516.11" gradientUnits="userSpaceOnUse">
            <stop stop-color="#00B2FF" />
            <stop offset="1" stop-color="#0085FF" />
        </linearGradient>
        <linearGradient id="paint26_linear_1_7123" x1="1339.04" y1="1018.8" x2="1006.5" y2="525.787" gradientUnits="userSpaceOnUse">
            <stop stop-color="#00B2FF" />
            <stop offset="1" stop-color="#0085FF" />
        </linearGradient>
        <linearGradient id="paint27_linear_1_7123" x1="1342.1" y1="1028.48" x2="1009.56" y2="535.464" gradientUnits="userSpaceOnUse">
            <stop stop-color="#00B2FF" />
            <stop offset="1" stop-color="#0085FF" />
        </linearGradient>
        <linearGradient id="paint28_linear_1_7123" x1="1345.16" y1="1038.15" x2="1012.61" y2="545.141" gradientUnits="userSpaceOnUse">
            <stop stop-color="#00B2FF" />
            <stop offset="1" stop-color="#0085FF" />
        </linearGradient>
        <linearGradient id="paint29_linear_1_7123" x1="1348.21" y1="1047.83" x2="1015.67" y2="554.818" gradientUnits="userSpaceOnUse">
            <stop stop-color="#00B2FF" />
            <stop offset="1" stop-color="#0085FF" />
        </linearGradient>
        <linearGradient id="paint30_linear_1_7123" x1="1351.27" y1="1057.51" x2="1018.73" y2="564.494" gradientUnits="userSpaceOnUse">
            <stop stop-color="#00B2FF" />
            <stop offset="1" stop-color="#0085FF" />
        </linearGradient>
        <linearGradient id="paint31_linear_1_7123" x1="1354.33" y1="1067.19" x2="1021.78" y2="574.171" gradientUnits="userSpaceOnUse">
            <stop stop-color="#00B2FF" />
            <stop offset="1" stop-color="#0085FF" />
        </linearGradient>
        <linearGradient id="paint32_linear_1_7123" x1="1357.38" y1="1076.86" x2="1024.84" y2="583.848" gradientUnits="userSpaceOnUse">
            <stop stop-color="#00B2FF" />
            <stop offset="1" stop-color="#0085FF" />
        </linearGradient>
        <linearGradient id="paint33_linear_1_7123" x1="1360.44" y1="1086.54" x2="1027.9" y2="593.525" gradientUnits="userSpaceOnUse">
            <stop stop-color="#00B2FF" />
            <stop offset="1" stop-color="#0085FF" />
        </linearGradient>
        <linearGradient id="paint34_linear_1_7123" x1="1363.5" y1="1096.22" x2="1030.96" y2="603.202" gradientUnits="userSpaceOnUse">
            <stop stop-color="#00B2FF" />
            <stop offset="1" stop-color="#0085FF" />
        </linearGradient>
        <linearGradient id="paint35_linear_1_7123" x1="1366.55" y1="1105.89" x2="1034.01" y2="612.879" gradientUnits="userSpaceOnUse">
            <stop stop-color="#00B2FF" />
            <stop offset="1" stop-color="#0085FF" />
        </linearGradient>
        <linearGradient id="paint36_linear_1_7123" x1="1369.61" y1="1115.57" x2="1037.07" y2="622.556" gradientUnits="userSpaceOnUse">
            <stop stop-color="#00B2FF" />
            <stop offset="1" stop-color="#0085FF" />
        </linearGradient>
        <linearGradient id="paint37_linear_1_7123" x1="1372.67" y1="1125.25" x2="1040.13" y2="632.233" gradientUnits="userSpaceOnUse">
            <stop stop-color="#00B2FF" />
            <stop offset="1" stop-color="#0085FF" />
        </linearGradient>
        <linearGradient id="paint38_linear_1_7123" x1="1253.38" y1="830.064" x2="920.838" y2="337.05" gradientUnits="userSpaceOnUse">
            <stop stop-color="#00B2FF" />
            <stop offset="1" stop-color="#0085FF" />
        </linearGradient>
        <linearGradient id="paint39_linear_1_7123" x1="1256.44" y1="839.741" x2="923.895" y2="346.727" gradientUnits="userSpaceOnUse">
            <stop stop-color="#00B2FF" />
            <stop offset="1" stop-color="#0085FF" />
        </linearGradient>
        <linearGradient id="paint40_linear_1_7123" x1="1259.49" y1="849.418" x2="926.951" y2="356.404" gradientUnits="userSpaceOnUse">
            <stop stop-color="#00B2FF" />
            <stop offset="1" stop-color="#0085FF" />
        </linearGradient>
        <linearGradient id="paint41_linear_1_7123" x1="1262.55" y1="859.095" x2="930.01" y2="366.08" gradientUnits="userSpaceOnUse">
            <stop stop-color="#00B2FF" />
            <stop offset="1" stop-color="#0085FF" />
        </linearGradient>
        <linearGradient id="paint42_linear_1_7123" x1="1265.61" y1="868.771" x2="933.066" y2="375.757" gradientUnits="userSpaceOnUse">
            <stop stop-color="#00B2FF" />
            <stop offset="1" stop-color="#0085FF" />
        </linearGradient>
        <linearGradient id="paint43_linear_1_7123" x1="1268.67" y1="878.449" x2="936.123" y2="385.434" gradientUnits="userSpaceOnUse">
            <stop stop-color="#00B2FF" />
            <stop offset="1" stop-color="#0085FF" />
        </linearGradient>
        <linearGradient id="paint44_linear_1_7123" x1="1271.72" y1="888.125" x2="939.18" y2="395.111" gradientUnits="userSpaceOnUse">
            <stop stop-color="#00B2FF" />
            <stop offset="1" stop-color="#0085FF" />
        </linearGradient>
        <linearGradient id="paint45_linear_1_7123" x1="1274.78" y1="897.802" x2="942.236" y2="404.788" gradientUnits="userSpaceOnUse">
            <stop stop-color="#00B2FF" />
            <stop offset="1" stop-color="#0085FF" />
        </linearGradient>
        <linearGradient id="paint46_linear_1_7123" x1="1277.84" y1="907.479" x2="945.293" y2="414.465" gradientUnits="userSpaceOnUse">
            <stop stop-color="#00B2FF" />
            <stop offset="1" stop-color="#0085FF" />
        </linearGradient>
        <linearGradient id="paint47_linear_1_7123" x1="1280.89" y1="917.156" x2="948.35" y2="424.142" gradientUnits="userSpaceOnUse">
            <stop stop-color="#00B2FF" />
            <stop offset="1" stop-color="#0085FF" />
        </linearGradient>
        <linearGradient id="paint48_linear_1_7123" x1="1283.95" y1="926.833" x2="951.406" y2="433.819" gradientUnits="userSpaceOnUse">
            <stop stop-color="#00B2FF" />
            <stop offset="1" stop-color="#0085FF" />
        </linearGradient>
        <linearGradient id="paint49_linear_1_7123" x1="1287.01" y1="936.511" x2="954.463" y2="443.496" gradientUnits="userSpaceOnUse">
            <stop stop-color="#00B2FF" />
            <stop offset="1" stop-color="#0085FF" />
        </linearGradient>
        <linearGradient id="paint50_linear_1_7123" x1="1290.06" y1="946.187" x2="957.52" y2="453.173" gradientUnits="userSpaceOnUse">
            <stop stop-color="#00B2FF" />
            <stop offset="1" stop-color="#0085FF" />
        </linearGradient>
        <linearGradient id="paint51_linear_1_7123" x1="1293.12" y1="955.864" x2="960.576" y2="462.85" gradientUnits="userSpaceOnUse">
            <stop stop-color="#00B2FF" />
            <stop offset="1" stop-color="#0085FF" />
        </linearGradient>
        <linearGradient id="paint52_linear_1_7123" x1="1296.18" y1="965.541" x2="963.635" y2="472.527" gradientUnits="userSpaceOnUse">
            <stop stop-color="#00B2FF" />
            <stop offset="1" stop-color="#0085FF" />
        </linearGradient>
        <linearGradient id="paint53_linear_1_7123" x1="1299.23" y1="975.218" x2="966.691" y2="482.204" gradientUnits="userSpaceOnUse">
            <stop stop-color="#00B2FF" />
            <stop offset="1" stop-color="#0085FF" />
        </linearGradient>
        <linearGradient id="paint54_linear_1_7123" x1="1302.29" y1="984.895" x2="969.748" y2="491.881" gradientUnits="userSpaceOnUse">
            <stop stop-color="#00B2FF" />
            <stop offset="1" stop-color="#0085FF" />
        </linearGradient>
        <linearGradient id="paint55_linear_1_7123" x1="1305.35" y1="994.572" x2="972.805" y2="501.558" gradientUnits="userSpaceOnUse">
            <stop stop-color="#00B2FF" />
            <stop offset="1" stop-color="#0085FF" />
        </linearGradient>
        <linearGradient id="paint56_linear_1_7123" x1="1308.4" y1="1004.25" x2="975.861" y2="511.235" gradientUnits="userSpaceOnUse">
            <stop stop-color="#00B2FF" />
            <stop offset="1" stop-color="#0085FF" />
        </linearGradient>
        <linearGradient id="paint57_linear_1_7123" x1="1209.12" y1="739.066" x2="876.576" y2="246.052" gradientUnits="userSpaceOnUse">
            <stop stop-color="#00B2FF" />
            <stop offset="1" stop-color="#0085FF" />
        </linearGradient>
        <linearGradient id="paint58_linear_1_7123" x1="1212.18" y1="748.743" x2="879.635" y2="255.729" gradientUnits="userSpaceOnUse">
            <stop stop-color="#00B2FF" />
            <stop offset="1" stop-color="#0085FF" />
        </linearGradient>
        <linearGradient id="paint59_linear_1_7123" x1="1215.23" y1="758.42" x2="882.691" y2="265.406" gradientUnits="userSpaceOnUse">
            <stop stop-color="#00B2FF" />
            <stop offset="1" stop-color="#0085FF" />
        </linearGradient>
        <linearGradient id="paint60_linear_1_7123" x1="1218.29" y1="768.097" x2="885.748" y2="275.083" gradientUnits="userSpaceOnUse">
            <stop stop-color="#00B2FF" />
            <stop offset="1" stop-color="#0085FF" />
        </linearGradient>
        <linearGradient id="paint61_linear_1_7123" x1="1221.35" y1="777.774" x2="888.805" y2="284.76" gradientUnits="userSpaceOnUse">
            <stop stop-color="#00B2FF" />
            <stop offset="1" stop-color="#0085FF" />
        </linearGradient>
        <linearGradient id="paint62_linear_1_7123" x1="1224.4" y1="787.451" x2="891.861" y2="294.437" gradientUnits="userSpaceOnUse">
            <stop stop-color="#00B2FF" />
            <stop offset="1" stop-color="#0085FF" />
        </linearGradient>
        <linearGradient id="paint63_linear_1_7123" x1="1227.46" y1="797.128" x2="894.918" y2="304.114" gradientUnits="userSpaceOnUse">
            <stop stop-color="#00B2FF" />
            <stop offset="1" stop-color="#0085FF" />
        </linearGradient>
        <linearGradient id="paint64_linear_1_7123" x1="1230.52" y1="806.805" x2="897.975" y2="313.791" gradientUnits="userSpaceOnUse">
            <stop stop-color="#00B2FF" />
            <stop offset="1" stop-color="#0085FF" />
        </linearGradient>
        <linearGradient id="paint65_linear_1_7123" x1="1233.57" y1="816.482" x2="901.031" y2="323.468" gradientUnits="userSpaceOnUse">
            <stop stop-color="#00B2FF" />
            <stop offset="1" stop-color="#0085FF" />
        </linearGradient>
        <linearGradient id="paint66_linear_1_7123" x1="1236.63" y1="826.159" x2="904.088" y2="333.145" gradientUnits="userSpaceOnUse">
            <stop stop-color="#00B2FF" />
            <stop offset="1" stop-color="#0085FF" />
        </linearGradient>
        <linearGradient id="paint67_linear_1_7123" x1="1239.69" y1="835.836" x2="907.145" y2="342.822" gradientUnits="userSpaceOnUse">
            <stop stop-color="#00B2FF" />
            <stop offset="1" stop-color="#0085FF" />
        </linearGradient>
        <linearGradient id="paint68_linear_1_7123" x1="1242.74" y1="845.513" x2="910.201" y2="352.499" gradientUnits="userSpaceOnUse">
            <stop stop-color="#00B2FF" />
            <stop offset="1" stop-color="#0085FF" />
        </linearGradient>
        <linearGradient id="paint69_linear_1_7123" x1="1245.8" y1="855.19" x2="913.26" y2="362.176" gradientUnits="userSpaceOnUse">
            <stop stop-color="#00B2FF" />
            <stop offset="1" stop-color="#0085FF" />
        </linearGradient>
        <linearGradient id="paint70_linear_1_7123" x1="1248.86" y1="864.867" x2="916.316" y2="371.853" gradientUnits="userSpaceOnUse">
            <stop stop-color="#00B2FF" />
            <stop offset="1" stop-color="#0085FF" />
        </linearGradient>
        <linearGradient id="paint71_linear_1_7123" x1="1251.92" y1="874.544" x2="919.373" y2="381.53" gradientUnits="userSpaceOnUse">
            <stop stop-color="#00B2FF" />
            <stop offset="1" stop-color="#0085FF" />
        </linearGradient>
        <linearGradient id="paint72_linear_1_7123" x1="1254.97" y1="884.221" x2="922.43" y2="391.207" gradientUnits="userSpaceOnUse">
            <stop stop-color="#00B2FF" />
            <stop offset="1" stop-color="#0085FF" />
        </linearGradient>
        <linearGradient id="paint73_linear_1_7123" x1="1258.03" y1="893.898" x2="925.486" y2="400.884" gradientUnits="userSpaceOnUse">
            <stop stop-color="#00B2FF" />
            <stop offset="1" stop-color="#0085FF" />
        </linearGradient>
        <linearGradient id="paint74_linear_1_7123" x1="1261.09" y1="903.574" x2="928.543" y2="410.56" gradientUnits="userSpaceOnUse">
            <stop stop-color="#00B2FF" />
            <stop offset="1" stop-color="#0085FF" />
        </linearGradient>
        <linearGradient id="paint75_linear_1_7123" x1="1264.14" y1="913.251" x2="931.6" y2="420.237" gradientUnits="userSpaceOnUse">
            <stop stop-color="#00B2FF" />
            <stop offset="1" stop-color="#0085FF" />
        </linearGradient>
        <linearGradient id="paint76_linear_1_7123" x1="1124.86" y1="588.068" x2="792.315" y2="95.0541" gradientUnits="userSpaceOnUse">
            <stop stop-color="#00B2FF" />
            <stop offset="1" stop-color="#0085FF" />
        </linearGradient>
        <linearGradient id="paint77_linear_1_7123" x1="1127.91" y1="597.745" x2="795.371" y2="104.731" gradientUnits="userSpaceOnUse">
            <stop stop-color="#00B2FF" />
            <stop offset="1" stop-color="#0085FF" />
        </linearGradient>
        <linearGradient id="paint78_linear_1_7123" x1="1130.97" y1="607.422" x2="798.43" y2="114.408" gradientUnits="userSpaceOnUse">
            <stop stop-color="#00B2FF" />
            <stop offset="1" stop-color="#0085FF" />
        </linearGradient>
        <linearGradient id="paint79_linear_1_7123" x1="1134.03" y1="617.099" x2="801.486" y2="124.085" gradientUnits="userSpaceOnUse">
            <stop stop-color="#00B2FF" />
            <stop offset="1" stop-color="#0085FF" />
        </linearGradient>
        <linearGradient id="paint80_linear_1_7123" x1="1137.09" y1="626.776" x2="804.543" y2="133.762" gradientUnits="userSpaceOnUse">
            <stop stop-color="#00B2FF" />
            <stop offset="1" stop-color="#0085FF" />
        </linearGradient>
        <linearGradient id="paint81_linear_1_7123" x1="1140.14" y1="636.453" x2="807.6" y2="143.439" gradientUnits="userSpaceOnUse">
            <stop stop-color="#00B2FF" />
            <stop offset="1" stop-color="#0085FF" />
        </linearGradient>
        <linearGradient id="paint82_linear_1_7123" x1="1143.2" y1="646.13" x2="810.656" y2="153.116" gradientUnits="userSpaceOnUse">
            <stop stop-color="#00B2FF" />
            <stop offset="1" stop-color="#0085FF" />
        </linearGradient>
        <linearGradient id="paint83_linear_1_7123" x1="1146.26" y1="655.807" x2="813.713" y2="162.793" gradientUnits="userSpaceOnUse">
            <stop stop-color="#00B2FF" />
            <stop offset="1" stop-color="#0085FF" />
        </linearGradient>
        <linearGradient id="paint84_linear_1_7123" x1="1149.31" y1="665.484" x2="816.77" y2="172.47" gradientUnits="userSpaceOnUse">
            <stop stop-color="#00B2FF" />
            <stop offset="1" stop-color="#0085FF" />
        </linearGradient>
        <linearGradient id="paint85_linear_1_7123" x1="1152.37" y1="675.161" x2="819.826" y2="182.147" gradientUnits="userSpaceOnUse">
            <stop stop-color="#00B2FF" />
            <stop offset="1" stop-color="#0085FF" />
        </linearGradient>
        <linearGradient id="paint86_linear_1_7123" x1="1155.43" y1="684.838" x2="822.883" y2="191.824" gradientUnits="userSpaceOnUse">
            <stop stop-color="#00B2FF" />
            <stop offset="1" stop-color="#0085FF" />
        </linearGradient>
        <linearGradient id="paint87_linear_1_7123" x1="1158.48" y1="694.515" x2="825.94" y2="201.501" gradientUnits="userSpaceOnUse">
            <stop stop-color="#00B2FF" />
            <stop offset="1" stop-color="#0085FF" />
        </linearGradient>
        <linearGradient id="paint88_linear_1_7123" x1="1161.54" y1="704.192" x2="828.996" y2="211.178" gradientUnits="userSpaceOnUse">
            <stop stop-color="#00B2FF" />
            <stop offset="1" stop-color="#0085FF" />
        </linearGradient>
        <linearGradient id="paint89_linear_1_7123" x1="1164.6" y1="713.869" x2="832.055" y2="220.854" gradientUnits="userSpaceOnUse">
            <stop stop-color="#00B2FF" />
            <stop offset="1" stop-color="#0085FF" />
        </linearGradient>
        <linearGradient id="paint90_linear_1_7123" x1="1167.65" y1="723.546" x2="835.111" y2="230.531" gradientUnits="userSpaceOnUse">
            <stop stop-color="#00B2FF" />
            <stop offset="1" stop-color="#0085FF" />
        </linearGradient>
        <linearGradient id="paint91_linear_1_7123" x1="1170.71" y1="733.222" x2="838.168" y2="240.208" gradientUnits="userSpaceOnUse">
            <stop stop-color="#00B2FF" />
            <stop offset="1" stop-color="#0085FF" />
        </linearGradient>
        <linearGradient id="paint92_linear_1_7123" x1="1173.77" y1="742.899" x2="841.225" y2="249.885" gradientUnits="userSpaceOnUse">
            <stop stop-color="#00B2FF" />
            <stop offset="1" stop-color="#0085FF" />
        </linearGradient>
        <linearGradient id="paint93_linear_1_7123" x1="1176.82" y1="752.576" x2="844.281" y2="259.562" gradientUnits="userSpaceOnUse">
            <stop stop-color="#00B2FF" />
            <stop offset="1" stop-color="#0085FF" />
        </linearGradient>
        <linearGradient id="paint94_linear_1_7123" x1="1179.88" y1="762.253" x2="847.338" y2="269.239" gradientUnits="userSpaceOnUse">
            <stop stop-color="#00B2FF" />
            <stop offset="1" stop-color="#0085FF" />
        </linearGradient>
    </defs>
</svg>