<svg width="52" height="52" viewBox="0 0 52 52" fill="none" xmlns="http://www.w3.org/2000/svg">
<rect width="52" height="52" rx="6" fill="#000E15"/>
<rect x="0.5" y="0.5" width="51" height="51" rx="5.5" stroke="white" stroke-opacity="0.06"/>
<path d="M25.5364 32.9896C21.2341 32.9896 17.7525 29.5669 17.7525 25.3373C17.7525 21.1078 21.2341 17.6851 25.5364 17.6851C31.1891 17.6851 34.8825 23.3852 32.6982 28.3696L27.7207 26.7689L34.7501 33.6793C36.8153 31.4799 38.0729 28.5518 38.0729 25.3243C38.0729 18.518 32.4599 13 25.5364 13C18.6129 13 13 18.518 13 25.3243C13 32.1307 18.6129 37.6486 25.5364 37.6486C27.959 37.6486 30.2095 36.9719 32.129 35.8137L37.7022 38L30.6728 31.0765C29.2961 32.2608 27.4957 32.9896 25.5364 32.9896Z" fill="#40C6F0"/>
</svg>
