<svg width="52" height="55" viewBox="0 0 52 55" fill="none" xmlns="http://www.w3.org/2000/svg">
<rect y="0.337891" width="52" height="53.7391" rx="6" fill="url(#paint0_linear)"/>
<rect x="0.5" y="0.837891" width="51" height="52.7391" rx="5.5" stroke="white" stroke-opacity="0.02"/>
<path d="M34 31.5L37.5 28L34 24.5" stroke="url(#paint1_linear)" stroke-width="2.5" stroke-linecap="round" stroke-linejoin="round"/>
<path d="M18.8333 30.3334C20.122 30.3334 21.1667 29.2888 21.1667 28.0001C21.1667 26.7114 20.122 25.6667 18.8333 25.6667C17.5447 25.6667 16.5 26.7114 16.5 28.0001C16.5 29.2888 17.5447 30.3334 18.8333 30.3334Z" stroke="url(#paint2_linear)" stroke-width="2.5" stroke-linecap="round" stroke-linejoin="round"/>
<path d="M21.1665 28H37.4998" stroke="url(#paint3_linear)" stroke-width="2.5" stroke-linecap="round" stroke-linejoin="round"/>
<defs>
<linearGradient id="paint0_linear" x1="26" y1="0.337891" x2="26" y2="54.077" gradientUnits="userSpaceOnUse">
<stop stop-color="#0A141A"/>
<stop offset="1" stop-color="#000E15"/>
</linearGradient>
<linearGradient id="paint1_linear" x1="35.75" y1="24.5" x2="35.75" y2="31.5" gradientUnits="userSpaceOnUse">
<stop stop-color="#00D1FF"/>
<stop offset="1" stop-color="#0085FF"/>
</linearGradient>
<linearGradient id="paint2_linear" x1="18.8333" y1="25.6667" x2="18.8333" y2="30.3334" gradientUnits="userSpaceOnUse">
<stop stop-color="#00D1FF"/>
<stop offset="1" stop-color="#0085FF"/>
</linearGradient>
<linearGradient id="paint3_linear" x1="29.3332" y1="28" x2="29.3332" y2="29" gradientUnits="userSpaceOnUse">
<stop stop-color="#00D1FF"/>
<stop offset="1" stop-color="#0085FF"/>
</linearGradient>
</defs>
</svg>
