<svg width="17" height="15" viewBox="0 0 17 15" fill="none" xmlns="http://www.w3.org/2000/svg">
    <path
        d="M13.6674 9.18522L8.46861 0.366986C8.44344 0.323443 8.40699 0.287171 8.36293 0.261832C8.31887 0.236493 8.26876 0.222982 8.21767 0.222662C8.16657 0.222342 8.1163 0.235225 8.07192 0.260011C8.02755 0.284797 7.99064 0.320609 7.96491 0.363834L6.4079 3.00616C6.35692 3.09263 6.33008 3.19077 6.33008 3.29064C6.33008 3.3905 6.35692 3.48864 6.4079 3.57511L9.79785 9.32787C9.84889 9.41443 9.92234 9.48632 10.0108 9.53626C10.0992 9.58622 10.1995 9.61246 10.3016 9.61235H13.4156C13.4665 9.61221 13.5166 9.59896 13.5607 9.57393C13.6048 9.54891 13.6415 9.51296 13.6669 9.46972C13.6924 9.42652 13.7059 9.37746 13.706 9.32756C13.7061 9.27762 13.6928 9.22854 13.6674 9.18522Z"
        fill="#363FF9" />
    <path
        d="M0.0400884 13.7938L5.2389 4.97558C5.2644 4.93237 5.30109 4.89651 5.34523 4.87157C5.38935 4.84663 5.4394 4.8335 5.49035 4.8335C5.54131 4.8335 5.59138 4.84663 5.6355 4.87157C5.67964 4.89651 5.7163 4.93237 5.7418 4.97558L7.29961 7.61551C7.35059 7.70216 7.37743 7.80041 7.37743 7.90039C7.37743 8.00039 7.35059 8.09864 7.29961 8.18529L3.90963 13.938C3.85878 14.0246 3.7855 14.0965 3.69721 14.1464C3.60892 14.1964 3.50871 14.2226 3.40672 14.2225H0.291942C0.240632 14.2227 0.190171 14.2097 0.145688 14.1846C0.101205 14.1596 0.0642929 14.1235 0.0387033 14.0799C0.0131136 14.0364 -0.000240907 13.9869 3.28983e-06 13.9367C0.000247487 13.8864 0.0140764 13.8371 0.0400884 13.7938Z"
        fill="#363FF9" />
    <path
        d="M5.74086 14.2208H16.1385C16.1895 14.2208 16.2396 14.2076 16.2837 14.1826C16.3279 14.1575 16.3645 14.1216 16.39 14.0783C16.4154 14.035 16.4288 13.9859 16.4287 13.9359C16.4286 13.886 16.4151 13.8369 16.3896 13.7937L14.8342 11.1522C14.7831 11.0656 14.7097 10.9937 14.6213 10.9438C14.5328 10.8938 14.4325 10.8676 14.3304 10.8677H7.55052C7.44844 10.8676 7.34814 10.8938 7.25971 10.9438C7.17128 10.9937 7.09785 11.0656 7.04681 11.1522L5.48984 13.7937C5.46425 13.8369 5.45074 13.886 5.45068 13.9359C5.4506 13.9859 5.46393 14.035 5.48938 14.0783C5.51483 14.1216 5.55149 14.1575 5.59563 14.1826C5.63978 14.2076 5.68985 14.2208 5.74086 14.2208Z"
        fill="#363FF9" />
</svg>