<svg width="20" height="20" viewBox="0 0 20 20" fill="none" xmlns="http://www.w3.org/2000/svg">
    <g clip-path="url(#clip0_34103_5)">
        <path
            d="M10 17.5C9.01509 17.5 8.03982 17.306 7.12987 16.9291C6.21993 16.5522 5.39314 15.9997 4.6967 15.3033C4.00026 14.6069 3.44781 13.7801 3.0709 12.8701C2.69399 11.9602 2.5 10.9849 2.5 10C2.5 9.01509 2.69399 8.03982 3.0709 7.12987C3.44781 6.21993 4.00026 5.39314 4.6967 4.6967C5.39314 4.00026 6.21993 3.44781 7.12987 3.0709C8.03982 2.69399 9.01509 2.5 10 2.5C11.9891 2.5 13.8968 3.29018 15.3033 4.6967C16.7098 6.10322 17.5 8.01088 17.5 10C17.5 11.9891 16.7098 13.8968 15.3033 15.3033C13.8968 16.7098 11.9891 17.5 10 17.5Z"
            stroke="#34FFAA" stroke-width="1.375" stroke-linecap="round" stroke-linejoin="round" />
        <path d="M8.3335 8.33325C7.91683 7.49992 6.25016 7.49992 5.8335 8.33325" stroke="#34FFAA"
            stroke-width="1.375" stroke-linecap="round" stroke-linejoin="round" />
        <path d="M14.1665 8.33325C13.7498 7.49992 12.0832 7.49992 11.6665 8.33325" stroke="#34FFAA"
            stroke-width="1.375" stroke-linecap="round" stroke-linejoin="round" />
        <path
            d="M12.0832 12.5C11.8116 12.7772 11.4875 12.9974 11.1297 13.1477C10.772 13.298 10.3879 13.3754 9.99984 13.3754C9.61181 13.3754 9.22768 13.298 8.86994 13.1477C8.51221 12.9974 8.18807 12.7772 7.9165 12.5"
            stroke="#34FFAA" stroke-width="1.375" stroke-linecap="round" stroke-linejoin="round" />
    </g>
    <defs>
        <clipPath id="clip0_34103_5">
            <rect width="20" height="20" fill="white" />
        </clipPath>
    </defs>
</svg>