<svg xmlns="http://www.w3.org/2000/svg" width="11" height="11" viewBox="0 0 11 11" fill="none">
    <g clip-path="url(#clip0_36428_2179)">
        <path
            d="M2.29199 5.95841C2.29199 5.7153 2.38857 5.48214 2.56048 5.31023C2.73239 5.13833 2.96554 5.04175 3.20866 5.04175H7.79199C8.03511 5.04175 8.26827 5.13833 8.44017 5.31023C8.61208 5.48214 8.70866 5.7153 8.70866 5.95841V8.70842C8.70866 8.95153 8.61208 9.18469 8.44017 9.3566C8.26827 9.5285 8.03511 9.62508 7.79199 9.62508H3.20866C2.96554 9.62508 2.73239 9.5285 2.56048 9.3566C2.38857 9.18469 2.29199 8.95153 2.29199 8.70842V5.95841Z"
            stroke="url(#paint0_linear_36428_2179)" stroke-width="1.375" stroke-linecap="round"
            stroke-linejoin="round" />
        <path
            d="M5.04199 7.33333C5.04199 7.45489 5.09028 7.57147 5.17623 7.65742C5.26219 7.74338 5.37877 7.79167 5.50033 7.79167C5.62188 7.79167 5.73846 7.74338 5.82442 7.65742C5.91037 7.57147 5.95866 7.45489 5.95866 7.33333C5.95866 7.21178 5.91037 7.0952 5.82442 7.00924C5.73846 6.92329 5.62188 6.875 5.50033 6.875C5.37877 6.875 5.26219 6.92329 5.17623 7.00924C5.09028 7.0952 5.04199 7.21178 5.04199 7.33333Z"
            stroke="url(#paint1_linear_36428_2179)" stroke-width="1.375" stroke-linecap="round"
            stroke-linejoin="round" />
        <path
            d="M3.66699 5.04167V3.20833C3.66699 2.7221 3.86015 2.25579 4.20396 1.91197C4.54778 1.56815 5.01409 1.375 5.50032 1.375C5.98656 1.375 6.45287 1.56815 6.79669 1.91197C7.1405 2.25579 7.33366 2.7221 7.33366 3.20833V5.04167"
            stroke="url(#paint2_linear_36428_2179)" stroke-width="1.375" stroke-linecap="round"
            stroke-linejoin="round" />
    </g>
    <defs>
        <linearGradient id="paint0_linear_36428_2179" x1="5.50033" y1="5.04175" x2="5.50033"
            y2="9.62508" gradientUnits="userSpaceOnUse">
            <stop stop-color="#FDBC40" />
            <stop offset="1" stop-color="#FF6D03" />
        </linearGradient>
        <linearGradient id="paint1_linear_36428_2179" x1="5.50033" y1="6.875" x2="5.50033"
            y2="7.79167" gradientUnits="userSpaceOnUse">
            <stop stop-color="#FDBC40" />
            <stop offset="1" stop-color="#FF6D03" />
        </linearGradient>
        <linearGradient id="paint2_linear_36428_2179" x1="5.50032" y1="1.375" x2="5.50032"
            y2="5.04167" gradientUnits="userSpaceOnUse">
            <stop stop-color="#FDBC40" />
            <stop offset="1" stop-color="#FFB800" />
        </linearGradient>
        <clipPath id="clip0_36428_2179">
            <rect width="11" height="11" fill="white" />
        </clipPath>
    </defs>
</svg>