<svg width="274" height="52" viewBox="0 0 274 52" fill="none" xmlns="http://www.w3.org/2000/svg">
    <mask id="mask0_20307_9439" style="mask-type:alpha" maskUnits="userSpaceOnUse" x="0" y="0" width="274" height="52">
        <g opacity="0.9">
            <rect width="274" height="52" rx="5" fill="#FFFFFF" />
            <rect x="0.5" y="0.5" width="273" height="51" rx="4.5" stroke="#0085ff" stroke-opacity="0.15" />
        </g>
    </mask>
    <g mask="url(#mask0_20307_9439)">
        <rect width="274" height="52" rx="6" fill="#ffffff" />
        <rect x="0.5" y="0.5" width="273" height="51" rx="5.5" stroke="#0085FF" stroke-opacity="0.15" />
        <g opacity="0.25">
            <rect x="34.632" y="0.68457" width="1.01859" height="50.6316" fill="#0085ff" fill-opacity="0.05" />
            <rect x="40.7435" y="0.68457" width="1.01859" height="50.6316" fill="#0085ff" fill-opacity="0.05" />
            <rect x="46.855" y="0.68457" width="1.01859" height="50.6316" fill="#0085ff" fill-opacity="0.05" />
            <rect x="52.9666" y="0.68457" width="1.01859" height="50.6316" fill="#0085ff" fill-opacity="0.05" />
            <rect x="59.0781" y="0.68457" width="1.01859" height="50.6316" fill="#0085ff" fill-opacity="0.05" />
            <rect x="65.1896" y="0.68457" width="1.01859" height="50.6316" fill="#0085ff" fill-opacity="0.05" />
            <rect x="71.3011" y="0.68457" width="1.01859" height="50.6316" fill="#0085ff" fill-opacity="0.05" />
            <rect x="77.4126" y="0.68457" width="1.01859" height="50.6316" fill="#0085ff" fill-opacity="0.05" />
            <rect x="83.5242" y="0.68457" width="1.01859" height="50.6316" fill="#0085ff" fill-opacity="0.05" />
            <rect x="89.6357" y="0.68457" width="1.01859" height="50.6316" fill="#0085ff" fill-opacity="0.05" />
            <rect x="95.7472" y="0.68457" width="1.01859" height="50.6316" fill="#0085ff" fill-opacity="0.05" />
            <rect x="101.859" y="0.68457" width="1.01859" height="50.6316" fill="#0085ff" fill-opacity="0.05" />
            <rect x="107.97" y="0.68457" width="1.01859" height="50.6316" fill="#0085ff" fill-opacity="0.05" />
            <rect x="114.082" y="0.68457" width="1.01859" height="50.6316" fill="#0085ff" fill-opacity="0.05" />
            <rect x="120.193" y="0.68457" width="1.01859" height="50.6316" fill="#0085ff" fill-opacity="0.05" />
            <rect x="126.305" y="0.68457" width="1.01859" height="50.6316" fill="#0085ff" fill-opacity="0.05" />
            <rect x="132.416" y="0.68457" width="1.01859" height="50.6316" fill="#0085ff" fill-opacity="0.05" />
            <rect x="138.528" y="0.68457" width="1.01859" height="50.6316" fill="#0085ff" fill-opacity="0.05" />
            <rect x="144.639" y="0.68457" width="1.01859" height="50.6316" fill="#0085ff" fill-opacity="0.05" />
            <rect x="150.751" y="0.68457" width="1.01859" height="50.6316" fill="#0085ff" fill-opacity="0.05" />
            <rect x="156.862" y="0.68457" width="1.01859" height="50.6316" fill="#0085ff" fill-opacity="0.05" />
            <rect x="162.974" y="0.68457" width="1.01859" height="50.6316" fill="#0085ff" fill-opacity="0.05" />
            <rect x="169.086" y="0.68457" width="1.01859" height="50.6316" fill="#0085ff" fill-opacity="0.05" />
            <rect x="175.197" y="0.68457" width="1.01859" height="50.6316" fill="#0085ff" fill-opacity="0.05" />
            <rect x="181.309" y="0.68457" width="1.01859" height="50.6316" fill="#0085ff" fill-opacity="0.05" />
            <rect x="187.42" y="0.68457" width="1.01859" height="50.6316" fill="#0085ff" fill-opacity="0.05" />
            <rect x="193.532" y="0.68457" width="1.01859" height="50.6316" fill="#0085ff" fill-opacity="0.05" />
            <rect x="199.643" y="0.68457" width="1.01859" height="50.6316" fill="#0085ff" fill-opacity="0.05" />
            <rect x="205.755" y="0.68457" width="1.01859" height="50.6316" fill="#0085ff" fill-opacity="0.05" />
            <rect x="211.866" y="0.68457" width="1.01859" height="50.6316" fill="#0085ff" fill-opacity="0.05" />
            <rect x="217.978" y="0.68457" width="1.01859" height="50.6316" fill="#0085ff" fill-opacity="0.05" />
            <rect x="224.089" y="0.68457" width="1.01859" height="50.6316" fill="#0085ff" fill-opacity="0.05" />
            <rect x="230.201" y="0.68457" width="1.01859" height="50.6316" fill="#0085ff" fill-opacity="0.05" />
            <rect x="236.312" y="0.68457" width="1.01859" height="50.6316" fill="#0085ff" fill-opacity="0.05" />
            <rect x="242.424" y="0.68457" width="1.01859" height="50.6316" fill="#0085ff" fill-opacity="0.05" />
            <rect x="248.535" y="0.68457" width="1.01859" height="50.6316" fill="#0085ff" fill-opacity="0.05" />
            <rect x="254.647" y="0.68457" width="1.01859" height="50.6316" fill="#0085ff" fill-opacity="0.05" />
            <rect x="260.758" y="0.68457" width="1.01859" height="50.6316" fill="#0085ff" fill-opacity="0.05" />
            <rect x="266.87" y="0.68457" width="1.01859" height="50.6316" fill="#0085ff" fill-opacity="0.05" />
            <rect x="272.981" y="0.68457" width="1.01859" height="50.6316" fill="#0085ff" fill-opacity="0.05" />
        </g>
        <g opacity="0.25">
            <rect x="29.5391" y="4.10547" width="520.498" height="0.684211" fill="#0085ff" fill-opacity="0.05" />
            <rect x="29.5391" y="8.21094" width="520.498" height="0.684211" fill="#0085ff" fill-opacity="0.05" />
            <rect x="30.5576" y="12.3164" width="520.498" height="0.684211" fill="#0085ff" fill-opacity="0.05" />
            <rect x="29.5391" y="16.4209" width="520.498" height="0.684211" fill="#0085ff" fill-opacity="0.05" />
            <rect x="29.5391" y="20.5264" width="520.498" height="0.684211" fill="#0085ff" fill-opacity="0.05" />
            <rect x="29.5391" y="24.6318" width="520.498" height="0.684211" fill="#0085ff" fill-opacity="0.05" />
            <rect x="29.5391" y="28.7373" width="520.498" height="0.684211" fill="#0085ff" fill-opacity="0.05" />
            <rect x="29.5391" y="32.8418" width="520.498" height="0.684211" fill="#0085ff" fill-opacity="0.05" />
            <rect x="29.5391" y="36.9473" width="520.498" height="0.684211" fill="#0085ff" fill-opacity="0.05" />
            <rect x="29.5391" y="41.0527" width="520.498" height="0.684211" fill="#0085ff" fill-opacity="0.05" />
            <rect x="29.5391" y="45.1582" width="520.498" height="0.684211" fill="#0085ff" fill-opacity="0.05" />
            <rect x="29.5391" y="49.2637" width="520.498" height="0.684211" fill="#0085ff" fill-opacity="0.05" />
        </g>
        <g filter="url(#filter0_d_20307_9439)">
            <path
                d="M4 49L13.5984 26.0993C14.5876 23.7393 17.9743 23.8687 18.7805 26.2973V26.2973C19.5647 28.6596 22.8249 28.8684 23.904 26.6254L29.5243 14.9431C30.7136 12.4711 34.3227 12.76 35.1036 15.3897L40.5819 33.8386C41.221 35.991 44.1675 36.2459 45.1831 34.2433V34.2433C46.172 32.2934 49.0248 32.4813 49.7332 34.5497V34.5497C50.6308 37.1705 54.4993 36.5591 54.5449 33.7893L54.7114 23.6819C54.7521 21.2072 57.6032 19.8436 59.5553 21.3652L66.0355 26.4164C67.9822 27.9338 70.8262 26.5822 70.8791 24.1146L71.0505 16.1219C71.1129 13.2136 74.8626 12.0872 76.5172 14.4798L90.2036 34.2701C91.242 35.7716 93.3695 36.0054 94.7091 34.7652L110.894 19.7814C111.896 18.854 113.397 18.7198 114.548 19.4549L138.103 34.5088C139.443 35.3651 141.219 35.0271 142.15 33.7382L153.245 18.3864C154.19 17.0796 155.998 16.7531 157.34 17.647L187.926 38.0226C189.039 38.7646 190.51 38.6792 191.53 37.8132L212.447 20.0604C212.629 19.9058 212.792 19.7299 212.933 19.5365L223.555 4.91533C224.657 3.39867 226.864 3.25283 228.156 4.61134L241.908 19.073C242.043 19.2156 242.192 19.3444 242.353 19.4578L259.426 31.4927C260.841 32.49 262.804 32.0864 263.71 30.6117L272 17.1264"
                stroke="url(#paint0_linear_20307_9439)" />
        </g>
    </g>
    <path opacity="0.7" d="M1 7C1 3.68629 3.68629 1 7 1H52V51H7C3.68629 51 1 48.3137 1 45V7Z"
        fill="url(#paint1_linear_20307_9439)" />
    <path d="M273 7C273 3.68629 270.314 1 267 1H216V51H267C270.314 51 273 48.3137 273 45V7Z"
        fill="url(#paint2_linear_20307_9439)" />
    <defs>
        <filter id="filter0_d_20307_9439" x="-10.4612" y="-10.8213" width="296.887" height="74.0146"
            filterUnits="userSpaceOnUse" color-interpolation-filters="sRGB">
            <feFlood flood-opacity="0" result="BackgroundImageFix" />
            <feColorMatrix in="SourceAlpha" type="matrix" values="0 0 0 0 0 0 0 0 0 0 0 0 0 0 0 0 0 0 127 0"
                result="hardAlpha" />
            <feOffset />
            <feGaussianBlur stdDeviation="7" />
            <feColorMatrix type="matrix" values="0 0 0 0 0 0 0 0 0 0.879518 0 0 0 0 1 0 0 0 1 0" />
            <feBlend mode="normal" in2="BackgroundImageFix" result="effect1_dropShadow_20307_9439" />
            <feBlend mode="normal" in="SourceGraphic" in2="effect1_dropShadow_20307_9439" result="shape" />
        </filter>

    </defs>
</svg>