<svg width="15" height="15" viewBox="0 0 15 15" fill="none" xmlns="http://www.w3.org/2000/svg">
<g opacity="0.5">
<path d="M12.1876 9.48255L7.50007 14.125L2.81257 9.48255C2.50338 9.18168 2.25984 8.82006 2.09728 8.42045C1.93472 8.02083 1.85667 7.59189 1.86803 7.16063C1.87939 6.72937 1.97992 6.30513 2.16329 5.91463C2.34666 5.52414 2.6089 5.17583 2.9335 4.89166C3.25809 4.60749 3.63801 4.3936 4.04932 4.26347C4.46064 4.13335 4.89445 4.08979 5.32342 4.13555C5.7524 4.18131 6.16725 4.3154 6.54186 4.52937C6.91647 4.74333 7.24272 5.03255 7.50007 5.3788C7.75853 5.03506 8.08515 4.74837 8.45951 4.53668C8.83386 4.32498 9.24788 4.19283 9.67565 4.1485C10.1034 4.10417 10.5357 4.14861 10.9456 4.27904C11.3554 4.40948 11.7338 4.6231 12.0573 4.90653C12.3807 5.18996 12.6422 5.5371 12.8253 5.92623C13.0085 6.31536 13.1093 6.7381 13.1215 7.16799C13.1337 7.59788 13.0571 8.02567 12.8964 8.42458C12.7357 8.82349 12.4944 9.18494 12.1876 9.4863" stroke="#6389AA" stroke-width="1.5" stroke-linecap="round" stroke-linejoin="round"/>
<path d="M7.5 5.375L6.25 7.875L8.75 9.75L7.5 12.25V14.125" stroke="#6389AA" stroke-width="1.5" stroke-linecap="round" stroke-linejoin="round"/>
</g>
</svg>
