<svg width="13" height="13" viewBox="0 0 13 13" fill="none" xmlns="http://www.w3.org/2000/svg">
<g clip-path="url(#clip0_50329_1929)">
<path d="M2.16663 3.7915H10.8333" stroke="#FC605C" stroke-width="1.5" stroke-linecap="round" stroke-linejoin="round"/>
<path d="M5.41663 5.9585V9.2085" stroke="#FC605C" stroke-width="1.5" stroke-linecap="round" stroke-linejoin="round"/>
<path d="M7.58337 5.9585V9.2085" stroke="#FC605C" stroke-width="1.5" stroke-linecap="round" stroke-linejoin="round"/>
<path d="M2.70837 3.7915L3.25004 10.2915C3.25004 10.5788 3.36418 10.8544 3.56734 11.0575C3.77051 11.2607 4.04606 11.3748 4.33337 11.3748H8.66671C8.95403 11.3748 9.22958 11.2607 9.43274 11.0575C9.63591 10.8544 9.75004 10.5788 9.75004 10.2915L10.2917 3.7915" stroke="#FC605C" stroke-width="1.5" stroke-linecap="round" stroke-linejoin="round"/>
<path d="M4.875 3.79167V2.16667C4.875 2.02301 4.93207 1.88523 5.03365 1.78365C5.13523 1.68207 5.27301 1.625 5.41667 1.625H7.58333C7.72699 1.625 7.86477 1.68207 7.96635 1.78365C8.06793 1.88523 8.125 2.02301 8.125 2.16667V3.79167" stroke="#FC605C" stroke-width="1.5" stroke-linecap="round" stroke-linejoin="round"/>
</g>
<defs>
<clipPath id="clip0_50329_1929">
<rect width="13" height="13" fill="white"/>
</clipPath>
</defs>
</svg>
