<svg width="16" height="16" viewBox="0 0 16 16" fill="none" xmlns="http://www.w3.org/2000/svg">
    <g clip-path="url(#clip0_24516_154)">
        <path
            d="M10 5.33334C10.4989 5.7075 10.8828 6.2141 11.1081 6.79557C11.3335 7.37704 11.3912 8.01005 11.2747 8.62268M10.3567 10.3573C10.2452 10.4688 10.1261 10.5721 10 10.6667"
            stroke="#87A7C3" stroke-width="1.5" stroke-linecap="round" stroke-linejoin="round" />
        <path
            d="M11.7998 3.33334C12.8698 4.19804 13.6101 5.40415 13.8968 6.74964C14.1834 8.09513 13.999 9.49827 13.3745 10.724M12.2571 12.2567C12.1118 12.4011 11.9591 12.5379 11.7998 12.6667"
            stroke="#87A7C3" stroke-width="1.5" stroke-linecap="round" stroke-linejoin="round" />
        <path
            d="M6.046 3.36933L6.33333 2.99999C6.3916 2.88681 6.48843 2.79821 6.60633 2.75019C6.72422 2.70217 6.8554 2.6979 6.97617 2.73815C7.09693 2.77841 7.19932 2.86053 7.26482 2.96969C7.33033 3.07884 7.35463 3.20782 7.33333 3.33333V4.66666M7.33333 7.33333V12.6667C7.35463 12.7922 7.33033 12.9211 7.26482 13.0303C7.19932 13.1395 7.09693 13.2216 6.97617 13.2618C6.8554 13.3021 6.72422 13.2978 6.60633 13.2498C6.48843 13.2018 6.3916 13.1132 6.33333 13L4 9.99999H2.66667C2.48986 9.99999 2.32029 9.92975 2.19526 9.80473C2.07024 9.6797 2 9.51014 2 9.33332V6.66666C2 6.48985 2.07024 6.32028 2.19526 6.19525C2.32029 6.07023 2.48986 5.99999 2.66667 5.99999H4L4.86267 4.89066"
            stroke="#87A7C3" stroke-width="1.5" stroke-linecap="round" stroke-linejoin="round" />
        <path d="M2 2L14 14" stroke="#87A7C3" stroke-width="1.5" stroke-linecap="round"
            stroke-linejoin="round" />
    </g>
    <defs>
        <clipPath id="clip0_24516_154">
            <rect width="16" height="16" fill="white" />
        </clipPath>
    </defs>
</svg>
    