<svg width="30" height="30" viewBox="0 0 30 30" fill="none" xmlns="http://www.w3.org/2000/svg">
<path d="M15 18.75V18.7625M15 11.25V13.75V11.25Z" stroke="#FDBC40" stroke-width="2.75" stroke-linecap="round" stroke-linejoin="round"/>
<path d="M6.24902 23.7499H23.749C24.1569 23.7471 24.5579 23.6445 24.917 23.451C25.2761 23.2576 25.5825 22.9792 25.8093 22.6402C26.0361 22.3012 26.1765 21.9119 26.2183 21.5061C26.2601 21.1004 26.202 20.6906 26.049 20.3124L17.174 4.99993C16.9578 4.60918 16.6409 4.28347 16.2562 4.05666C15.8715 3.82986 15.4331 3.71024 14.9865 3.71024C14.5399 3.71024 14.1015 3.82986 13.7168 4.05666C13.3321 4.28347 13.0152 4.60918 12.799 4.99993L3.92402 20.3124C3.77394 20.6819 3.71443 21.0819 3.75045 21.4791C3.78648 21.8762 3.91698 22.259 4.13108 22.5954C4.34518 22.9319 4.63666 23.2122 4.98117 23.4131C5.32569 23.6139 5.71326 23.7294 6.11152 23.7499" stroke="#FDBC40" stroke-width="2.75" stroke-linecap="round" stroke-linejoin="round"/>
</svg>
