<svg width="12" height="15" viewBox="0 0 12 15" fill="none" xmlns="http://www.w3.org/2000/svg">
    <path
        d="M6.69475 3.63867C7.07784 3.63867 7.44523 3.79085 7.71612 4.06174C7.987 4.33262 8.13919 4.70002 8.13919 5.08311V13.7497L4.52809 11.5831L0.916992 13.7497V5.08311C0.916992 4.70002 1.06917 4.33262 1.34006 4.06174C1.61094 3.79085 1.97834 3.63867 2.36143 3.63867H6.69475Z"
        stroke="#86BCED" stroke-width="1.5" stroke-linecap="round" stroke-linejoin="round" />
    <path
        d="M3.99719 1.47222C4.12415 1.25233 4.30683 1.06978 4.52682 0.942987C4.7468 0.816192 4.99633 0.749627 5.25024 0.750002H9.58356C9.96665 0.750002 10.334 0.902183 10.6049 1.17307C10.8758 1.44395 11.028 1.81135 11.028 2.19444V10.8611L10.3058 10.4277"
        stroke="#86BCED" stroke-width="1.5" stroke-linecap="round" stroke-linejoin="round" />
</svg>
    
    
    