<svg width="13" height="13" viewBox="0 0 13 13" fill="none" xmlns="http://www.w3.org/2000/svg">
<path d="M8.81956 2.34975C7.77306 5.1155 7.77306 7.88071 8.81956 10.6465C8.84958 10.7281 8.85948 10.8158 8.84843 10.9021C8.83738 10.9884 8.80569 11.0708 8.75606 11.1423C8.70643 11.2138 8.64031 11.2722 8.5633 11.3127C8.48629 11.3532 8.40065 11.3746 8.31364 11.375H2.35531C1.98047 11.375 1.70097 11.0002 1.83422 10.6492C2.88072 7.88288 2.88072 5.11658 1.83422 2.35029C1.70097 1.99929 1.96585 1.625 2.34068 1.625H8.31418C8.68956 1.625 8.95335 1.99929 8.82064 2.34975H8.81956Z" stroke="#87A7C3" stroke-width="1.5" stroke-linecap="round" stroke-linejoin="round"/>
</svg>
