<svg width="440" height="96" viewBox="0 0 440 96" fill="none" xmlns="http://www.w3.org/2000/svg">
<rect width="440" height="102" rx="10" fill="#00141F"/>
<rect x="0.5" y="0.5" width="439" height="101" rx="9.5" stroke="white" stroke-opacity="0.07"/>
<path d="M26.87 30C26.97 30 27.02 29.95 27.02 29.85V27.84C27.02 26.9 26.98 25.68 26.94 24.7L26.97 24.69C27.21 25.21 27.54 25.88 27.87 26.54L28.75 28.25C28.78 28.32 28.84 28.36 28.92 28.36H29.68C29.76 28.36 29.82 28.32 29.85 28.25L30.73 26.54C31.06 25.88 31.39 25.21 31.63 24.69L31.66 24.7C31.62 25.68 31.58 26.9 31.58 27.84V29.85C31.58 29.95 31.63 30 31.72 30H32.63C32.73 30 32.78 29.95 32.78 29.85V23C32.78 22.9 32.73 22.85 32.63 22.85H31.55C31.48 22.85 31.42 22.88 31.38 22.96L30.17 25.23C29.9 25.73 29.48 26.63 29.32 26.99H29.28C29.12 26.63 28.7 25.73 28.43 25.23L27.21 22.96C27.18 22.88 27.12 22.85 27.05 22.85H25.96C25.87 22.85 25.82 22.9 25.82 23V29.85C25.82 29.95 25.87 30 25.96 30H26.87ZM37.5235 30C37.6235 30 37.6735 29.95 37.6735 29.85V27.38L39.9635 23.03C40.0135 22.93 39.9735 22.85 39.8635 22.85H38.8135C38.7435 22.85 38.6735 22.88 38.6435 22.96L37.0635 26.25L35.4735 22.96C35.4435 22.88 35.3835 22.85 35.3135 22.85H34.2635C34.1435 22.85 34.1035 22.93 34.1535 23.03L36.4535 27.36V29.85C36.4535 29.95 36.5135 30 36.6035 30H37.5235ZM43.793 30C43.873 30 43.933 29.96 43.963 29.88L44.453 28.37H47.193L47.683 29.88C47.703 29.96 47.773 30 47.853 30H48.833C48.933 30 48.983 29.94 48.953 29.83L46.553 22.97C46.523 22.89 46.473 22.85 46.393 22.85H45.253C45.173 22.85 45.123 22.89 45.093 22.97L42.693 29.83C42.663 29.94 42.703 30 42.813 30H43.793ZM45.803 24.17H45.843L46.853 27.28H44.793L45.803 24.17ZM55.1014 29.39C55.1714 29.33 55.1714 29.26 55.1214 29.18L54.6514 28.5C54.6014 28.41 54.5314 28.4 54.4514 28.46C53.9814 28.8 53.3614 28.98 52.7914 28.98C51.8214 28.98 51.2514 28.45 51.2514 27.54V25.3C51.2514 24.41 51.8114 23.87 52.7814 23.87C53.2814 23.87 53.8214 24.01 54.2714 24.32C54.3614 24.37 54.4314 24.37 54.4814 24.28L54.9514 23.6C55.0014 23.52 54.9914 23.45 54.9214 23.4C54.3214 22.98 53.5514 22.73 52.7814 22.73C51.3214 22.73 50.0414 23.53 50.0414 25.29V27.57C50.0414 29.33 51.3114 30.12 52.8014 30.12C53.6314 30.12 54.4714 29.88 55.1014 29.39ZM56.1391 22.85C56.0491 22.85 55.9891 22.9 55.9891 23V23.82C55.9891 23.91 56.0491 23.96 56.1391 23.96H58.1591V29.85C58.1591 29.95 58.2091 30 58.2991 30H59.2191C59.3091 30 59.3591 29.95 59.3591 29.85V23.96H61.3691C61.4591 23.96 61.5191 23.91 61.5191 23.82V23C61.5191 22.9 61.4591 22.85 61.3691 22.85H56.1391ZM64.1606 23C64.1606 22.9 64.1106 22.85 64.0206 22.85H63.1006C63.0106 22.85 62.9606 22.9 62.9606 23V29.85C62.9606 29.95 63.0106 30 63.1006 30H64.0206C64.1106 30 64.1606 29.95 64.1606 29.85V23ZM69.3424 30C69.4224 30 69.4724 29.96 69.5024 29.88L71.9224 23.02C71.9624 22.91 71.9124 22.85 71.8124 22.85H70.8124C70.7324 22.85 70.6624 22.89 70.6424 22.97L69.3424 26.84C69.1424 27.45 68.9524 28.07 68.7524 28.66H68.7124C68.5324 28.08 68.3324 27.43 68.1324 26.84L66.8224 22.97C66.8024 22.89 66.7424 22.85 66.6624 22.85H65.6624C65.5524 22.85 65.5124 22.91 65.5424 23.02L67.9624 29.88C68.0024 29.96 68.0524 30 68.1324 30H69.3424ZM74.5163 26.92H77.3263C77.4263 26.92 77.4763 26.87 77.4763 26.77V25.97C77.4763 25.87 77.4263 25.82 77.3263 25.82H74.5163V23.95H77.5863C77.6863 23.95 77.7363 23.9 77.7363 23.81V23C77.7363 22.9 77.6863 22.85 77.5863 22.85H73.4463C73.3563 22.85 73.3063 22.9 73.3063 23V29.85C73.3063 29.95 73.3563 30 73.4463 30H77.7263C77.8263 30 77.8763 29.95 77.8763 29.85V29.04C77.8763 28.95 77.8263 28.9 77.7263 28.9H74.5163V26.92ZM87.2039 24.81C87.2039 23.57 86.4139 22.85 85.0639 22.85H82.4639C82.3739 22.85 82.3239 22.9 82.3239 23V29.85C82.3239 29.95 82.3739 30 82.4639 30H85.0639C86.6039 30 87.5139 29.2 87.5139 27.86C87.5139 27.1 87.1639 26.5 86.4939 26.21C86.9439 25.94 87.2039 25.43 87.2039 24.81ZM83.5239 28.92V26.79H85.0439C85.9039 26.79 86.2839 27.22 86.2839 27.85C86.2839 28.62 85.7739 28.92 85.0539 28.92H83.5239ZM85.9839 24.83C85.9839 25.46 85.5839 25.74 85.0239 25.74H83.5239V23.93H85.0239C85.5739 23.93 85.9839 24.22 85.9839 24.83ZM90.4792 26.92H93.2892C93.3892 26.92 93.4392 26.87 93.4392 26.77V25.97C93.4392 25.87 93.3892 25.82 93.2892 25.82H90.4792V23.95H93.5492C93.6492 23.95 93.6992 23.9 93.6992 23.81V23C93.6992 22.9 93.6492 22.85 93.5492 22.85H89.4092C89.3192 22.85 89.2692 22.9 89.2692 23V29.85C89.2692 29.95 89.3192 30 89.4092 30H93.6892C93.7892 30 93.8392 29.95 93.8392 29.85V29.04C93.8392 28.95 93.7892 28.9 93.6892 28.9H90.4792V26.92ZM96.6786 30C96.7686 30 96.8186 29.95 96.8186 29.85V27.56C96.8186 26.71 96.7786 25.67 96.7286 24.81L96.7586 24.8C97.0386 25.39 97.4586 26.17 97.8286 26.77L99.7186 29.9C99.7586 29.97 99.8186 30 99.8886 30H100.899C100.999 30 101.049 29.95 101.049 29.85V23C101.049 22.9 100.999 22.85 100.899 22.85H99.9986C99.8986 22.85 99.8486 22.9 99.8486 23V25.44C99.8486 26.28 99.8786 27.3 99.9386 28.15L99.9086 28.16C99.6286 27.62 99.2486 26.95 98.9086 26.35L96.9586 22.95C96.9186 22.89 96.8586 22.85 96.7786 22.85H95.7686C95.6786 22.85 95.6286 22.9 95.6286 23V29.85C95.6286 29.95 95.6786 30 95.7686 30H96.6786ZM104.399 26.92H107.209C107.309 26.92 107.359 26.87 107.359 26.77V25.97C107.359 25.87 107.309 25.82 107.209 25.82H104.399V23.95H107.469C107.569 23.95 107.619 23.9 107.619 23.81V23C107.619 22.9 107.569 22.85 107.469 22.85H103.329C103.239 22.85 103.189 22.9 103.189 23V29.85C103.189 29.95 103.239 30 103.329 30H107.609C107.709 30 107.759 29.95 107.759 29.85V29.04C107.759 28.95 107.709 28.9 107.609 28.9H104.399V26.92ZM114.089 23C114.089 22.9 114.039 22.85 113.939 22.85H109.689C109.599 22.85 109.549 22.9 109.549 23V29.85C109.549 29.95 109.599 30 109.689 30H110.609C110.699 30 110.749 29.95 110.749 29.85V27.14H113.519C113.609 27.14 113.659 27.09 113.659 26.99V26.19C113.659 26.09 113.609 26.04 113.519 26.04H110.749V23.96H113.939C114.039 23.96 114.089 23.91 114.089 23.82V23ZM116.903 23C116.903 22.9 116.853 22.85 116.763 22.85H115.843C115.753 22.85 115.703 22.9 115.703 23V29.85C115.703 29.95 115.753 30 115.843 30H116.763C116.853 30 116.903 29.95 116.903 29.85V23ZM118.495 22.85C118.405 22.85 118.345 22.9 118.345 23V23.82C118.345 23.91 118.405 23.96 118.495 23.96H120.515V29.85C120.515 29.95 120.565 30 120.655 30H121.575C121.665 30 121.715 29.95 121.715 29.85V23.96H123.725C123.815 23.96 123.875 23.91 123.875 23.82V23C123.875 22.9 123.815 22.85 123.725 22.85H118.495ZM130.237 27.97C130.237 26.39 128.857 26.01 127.687 25.75C126.807 25.55 126.167 25.38 126.167 24.74C126.167 24.2 126.667 23.86 127.527 23.86C128.137 23.88 128.727 24.06 129.317 24.44C129.397 24.49 129.477 24.49 129.527 24.41L130.007 23.72C130.057 23.65 130.047 23.57 129.967 23.52C129.157 22.97 128.477 22.73 127.617 22.73C126.177 22.73 124.947 23.33 124.947 24.72C124.947 26.21 126.327 26.69 127.377 26.91C128.247 27.09 128.997 27.27 128.997 27.99C128.997 28.67 128.277 28.98 127.547 28.98C126.867 28.96 126.267 28.69 125.617 28.22C125.537 28.17 125.467 28.18 125.417 28.25L124.917 28.95C124.867 29.03 124.877 29.09 124.947 29.16C125.757 29.8 126.497 30.12 127.497 30.12C128.957 30.12 130.237 29.47 130.237 27.97Z" fill="#A1C5E4"/>
<rect x="139.5" y="18.5" width="28" height="15" rx="3.5" stroke="url(#paint0_linear_20307_9439)"/>
<defs>
<linearGradient id="paint0_linear_20307_9439" x1="153.5" y1="18" x2="153.5" y2="34" gradientUnits="userSpaceOnUse">
<stop stop-color="#13D5FF"/>
<stop offset="1" stop-color="#0085FF"/>
</linearGradient>
</defs>
</svg>
