<svg width="80px" height="80px" viewBox="0 0 80 80" fill="none" xmlns="http://www.w3.org/2000/svg">
<g filter="url(#filter0_d_28381_1289)">
<mask id="path-1-inside-1_28381_1289" fill="white">
<path fill-rule="evenodd" clip-rule="evenodd" d="M59.8643 22.4582C59.8643 22.4577 59.8643 22.4589 59.8643 22.4584C59.8643 22.4579 59.8643 22.4574 59.8643 22.457C59.8643 22.4564 59.8643 22.4558 59.8643 22.4546C59.8643 21.9808 59.8645 21.5069 59.8616 21.033C59.8592 20.6329 59.8547 20.233 59.8439 19.8331C59.8207 18.9616 59.7698 18.0826 59.6164 17.2208C59.4609 16.3466 59.2069 15.533 58.8067 14.7387C58.4132 13.9579 57.8993 13.2435 57.286 12.6242C56.6729 12.0048 55.9659 11.4857 55.1931 11.0882C54.4064 10.6836 53.6005 10.427 52.7345 10.2699C51.8818 10.1151 51.0118 10.0638 50.1495 10.0403C49.7536 10.0295 49.3577 10.0249 48.9617 10.0224C48.4916 10.0195 48.0215 10.0198 47.5514 10.0198L42.0928 10H38.0103L32.6483 10.0198C32.1773 10.0198 31.7062 10.0195 31.2352 10.0224C30.8384 10.0249 30.4417 10.0295 30.0451 10.0403C29.1808 10.0638 28.3089 10.1152 27.4541 10.2701C26.587 10.4272 25.7799 10.6837 24.9921 11.0881C24.2177 11.4855 23.5091 12.0047 22.8947 12.6242C22.2804 13.2435 21.7655 13.9578 21.3713 14.7383C20.97 15.533 20.7155 16.3472 20.5596 17.2219C20.4061 18.0833 20.3552 18.962 20.3318 19.8331C20.3212 20.233 20.3166 20.633 20.3142 21.033C20.3113 21.5079 20.2871 22.0979 20.2871 22.5728L20.2873 27.9169L20.2871 32.0873L20.3115 37.545C20.3115 38.0205 20.3113 38.4961 20.3142 38.9716C20.3166 39.3722 20.3212 39.7727 20.3319 40.1731C20.3552 41.0457 20.4062 41.926 20.5598 42.7889C20.7157 43.6643 20.9701 44.4791 21.3711 45.2744C21.7653 46.0563 22.2804 46.7716 22.8947 47.3919C23.5091 48.0121 24.2175 48.5319 24.9917 48.9299C25.78 49.335 26.5875 49.592 27.4551 49.7493C28.3095 49.9043 29.1811 49.9557 30.0451 49.9793C30.4417 49.9901 30.8384 49.9947 31.2353 49.9971C31.7063 50 32.1773 49.9999 32.6483 49.9999L38.0587 50H42.1514L47.5514 49.9998C48.0215 49.9998 48.4916 50 48.9617 49.9971C49.3577 49.9947 49.7536 49.9901 50.1495 49.9793C51.0122 49.9557 51.8824 49.9042 52.7355 49.7491C53.6009 49.5918 54.4065 49.335 55.1928 48.9301C55.9657 48.5321 56.6729 48.0122 57.286 47.3919C57.8992 46.7717 58.4131 46.0565 58.8066 45.2748C59.207 44.479 59.461 43.6639 59.6166 42.7879C59.7698 41.9253 59.8207 41.0454 59.844 40.1731C59.8547 39.7726 59.8592 39.3721 59.8616 38.9716C59.8645 38.4971 59.8643 38.0225 59.8643 37.548C59.8643 37.5468 59.8643 37.5462 59.8643 37.5457C59.8643 37.5452 59.8643 37.5447 59.8643 37.5442C59.8643 37.5437 59.8643 37.5449 59.8643 37.5444C59.8643 37.4799 59.864 32.1831 59.864 32.0873V27.9126C59.864 27.8418 59.8643 22.5224 59.8643 22.4582Z"/>
</mask>
<path fill-rule="evenodd" clip-rule="evenodd" d="M59.8643 22.4582C59.8643 22.4577 59.8643 22.4589 59.8643 22.4584C59.8643 22.4579 59.8643 22.4574 59.8643 22.457C59.8643 22.4564 59.8643 22.4558 59.8643 22.4546C59.8643 21.9808 59.8645 21.5069 59.8616 21.033C59.8592 20.6329 59.8547 20.233 59.8439 19.8331C59.8207 18.9616 59.7698 18.0826 59.6164 17.2208C59.4609 16.3466 59.2069 15.533 58.8067 14.7387C58.4132 13.9579 57.8993 13.2435 57.286 12.6242C56.6729 12.0048 55.9659 11.4857 55.1931 11.0882C54.4064 10.6836 53.6005 10.427 52.7345 10.2699C51.8818 10.1151 51.0118 10.0638 50.1495 10.0403C49.7536 10.0295 49.3577 10.0249 48.9617 10.0224C48.4916 10.0195 48.0215 10.0198 47.5514 10.0198L42.0928 10H38.0103L32.6483 10.0198C32.1773 10.0198 31.7062 10.0195 31.2352 10.0224C30.8384 10.0249 30.4417 10.0295 30.0451 10.0403C29.1808 10.0638 28.3089 10.1152 27.4541 10.2701C26.587 10.4272 25.7799 10.6837 24.9921 11.0881C24.2177 11.4855 23.5091 12.0047 22.8947 12.6242C22.2804 13.2435 21.7655 13.9578 21.3713 14.7383C20.97 15.533 20.7155 16.3472 20.5596 17.2219C20.4061 18.0833 20.3552 18.962 20.3318 19.8331C20.3212 20.233 20.3166 20.633 20.3142 21.033C20.3113 21.5079 20.2871 22.0979 20.2871 22.5728L20.2873 27.9169L20.2871 32.0873L20.3115 37.545C20.3115 38.0205 20.3113 38.4961 20.3142 38.9716C20.3166 39.3722 20.3212 39.7727 20.3319 40.1731C20.3552 41.0457 20.4062 41.926 20.5598 42.7889C20.7157 43.6643 20.9701 44.4791 21.3711 45.2744C21.7653 46.0563 22.2804 46.7716 22.8947 47.3919C23.5091 48.0121 24.2175 48.5319 24.9917 48.9299C25.78 49.335 26.5875 49.592 27.4551 49.7493C28.3095 49.9043 29.1811 49.9557 30.0451 49.9793C30.4417 49.9901 30.8384 49.9947 31.2353 49.9971C31.7063 50 32.1773 49.9999 32.6483 49.9999L38.0587 50H42.1514L47.5514 49.9998C48.0215 49.9998 48.4916 50 48.9617 49.9971C49.3577 49.9947 49.7536 49.9901 50.1495 49.9793C51.0122 49.9557 51.8824 49.9042 52.7355 49.7491C53.6009 49.5918 54.4065 49.335 55.1928 48.9301C55.9657 48.5321 56.6729 48.0122 57.286 47.3919C57.8992 46.7717 58.4131 46.0565 58.8066 45.2748C59.207 44.479 59.461 43.6639 59.6166 42.7879C59.7698 41.9253 59.8207 41.0454 59.844 40.1731C59.8547 39.7726 59.8592 39.3721 59.8616 38.9716C59.8645 38.4971 59.8643 38.0225 59.8643 37.548C59.8643 37.5468 59.8643 37.5462 59.8643 37.5457C59.8643 37.5452 59.8643 37.5447 59.8643 37.5442C59.8643 37.5437 59.8643 37.5449 59.8643 37.5444C59.8643 37.4799 59.864 32.1831 59.864 32.0873V27.9126C59.864 27.8418 59.8643 22.5224 59.8643 22.4582Z" fill="url(#paint0_linear_28381_1289)"/>
<path d="M59.8616 21.033L57.8616 21.0447V21.0451L59.8616 21.033ZM59.8439 19.8331L57.8446 19.8864L57.8446 19.8869L59.8439 19.8331ZM59.6164 17.2208L57.6474 17.5711L57.6474 17.5713L59.6164 17.2208ZM58.8067 14.7387L60.5928 13.8387L60.5927 13.8386L58.8067 14.7387ZM57.286 12.6242L55.8646 14.0312L55.8648 14.0313L57.286 12.6242ZM55.1931 11.0882L56.1078 9.30968L56.1078 9.30968L55.1931 11.0882ZM52.7345 10.2699L52.3774 12.2378L52.3774 12.2378L52.7345 10.2699ZM50.1495 10.0403L50.0949 12.0395L50.095 12.0395L50.1495 10.0403ZM48.9617 10.0224L48.9742 8.02247L48.9741 8.02247L48.9617 10.0224ZM47.5514 10.0198L47.5441 12.0198H47.5514V10.0198ZM42.0928 10L42.1001 8H42.0928V10ZM38.0103 10V7.99999L38.0029 8.00001L38.0103 10ZM32.6483 10.0198V12.0198L32.6557 12.0197L32.6483 10.0198ZM31.2352 10.0224L31.2228 8.02247L31.2227 8.02247L31.2352 10.0224ZM30.0451 10.0403L30.0995 12.0395L30.0996 12.0395L30.0451 10.0403ZM27.4541 10.2701L27.8106 12.2381L27.8108 12.2381L27.4541 10.2701ZM24.9921 11.0881L24.0789 9.30872L24.0788 9.30875L24.9921 11.0881ZM22.8947 12.6242L24.3147 14.0326L24.3147 14.0326L22.8947 12.6242ZM21.3713 14.7383L23.1566 15.6399L23.1566 15.6399L21.3713 14.7383ZM20.5596 17.2219L18.5906 16.8709L18.5906 16.871L20.5596 17.2219ZM20.3318 19.8331L18.3325 19.7794L18.3325 19.7798L20.3318 19.8331ZM20.3142 21.033L22.3141 21.0451L22.3141 21.045L20.3142 21.033ZM20.2871 22.5728H18.2871V22.5728L20.2871 22.5728ZM20.2873 27.9169L22.2873 27.917V27.9169L20.2873 27.9169ZM20.2871 32.0873L18.2871 32.0872L18.2871 32.0962L20.2871 32.0873ZM20.3115 37.545H22.3115L22.3115 37.5361L20.3115 37.545ZM20.3142 38.9716L18.3142 38.9835L18.3142 38.9836L20.3142 38.9716ZM20.3319 40.1731L18.3326 40.2266L18.3326 40.2266L20.3319 40.1731ZM20.5598 42.7889L22.5289 42.4383L22.5289 42.4383L20.5598 42.7889ZM21.3711 45.2744L19.5853 46.1748L19.5853 46.1749L21.3711 45.2744ZM24.9917 48.9299L24.0773 50.7086L24.0775 50.7087L24.9917 48.9299ZM27.4551 49.7493L27.8121 47.7814L27.8119 47.7814L27.4551 49.7493ZM30.0451 49.9793L30.0996 47.98H30.0995L30.0451 49.9793ZM31.2353 49.9971L31.2476 47.9972H31.2475L31.2353 49.9971ZM32.6483 49.9999L32.6484 47.9999H32.6483V49.9999ZM38.0587 50L38.0587 52H38.0587V50ZM42.1514 50V52H42.1515L42.1514 50ZM47.5514 49.9998V47.9998H47.5513L47.5514 49.9998ZM48.9617 49.9971L48.9495 47.9972H48.9493L48.9617 49.9971ZM50.1495 49.9793L50.2042 51.9785H50.2042L50.1495 49.9793ZM52.7355 49.7491L53.0933 51.7169L53.0933 51.7169L52.7355 49.7491ZM55.1928 48.9301L54.2772 47.1519L54.2771 47.152L55.1928 48.9301ZM57.286 47.3919L55.8638 45.9857L55.8636 45.9859L57.286 47.3919ZM58.8066 45.2748L60.593 46.174L60.5931 46.1739L58.8066 45.2748ZM59.6166 42.7879L61.5858 43.1377L61.5858 43.1376L59.6166 42.7879ZM59.844 40.1731L57.8447 40.1196V40.1197L59.844 40.1731ZM59.8616 38.9716L57.8616 38.9593L57.8616 38.9598L59.8616 38.9716ZM59.8643 37.548L61.8643 37.548L59.8643 37.548ZM59.8643 37.5457L57.8643 37.5457L59.8643 37.5457ZM59.8643 37.5444L61.8643 37.5443L59.8643 37.5444ZM59.8643 37.5442L57.8643 37.5443L59.8643 37.5442ZM59.8643 22.4546L61.8643 22.4546L59.8643 22.4546ZM59.8643 22.457L57.8643 22.4569L59.8643 22.457ZM59.8643 22.4582L57.8643 22.4581L59.8643 22.4582ZM59.8643 22.4584L61.8643 22.4585V22.4585L59.8643 22.4584ZM61.8643 22.4546C61.8643 21.9826 61.8645 21.5021 61.8615 21.0208L57.8616 21.0451C57.8645 21.5117 57.8643 21.979 57.8643 22.4546L61.8643 22.4546ZM61.8616 21.0212C61.8592 20.6146 61.8545 20.199 61.8432 19.7793L57.8446 19.8869C57.8549 20.2669 57.8593 20.6513 57.8616 21.0447L61.8616 21.0212ZM61.8432 19.7798C61.8191 18.8755 61.7651 17.8795 61.5855 16.8704L57.6474 17.5713C57.7745 18.2858 57.8223 19.0477 57.8446 19.8864L61.8432 19.7798ZM61.5855 16.8706C61.4005 15.8304 61.0912 14.8279 60.5928 13.8387L57.0206 15.6386C57.3227 16.2381 57.5214 16.8629 57.6474 17.5711L61.5855 16.8706ZM60.5927 13.8386C60.1051 12.871 59.4681 11.9854 58.7072 11.217L55.8648 14.0313C56.3304 14.5016 56.7214 15.0449 57.0207 15.6388L60.5927 13.8386ZM58.7074 11.2172C57.9468 10.4488 57.0689 9.80399 56.1078 9.30968L54.2784 12.8668C54.8628 13.1674 55.399 13.5608 55.8646 14.0312L58.7074 11.2172ZM56.1078 9.30968C55.1243 8.80386 54.1267 8.48987 53.0916 8.30204L52.3774 12.2378C53.0742 12.3642 53.6885 12.5634 54.2784 12.8668L56.1078 9.30968ZM53.0916 8.30204C52.0889 8.12007 51.0997 8.06549 50.2041 8.04104L50.095 12.0395C50.924 12.0622 51.6746 12.1102 52.3774 12.2378L53.0916 8.30204ZM50.2042 8.04104C49.7881 8.02966 49.3764 8.02498 48.9742 8.02247L48.9492 12.0224C49.3391 12.0248 49.7192 12.0293 50.0949 12.0395L50.2042 8.04104ZM48.9741 8.02247C48.4964 8.01951 48.0194 8.01976 47.5514 8.01976V12.0198C48.0236 12.0198 48.4867 12.0195 48.9493 12.0224L48.9741 8.02247ZM47.5586 8.01977L42.1001 8.00001L42.0856 12L47.5441 12.0197L47.5586 8.01977ZM42.0928 8H38.0103V12H42.0928V8ZM38.0029 8.00001L32.6409 8.01977L32.6557 12.0197L38.0176 12L38.0029 8.00001ZM32.6483 8.01976C32.1794 8.01976 31.7014 8.01951 31.2228 8.02247L31.2476 12.0224C31.7111 12.0195 32.1752 12.0198 32.6483 12.0198V8.01976ZM31.2227 8.02247C30.8198 8.02498 30.4073 8.02966 29.9905 8.04104L30.0996 12.0395C30.4762 12.0293 30.857 12.0248 31.2477 12.0224L31.2227 8.02247ZM29.9906 8.04103C29.0931 8.06548 28.102 8.12011 27.0973 8.30222L27.8108 12.2381C28.5158 12.1103 29.2685 12.0622 30.0995 12.0395L29.9906 8.04103ZM27.0975 8.30218C26.0617 8.48984 25.0632 8.80352 24.0789 9.30872L25.9053 12.8674C26.4965 12.564 27.1123 12.3646 27.8106 12.2381L27.0975 8.30218ZM24.0788 9.30875C23.1163 9.80281 22.2368 10.4474 21.4747 11.2158L24.3147 14.0326C24.7814 13.562 25.3192 13.1682 25.9054 12.8674L24.0788 9.30875ZM21.4748 11.2157C20.7128 11.9839 20.0746 12.8692 19.586 13.8368L23.1566 15.6399C23.4563 15.0463 23.848 14.5031 24.3147 14.0326L21.4748 11.2157ZM19.586 13.8367C19.0861 14.8268 18.7761 15.8302 18.5906 16.8709L22.5286 17.5728C22.6549 16.8641 22.8539 16.2393 23.1566 15.6399L19.586 13.8367ZM18.5906 16.871C18.4108 17.8799 18.3568 18.8758 18.3325 19.7794L22.3311 19.8868C22.3536 19.0482 22.4013 18.2867 22.5286 17.5727L18.5906 16.871ZM18.3325 19.7798C18.3214 20.1991 18.3166 20.6143 18.3142 21.021L22.3141 21.045C22.3165 20.6516 22.321 20.2669 22.3311 19.8864L18.3325 19.7798ZM18.3142 21.0208C18.3129 21.2361 18.3067 21.4812 18.3001 21.7548C18.2938 22.0178 18.2871 22.3075 18.2871 22.5728H22.2871C22.2871 22.3631 22.2925 22.1204 22.299 21.851C22.3052 21.5922 22.3125 21.3048 22.3141 21.0451L18.3142 21.0208ZM18.2871 22.5728L18.2873 27.917L22.2873 27.9169L22.2871 22.5727L18.2871 22.5728ZM18.2873 27.9169L18.2871 32.0872L22.2871 32.0874L22.2873 27.917L18.2873 27.9169ZM18.2871 32.0962L18.3115 37.5539L22.3115 37.5361L22.2871 32.0784L18.2871 32.0962ZM18.3115 37.545C18.3115 38.0187 18.3113 38.5008 18.3142 38.9835L22.3141 38.9597C22.3113 38.4913 22.3115 38.0223 22.3115 37.545H18.3115ZM18.3142 38.9836C18.3166 39.3908 18.3214 39.8066 18.3326 40.2266L22.3312 40.1196C22.321 39.7387 22.3165 39.3536 22.3141 38.9596L18.3142 38.9836ZM18.3326 40.2266C18.3568 41.1319 18.4109 42.1292 18.5908 43.1395L22.5289 42.4383C22.4014 41.7227 22.3536 40.9596 22.3312 40.1196L18.3326 40.2266ZM18.5908 43.1395C18.7762 44.1807 19.0859 45.1845 19.5853 46.1748L23.157 44.374C22.8543 43.7737 22.6552 43.1479 22.5289 42.4383L18.5908 43.1395ZM19.5853 46.1749C20.0738 47.1437 20.7119 48.0302 21.4738 48.7993L24.3157 45.9844C23.8488 45.5131 23.4569 44.9688 23.1569 44.374L19.5853 46.1749ZM21.4738 48.7993C22.2357 49.5685 23.1148 50.2139 24.0773 50.7086L25.9061 47.1512C25.3201 46.8499 24.7825 46.4557 24.3157 45.9844L21.4738 48.7993ZM24.0775 50.7087C25.0625 51.215 26.0616 51.5292 27.0982 51.7172L27.8119 47.7814C27.1134 47.6547 26.4975 47.4551 25.906 47.1511L24.0775 50.7087ZM27.0981 51.7172C28.1024 51.8994 29.0933 51.9541 29.9906 51.9785L30.0995 47.98C29.2689 47.9574 28.5166 47.9092 27.8121 47.7814L27.0981 51.7172ZM29.9905 51.9785C30.4072 51.9899 30.8197 51.9946 31.223 51.9971L31.2475 47.9972C30.8572 47.9948 30.4762 47.9903 30.0996 47.98L29.9905 51.9785ZM31.2229 51.9971C31.7014 52.0001 32.1791 51.9999 32.6483 51.9999V47.9999C32.1754 47.9999 31.7112 48 31.2476 47.9972L31.2229 51.9971ZM32.6482 51.9999L38.0587 52L38.0588 48L32.6484 47.9999L32.6482 51.9999ZM38.0587 52H42.1514V48H38.0587V52ZM42.1515 52L47.5514 51.9998L47.5513 47.9998L42.1513 48L42.1515 52ZM47.5514 51.9998C48.0194 51.9998 48.4964 52.0001 48.9741 51.9971L48.9493 47.9972C48.4867 48 48.0236 47.9998 47.5514 47.9998V51.9998ZM48.974 51.9971C49.3765 51.9946 49.7882 51.9899 50.2042 51.9785L50.0949 47.98C49.7191 47.9903 49.3389 47.9948 48.9495 47.9972L48.974 51.9971ZM50.2042 51.9785C51.1002 51.954 52.0899 51.8993 53.0933 51.7169L52.3778 47.7814C51.6748 47.9092 50.9241 47.9573 50.0949 47.98L50.2042 51.9785ZM53.0933 51.7169C54.128 51.5288 55.1252 51.2144 56.1084 50.7082L54.2771 47.152C53.6877 47.4555 53.0739 47.6548 52.3778 47.7814L53.0933 51.7169ZM56.1083 50.7082C57.0698 50.2132 57.9478 49.5673 58.7084 48.7978L55.8636 45.9859C55.3979 46.457 54.8616 46.851 54.2772 47.1519L56.1083 50.7082ZM58.7082 48.798C59.4688 48.0288 60.1056 47.1424 60.593 46.174L57.0201 44.3756C56.7206 44.9705 56.3295 45.5146 55.8638 45.9857L58.7082 48.798ZM60.5931 46.1739C61.0917 45.1832 61.4008 44.1792 61.5858 43.1377L57.6475 42.4381C57.5212 43.1485 57.3224 43.7749 57.0201 44.3757L60.5931 46.1739ZM61.5858 43.1376C61.7651 42.1281 61.8191 41.1313 61.8432 40.2265L57.8447 40.1197C57.8222 40.9594 57.7746 41.7225 57.6474 42.4381L61.5858 43.1376ZM61.8432 40.2266C61.8545 39.8064 61.8592 39.3905 61.8616 38.9833L57.8616 38.9598C57.8593 39.3538 57.8549 39.7388 57.8447 40.1196L61.8432 40.2266ZM61.8615 38.9839C61.8645 38.5019 61.8643 38.0205 61.8643 37.548L57.8643 37.548C57.8643 38.0246 57.8645 38.4922 57.8616 38.9593L61.8615 38.9839ZM61.8643 37.5443C61.8643 37.4797 61.864 32.183 61.864 32.0873H57.864C57.864 32.1831 57.8643 37.4801 57.8643 37.5445L61.8643 37.5443ZM61.864 32.0873V27.9126H57.864V32.0873H61.864ZM61.864 27.9126C61.864 27.8419 61.8643 22.5226 61.8643 22.4583L57.8643 22.4581C57.8643 22.5223 57.864 27.8417 57.864 27.9126H61.864ZM61.8643 37.548C61.8643 37.5468 61.8643 37.5462 61.8643 37.5456L57.8643 37.5457C57.8643 37.5462 57.8643 37.5468 57.8643 37.548L61.8643 37.548ZM57.8643 37.5445C57.8643 37.5446 57.8643 37.5446 57.8643 37.5446C57.8643 37.5446 57.8643 37.5446 57.8643 37.5446C57.8643 37.5446 57.8643 37.5446 57.8643 37.5446C57.8643 37.5446 57.8643 37.5446 57.8643 37.5446C57.8643 37.5446 57.8643 37.5446 57.8643 37.5446C57.8643 37.5446 57.8643 37.5445 57.8643 37.5445C57.8643 37.5444 59.8641 35.5445 61.8643 37.5439C61.8643 37.544 61.8643 37.5443 61.8643 37.5443C61.8643 37.5443 61.8643 37.5443 61.8643 37.5444C61.8643 37.5444 61.8643 37.5444 61.8643 37.5444C61.8643 37.5444 61.8643 37.5444 61.8643 37.5444C61.8643 37.5444 61.8643 37.5444 61.8643 37.5444C61.8643 37.5444 61.8643 37.5443 61.8643 37.5442C61.8643 37.5441 61.8643 37.544 61.8643 37.5439C61.8643 37.5439 61.8643 37.5439 61.8643 37.5438C61.8643 37.5438 61.8643 37.5437 61.8643 37.5436C61.8643 37.5436 61.8643 37.5434 61.8643 37.5431C61.8643 37.5431 61.8643 37.5429 61.8643 37.5427C61.8643 37.5425 61.8643 37.542 61.8643 37.5416C61.8643 37.5406 61.8642 37.5241 61.864 37.5087C59.8495 35.5441 57.8643 37.5398 57.8643 37.5414C57.8643 37.5419 57.8643 37.5426 57.8643 37.5429C57.8643 37.543 57.8643 37.5432 57.8643 37.5433C57.8643 37.5435 57.8643 37.5436 57.8643 37.5437C57.8643 37.5438 57.8643 37.5439 57.8643 37.5439C57.8643 37.544 57.8643 37.544 57.8643 37.544C57.8643 37.5441 57.8643 37.5441 57.8643 37.5441C57.8643 37.5442 57.8643 37.5442 57.8643 37.5443L61.8643 37.5441C61.8643 37.5441 61.8643 37.5441 61.8643 37.5441C61.8643 37.5441 61.8643 37.5441 61.8643 37.5441C61.8643 37.5441 61.8643 37.5442 61.8643 37.5443C61.8643 37.5443 61.8643 37.5444 61.8643 37.5445C61.8643 37.5445 61.8643 37.5447 61.8643 37.5448C61.8643 37.5449 61.8643 37.5452 61.8643 37.5453C61.8643 37.5455 61.8643 37.5462 61.8643 37.5467C61.8643 37.5483 59.879 39.544 57.8646 37.5795C57.8644 37.5641 57.8643 37.5476 57.8643 37.5466C57.8643 37.5462 57.8643 37.5456 57.8643 37.5454C57.8643 37.5453 57.8643 37.5451 57.8643 37.545C57.8643 37.5448 57.8643 37.5445 57.8643 37.5445C57.8643 37.5444 57.8643 37.5444 57.8643 37.5443C57.8643 37.5443 57.8643 37.5443 57.8643 37.5443C57.8643 37.5443 57.8643 37.5443 57.8643 37.5444C57.8643 37.5445 57.8643 37.5446 57.8643 37.5446C57.8643 37.5446 57.8643 37.5446 57.8643 37.5446C57.8643 37.5446 57.8643 37.5447 57.8643 37.5447C57.8643 37.5447 57.8643 37.5447 57.8643 37.5447C57.8643 37.5447 57.8643 37.5447 57.8643 37.5447C57.8643 37.5448 57.8643 37.545 57.8643 37.5452C59.8645 39.5445 61.8643 37.5447 61.8643 37.5446C61.8643 37.5445 61.8643 37.5445 61.8643 37.5445C61.8643 37.5445 61.8643 37.5445 61.8643 37.5445C61.8643 37.5444 61.8643 37.5444 61.8643 37.5444C61.8643 37.5444 61.8643 37.5444 61.8643 37.5444C61.8643 37.5444 61.8643 37.5444 61.8643 37.5444C61.8643 37.5444 61.8643 37.5444 61.8643 37.5443L57.8643 37.5445ZM61.8643 37.5456C61.8643 37.5451 61.8643 37.5447 61.8643 37.5441L57.8643 37.5443C57.8643 37.5448 57.8643 37.5452 57.8643 37.5457L61.8643 37.5456ZM57.8643 22.4546C57.8643 22.4558 57.8643 22.4564 57.8643 22.4569L61.8643 22.457C61.8643 22.4564 61.8643 22.4558 61.8643 22.4546L57.8643 22.4546ZM61.8643 22.4583C61.8643 22.4583 61.8643 22.4582 61.8643 22.4582C61.8643 22.4582 61.8643 22.4582 61.8643 22.4582C61.8643 22.4582 61.8643 22.4582 61.8643 22.4582C61.8643 22.4582 61.8643 22.4582 61.8643 22.4582C61.8643 22.4582 61.8643 22.4581 61.8643 22.4581C61.8643 22.4581 61.8643 22.4581 61.8643 22.4581C61.8643 22.4579 59.8645 20.4581 57.8643 22.4574C57.8643 22.4576 57.8643 22.4578 57.8643 22.4579C57.8643 22.4579 57.8643 22.4579 57.8643 22.4579C57.8643 22.4579 57.8643 22.4579 57.8643 22.4579C57.8643 22.458 57.8643 22.458 57.8643 22.458C57.8643 22.458 57.8643 22.458 57.8643 22.458C57.8643 22.458 57.8643 22.4581 57.8643 22.4582C57.8643 22.4583 57.8643 22.4584 57.8643 22.4583C57.8643 22.4583 57.8643 22.4583 57.8643 22.4583C57.8643 22.4583 57.8643 22.4582 57.8643 22.458C57.8643 22.458 57.8643 22.458 57.8643 22.4579C57.8643 22.4578 57.8643 22.4577 57.8643 22.4575C57.8643 22.4573 57.8643 22.457 57.8643 22.4568C57.8643 22.4565 57.8643 22.4551 57.8643 22.4542C57.8643 22.4437 59.8737 20.4586 61.8643 22.4522C61.8643 22.454 61.8643 22.4563 61.8643 22.4568C61.8643 22.457 61.8643 22.4574 61.8643 22.4576C61.8643 22.4577 61.8643 22.4578 61.8643 22.4579C61.8643 22.458 61.8643 22.4581 61.8643 22.4582C61.8643 22.4583 61.8643 22.4583 61.8643 22.4584C61.8643 22.4584 61.8643 22.4585 61.8643 22.4585C61.8643 22.4585 61.8643 22.4585 61.8643 22.4585C61.8643 22.4586 61.8643 22.4585 61.8643 22.4585L57.8643 22.4583C57.8643 22.4584 57.8643 22.4584 57.8643 22.4585C57.8643 22.4585 57.8643 22.4585 57.8643 22.4586C57.8643 22.4586 57.8643 22.4586 57.8643 22.4587C57.8643 22.4587 57.8643 22.4588 57.8643 22.4589C57.8643 22.459 57.8643 22.4591 57.8643 22.4592C57.8643 22.4593 57.8643 22.4594 57.8643 22.4595C57.8643 22.4596 57.8643 22.46 57.8643 22.4603C57.8643 22.4608 57.8643 22.4631 57.8643 22.4649C59.8548 24.4585 61.8642 22.4733 61.8643 22.4629C61.8643 22.4619 61.8643 22.4606 61.8643 22.4602C61.8643 22.46 61.8643 22.4597 61.8643 22.4596C61.8643 22.4594 61.8643 22.4592 61.8643 22.4592C61.8643 22.4591 61.8643 22.4591 61.8643 22.459C61.8643 22.4589 61.8643 22.4588 61.8643 22.4588C61.8643 22.4588 61.8643 22.4587 61.8643 22.4587C61.8643 22.4586 61.8643 22.4585 61.8643 22.4584C61.8643 22.4584 61.8643 22.4583 61.8643 22.4582C61.8643 22.4582 61.8643 22.4582 61.8643 22.4582C61.8643 22.4582 61.8643 22.4582 61.8643 22.4582C61.8643 22.4582 61.8643 22.4583 61.8643 22.4583C61.8643 22.4583 61.8643 22.4583 61.8643 22.4583C61.8643 22.4583 61.8643 22.4586 61.8643 22.4588C59.864 24.4581 57.8643 22.4582 57.8643 22.4581C57.8643 22.4581 57.8643 22.4581 57.8643 22.458C57.8643 22.458 57.8643 22.458 57.8643 22.458C57.8643 22.458 57.8643 22.458 57.8643 22.458C57.8643 22.458 57.8643 22.458 57.8643 22.458C57.8643 22.458 57.8643 22.458 57.8643 22.458C57.8643 22.458 57.8643 22.458 57.8643 22.4581L61.8643 22.4583ZM57.8643 22.4569C57.8643 22.4574 57.8643 22.4578 57.8643 22.4583L61.8643 22.4585C61.8643 22.458 61.8643 22.4575 61.8643 22.457L57.8643 22.4569Z" fill="#082542" mask="url(#path-1-inside-1_28381_1289)"/>
</g>
<path d="M35.41 26.63C35.41 28.13 34.46 29.12 32.92 29.12C31.99 29.12 31.19 28.79 30.54 28.19C30.48 28.12 30.48 28.06 30.54 27.98L31.09 27.38C31.15 27.31 31.22 27.32 31.3 27.39C31.81 27.79 32.33 28 32.93 28C33.78 28 34.23 27.47 34.23 26.63C34.23 25.78 33.82 25.37 32.94 25.37C32.34 25.37 31.97 25.53 31.66 25.8C31.59 25.86 31.54 25.88 31.46 25.85L30.78 25.62C30.7 25.6 30.65 25.55 30.65 25.45L30.78 22C30.78 21.9 30.84 21.85 30.93 21.85H34.87C34.97 21.85 35.02 21.9 35.02 22V22.8C35.02 22.9 34.97 22.95 34.87 22.95H31.91L31.86 24.61C32.19 24.41 32.57 24.3 33.08 24.3C34.5 24.3 35.41 25.14 35.41 26.63ZM42.4903 28.08C41.9303 28.68 41.0603 29.12 39.9603 29.12C38.4903 29.12 37.1703 28.31 37.1703 26.56V24.28C37.1703 22.53 38.4403 21.73 39.8903 21.73C40.7403 21.73 41.6203 21.98 42.2903 22.4C42.3803 22.46 42.3903 22.54 42.3403 22.61L41.8403 23.3C41.7903 23.38 41.7203 23.38 41.6403 23.34C41.1203 23.03 40.5303 22.87 39.8803 22.87C39.0203 22.87 38.3803 23.33 38.3803 24.31V26.55C38.3803 27.54 39.1003 27.98 39.9603 27.98C40.5603 27.98 41.0603 27.79 41.3603 27.56V26.04H40.0203C39.9303 26.04 39.8803 25.99 39.8803 25.89V25.11C39.8803 25.01 39.9303 24.96 40.0203 24.96H42.4003C42.4903 24.96 42.5403 25.01 42.5403 25.11V27.92C42.5403 28 42.5303 28.05 42.4903 28.08ZM49.5535 23.81C49.5535 24.43 49.2935 24.94 48.8435 25.21C49.5135 25.5 49.8635 26.1 49.8635 26.86C49.8635 28.2 48.9535 29 47.4135 29H44.8135C44.7235 29 44.6735 28.95 44.6735 28.85V22C44.6735 21.9 44.7235 21.85 44.8135 21.85H47.4135C48.7635 21.85 49.5535 22.57 49.5535 23.81ZM45.8735 27.92H47.4035C48.1235 27.92 48.6335 27.62 48.6335 26.85C48.6335 26.22 48.2535 25.79 47.3935 25.79H45.8735V27.92ZM48.3335 23.83C48.3335 23.22 47.9235 22.93 47.3735 22.93H45.8735V24.74H47.3735C47.9335 24.74 48.3335 24.46 48.3335 23.83Z" fill="url(#paint1_linear_28381_1289)"/>
<path d="M42.0982 32H36.8692C36.3871 32 36 32.4075 36 32.915V39.3342C36 39.8417 36.3871 40.2492 36.8692 40.2492H42.9675C43.4496 40.2492 43.8367 39.8417 43.8367 39.3342V33.83L42.0982 32ZM38.6145 32.915H41.229V34.2946H38.6145V32.915ZM42.9742 39.3413H36.8692V32.915H37.7385V35.2096H42.0982V33.301L42.9742 34.216V39.3413ZM37.7453 36.1317H42.105V37.0467H37.7453V36.1317ZM37.7453 37.5042H42.105V38.4192H37.7453V37.5042Z" fill="#FFA500"/>
<defs>
<filter id="filter0_d_28381_1289" x="0.287109" y="0" width="79.5771" height="80" filterUnits="userSpaceOnUse" color-interpolation-filters="sRGB">
<feFlood flood-opacity="0" result="BackgroundImageFix"/>
<feColorMatrix in="SourceAlpha" type="matrix" values="0 0 0 0 0 0 0 0 0 0 0 0 0 0 0 0 0 0 127 0" result="hardAlpha"/>
<feOffset dy="10"/>
<feGaussianBlur stdDeviation="10"/>
<feColorMatrix type="matrix" values="0 0 0 0 0 0 0 0 0 0 0 0 0 0 0 0 0 0 0.2 0"/>
<feBlend mode="normal" in2="BackgroundImageFix" result="effect1_dropShadow_28381_1289"/>
<feBlend mode="normal" in="SourceGraphic" in2="effect1_dropShadow_28381_1289" result="shape"/>
</filter>
<linearGradient id="paint0_linear_28381_1289" x1="40.0757" y1="10" x2="40.0757" y2="50" gradientUnits="userSpaceOnUse">
<stop stop-color="#000C13"/>
<stop offset="1" stop-color="#00111C"/>
</linearGradient>
<linearGradient id="paint1_linear_28381_1289" x1="43" y1="20.5" x2="43" y2="29" gradientUnits="userSpaceOnUse">
<stop stop-color="#FDBC40"/>
<stop offset="1" stop-color="#FFA700"/>
</linearGradient>
</defs>
</svg>
