<svg width="18" height="18" viewBox="0 0 18 18" fill="none" xmlns="http://www.w3.org/2000/svg">
<g clip-path="url(#clip0_28382_1391)">
<path d="M3.68251 3.71191C2.28264 5.11558 1.49759 7.01777 1.50001 9.00016C1.50001 13.1424 4.85776 16.5002 9.00001 16.5002C10.982 16.5026 12.8839 15.7178 14.2875 14.3184" stroke="#FF1A14" stroke-width="1.2" stroke-linecap="round" stroke-linejoin="round"/>
<path d="M15.5834 12.5947C16.1865 11.4927 16.5017 10.2563 16.4999 9C16.4999 4.85775 13.1422 1.5 8.9999 1.5C7.6949 1.5 6.4679 1.833 5.3999 2.41875" stroke="#FF1A14" stroke-width="1.2" stroke-linecap="round" stroke-linejoin="round"/>
<path d="M5.25 11.2503V7.87533C5.24994 7.68586 5.29774 7.49944 5.38897 7.33337C5.48019 7.1673 5.61188 7.02696 5.77182 6.92537C5.93176 6.82378 6.11477 6.76423 6.30386 6.75225C6.49296 6.74027 6.68202 6.77624 6.8535 6.85683" stroke="#FF1A14" stroke-width="1.2" stroke-linecap="round" stroke-linejoin="round"/>
<path d="M7.39062 7.38965C7.46113 7.53665 7.50012 7.7009 7.50012 7.8749V11.2499" stroke="#FF1A14" stroke-width="1.2" stroke-linecap="round" stroke-linejoin="round"/>
<path d="M5.25 9.75H7.5" stroke="#FF1A14" stroke-width="1.2" stroke-linecap="round" stroke-linejoin="round"/>
<path d="M10.5 10.5V11.25H11.25" stroke="#FF1A14" stroke-width="1.2" stroke-linecap="round" stroke-linejoin="round"/>
<path d="M12.75 9.75V8.25C12.75 7.85218 12.592 7.47064 12.3107 7.18934C12.0294 6.90804 11.6478 6.75 11.25 6.75H10.5V7.5" stroke="#FF1A14" stroke-width="1.2" stroke-linecap="round" stroke-linejoin="round"/>
<path d="M2.25 2.25L15.75 15.75" stroke="#FF1A14" stroke-width="1.2" stroke-linecap="round" stroke-linejoin="round"/>
</g>
<defs>
<clipPath id="clip0_28382_1391">
<rect width="18" height="18" fill="white"/>
</clipPath>
</defs>
</svg>
