<svg width="19" height="18" viewBox="0 0 19 18" fill="none" xmlns="http://www.w3.org/2000/svg">
    <path
            d="M7.98585 3.23775C8.31032 1.92075 10.2129 1.92075 10.5374 3.23775C10.5861 3.4356 10.6815 3.61933 10.8159 3.774C10.9504 3.92867 11.12 4.04989 11.311 4.12781C11.502 4.20573 11.7089 4.23814 11.9151 4.2224C12.1212 4.20667 12.3206 4.14323 12.4971 4.03725C13.6724 3.33225 15.0182 4.65675 14.3022 5.81475C14.1948 5.98849 14.1305 6.18475 14.1145 6.38758C14.0986 6.59041 14.1315 6.79408 14.2105 6.98203C14.2895 7.16999 14.4125 7.33693 14.5694 7.46929C14.7263 7.60164 14.9127 7.69568 15.1134 7.74375C16.4509 8.06325 16.4509 9.93675 15.1134 10.2563C14.9125 10.3042 14.7259 10.3982 14.5688 10.5305C14.4118 10.6629 14.2887 10.8299 14.2095 11.018C14.1304 11.2061 14.0975 11.4099 14.1135 11.6128C14.1294 11.8158 14.1939 12.0122 14.3015 12.186C15.0174 13.3432 13.6724 14.6685 12.4964 13.9635C12.3199 13.8577 12.1206 13.7943 11.9146 13.7786C11.7087 13.7629 11.5018 13.7953 11.3109 13.8731C11.1201 13.951 10.9505 14.0721 10.8161 14.2265C10.6817 14.381 10.5862 14.5646 10.5374 14.7623C10.2129 16.0793 8.31032 16.0793 7.98585 14.7623C7.93717 14.5644 7.84173 14.3807 7.70731 14.226C7.57288 14.0713 7.40327 13.9501 7.21228 13.8722C7.02128 13.7943 6.8143 13.7619 6.60818 13.7776C6.40207 13.7933 6.20263 13.8568 6.02612 13.9628C4.85089 14.6678 3.50504 13.3432 4.221 12.1852C4.32847 12.0115 4.39279 11.8152 4.40873 11.6124C4.42468 11.4096 4.39179 11.2059 4.31276 11.018C4.23372 10.83 4.11076 10.6631 3.95387 10.5307C3.79697 10.3984 3.61058 10.3043 3.40984 10.2563C2.07237 9.93675 2.07237 8.06325 3.40984 7.74375C3.61076 7.69581 3.79735 7.60183 3.95442 7.46947C4.11149 7.3371 4.2346 7.17008 4.31373 6.98201C4.39286 6.79394 4.42577 6.59013 4.40979 6.38716C4.39381 6.1842 4.32938 5.98781 4.22176 5.814C3.5058 4.65675 4.85089 3.3315 6.02688 4.0365C6.78853 4.4925 7.77564 4.089 7.98585 3.23775Z"
            stroke="#35648E" stroke-width="1.5" stroke-linecap="round" stroke-linejoin="round" />
    <path
            d="M9.26152 11.25C10.5235 11.25 11.5465 10.2426 11.5465 9C11.5465 7.75736 10.5235 6.75 9.26152 6.75C7.99957 6.75 6.97656 7.75736 6.97656 9C6.97656 10.2426 7.99957 11.25 9.26152 11.25Z"
            stroke="#35648E" stroke-width="1.5" stroke-linecap="round" stroke-linejoin="round" />
</svg>