<svg width="14" height="13" viewBox="0 0 14 13" fill="none" xmlns="http://www.w3.org/2000/svg">
    <path
        d="M12.5867 4.53272L12.5871 4.53299C12.9408 4.7879 13.125 5.16084 13.125 5.53189V11.3765C13.125 11.5529 13.0501 11.7367 12.8923 11.883C12.7324 12.0314 12.5024 12.125 12.25 12.125H1.75C1.49763 12.125 1.26759 12.0314 1.10766 11.883C0.94995 11.7367 0.875 11.5529 0.875 11.3765L0.875 5.53189L0.875 5.53145C0.874906 5.34639 0.920236 5.16099 1.01102 4.9887C1.102 4.81604 1.23757 4.65884 1.41231 4.53277C1.41232 4.53276 1.41232 4.53276 1.41232 4.53276L6.07956 1.16562L6.0797 1.16553C6.33583 0.98067 6.65962 0.875 7 0.875C7.34038 0.875 7.66417 0.98067 7.9203 1.16553L7.92037 1.16558L12.5867 4.53272Z"
        stroke="#86BCED" stroke-width="1.75" />
</svg>
    
    