<svg width="52" height="55" viewBox="0 0 52 55" fill="none" xmlns="http://www.w3.org/2000/svg">
<rect y="0.337891" width="52" height="53.7391" rx="6" fill="url(#paint0_linear_15415_3685)"/>
<rect x="0.5" y="0.837891" width="51" height="52.7391" rx="5.5" stroke="white" stroke-opacity="0.02"/>
<g filter="url(#filter0_d_15415_3685)">
<path d="M26 35H26.0183" stroke="url(#paint1_linear_15415_3685)" stroke-width="2.75" stroke-linecap="round" stroke-linejoin="round"/>
<path d="M20.8154 29.8156C22.1906 28.4408 24.0556 27.6685 26.0001 27.6685C27.9446 27.6685 29.8096 28.4408 31.1848 29.8156" stroke="url(#paint2_linear_15415_3685)" stroke-width="2.75" stroke-linecap="round" stroke-linejoin="round"/>
<path d="M15.6289 24.629C16.9908 23.267 18.6077 22.1866 20.3872 21.4495C22.1667 20.7124 24.074 20.333 26.0001 20.333C27.9262 20.333 29.8334 20.7124 31.6129 21.4495C33.3924 22.1866 35.0093 23.267 36.3712 24.629" stroke="url(#paint3_linear_15415_3685)" stroke-width="2.75" stroke-linecap="round" stroke-linejoin="round"/>
</g>
<defs>
<filter id="filter0_d_15415_3685" x="-4" y="-2" width="60" height="60" filterUnits="userSpaceOnUse" color-interpolation-filters="sRGB">
<feFlood flood-opacity="0" result="BackgroundImageFix"/>
<feColorMatrix in="SourceAlpha" type="matrix" values="0 0 0 0 0 0 0 0 0 0 0 0 0 0 0 0 0 0 127 0" result="hardAlpha"/>
<feOffset dy="4"/>
<feGaussianBlur stdDeviation="4"/>
<feComposite in2="hardAlpha" operator="out"/>
<feColorMatrix type="matrix" values="0 0 0 0 0.2 0 0 0 0 0 0 0 0 0 1 0 0 0 1 0"/>
<feBlend mode="normal" in2="BackgroundImageFix" result="effect1_dropShadow_15415_3685"/>
<feBlend mode="normal" in="SourceGraphic" in2="effect1_dropShadow_15415_3685" result="shape"/>
</filter>
<linearGradient id="paint0_linear_15415_3685" x1="26" y1="0.337891" x2="26" y2="54.077" gradientUnits="userSpaceOnUse">
<stop stop-color="#0A141A"/>
<stop offset="1" stop-color="#000E15"/>
</linearGradient>
<linearGradient id="paint1_linear_15415_3685" x1="26.0092" y1="35" x2="26.0092" y2="36" gradientUnits="userSpaceOnUse">
<stop stop-color="#00B2FF"/>
<stop offset="1" stop-color="#0085FF"/>
</linearGradient>
<linearGradient id="paint2_linear_15415_3685" x1="26.0001" y1="27.6685" x2="26.0001" y2="29.8156" gradientUnits="userSpaceOnUse">
<stop stop-color="#00B2FF"/>
<stop offset="1" stop-color="#0085FF"/>
</linearGradient>
<linearGradient id="paint3_linear_15415_3685" x1="26.0001" y1="20.333" x2="26.0001" y2="24.629" gradientUnits="userSpaceOnUse">
<stop stop-color="#00B2FF"/>
<stop offset="1" stop-color="#0085FF"/>
</linearGradient>
</defs>
</svg>
