<svg width="24" height="24" viewBox="0 0 24 24" fill="none" xmlns="http://www.w3.org/2000/svg">
    <g clip-path="url(#clip0_23001_5)">
    <path d="M14.4275 4.94136C14.759 4.93846 15.0781 5.06738 15.3145 5.29975L18.7729 8.69829C19.0094 8.93066 19.1438 9.24744 19.1467 9.57894L19.1891 14.4275C19.1919 14.759 19.063 15.0781 18.8307 15.3146L15.4321 18.773C15.1998 19.0094 14.883 19.1439 14.5515 19.1468L9.70289 19.1891C9.37138 19.192 9.0523 19.0631 8.81584 18.8307L5.35746 15.4321C5.121 15.1998 4.98654 14.883 4.98364 14.5515L4.94133 9.70291C4.93844 9.3714 5.06735 9.05233 5.29972 8.81587L8.69826 5.35749C8.93063 5.12103 9.24741 4.98656 9.57892 4.98367L14.4275 4.94136Z" stroke="url(#paint0_linear_23001_5)" stroke-width="1.5"/>
    </g>
    <defs>
    <linearGradient id="paint0_linear_23001_5" x1="15.2493" y1="4.18416" x2="8.88104" y2="19.9463" gradientUnits="userSpaceOnUse">
    <stop stop-color="#13D5FF"/>
    <stop offset="1" stop-color="#0085FF"/>
    </linearGradient>
    <clipPath id="clip0_23001_5">
    <rect width="24" height="24" fill="white"/>
    </clipPath>
    </defs>
    </svg>
    