<svg width="22" height="22" viewBox="0 0 22 22" fill="none" xmlns="http://www.w3.org/2000/svg">
<g clip-path="url(#clip0_28382_1401)">
<path d="M10.9998 11.4587C11.253 11.4587 11.4582 11.2535 11.4582 11.0003C11.4582 10.7472 11.253 10.542 10.9998 10.542C10.7467 10.542 10.5415 10.7472 10.5415 11.0003C10.5415 11.2535 10.7467 11.4587 10.9998 11.4587Z" fill="black" stroke="#FF1A14" stroke-width="1.2" stroke-linecap="round" stroke-linejoin="round"/>
<path d="M4.5835 10.9997C4.5835 11.8423 4.74947 12.6767 5.07194 13.4552C5.3944 14.2337 5.86705 14.9411 6.46289 15.5369C7.05874 16.1328 7.7661 16.6054 8.54461 16.9279C9.32312 17.2504 10.1575 17.4163 11.0002 17.4163C11.8428 17.4163 12.6772 17.2504 13.4557 16.9279C14.2342 16.6054 14.9416 16.1328 15.5374 15.5369C16.1333 14.9411 16.6059 14.2337 16.9284 13.4552C17.2509 12.6767 17.4168 11.8423 17.4168 10.9997C17.4168 10.157 17.2509 9.32263 16.9284 8.54412C16.6059 7.76562 16.1333 7.05825 15.5374 6.46241C14.9416 5.86656 14.2342 5.39391 13.4557 5.07145C12.6772 4.74898 11.8428 4.58301 11.0002 4.58301C10.1575 4.58301 9.32312 4.74898 8.54461 5.07145C7.7661 5.39391 7.05874 5.86656 6.46289 6.46241C5.86705 7.05825 5.3944 7.76562 5.07194 8.54412C4.74947 9.32263 4.5835 10.157 4.5835 10.9997Z" stroke="#FF1A14" stroke-width="1.2" stroke-linecap="round" stroke-linejoin="round"/>
<path d="M11 2.75V4.58333" stroke="#FF1A14" stroke-width="1.2" stroke-linecap="round" stroke-linejoin="round"/>
<path d="M2.75 11H4.58333" stroke="#FF1A14" stroke-width="1.2" stroke-linecap="round" stroke-linejoin="round"/>
<path d="M11 17.417V19.2503" stroke="#FF1A14" stroke-width="1.2" stroke-linecap="round" stroke-linejoin="round"/>
<path d="M17.4165 11H19.2498" stroke="#FF1A14" stroke-width="1.2" stroke-linecap="round" stroke-linejoin="round"/>
</g>
<defs>
<clipPath id="clip0_28382_1401">
<rect width="22" height="22" fill="white"/>
</clipPath>
</defs>
</svg>
