<svg xmlns="http://www.w3.org/2000/svg" width="22" height="22" viewBox="0 0 22 22" fill="none">
    <g clip-path="url(#clip0_36428_2421)">
        <path
            d="M8.25 12.8334C8.25 14.3523 10.7122 15.5834 13.75 15.5834C16.7878 15.5834 19.25 14.3523 19.25 12.8334C19.25 11.3145 16.7878 10.0834 13.75 10.0834C10.7122 10.0834 8.25 11.3145 8.25 12.8334Z"
            stroke="url(#paint0_linear_36428_2421)" stroke-width="1.5" stroke-linecap="round"
            stroke-linejoin="round" />
        <path
            d="M8.25 12.8334V16.5C8.25 18.018 10.7122 19.25 13.75 19.25C16.7878 19.25 19.25 18.018 19.25 16.5V12.8334"
            stroke="url(#paint1_linear_36428_2421)" stroke-width="1.5" stroke-linecap="round"
            stroke-linejoin="round" />
        <path
            d="M2.75 5.5C2.75 6.48267 3.79867 7.39017 5.5 7.8815C7.20133 8.37283 9.29867 8.37283 11 7.8815C12.7013 7.39017 13.75 6.48267 13.75 5.5C13.75 4.51733 12.7013 3.60983 11 3.1185C9.29867 2.62717 7.20133 2.62717 5.5 3.1185C3.79867 3.60983 2.75 4.51733 2.75 5.5Z"
            stroke="url(#paint2_linear_36428_2421)" stroke-width="1.5" stroke-linecap="round"
            stroke-linejoin="round" />
        <path d="M2.75 5.5V14.6667C2.75 15.4807 3.45767 15.9958 4.58333 16.5"
            stroke="url(#paint3_linear_36428_2421)" stroke-width="1.5" stroke-linecap="round"
            stroke-linejoin="round" />
        <path d="M2.75 10.0834C2.75 10.8974 3.45767 11.4125 4.58333 11.9167"
            stroke="url(#paint4_linear_36428_2421)" stroke-width="1.5" stroke-linecap="round"
            stroke-linejoin="round" />
    </g>
    <defs>
        <linearGradient id="paint0_linear_36428_2421" x1="13.75" y1="10.0834" x2="13.75"
            y2="15.5834" gradientUnits="userSpaceOnUse">
            <stop stop-color="#13D5FF" />
            <stop offset="1" stop-color="#0085FF" />
        </linearGradient>
        <linearGradient id="paint1_linear_36428_2421" x1="13.75" y1="12.8334" x2="13.75" y2="19.25"
            gradientUnits="userSpaceOnUse">
            <stop stop-color="#13D5FF" />
            <stop offset="1" stop-color="#0085FF" />
        </linearGradient>
        <linearGradient id="paint2_linear_36428_2421" x1="8.25" y1="2.75" x2="8.25" y2="8.25"
            gradientUnits="userSpaceOnUse">
            <stop stop-color="#13D5FF" />
            <stop offset="1" stop-color="#0085FF" />
        </linearGradient>
        <linearGradient id="paint3_linear_36428_2421" x1="3.66667" y1="5.5" x2="3.66667" y2="16.5"
            gradientUnits="userSpaceOnUse">
            <stop stop-color="#13D5FF" />
            <stop offset="1" stop-color="#0085FF" />
        </linearGradient>
        <linearGradient id="paint4_linear_36428_2421" x1="3.66667" y1="10.0834" x2="3.66667"
            y2="11.9167" gradientUnits="userSpaceOnUse">
            <stop stop-color="#13D5FF" />
            <stop offset="1" stop-color="#0085FF" />
        </linearGradient>
        <clipPath id="clip0_36428_2421">
            <rect width="22" height="22" fill="white" />
        </clipPath>
    </defs>
</svg>