<svg width="19" height="19" viewBox="0 0 19 19" fill="none" xmlns="http://www.w3.org/2000/svg">
    <path
        d="M2.375 13.4583C2.375 13.2483 2.45841 13.047 2.60687 12.8985C2.75534 12.75 2.9567 12.6666 3.16667 12.6666H5.54167C5.75163 12.6666 5.95299 12.75 6.10146 12.8985C6.24993 13.047 6.33333 13.2483 6.33333 13.4583V15.8333C6.33333 16.0433 6.24993 16.2446 6.10146 16.3931C5.95299 16.5416 5.75163 16.625 5.54167 16.625H3.16667C2.9567 16.625 2.75534 16.5416 2.60687 16.3931C2.45841 16.2446 2.375 16.0433 2.375 15.8333V13.4583Z"
        stroke="url(#paint0_linear_38635_312)" stroke-width="2" stroke-linecap="round"
        stroke-linejoin="round" />
    <path
        d="M3.16699 9.50008V4.75008C3.16699 4.33016 3.33381 3.92743 3.63074 3.6305C3.92767 3.33356 4.3304 3.16675 4.75033 3.16675H14.2503C14.6703 3.16675 15.073 3.33356 15.3699 3.6305C15.6668 3.92743 15.8337 4.33016 15.8337 4.75008V14.2501C15.8337 14.67 15.6668 15.0727 15.3699 15.3697C15.073 15.6666 14.6703 15.8334 14.2503 15.8334H9.50032"
        stroke="url(#paint1_linear_38635_312)" stroke-width="2" stroke-linecap="round"
        stroke-linejoin="round" />
    <path d="M9.5 6.33325H12.6667V9.49992" stroke="url(#paint2_linear_38635_312)" stroke-width="2"
        stroke-linecap="round" stroke-linejoin="round" />
    <path d="M12.6663 6.33325L8.70801 10.2916" stroke="url(#paint3_linear_38635_312)"
        stroke-width="2" stroke-linecap="round" stroke-linejoin="round" />
    <defs>
        <linearGradient id="paint0_linear_38635_312" x1="4.35417" y1="12.6666" x2="4.35417"
            y2="16.625" gradientUnits="userSpaceOnUse">
            <stop stop-color="#13D5FF" />
            <stop offset="1" stop-color="#0085FF" />
        </linearGradient>
        <linearGradient id="paint1_linear_38635_312" x1="9.50032" y1="3.16675" x2="9.50032"
            y2="15.8334" gradientUnits="userSpaceOnUse">
            <stop stop-color="#13D5FF" />
            <stop offset="1" stop-color="#0085FF" />
        </linearGradient>
        <linearGradient id="paint2_linear_38635_312" x1="11.0833" y1="6.33325" x2="11.0833"
            y2="9.49992" gradientUnits="userSpaceOnUse">
            <stop stop-color="#13D5FF" />
            <stop offset="1" stop-color="#0085FF" />
        </linearGradient>
        <linearGradient id="paint3_linear_38635_312" x1="10.6872" y1="6.33325" x2="10.6872"
            y2="10.2916" gradientUnits="userSpaceOnUse">
            <stop stop-color="#13D5FF" />
            <stop offset="1" stop-color="#0085FF" />
        </linearGradient>
    </defs>
</svg>