<svg width="11" height="13" viewBox="0 0 11 13" fill="none" xmlns="http://www.w3.org/2000/svg">
<path d="M9.10687 0.75465C8.13352 0.268032 6.85258 0 5.49997 0C4.14728 0 2.8663 0.268032 1.89298 0.754689C0.789493 1.30643 0.181763 2.08772 0.181763 2.95458V5.31821V7.68176V10.0454C0.181763 10.9123 0.789493 11.6936 1.89298 12.2453C2.8663 12.732 4.14724 13 5.49997 13C6.85258 13 8.13352 12.7319 9.10683 12.2453C10.2104 11.6935 10.8182 10.9123 10.8182 10.0454V7.68176V5.31821V2.95458C10.8182 2.08772 10.2104 1.30643 9.10687 0.75465ZM9.63624 7.6818C9.63624 8.51855 7.86734 9.45444 5.50001 9.45444C3.13267 9.45444 1.36377 8.51855 1.36377 7.6818V7.21039C1.52496 7.31932 1.70131 7.42227 1.89302 7.51813C2.86634 8.00479 4.14732 8.27278 5.50001 8.27278C6.85262 8.27278 8.13356 8.00475 9.10687 7.51813C9.29863 7.42227 9.47502 7.31932 9.63624 7.21035V7.6818ZM9.63624 5.31821C9.63624 6.15492 7.86734 7.09077 5.50001 7.09077C3.13267 7.09077 1.36377 6.15492 1.36377 5.31821V4.84676C1.52496 4.95573 1.70131 5.05864 1.89302 5.15446C2.86634 5.64116 4.14732 5.90915 5.50001 5.90915C6.85262 5.90915 8.13356 5.64112 9.10691 5.15446C9.29867 5.05857 9.47506 4.95566 9.63624 4.84668V5.31821ZM5.49997 1.18197C7.8673 1.18197 9.6362 2.11782 9.6362 2.95458C9.6362 3.79137 7.8673 4.72722 5.49997 4.72722C3.13263 4.72722 1.36373 3.79137 1.36373 2.95458C1.36373 2.11782 3.13263 1.18197 5.49997 1.18197ZM5.49997 11.818C3.13263 11.818 1.36373 10.8822 1.36373 10.0454V9.57398C1.52492 9.68295 1.70127 9.78586 1.89298 9.88172C2.8663 10.3684 4.14728 10.6364 5.49997 10.6364C6.85258 10.6364 8.13352 10.3684 9.10683 9.88172C9.29859 9.78582 9.47498 9.68291 9.6362 9.57394V10.0454C9.63624 10.8822 7.86734 11.818 5.49997 11.818Z" fill="url(#paint0_linear_28904_3750)"/>
<defs>
<linearGradient id="paint0_linear_28904_3750" x1="5.49997" y1="0" x2="5.49997" y2="13" gradientUnits="userSpaceOnUse">
<stop stop-color="#FDBC40"/>
<stop offset="1" stop-color="#FF612F"/>
</linearGradient>
</defs>
</svg>
